<?xml version="1.0" encoding="utf-8"?>
<!-- Generator: Adobe Illustrator 19.2.0, SVG Export Plug-In . SVG Version: 6.00 Build 0)  -->
<svg version="1.1" id="Layer_1" xmlns="http://www.w3.org/2000/svg" xmlns:xlink="http://www.w3.org/1999/xlink" x="0px" y="0px"
	 viewBox="0 0 20 20" style="enable-background:new 0 0 20 20;" xml:space="preserve">
<style type="text/css">
	.st0{fill:#FFFFFF;}
	.st1{fill:none;}
	.st2{fill:#D62E2A;}
	.st3{fill:#E85449;}
	.st4{fill:#4C8257;}
	.st5{fill:#48B87B;}
	.st6{fill:#479CBA;}
	.st7{fill:#6DCAE3;}
	.st8{fill:#404B8C;}
	.st9{fill:#7986C4;}
</style>
<g>
	<circle class="st0" cx="10" cy="10" r="9.7"/>
	<g>
		<path class="st1" d="M10.4,10.6v1.1c0.9-0.8,1.7-1.5,1.5-2.8c-0.2-1.1-1-1.4-1.5-1.9v0.7C10.9,8.6,11.5,9.6,10.4,10.6z"/>
		<path class="st2" d="M10.4,7.7v3C11.5,9.6,10.9,8.6,10.4,7.7z"/>
		<path class="st2" d="M18.2,10c0-4.4-3.4-8-7.8-8.2v0.7c3.9,0.2,7.1,3.5,7.1,7.5c0,2.5-1.3,4.8-3.2,6.1c3.3-4.8,0-5.5,0-7.4
			c-1.4,1.7,1.4,3.7-3,4.3c2-2.3,1.9-4.5,0.9-6c-0.5-0.7-1.2-1-1.8-1.3V7C11,7.5,11.7,7.9,11.9,9c0.2,1.3-0.6,2-1.5,2.8v6.5
			C14.8,18,18.2,14.4,18.2,10z"/>
		<path class="st3" d="M8.7,15.8c-1.8-1.4-1.1-3.3,1-4.6c0.3-0.2,0.5-0.4,0.7-0.6v-3C10.1,7.1,9.8,6.6,10,6.2
			c0.1,0.3,0.2,0.6,0.4,0.8V5.7C9.7,5.4,9.1,5,9,3.8c-1.5,2,0.1,1.8,0.3,3.6c0.2,1.3-0.6,2.2-1.6,2.8c0-0.3,0.6-1.3-0.2-2.2
			C7.2,9.2,5.7,10,5,11c-1,1.5-0.6,3.8,0.6,5.1c-1.9-1.4-3.1-3.6-3.1-6.1c0-4.1,3.4-7.5,7.5-7.5c0.1,0,0.3,0,0.4,0V1.8
			c-0.1,0-0.3,0-0.4,0c-4.5,0-8.2,3.7-8.2,8.2s3.7,8.2,8.2,8.2c0.1,0,0.3,0,0.4,0v-6.5C9.3,12.6,8.1,13.6,8.7,15.8z"/>
	</g>
</g>
</svg>
