<?xml version="1.0" encoding="utf-8"?>
<!-- Generator: Adobe Illustrator 19.2.0, SVG Export Plug-In . SVG Version: 6.00 Build 0)  -->
<svg version="1.1" id="Layer_1" xmlns="http://www.w3.org/2000/svg" xmlns:xlink="http://www.w3.org/1999/xlink" x="0px" y="0px"
	 viewBox="0 0 20 20" style="enable-background:new 0 0 20 20;" xml:space="preserve">
<style type="text/css">
	.st0{fill:#FFFFFF;}
	.st1{fill:none;}
	.st2{fill:#D62E2A;}
	.st3{fill:#E85449;}
	.st4{fill:#4C8257;}
	.st5{fill:#48B87B;}
	.st6{fill:#479CBA;}
	.st7{fill:#6DCAE3;}
	.st8{fill:#404B8C;}
	.st9{fill:#7986C4;}
</style>
<g>
	<g>
		<circle class="st0" cx="10" cy="10" r="9.7"/>
	</g>
	<g>
		<path class="st1" d="M10.6,3.7c0.7,0,1.5,0.1,2.2,0.3c1.3,0.3,2.5,0.9,3.5,1.6c-1.2-1.7-3.1-3-5.3-3.3c-0.3,0-0.5-0.1-0.8-0.1v1.4
			C10.3,3.7,10.5,3.7,10.6,3.7z"/>
		<path class="st1" d="M10.2,9.8v0.2C10.2,10,10.2,9.9,10.2,9.8z"/>
		<path class="st1" d="M15.7,9.5c-0.3-0.2-0.6-0.4-0.9-0.6c-0.2-0.1-0.3-0.2-0.5-0.3c-0.2-0.1-0.3-0.2-0.5-0.3
			c-0.6-0.4-1.3-0.7-2.1-0.9c-0.5-0.1-1.1-0.2-1.6-0.2V9c0.1,0.1,0.2,0.2,0.3,0.4c0.2,0.3,0.2,0.7,0,1.1c-0.1,0.2-0.2,0.4-0.3,0.5
			c0,0,0,0,0,0v1.1c0.2-0.2,0.4-0.4,0.6-0.6c0.3-0.5,0.5-0.9,0.5-1.2c0-0.2,0-0.3,0-0.3c0,0,0-0.1,0-0.1c0,0,0,0,0,0s0,0,0,0
			c0,0,0,0,0,0.1c0,0.1,0.1,0.2,0.1,0.4c0,0.3,0,0.8-0.3,1.4c-0.1,0.3-0.3,0.6-0.6,0.9c-0.1,0.1-0.2,0.2-0.3,0.3v4.8
			c3.3-0.1,6.1-2.2,7.1-5.4l0.3-1.2l0-0.2c0,0,0,0,0,0c-0.1-0.1-0.2-0.2-0.4-0.3C16.8,10.3,16.3,9.9,15.7,9.5z"/>
		<path class="st1" d="M15.7,7.3c-1.1-0.7-2.2-1.2-3.4-1.5c-0.6-0.2-1.2-0.2-1.8-0.3c-0.1,0-0.3,0-0.4,0v1c0.2,0,0.4,0,0.6,0
			c0.4,0,0.9,0.1,1.3,0.2c0.8,0.2,1.5,0.6,2.2,1c0.2,0.1,0.3,0.2,0.5,0.3c0.2,0.1,0.3,0.2,0.5,0.3c0.3,0.2,0.6,0.4,0.9,0.7
			c0.3,0.2,0.5,0.4,0.8,0.7c0.2,0.2,0.5,0.4,0.7,0.6c0,0,0.1,0.1,0.1,0.1c0-0.6,0-1.3-0.1-1.9c-0.1-0.1-0.2-0.2-0.3-0.3
			C16.8,8,16.3,7.6,15.7,7.3z"/>
		<path class="st6" d="M10.6,3.7c-0.1,0-0.3,0-0.4,0v1.7c0.1,0,0.3,0,0.4,0c0.6,0,1.2,0.1,1.8,0.3c1.2,0.3,2.3,0.8,3.4,1.5
			c0.5,0.3,1,0.7,1.5,1.1c0.1,0.1,0.2,0.2,0.3,0.3c-0.2-1.1-0.6-2.1-1.2-3c-1.1-0.7-2.2-1.2-3.5-1.6C12.1,3.9,11.4,3.8,10.6,3.7z"/>
		<path class="st6" d="M10.5,12.6c0.3-0.3,0.4-0.6,0.6-0.9c0.3-0.6,0.3-1.1,0.3-1.4c0-0.2-0.1-0.3-0.1-0.4c0,0,0-0.1,0-0.1
			c0,0,0,0,0,0s0,0,0,0c0,0,0,0,0,0.1c0,0.1,0,0.2,0,0.3c0,0.3-0.1,0.7-0.5,1.2c-0.2,0.2-0.4,0.4-0.6,0.6v0.7
			C10.3,12.8,10.4,12.7,10.5,12.6z"/>
		<path class="st6" d="M10.2,10.1v1c0,0,0,0,0,0c0.1-0.1,0.2-0.3,0.3-0.5c0.1-0.4,0.1-0.8,0-1.1c-0.1-0.2-0.2-0.3-0.3-0.4v0.8
			C10.2,9.9,10.2,10,10.2,10.1z"/>
		<path class="st6" d="M16.8,9.7c-0.2-0.2-0.5-0.4-0.8-0.7c-0.3-0.2-0.6-0.4-0.9-0.7c-0.1-0.1-0.3-0.2-0.5-0.3
			c-0.2-0.1-0.3-0.2-0.5-0.3c-0.7-0.4-1.4-0.8-2.2-1c-0.4-0.1-0.8-0.2-1.3-0.2c-0.2,0-0.4,0-0.6,0v0.7c0.5,0,1.1,0,1.6,0.2
			c0.7,0.2,1.4,0.5,2.1,0.9c0.2,0.1,0.3,0.2,0.5,0.3c0.2,0.1,0.3,0.2,0.5,0.3c0.3,0.2,0.6,0.4,0.9,0.6c0.6,0.4,1.1,0.8,1.6,1.2
			c0.1,0.1,0.2,0.2,0.4,0.3c0-0.1,0-0.2,0-0.2c0-0.1,0-0.2,0-0.2c0,0-0.1-0.1-0.1-0.1C17.3,10.2,17.1,9.9,16.8,9.7z"/>
		<path class="st6" d="M18.4,9.3c-0.1-0.9-0.3-1.9-0.7-2.7c-1.2-2.6-3.6-4.6-6.6-5c-0.3,0-0.6-0.1-0.9-0.1v0.7c0.3,0,0.5,0,0.8,0.1
			c2.2,0.3,4.1,1.5,5.3,3.3c0.6,0.9,1,1.9,1.2,3c0.1,0.6,0.2,1.2,0.1,1.9c0,0.1,0,0.2,0,0.2c0,0.1,0,0.2,0,0.2c0,0,0,0,0,0l0,0.2
			l-0.3,1.2c-1,3.2-3.9,5.3-7.1,5.4v0.7c3.9-0.1,7.3-2.9,8.1-6.8c0-0.1,0-0.2,0.1-0.3c0-0.1,0-0.2,0-0.2
			C18.4,10.5,18.5,9.9,18.4,9.3z"/>
		<path class="st7" d="M10.2,12.2c-0.3,0.2-0.6,0.4-0.9,0.5c-0.3,0.1-0.7,0.2-1.1,0.1c-0.4-0.1-0.8-0.2-1.2-0.4
			c-0.4-0.2-0.7-0.5-1-0.9c-0.1-0.2-0.2-0.4-0.3-0.6c-0.1-0.2-0.2-0.4-0.2-0.7c-0.1-0.5-0.1-1,0-1.5c0.1-0.5,0.3-1,0.6-1.4
			c0.3-0.4,0.7-0.8,1.2-1.1c0.5-0.3,1-0.5,1.5-0.6l0.2,0l0.2,0l0.2,0l0.2,0l0.2,0l0.2,0c0,0,0,0,0.1,0V3.7c0,0-0.1,0-0.1,0l-0.3,0
			l-0.2,0l-0.3,0L9,3.9L8.7,3.9L8.4,4C7.7,4.1,7,4.4,6.4,4.9C6.1,5.1,5.8,5.3,5.5,5.6C5.3,5.8,5,6.1,4.9,6.4c-0.8,1.2-1,2.8-0.6,4
			c0.2,0.6,0.5,1.2,0.9,1.7C5.5,12.7,6,13,6.5,13.3c0.5,0.2,1.1,0.4,1.6,0.4c0.5,0,1-0.1,1.4-0.3c0.3-0.1,0.5-0.3,0.7-0.4L10.2,12.2
			C10.2,12.2,10.2,12.2,10.2,12.2z"/>
		<path class="st7" d="M8.2,7.2C8.1,7.3,7.9,7.5,7.8,7.7C7.6,7.8,7.5,8,7.4,8.2C7.1,8.6,7,9,7,9.5c0,0.2,0,0.5,0.1,0.7
			c0.1,0.2,0.2,0.4,0.3,0.6c0.3,0.3,0.7,0.6,1.1,0.7c0.2,0.1,0.4,0.1,0.6,0.1c0.1,0,0.1,0,0.2,0l0,0l0,0l0.1,0
			c0.1,0,0.2-0.1,0.3-0.1c0.2-0.1,0.3-0.2,0.5-0.3v-1c0,0.1,0,0.2-0.1,0.3c-0.1,0.2-0.3,0.5-0.6,0.6c-0.1,0-0.1,0-0.2,0.1l-0.1,0
			l0,0c0,0,0,0,0,0l0,0l0,0c0,0-0.1,0-0.1,0c-0.1,0-0.3,0-0.4-0.1c-0.3-0.1-0.6-0.3-0.8-0.6c-0.2-0.3-0.3-0.6-0.3-0.9
			c0-0.3,0.1-0.6,0.3-0.9C8,8.4,8.2,8.3,8.3,8.1C8.4,8,8.5,7.9,8.7,7.8c0.3-0.2,0.6-0.4,1-0.4c0.2,0,0.4-0.1,0.6-0.1V6.5
			c-0.2,0-0.5,0-0.7,0.1C9,6.7,8.6,6.9,8.2,7.2z"/>
		<path class="st7" d="M10.2,9L10.2,9C10.1,8.9,10,8.9,10,8.9c-0.1,0-0.1-0.1-0.2-0.1c-0.3-0.1-0.6-0.1-0.9,0
			C8.6,8.9,8.5,9.1,8.4,9.3c0,0.1-0.1,0.2-0.1,0.3c0,0.1,0,0.2,0.1,0.3c0.1,0.2,0.2,0.3,0.4,0.3c0.1,0,0.3,0,0.4-0.1
			c0.1-0.1,0.1-0.1,0.2-0.1c0,0,0-0.1,0-0.1s0,0-0.1,0.1c0,0-0.1,0.1-0.2,0.1c-0.1,0-0.2,0.1-0.3,0c-0.1,0-0.2-0.1-0.3-0.3
			c0-0.1,0-0.2,0-0.3c0-0.1,0-0.2,0.1-0.3C8.6,9.2,8.8,9.1,9,9C9.2,9,9.4,9,9.7,9.1c0.1,0,0.1,0.1,0.2,0.1c0,0,0,0,0.1,0.1l0,0l0,0
			c0.1,0.1,0.2,0.2,0.2,0.3c0,0.1,0,0.2,0.1,0.2L10.2,9C10.2,9,10.2,9,10.2,9L10.2,9z"/>
		<path class="st7" d="M9,17.6C4.8,17.1,1.8,13.2,2.4,9c0.5-4,3.9-6.8,7.8-6.7V1.6c-4.3-0.1-8,3-8.6,7.4c-0.6,4.6,2.7,8.9,7.3,9.5
			c0.4,0.1,0.9,0.1,1.3,0.1v-0.7C9.8,17.7,9.4,17.7,9,17.6z"/>
	</g>
</g>
</svg>
