<?xml version="1.0" encoding="utf-8"?>
<!-- Generator: Adobe Illustrator 19.2.0, SVG Export Plug-In . SVG Version: 6.00 Build 0)  -->
<svg version="1.1" id="Layer_1" xmlns="http://www.w3.org/2000/svg" xmlns:xlink="http://www.w3.org/1999/xlink" x="0px" y="0px"
	 viewBox="0 0 20 20" style="enable-background:new 0 0 20 20;" xml:space="preserve">
<style type="text/css">
	.st0{fill:#FFFFFF;}
	.st1{fill:none;}
	.st2{fill:#D62E2A;}
	.st3{fill:#E85449;}
	.st4{fill:#4C8257;}
	.st5{fill:#48B87B;}
	.st6{fill:#479CBA;}
	.st7{fill:#6DCAE3;}
	.st8{fill:#404B8C;}
	.st9{fill:#7986C4;}
</style>
<g>
	<g>
		<circle class="st0" cx="10" cy="10" r="9.7"/>
	</g>
	<g>
		<path class="st4" d="M15.8,13.7c1.5-2.7,0.1-5.3-2.3-4.7c3.5,2.4-1.5,5.4-3.5,7.5v0.8C10.9,16.9,14.5,15.9,15.8,13.7z"/>
		<path class="st4" d="M10.2,3C12,5.1,11,7.3,9.9,9.1v2.3c0.9-1.9,2.3-3.6,1.8-5.8c1,3.3-0.8,5.1-1.8,7.1v3.2
			C11.2,12.6,16.4,5.6,10.2,3z"/>
		<path class="st4" d="M10,1.9C10,1.9,10,1.9,10,1.9L9.9,2.6c0,0,0,0,0.1,0c4.1,0,7.4,3.3,7.4,7.4s-3.3,7.4-7.4,7.4c0,0,0,0-0.1,0
			v0.7c0,0,0,0,0.1,0c4.5,0,8.1-3.6,8.1-8.1C18.1,5.5,14.5,1.9,10,1.9z"/>
		<path class="st5" d="M9.7,17.4c0,0,0.1-0.1,0.3-0.1v-0.8c-0.1,0.1-0.2,0.2-0.3,0.3c0-0.3,0.1-0.5,0.3-0.9v-3.2
			c-0.5,1-0.8,2.1-0.6,3.4c-0.6-1.8-0.1-3.3,0.6-4.7V9.1c-0.5,0.9-1.1,1.7-1.4,2.4c-0.6,1.3-0.1,3.8,0.6,5.2c-1-1.8-3.4-3.2-3.4-6.3
			c0-1.4,0.8-3.8,0.8-4.9c-5.2,4.2-2.4,9.5,2.1,11.7c-3.5-0.6-6.1-3.6-6.1-7.3c0-4.1,3.3-7.4,7.3-7.4V1.9c-4.4,0-8,3.6-8,8.1
			c0,4.4,3.6,8.1,8,8.1v-0.7C9.8,17.4,9.8,17.4,9.7,17.4z"/>
	</g>
</g>
</svg>
