<?xml version="1.0" encoding="utf-8"?>
<!-- Generator: Adobe Illustrator 19.2.0, SVG Export Plug-In . SVG Version: 6.00 Build 0)  -->
<svg version="1.1" id="Layer_1" xmlns="http://www.w3.org/2000/svg" xmlns:xlink="http://www.w3.org/1999/xlink" x="0px" y="0px"
	 viewBox="0 0 20 20" style="enable-background:new 0 0 20 20;" xml:space="preserve">
<style type="text/css">
	.st0{fill:#FFFFFF;}
	.st1{fill:none;}
	.st2{fill:#D62E2A;}
	.st3{fill:#E85449;}
	.st4{fill:#4C8257;}
	.st5{fill:#48B87B;}
	.st6{fill:#479CBA;}
	.st7{fill:#6DCAE3;}
	.st8{fill:#404B8C;}
	.st9{fill:#7986C4;}
</style>
<g>
	<g>
		<circle class="st0" cx="10" cy="10" r="9.7"/>
	</g>
	<g>
		<path class="st8" d="M10,1.7C10,1.7,9.9,1.7,10,1.7L9.9,2.4c0,0,0.1,0,0.1,0c0.2,0,0.5,0,0.7,0c-0.3,0.1-0.6,0.3-0.8,0.4v2.2
			c1.7-3.5,9.9,1.6,6,6.3c-1.2,1.4-3.8,0.8-2.9-1c0.3-0.6,1-0.8,1.4,0.4c1.4-0.8,0.3-2.7-1.1-2.8c-4-0.2-3.4,4.9-2.1,5.5
			c-0.4,0.1-0.9,0.1-1.3,0v3.7c1.2,0.1,2.6-0.1,4-0.8c-1.1,0.7-2.5,1.1-3.9,1.1c0,0-0.1,0-0.1,0v0.7c0,0,0.1,0,0.1,0
			c4.6,0,8.3-3.7,8.3-8.3S14.6,1.7,10,1.7z"/>
		<path class="st8" d="M10,17.6c1.4,0,2.8-0.4,3.9-1.1c-1.4,0.7-2.8,0.9-4,0.8L10,17.6C9.9,17.6,10,17.6,10,17.6z"/>
		<path class="st9" d="M9.6,6.9c0-0.7,0.1-1.3,0.3-1.8V2.9C8.5,3.9,8.1,5.7,9.6,6.9z"/>
		<path class="st9" d="M2.4,10c0-4.1,3.3-7.5,7.5-7.6V1.7C5.4,1.8,1.7,5.5,1.7,10s3.7,8.2,8.2,8.3v-0.7C5.8,17.5,2.4,14.1,2.4,10z"
			/>
		<path class="st9" d="M8,10.2c0.7-0.5,1.5,0.5,1.2,1.1c1.7-1.3-0.4-3.9-2.1-3.6C4.8,8.1,3.5,11,4.6,13.2c1.1,2.3,3,3.8,5.3,4.1
			v-3.7C8.2,13.1,6.6,11.3,8,10.2z"/>
	</g>
</g>
</svg>
