<?xml version="1.0" encoding="UTF-8"?><svg id="Layer_1" xmlns="http://www.w3.org/2000/svg" viewBox="0 0 13.65 12.04"><defs><style>.cls-1{fill:#fff;}</style></defs><path class="cls-1" d="m.78,4.4c.32-.07.53-.39.46-.7,0-.01-.22-1.15.35-1.85.35-.44.97-.66,1.82-.66.43,0,.77.15,1.09.48,1.1,1.11,1.68,3.93,1.72,8.39v1.39c0,.32.26.6.6.6s.6-.26.6-.6v-1.39c.03-4.46.62-7.28,1.72-8.39.32-.32.67-.48,1.09-.48.85,0,1.47.22,1.82.66.58.71.36,1.84.35,1.85-.07.32.14.64.46.71.32.07.64-.14.71-.46.01-.07.34-1.68-.6-2.85-.59-.73-1.52-1.1-2.76-1.1-.74,0-1.39.27-1.94.83-.64.64-1.13,1.66-1.47,3.05-.34-1.39-.84-2.41-1.47-3.05-.55-.55-1.2-.83-1.94-.83C2.18,0,1.26.38.66,1.1-.28,2.27.06,3.88.07,3.95c.08.3.4.51.71.45Z"/></svg>