<?xml version="1.0" encoding="utf-8"?>
<!-- Generator: Adobe Illustrator 19.2.0, SVG Export Plug-In . SVG Version: 6.00 Build 0)  -->
<svg version="1.1" id="Layer_1" xmlns="http://www.w3.org/2000/svg" xmlns:xlink="http://www.w3.org/1999/xlink" x="0px" y="0px"
	 viewBox="0 0 882.4 138.7" style="enable-background:new 0 0 882.4 138.7;" xml:space="preserve">
<style type="text/css">
	.st0{fill:#77A5A8;}
</style>
<g>
	<g>
		
			<rect x="5" y="109.4" transform="matrix(0.7071 0.7071 -0.7071 0.7071 90.9579 23.4808)" class="st0" width="24.2" height="24.2"/>
		
			<rect x="33.3" y="109.4" transform="matrix(0.7071 0.7071 -0.7071 0.7071 99.2381 3.4896)" class="st0" width="24.2" height="24.2"/>
		
			<rect x="61.6" y="109.4" transform="matrix(0.7071 0.7071 -0.7071 0.7071 107.519 -16.5012)" class="st0" width="24.2" height="24.2"/>
		
			<rect x="89.8" y="109.4" transform="matrix(0.7071 0.7071 -0.7071 0.7071 115.7995 -36.4923)" class="st0" width="24.2" height="24.2"/>
		
			<rect x="118.1" y="109.4" transform="matrix(0.7071 0.7071 -0.7071 0.7071 124.0796 -56.4832)" class="st0" width="24.2" height="24.2"/>
		
			<rect x="146.4" y="109.4" transform="matrix(0.7071 0.7071 -0.7071 0.7071 132.3606 -76.4743)" class="st0" width="24.2" height="24.2"/>
		
			<rect x="174.6" y="109.4" transform="matrix(0.7071 0.7071 -0.7071 0.7071 140.6412 -96.4653)" class="st0" width="24.2" height="24.2"/>
		
			<rect x="202.9" y="109.4" transform="matrix(0.7071 0.7071 -0.7071 0.7071 148.921 -116.4561)" class="st0" width="24.2" height="24.2"/>
		
			<rect x="231.2" y="109.4" transform="matrix(0.7071 0.7071 -0.7071 0.7071 157.2023 -136.4473)" class="st0" width="24.2" height="24.2"/>
		
			<rect x="259.5" y="109.4" transform="matrix(0.7071 0.7071 -0.7071 0.7071 165.4828 -156.4384)" class="st0" width="24.2" height="24.2"/>
		
			<rect x="287.7" y="109.4" transform="matrix(0.7071 0.7071 -0.7071 0.7071 173.7625 -176.429)" class="st0" width="24.2" height="24.2"/>
		
			<rect x="316" y="109.4" transform="matrix(0.7071 0.7071 -0.7071 0.7071 182.0438 -196.4203)" class="st0" width="24.2" height="24.2"/>
		
			<rect x="344.3" y="109.4" transform="matrix(0.7071 0.7071 -0.7071 0.7071 190.3245 -216.4114)" class="st0" width="24.2" height="24.2"/>
		
			<rect x="372.5" y="109.4" transform="matrix(0.7071 0.7071 -0.7071 0.7071 198.604 -236.4019)" class="st0" width="24.2" height="24.2"/>
		
			<rect x="400.8" y="109.4" transform="matrix(0.7071 0.7071 -0.7071 0.7071 206.8856 -256.3934)" class="st0" width="24.2" height="24.2"/>
		
			<rect x="429.1" y="109.4" transform="matrix(0.7071 0.7071 -0.7071 0.7071 215.1661 -276.3845)" class="st0" width="24.2" height="24.2"/>
		
			<rect x="457.4" y="109.4" transform="matrix(0.7071 0.7071 -0.7071 0.7071 223.4455 -296.3748)" class="st0" width="24.2" height="24.2"/>
		
			<rect x="485.6" y="109.4" transform="matrix(0.7071 0.7071 -0.7071 0.7071 231.7272 -316.3665)" class="st0" width="24.2" height="24.2"/>
		
			<rect x="513.9" y="109.4" transform="matrix(0.7071 0.7071 -0.7071 0.7071 240.0078 -336.3575)" class="st0" width="24.2" height="24.2"/>
		
			<rect x="542.2" y="109.4" transform="matrix(0.7071 0.7071 -0.7071 0.7071 248.2869 -356.3476)" class="st0" width="24.2" height="24.2"/>
		
			<rect x="570.5" y="109.4" transform="matrix(0.7071 0.7071 -0.7071 0.7071 256.5689 -376.3395)" class="st0" width="24.2" height="24.2"/>
		
			<rect x="598.7" y="109.4" transform="matrix(0.7071 0.7071 -0.7071 0.7071 264.8495 -396.3306)" class="st0" width="24.2" height="24.2"/>
		
			<rect x="627" y="109.4" transform="matrix(0.7071 0.7071 -0.7071 0.7071 273.1284 -416.3205)" class="st0" width="24.2" height="24.2"/>
		
			<rect x="655.3" y="109.4" transform="matrix(0.7071 0.7071 -0.7071 0.7071 281.4105 -436.3126)" class="st0" width="24.2" height="24.2"/>
		
			<rect x="683.5" y="109.4" transform="matrix(0.7071 0.7071 -0.7071 0.7071 289.6911 -456.3036)" class="st0" width="24.2" height="24.2"/>
		
			<rect x="711.8" y="109.4" transform="matrix(0.7071 0.7071 -0.7071 0.7071 297.9699 -476.2934)" class="st0" width="24.2" height="24.2"/>
		
			<rect x="740.1" y="109.4" transform="matrix(0.7071 0.7071 -0.7071 0.7071 306.252 -496.2855)" class="st0" width="24.2" height="24.2"/>
		
			<rect x="768.4" y="109.4" transform="matrix(0.7071 0.7071 -0.7071 0.7071 314.5309 -516.2753)" class="st0" width="24.2" height="24.2"/>
		
			<rect x="796.6" y="109.4" transform="matrix(0.7071 0.7071 -0.7071 0.7071 322.8116 -536.2664)" class="st0" width="24.2" height="24.2"/>
		
			<rect x="824.9" y="109.4" transform="matrix(0.7071 0.7071 -0.7071 0.7071 331.0938 -556.2587)" class="st0" width="24.2" height="24.2"/>
		
			<rect x="853.2" y="109.4" transform="matrix(0.7071 0.7071 -0.7071 0.7071 339.3723 -576.2482)" class="st0" width="24.2" height="24.2"/>
	</g>
	<g>
		<rect x="5" y="5" transform="matrix(0.7071 0.7071 -0.7071 0.7071 17.1352 -7.0976)" class="st0" width="24.2" height="24.2"/>
		
			<rect x="33.3" y="5" transform="matrix(0.7071 0.7071 -0.7071 0.7071 25.4157 -27.0886)" class="st0" width="24.2" height="24.2"/>
		
			<rect x="61.6" y="5" transform="matrix(0.7071 0.7071 -0.7071 0.7071 33.6964 -47.0797)" class="st0" width="24.2" height="24.2"/>
		<rect x="89.8" y="5" transform="matrix(0.7071 0.7071 -0.7071 0.7071 41.977 -67.0708)" class="st0" width="24.2" height="24.2"/>
		
			<rect x="118.1" y="5" transform="matrix(0.7071 0.7071 -0.7071 0.7071 50.2573 -87.0617)" class="st0" width="24.2" height="24.2"/>
		
			<rect x="146.4" y="5" transform="matrix(0.7071 0.7071 -0.7071 0.7071 58.5382 -107.0529)" class="st0" width="24.2" height="24.2"/>
		
			<rect x="174.6" y="5" transform="matrix(0.7071 0.7071 -0.7071 0.7071 66.8188 -127.0441)" class="st0" width="24.2" height="24.2"/>
		
			<rect x="202.9" y="5" transform="matrix(0.7071 0.7071 -0.7071 0.7071 75.099 -147.0347)" class="st0" width="24.2" height="24.2"/>
		
			<rect x="231.2" y="5" transform="matrix(0.7071 0.7071 -0.7071 0.7071 83.3801 -167.0262)" class="st0" width="24.2" height="24.2"/>
		
			<rect x="259.5" y="5" transform="matrix(0.7071 0.7071 -0.7071 0.7071 91.6607 -187.0173)" class="st0" width="24.2" height="24.2"/>
		
			<rect x="287.7" y="5" transform="matrix(0.7071 0.7071 -0.7071 0.7071 99.9406 -207.0078)" class="st0" width="24.2" height="24.2"/>
		
			<rect x="316" y="5" transform="matrix(0.7071 0.7071 -0.7071 0.7071 108.2218 -226.9993)" class="st0" width="24.2" height="24.2"/>
		
			<rect x="344.3" y="5" transform="matrix(0.7071 0.7071 -0.7071 0.7071 116.5025 -246.9905)" class="st0" width="24.2" height="24.2"/>
		
			<rect x="372.5" y="5" transform="matrix(0.7071 0.7071 -0.7071 0.7071 124.7823 -266.9808)" class="st0" width="24.2" height="24.2"/>
		
			<rect x="400.8" y="5" transform="matrix(0.7071 0.7071 -0.7071 0.7071 133.0637 -286.9726)" class="st0" width="24.2" height="24.2"/>
		
			<rect x="429.1" y="5" transform="matrix(0.7071 0.7071 -0.7071 0.7071 141.3443 -306.9637)" class="st0" width="24.2" height="24.2"/>
		
			<rect x="457.4" y="5" transform="matrix(0.7071 0.7071 -0.7071 0.7071 149.6239 -326.9539)" class="st0" width="24.2" height="24.2"/>
		
			<rect x="485.6" y="5" transform="matrix(0.7071 0.7071 -0.7071 0.7071 157.9055 -346.9459)" class="st0" width="24.2" height="24.2"/>
		
			<rect x="513.9" y="5" transform="matrix(0.7071 0.7071 -0.7071 0.7071 166.1862 -366.937)" class="st0" width="24.2" height="24.2"/>
		
			<rect x="542.2" y="5" transform="matrix(0.7071 0.7071 -0.7071 0.7071 174.4656 -386.9269)" class="st0" width="24.2" height="24.2"/>
		
			<rect x="570.5" y="5" transform="matrix(0.7071 0.7071 -0.7071 0.7071 182.7474 -406.9191)" class="st0" width="24.2" height="24.2"/>
		
			<rect x="598.7" y="5" transform="matrix(0.7071 0.7071 -0.7071 0.7071 191.028 -426.9102)" class="st0" width="24.2" height="24.2"/>
		<rect x="627" y="5" transform="matrix(0.7071 0.7071 -0.7071 0.7071 199.3072 -446.9)" class="st0" width="24.2" height="24.2"/>
		
			<rect x="655.3" y="5" transform="matrix(0.7071 0.7071 -0.7071 0.7071 207.5892 -466.8923)" class="st0" width="24.2" height="24.2"/>
		
			<rect x="683.5" y="5" transform="matrix(0.7071 0.7071 -0.7071 0.7071 215.8698 -486.8834)" class="st0" width="24.2" height="24.2"/>
		
			<rect x="711.8" y="5" transform="matrix(0.7071 0.7071 -0.7071 0.7071 224.1489 -506.873)" class="st0" width="24.2" height="24.2"/>
		
			<rect x="740.1" y="5" transform="matrix(0.7071 0.7071 -0.7071 0.7071 232.4308 -526.8654)" class="st0" width="24.2" height="24.2"/>
		
			<rect x="768.4" y="5" transform="matrix(0.7071 0.7071 -0.7071 0.7071 240.71 -546.855)" class="st0" width="24.2" height="24.2"/>
		
			<rect x="796.6" y="5" transform="matrix(0.7071 0.7071 -0.7071 0.7071 248.9907 -566.8463)" class="st0" width="24.2" height="24.2"/>
		
			<rect x="824.9" y="5" transform="matrix(0.7071 0.7071 -0.7071 0.7071 257.2728 -586.8387)" class="st0" width="24.2" height="24.2"/>
		
			<rect x="853.2" y="5" transform="matrix(0.7071 0.7071 -0.7071 0.7071 265.5516 -606.8281)" class="st0" width="24.2" height="24.2"/>
	</g>
	<rect x="0.7" y="17.1" class="st0" width="881.6" height="103.2"/>
</g>
</svg>
