<?xml version="1.0" encoding="utf-8"?>
<!-- Generator: Adobe Illustrator 19.2.0, SVG Export Plug-In . SVG Version: 6.00 Build 0)  -->
<svg version="1.1" id="Layer_1" xmlns="http://www.w3.org/2000/svg" xmlns:xlink="http://www.w3.org/1999/xlink" x="0px" y="0px"
	 viewBox="0 0 23.3 17.3" style="enable-background:new 0 0 23.3 17.3;" xml:space="preserve">
<style type="text/css">
	.st0{fill:#FF8B08;}
	.st1{fill:#D25458;}
	.st2{fill:#77A5A8;}
</style>
<g>
	<path class="st0" d="M1.1,17.3h21c0.6,0,1.1-0.5,1.1-1.1S22.8,15,22.2,15h-21C0.5,15,0,15.5,0,16.1S0.5,17.3,1.1,17.3z"/>
	<path class="st0" d="M1.1,12.7H8c0.5,0,0.9-0.3,1.1-0.8c0.2-0.4,0-1-0.3-1.3C7.6,9.8,6.9,8.4,6.9,7c0-2.6,2.1-4.7,4.7-4.7
		c2.6,0,4.7,2.1,4.7,4.7c0,1.4-0.6,2.8-1.7,3.6c-0.4,0.3-0.5,0.8-0.3,1.3c0.2,0.4,0.6,0.8,1.1,0.8h6.8c0.6,0,1.1-0.5,1.1-1.1
		c0-0.6-0.5-1.1-1.1-1.1h-4.4c0.6-1,0.9-2.2,0.9-3.4c0-3.9-3.1-7-7-7c-3.8,0-7,3.1-7,7c0,1.2,0.3,2.4,0.9,3.4H1.1
		c-0.6,0-1.1,0.5-1.1,1.1C0,12.2,0.5,12.7,1.1,12.7z"/>
</g>
</svg>
