<?xml version="1.0" encoding="utf-8"?>
<!-- Generator: Adobe Illustrator 19.2.0, SVG Export Plug-In . SVG Version: 6.00 Build 0)  -->
<svg version="1.1" id="Layer_1" xmlns="http://www.w3.org/2000/svg" xmlns:xlink="http://www.w3.org/1999/xlink" x="0px" y="0px"
	 viewBox="0 0 30 30" style="enable-background:new 0 0 30 30;" xml:space="preserve">
<style type="text/css">
	.st0{opacity:0.42;fill:#D25458;}
	.st1{opacity:0.42;}
	.st2{fill:#D25458;}
	.st3{opacity:0.42;fill:#77A5A8;}
	.st4{opacity:0.42;fill:#FF8B08;}
	.st5{fill:#FF8B08;}
</style>
<g class="st1">
	<path class="st5" d="M21.6,11.9c-2.3,0-4.1,1.9-4.1,4.1c0,1.7,1.1,3.2,2.6,3.8c-2.3,1-7.4,2.4-13.8,0.2c-0.2-0.1-0.5-0.1-0.7,0
		c-0.2,0.1-0.4,0.3-0.5,0.5c-0.1,0.2-0.1,0.5,0,0.7c0.1,0.2,0.3,0.4,0.5,0.5c2.4,0.8,4.9,1.2,7.4,1.2c5.9,0,10.7-2.4,11.8-4.5
		c0.5-0.7,0.8-1.6,0.8-2.4C25.7,13.7,23.9,11.9,21.6,11.9z M23.9,16c0,1.3-1,2.3-2.3,2.3c-1.3,0-2.3-1-2.3-2.3s1-2.3,2.3-2.3
		C22.9,13.7,23.9,14.7,23.9,16z"/>
	<path class="st5" d="M8.4,18.1c2.3,0,4.1-1.9,4.1-4.1c0-1.7-1.1-3.2-2.6-3.8c2.3-1,7.4-2.4,13.8-0.2c0.2,0.1,0.5,0.1,0.7,0
		c0.2-0.1,0.4-0.3,0.5-0.5c0.1-0.2,0.1-0.5,0-0.7c-0.1-0.2-0.3-0.4-0.5-0.5c-4-1.4-8.4-1.6-12.4-0.6c-3.3,0.8-6,2.4-6.8,4
		c-0.5,0.7-0.8,1.6-0.8,2.4C4.3,16.3,6.1,18.1,8.4,18.1z M6.1,14c0-1.3,1-2.3,2.3-2.3c1.3,0,2.3,1,2.3,2.3s-1,2.3-2.3,2.3
		C7.1,16.3,6.1,15.3,6.1,14z"/>
</g>
</svg>
