<?xml version="1.0" encoding="utf-8"?>
<!-- Generator: Adobe Illustrator 19.2.0, SVG Export Plug-In . SVG Version: 6.00 Build 0)  -->
<svg version="1.1" id="Layer_1" xmlns="http://www.w3.org/2000/svg" xmlns:xlink="http://www.w3.org/1999/xlink" x="0px" y="0px"
	 viewBox="0 0 27.9 27.7" style="enable-background:new 0 0 27.9 27.7;" xml:space="preserve">
<style type="text/css">
	.st0{fill:#FF8B08;}
	.st1{fill:#D25458;}
	.st2{fill:#77A5A8;}
</style>
<path class="st0" d="M21.2,14.8c-1.1,0.3-1.9,0.9-2.6,1.7c-0.2-1-0.3-2.1-0.3-3.3C17.6,1.8,14.2,0.2,13.5,0c-0.1,0-0.2,0-0.3,0
	c-1.3,0-2.5,0.5-3.5,1.5C8.6,2.6,7.8,4.3,7.2,6.6C6.6,4.3,5.7,2.6,4.6,1.5C3.6,0.5,2.5,0,1.1,0C0.5,0,0,0.5,0,1.1s0.5,1.1,1.1,1.1
	c0.7,0,1.3,0.3,1.9,0.8c1.9,2,3,6.9,3,14.8c0,0.7,0,1.3,0,1.9v0.6c0,0.6,0.5,1.1,1.1,1.1s1.1-0.5,1.1-1.1v-0.6c0-0.5,0-1.2,0-1.9
	c0.1-7.9,1.1-12.8,3-14.8c0.5-0.5,1-0.8,1.6-0.8c0.5,0.4,2.6,2.5,3.1,11c0.2,2.8,0.5,5.1,1.1,6.9c-0.1,0.3-0.1,0.6-0.1,0.8
	c-0.5,3.2-0.8,4.9-5.3,4.2c-0.6-0.1-1.2,0.3-1.3,1c-0.1,0.6,0.3,1.2,1,1.3c0.7,0.1,1.4,0.2,2,0.2c3.6,0,4.9-2,5.5-4.2
	c0.4,0.4,0.8,0.8,1.3,1.1c1.4,0.9,3.2,0.9,5.1,0.1c2.4-1,3.1-4.5,2.2-7C26.8,15.7,24.7,13.8,21.2,14.8z M24.4,22.6
	c-1.2,0.5-2.2,0.5-3,0c-0.7-0.4-1.3-1.3-1.8-2.6c0.3-1.6,0.9-2.7,2.3-3.1c2.2-0.6,3.1,0.5,3.5,1.5C25.9,20.2,25.3,22.2,24.4,22.6z"
	/>
</svg>
