<?xml version="1.0" encoding="utf-8"?>
<!-- Generator: Adobe Illustrator 19.2.0, SVG Export Plug-In . SVG Version: 6.00 Build 0)  -->
<svg version="1.1" id="Layer_1" xmlns="http://www.w3.org/2000/svg" xmlns:xlink="http://www.w3.org/1999/xlink" x="0px" y="0px"
	 viewBox="0 0 30 30" style="enable-background:new 0 0 30 30;" xml:space="preserve">
<style type="text/css">
	.st0{opacity:0.42;fill:#D25458;}
	.st1{opacity:0.42;}
	.st2{fill:#D25458;}
	.st3{opacity:0.42;fill:#77A5A8;}
	.st4{opacity:0.42;fill:#FF8B08;}
	.st5{fill:#FF8B08;}
</style>
<path class="st4" d="M5.8,12.5c0.5-0.1,0.8-0.6,0.7-1.1c0,0-0.3-1.7,0.5-2.8c0.5-0.7,1.5-1,2.8-1c0.6,0,1.2,0.2,1.7,0.7
	c1.7,1.7,2.6,6,2.6,12.7c0,0.6,0,1.1,0,1.6v0.5c0,0.5,0.4,0.9,0.9,0.9c0.5,0,0.9-0.4,0.9-0.9v-0.6c0-0.4,0-1,0-1.5
	c0-6.8,0.9-11,2.6-12.7c0.5-0.5,1-0.7,1.7-0.7c1.3,0,2.2,0.3,2.8,1c0.9,1.1,0.6,2.8,0.5,2.8c-0.1,0.5,0.2,1,0.7,1.1
	c0.5,0.1,1-0.2,1.1-0.7c0-0.1,0.5-2.6-0.9-4.3c-0.9-1.1-2.3-1.7-4.2-1.7c-1.1,0-2.1,0.4-2.9,1.3c-1,1-1.7,2.5-2.2,4.6
	c-0.5-2.1-1.3-3.7-2.2-4.6C11.9,6.3,11,5.9,9.8,5.9C8,5.9,6.6,6.4,5.6,7.5c-1.4,1.8-0.9,4.2-0.9,4.3C4.9,12.3,5.3,12.6,5.8,12.5z"/>
</svg>
