<?xml version="1.0" encoding="utf-8"?>
<!-- Generator: Adobe Illustrator 19.2.0, SVG Export Plug-In . SVG Version: 6.00 Build 0)  -->
<svg version="1.1" id="Layer_1" xmlns="http://www.w3.org/2000/svg" xmlns:xlink="http://www.w3.org/1999/xlink" x="0px" y="0px"
	 viewBox="0 0 26.1 23.1" style="enable-background:new 0 0 26.1 23.1;" xml:space="preserve">
<style type="text/css">
	.st0{fill:#FF8B08;}
	.st1{fill:#D25458;}
	.st2{fill:#77A5A8;}
</style>
<path class="st0" d="M1.5,8.4c0.6-0.1,1-0.7,0.9-1.3c0,0-0.4-2.2,0.7-3.6c0.7-0.8,1.9-1.3,3.5-1.3c0.8,0,1.5,0.3,2.1,0.9
	c2.1,2.1,3.2,7.5,3.3,16.1c0,0.7,0,1.4,0,2v0.7c0,0.6,0.5,1.1,1.1,1.1s1.1-0.5,1.1-1.1v-0.7c0-0.6,0-1.2,0-1.9
	c0.1-8.5,1.2-13.9,3.3-16.1c0.6-0.6,1.3-0.9,2.1-0.9c1.6,0,2.8,0.4,3.5,1.3c1.1,1.4,0.7,3.5,0.7,3.6c-0.1,0.6,0.3,1.2,0.9,1.4
	c0.6,0.1,1.2-0.3,1.4-0.9c0-0.1,0.7-3.2-1.1-5.5C23.7,0.7,22,0,19.6,0c-1.4,0-2.7,0.5-3.7,1.6c-1.2,1.2-2.2,3.2-2.8,5.8
	c-0.7-2.7-1.6-4.6-2.8-5.8C9.2,0.5,8,0,6.5,0C4.2,0,2.4,0.7,1.3,2.1c-1.8,2.2-1.2,5.3-1.1,5.5C0.3,8.2,0.9,8.5,1.5,8.4z"/>
</svg>
