<?xml version="1.0" encoding="utf-8"?>
<!-- Generator: Adobe Illustrator 19.2.0, SVG Export Plug-In . SVG Version: 6.00 Build 0)  -->
<svg version="1.1" id="Layer_1" xmlns="http://www.w3.org/2000/svg" xmlns:xlink="http://www.w3.org/1999/xlink" x="0px" y="0px"
	 viewBox="0 0 30 30" style="enable-background:new 0 0 30 30;" xml:space="preserve">
<style type="text/css">
	.st0{opacity:0.42;fill:#D25458;}
	.st1{opacity:0.42;}
	.st2{fill:#D25458;}
	.st3{opacity:0.42;fill:#77A5A8;}
	.st4{opacity:0.42;fill:#FF8B08;}
	.st5{fill:#FF8B08;}
</style>
<g class="st1">
	<path class="st5" d="M6.7,21.9h16.7c0.5,0,0.9-0.4,0.9-0.9c0-0.5-0.4-0.9-0.9-0.9H6.7c-0.5,0-0.9,0.4-0.9,0.9
		C5.7,21.5,6.1,21.9,6.7,21.9z"/>
	<path class="st5" d="M6.7,18.2h5.4c0.4,0,0.7-0.2,0.8-0.6c0.1-0.4,0-0.8-0.3-1c-0.9-0.7-1.4-1.8-1.4-2.9c0-2.1,1.7-3.7,3.7-3.7
		s3.7,1.7,3.7,3.7c0,1.1-0.5,2.2-1.4,2.9c-0.3,0.2-0.4,0.6-0.3,1c0.1,0.4,0.5,0.6,0.8,0.6h5.4c0.5,0,0.9-0.4,0.9-0.9
		c0-0.5-0.4-0.9-0.9-0.9h-3.5c0.5-0.8,0.7-1.7,0.7-2.7c0-3.1-2.5-5.5-5.5-5.5c-3,0-5.5,2.5-5.5,5.5c0,1,0.2,1.9,0.7,2.7H6.7
		c-0.5,0-0.9,0.4-0.9,0.9C5.7,17.8,6.1,18.2,6.7,18.2z"/>
</g>
</svg>
