<?xml version="1.0" encoding="utf-8"?>
<!-- Generator: Adobe Illustrator 19.2.0, SVG Export Plug-In . SVG Version: 6.00 Build 0)  -->
<svg version="1.1" id="Layer_1" xmlns="http://www.w3.org/2000/svg" xmlns:xlink="http://www.w3.org/1999/xlink" x="0px" y="0px"
	 viewBox="0 0 30 30" style="enable-background:new 0 0 30 30;" xml:space="preserve">
<style type="text/css">
	.st0{opacity:0.42;fill:#D25458;}
	.st1{opacity:0.42;}
	.st2{fill:#D25458;}
	.st3{opacity:0.42;fill:#77A5A8;}
	.st4{opacity:0.42;fill:#FF8B08;}
	.st5{fill:#FF8B08;}
</style>
<path class="st4" d="M21,15.7c-0.9,0.2-1.5,0.7-2,1.3c-0.1-0.8-0.2-1.6-0.3-2.6c-0.5-9-3.2-10.3-3.8-10.4c-0.1,0-0.2,0-0.2,0
	c-1.1,0-2,0.4-2.8,1.2c-0.9,0.9-1.5,2.2-2,4.1c-0.5-1.8-1.2-3.2-2-4.1C7.1,4.4,6.2,4,5.1,4C4.6,4,4.2,4.4,4.2,4.9s0.4,0.9,0.9,0.9
	c0.6,0,1,0.2,1.5,0.6C8.2,8,9,12,9,18.2c0,0.6,0,1,0,1.5v0.5c0,0.5,0.4,0.9,0.9,0.9c0.5,0,0.9-0.4,0.9-0.9v-0.5c0-0.4,0-0.9,0-1.5
	c0-6.2,0.9-10.2,2.4-11.7c0.4-0.4,0.8-0.6,1.3-0.6c0.4,0.3,2,2,2.4,8.7c0.1,2.2,0.4,4.1,0.9,5.5c0,0.2-0.1,0.4-0.1,0.7
	c-0.4,2.5-0.6,3.9-4.2,3.3c-0.5-0.1-1,0.3-1,0.8c-0.1,0.5,0.3,1,0.8,1c0.6,0.1,1.1,0.1,1.6,0.1c2.8,0,3.9-1.6,4.3-3.4
	c0.3,0.4,0.6,0.6,1,0.9c1.1,0.7,2.5,0.7,4.1,0.1c1.9-0.8,2.5-3.6,1.8-5.5C25.5,16.5,23.8,14.9,21,15.7z M23.6,21.9
	c-1,0.4-1.8,0.4-2.4,0c-0.6-0.3-1-1-1.4-2c0.3-1.3,0.7-2.1,1.8-2.4c1.8-0.5,2.5,0.4,2.8,1.2C24.8,20,24.3,21.6,23.6,21.9z"/>
</svg>
