<?xml version="1.0" encoding="utf-8"?>
<!-- Generator: Adobe Illustrator 19.2.0, SVG Export Plug-In . SVG Version: 6.00 Build 0)  -->
<svg version="1.1" id="Layer_1" xmlns="http://www.w3.org/2000/svg" xmlns:xlink="http://www.w3.org/1999/xlink" x="0px" y="0px"
	 viewBox="0 0 29.7 29.7" style="enable-background:new 0 0 29.7 29.7;" xml:space="preserve">
<style type="text/css">
	.st0{fill:#404B8C;}
	.st1{fill:#7986C4;}
	.st2{fill:none;}
	.st3{fill:#D62E2A;}
	.st4{fill:#E85449;}
	.st5{fill:#4C8257;}
	.st6{fill:#48B87B;}
	.st7{fill:#479CBA;}
	.st8{fill:#6DCAE3;}
</style>
<g>
	<path class="st0" d="M14.8,0c-0.1,0-0.1,0-0.2,0v1.3c0.1,0,0.1,0,0.2,0c0.4,0,0.8,0,1.3,0.1c-0.5,0.2-1,0.5-1.4,0.8v4
		c3.1-6.3,17.7,2.9,10.8,11.3c-2.1,2.5-6.7,1.4-5.2-1.8c0.5-1,1.8-1.4,2.4,0.8c2.5-1.4,0.6-4.9-2-5.1c-7.2-0.4-6.2,8.8-3.7,9.9
		c-0.7,0.2-1.6,0.2-2.4,0v6.6c2.2,0.2,4.6-0.2,7.1-1.4c-2,1.2-4.4,1.9-7,1.9c-0.1,0-0.1,0-0.2,0v1.3c0.1,0,0.1,0,0.2,0
		c8.2,0,14.8-6.6,14.8-14.8C29.7,6.6,23,0,14.8,0z"/>
	<path class="st0" d="M14.8,28.4c2.6,0,4.9-0.7,7-1.9c-2.5,1.2-4.9,1.6-7.1,1.4v0.5C14.7,28.4,14.8,28.4,14.8,28.4z"/>
	<path class="st1" d="M14.1,9.3c0-1.3,0.2-2.4,0.6-3.2v-4C12.1,4,11.4,7.1,14.1,9.3z"/>
	<path class="st1" d="M1.3,14.8c0-7.4,6-13.5,13.4-13.6V0C6.6,0.1,0,6.7,0,14.8C0,23,6.6,29.6,14.7,29.7v-1.3
		C7.3,28.3,1.3,22.3,1.3,14.8z"/>
	<path class="st1" d="M11.2,15.1c1.2-1,2.7,0.8,2.2,2c3-2.4-0.8-7-3.7-6.4c-4.2,0.8-6.5,6-4.6,9.9c2,4.1,5.4,6.9,9.6,7.3v-6.6
		C11.6,20.5,8.7,17.1,11.2,15.1z"/>
</g>
</svg>
