<?xml version="1.0" encoding="utf-8"?>
<!-- Generator: Adobe Illustrator 19.2.0, SVG Export Plug-In . SVG Version: 6.00 Build 0)  -->
<svg version="1.1" id="Layer_1" xmlns="http://www.w3.org/2000/svg" xmlns:xlink="http://www.w3.org/1999/xlink" x="0px" y="0px"
	 viewBox="0 0 29.8 30.1" style="enable-background:new 0 0 29.8 30.1;" xml:space="preserve">
<style type="text/css">
	.st0{fill:#404B8C;}
	.st1{fill:#7986C4;}
	.st2{fill:none;}
	.st3{fill:#D62E2A;}
	.st4{fill:#E85449;}
	.st5{fill:#4C8257;}
	.st6{fill:#48B87B;}
	.st7{fill:#479CBA;}
	.st8{fill:#6DCAE3;}
</style>
<g>
	<path class="st2" d="M15.7,16.2V18c1.6-1.3,3-2.5,2.6-4.8c-0.3-1.8-1.7-2.5-2.6-3.4v1.2C16.6,12.6,17.5,14.4,15.7,16.2z"/>
	<path class="st3" d="M15.7,11.1v5.1C17.5,14.4,16.6,12.6,15.7,11.1z"/>
	<path class="st3" d="M29.1,15.1c0-7.6-5.9-13.7-13.4-14.1v1.2c6.8,0.4,12.2,6,12.2,12.9c0,4.4-2.2,8.2-5.5,10.6
		c5.7-8.3-0.1-9.5,0-12.8c-2.4,2.9,2.4,6.3-5.2,7.4c3.4-3.9,3.3-7.8,1.6-10.3c-0.9-1.2-2.1-1.7-3.1-2.2v2.2c0.9,0.9,2.3,1.5,2.6,3.4
		c0.4,2.2-1,3.5-2.6,4.8v11.2C23.2,28.8,29.1,22.6,29.1,15.1z"/>
	<path class="st4" d="M12.8,25.1c-3.2-2.4-1.9-5.7,1.7-7.9c0.5-0.3,0.9-0.6,1.2-1v-5.1C15.1,10,14.5,9.2,15,8.6
		c0.1,0.5,0.4,1,0.8,1.3V7.7c-1.3-0.6-2.4-1.3-2.5-3.3c-2.5,3.4,0.1,3.1,0.6,6.2c0.3,2.2-1.1,3.7-2.8,4.8c0-0.5,1-2.2-0.4-3.8
		c-0.6,2.1-3,3.5-4.2,5.3c-1.7,2.6-1,6.6,1.1,8.8C4.2,23.3,2,19.4,2,15.1C2,7.9,7.8,2.1,15,2.1c0.3,0,0.5,0,0.8,0V0.9
		c-0.3,0-0.5,0-0.8,0C7.1,0.9,0.8,7.3,0.8,15.1S7.1,29.2,15,29.2c0.3,0,0.5,0,0.8,0V18C13.8,19.6,11.7,21.3,12.8,25.1z"/>
</g>
</svg>
