<?xml version="1.0" encoding="utf-8"?>
<!-- Generator: Adobe Illustrator 19.2.0, SVG Export Plug-In . SVG Version: 6.00 Build 0)  -->
<svg version="1.1" id="Layer_1" xmlns="http://www.w3.org/2000/svg" xmlns:xlink="http://www.w3.org/1999/xlink" x="0px" y="0px"
	 viewBox="0 0 28.3 28.3" style="enable-background:new 0 0 28.3 28.3;" xml:space="preserve">
<style type="text/css">
	.st0{fill:#404B8C;}
	.st1{fill:#7986C4;}
	.st2{fill:none;}
	.st3{fill:#D62E2A;}
	.st4{fill:#E85449;}
	.st5{fill:#4C8257;}
	.st6{fill:#48B87B;}
	.st7{fill:#479CBA;}
	.st8{fill:#6DCAE3;}
</style>
<g>
	<path class="st2" d="M14.9,15.3v1.8c1.6-1.3,3-2.5,2.6-4.8c-0.3-1.8-1.7-2.5-2.6-3.4v1.2C15.8,11.7,16.7,13.5,14.9,15.3z"/>
	<path class="st3" d="M14.9,10.2v5.1C16.7,13.5,15.8,11.7,14.9,10.2z"/>
	<path class="st3" d="M28.3,14.2c0-7.6-5.9-13.7-13.4-14.1v1.2c6.8,0.4,12.2,6,12.2,12.9c0,4.4-2.2,8.2-5.5,10.6
		c5.7-8.3-0.1-9.5,0-12.8c-2.4,2.9,2.4,6.3-5.2,7.4c3.4-3.9,3.3-7.8,1.6-10.3c-0.9-1.2-2.1-1.7-3.1-2.2V9c0.9,0.9,2.3,1.5,2.6,3.4
		c0.4,2.2-1,3.5-2.6,4.8v11.2C22.4,27.9,28.3,21.7,28.3,14.2z"/>
	<path class="st4" d="M12,24.2c-3.2-2.4-1.9-5.7,1.7-7.9c0.5-0.3,0.9-0.6,1.2-1v-5.1c-0.6-1.1-1.2-1.9-0.8-2.5
		c0.1,0.5,0.4,1,0.8,1.3V6.8c-1.3-0.6-2.4-1.3-2.5-3.3C9.9,6.8,12.6,6.5,13,9.6c0.3,2.2-1.1,3.7-2.8,4.8c0-0.5,1-2.2-0.4-3.8
		c-0.6,2.1-3,3.5-4.2,5.3c-1.7,2.6-1,6.6,1.1,8.8c-3.3-2.3-5.4-6.2-5.4-10.5C1.2,7,7,1.2,14.2,1.2c0.3,0,0.5,0,0.8,0V0
		c-0.3,0-0.5,0-0.8,0C6.3,0,0,6.3,0,14.2C0,22,6.3,28.3,14.2,28.3c0.3,0,0.5,0,0.8,0V17.1C13,18.7,10.9,20.4,12,24.2z"/>
</g>
</svg>
