<?xml version="1.0" encoding="utf-8"?>
<!-- Generator: Adobe Illustrator 19.2.0, SVG Export Plug-In . SVG Version: 6.00 Build 0)  -->
<svg version="1.1" id="Layer_1" xmlns="http://www.w3.org/2000/svg" xmlns:xlink="http://www.w3.org/1999/xlink" x="0px" y="0px"
	 viewBox="0 0 29.3 29.3" style="enable-background:new 0 0 29.3 29.3;" xml:space="preserve">
<style type="text/css">
	.st0{fill:#404B8C;}
	.st1{fill:#7986C4;}
	.st2{fill:none;}
	.st3{fill:#D62E2A;}
	.st4{fill:#E85449;}
	.st5{fill:#4C8257;}
	.st6{fill:#48B87B;}
	.st7{fill:#479CBA;}
	.st8{fill:#6DCAE3;}
</style>
<g>
	<path class="st5" d="M25.1,21.3c2.8-4.8,0.3-9.6-4.2-8.6c6.3,4.3-2.8,9.8-6.3,13.6v1.5C16.4,27.2,22.8,25.3,25.1,21.3z"/>
	<path class="st5" d="M15.1,2c3.1,3.9,1.4,7.7-0.6,11.1v4.1c1.7-3.4,4.1-6.5,3.3-10.6c1.8,6-1.4,9.2-3.3,12.9v5.7
		C16.9,19.3,26.2,6.6,15.1,2z"/>
	<path class="st5" d="M14.7,0c0,0-0.1,0-0.1,0v1.3c0,0,0.1,0,0.1,0C22,1.3,28,7.3,28,14.7C28,22,22,28,14.7,28c0,0-0.1,0-0.1,0v1.3
		c0,0,0.1,0,0.1,0c8.1,0,14.7-6.6,14.7-14.7C29.3,6.6,22.7,0,14.7,0z"/>
	<path class="st6" d="M14.1,28c0,0,0.2-0.1,0.5-0.2v-1.5c-0.2,0.2-0.3,0.4-0.5,0.5c0.1-0.5,0.2-1,0.5-1.6v-5.7
		c-0.9,1.8-1.5,3.7-1.1,6.2c-1.2-3.3-0.2-5.9,1.1-8.5v-4.1c-0.9,1.6-1.9,3.1-2.5,4.4c-1.1,2.4-0.2,7,1.1,9.4
		c-1.9-3.3-6.1-5.8-6.1-11.4c0-2.5,1.5-6.8,1.5-8.8c-9.4,7.6-4.3,17.2,3.9,21.1c-6.3-1.1-11-6.6-11-13.2c0-7.4,5.9-13.3,13.3-13.4V0
		C6.5,0.1,0,6.6,0,14.7c0,8.1,6.5,14.6,14.5,14.6V28C14.4,28,14.2,28,14.1,28z"/>
</g>
</svg>
