<?xml version="1.0" encoding="utf-8"?>
<!-- Generator: Adobe Illustrator 19.2.0, SVG Export Plug-In . SVG Version: 6.00 Build 0)  -->
<svg version="1.1" id="Layer_1" xmlns="http://www.w3.org/2000/svg" xmlns:xlink="http://www.w3.org/1999/xlink" x="0px" y="0px"
	 viewBox="0 0 29.3 29.3" style="enable-background:new 0 0 29.3 29.3;" xml:space="preserve">
<style type="text/css">
	.st0{fill:#404B8C;}
	.st1{fill:#7986C4;}
	.st2{fill:none;}
	.st3{fill:#D62E2A;}
	.st4{fill:#E85449;}
	.st5{fill:#4C8257;}
	.st6{fill:#48B87B;}
	.st7{fill:#479CBA;}
	.st8{fill:#6DCAE3;}
</style>
<g>
	<path class="st2" d="M15.8,3.8c1.3,0,2.5,0.2,3.8,0.5c2.2,0.6,4.3,1.6,6.1,2.7c-2.1-3-5.4-5.1-9.3-5.6c-0.5-0.1-0.9-0.1-1.4-0.1
		v2.5C15.3,3.8,15.5,3.8,15.8,3.8z"/>
	<path class="st2" d="M15,14.4v0.4C15,14.6,15,14.5,15,14.4z"/>
	<path class="st2" d="M24.6,13.8c-0.5-0.4-1-0.7-1.5-1.1c-0.3-0.2-0.5-0.3-0.8-0.5c-0.3-0.2-0.5-0.3-0.8-0.5
		c-1.1-0.6-2.3-1.2-3.6-1.5C16.9,9.9,16,9.8,15,9.9V13c0.2,0.2,0.4,0.4,0.5,0.7c0.3,0.6,0.3,1.3,0.1,1.9c-0.1,0.3-0.3,0.6-0.5,0.9
		c0,0,0,0-0.1,0v2c0.4-0.3,0.8-0.7,1-1.1c0.6-0.8,0.8-1.6,0.8-2.1c0-0.3,0-0.5,0-0.6c0-0.1,0-0.1,0-0.2c0,0,0-0.1,0-0.1s0,0,0,0
		c0,0,0,0.1,0.1,0.1c0.1,0.1,0.1,0.3,0.2,0.6c0.1,0.6,0,1.4-0.5,2.4c-0.2,0.5-0.6,1-1,1.5c-0.2,0.2-0.4,0.4-0.6,0.5v8.4
		c5.7-0.1,10.6-3.8,12.4-9.4l0.4-2l0.1-0.3c0,0,0,0,0,0c-0.2-0.2-0.4-0.3-0.6-0.5C26.5,15.2,25.6,14.5,24.6,13.8z"/>
	<path class="st2" d="M24.6,9.9c-1.8-1.2-3.8-2.1-5.8-2.6c-1-0.3-2.1-0.4-3.1-0.4c-0.2,0-0.4,0-0.7,0v1.8c0.3,0,0.7,0,1,0
		c0.8,0.1,1.5,0.2,2.2,0.4c1.4,0.4,2.7,1,3.8,1.7c0.3,0.2,0.6,0.4,0.9,0.6c0.3,0.2,0.5,0.4,0.8,0.6c0.5,0.4,1,0.8,1.5,1.2
		c0.5,0.4,0.9,0.8,1.4,1.1c0.4,0.4,0.8,0.7,1.2,1.1c0.1,0.1,0.2,0.2,0.3,0.2c0.1-1.1,0-2.2-0.2-3.3c-0.2-0.2-0.4-0.3-0.6-0.5
		C26.4,11.1,25.6,10.5,24.6,9.9z"/>
	<path class="st7" d="M15.8,3.8c-0.3,0-0.5,0-0.8,0v3c0.2,0,0.4,0,0.7,0c1,0,2.1,0.2,3.1,0.4c2.1,0.5,4,1.5,5.8,2.6
		c0.9,0.6,1.8,1.2,2.6,1.9c0.2,0.1,0.4,0.3,0.6,0.5c-0.3-1.9-1.1-3.7-2.2-5.2c-1.8-1.2-3.9-2.2-6.1-2.7C18.3,4,17,3.8,15.8,3.8z"/>
	<path class="st7" d="M15.6,19.1c0.4-0.5,0.8-1,1-1.5c0.5-1,0.5-1.8,0.5-2.4c0-0.3-0.1-0.5-0.2-0.6c0-0.1-0.1-0.1-0.1-0.1
		c0,0,0,0,0,0s0,0,0,0.1c0,0,0,0.1,0,0.2c0,0.1,0.1,0.3,0,0.6c0,0.5-0.3,1.3-0.8,2.1c-0.3,0.4-0.6,0.8-1,1.1v1.2
		C15.2,19.5,15.4,19.3,15.6,19.1z"/>
	<path class="st7" d="M15,14.8v1.7c0,0,0,0,0.1,0c0.2-0.3,0.4-0.6,0.5-0.9c0.2-0.6,0.2-1.3-0.1-1.9c-0.1-0.3-0.3-0.5-0.5-0.7v1.4
		C15,14.5,15,14.6,15,14.8z"/>
	<path class="st7" d="M26.5,14.2c-0.4-0.4-0.9-0.8-1.4-1.1c-0.5-0.4-1-0.8-1.5-1.2c-0.3-0.2-0.5-0.4-0.8-0.6
		c-0.3-0.2-0.6-0.4-0.9-0.6c-1.2-0.7-2.4-1.3-3.8-1.7c-0.7-0.2-1.4-0.4-2.2-0.4c-0.3,0-0.7,0-1,0v1.2c0.9-0.1,1.9,0.1,2.9,0.3
		c1.3,0.4,2.5,0.9,3.6,1.5c0.3,0.2,0.6,0.3,0.8,0.5c0.3,0.2,0.5,0.4,0.8,0.5c0.5,0.3,1,0.7,1.5,1.1c1,0.7,1.9,1.4,2.7,2.1
		c0.2,0.2,0.4,0.3,0.6,0.5c0-0.1,0-0.3,0-0.4c0-0.1,0-0.3,0-0.4c-0.1-0.1-0.2-0.2-0.3-0.2C27.4,14.9,27,14.6,26.5,14.2z"/>
	<path class="st7" d="M29.3,13.4c-0.1-1.6-0.5-3.2-1.2-4.7c-2-4.5-6.3-7.9-11.5-8.6C16,0.1,15.5,0,15,0v1.3c0.5,0,0.9,0,1.4,0.1
		C20.3,1.9,23.6,4,25.7,7c1.1,1.5,1.8,3.3,2.2,5.2c0.2,1.1,0.3,2.2,0.2,3.3c0,0.1,0,0.3,0,0.4c0,0.1,0,0.3,0,0.4c0,0,0,0,0,0
		l-0.1,0.3l-0.4,2c-1.8,5.5-6.7,9.2-12.4,9.4v1.3c6.8-0.2,12.7-5,14-11.8c0-0.2,0.1-0.4,0.1-0.6c0-0.1,0-0.3,0.1-0.4
		C29.3,15.5,29.4,14.5,29.3,13.4z"/>
	<path class="st8" d="M15,18.5c-0.4,0.4-1,0.7-1.6,0.9c-0.6,0.2-1.3,0.3-1.9,0.2c-0.7-0.1-1.4-0.3-2-0.8c-0.6-0.4-1.2-0.9-1.7-1.6
		c-0.2-0.3-0.4-0.7-0.6-1.1C7,15.8,6.9,15.4,6.8,15c-0.2-0.8-0.2-1.7,0-2.6C7,11.6,7.4,10.7,7.9,10c0.5-0.7,1.2-1.4,2-1.9
		c0.8-0.5,1.7-0.8,2.7-1.1L13,7l0.4-0.1l0.4,0l0.4,0l0.4,0l0.4,0c0,0,0.1,0,0.1,0v-3c-0.1,0-0.1,0-0.2,0l-0.5,0l-0.4,0l-0.5,0.1
		L12.9,4l-0.5,0.1L12,4.2C10.7,4.5,9.5,5,8.4,5.7C7.9,6.1,7.4,6.5,6.9,7c-0.5,0.5-0.9,1-1.2,1.5c-1.4,2.1-1.7,4.8-1.1,7
		c0.3,1.1,0.9,2.1,1.6,3c0.7,0.8,1.6,1.4,2.5,1.9c0.9,0.4,1.8,0.7,2.7,0.7c0.9,0,1.8-0.2,2.5-0.6c0.4-0.2,0.8-0.5,1.2-0.8L15,18.5
		C15,18.5,15,18.5,15,18.5z"/>
	<path class="st8" d="M11.6,9.8c-0.3,0.2-0.6,0.5-0.9,0.8c-0.3,0.3-0.5,0.6-0.7,0.9c-0.4,0.7-0.7,1.4-0.7,2.3c0,0.4,0.1,0.8,0.2,1.2
		c0.1,0.4,0.3,0.7,0.6,1c0.5,0.6,1.1,1,1.8,1.2c0.4,0.1,0.7,0.2,1.1,0.1c0.1,0,0.2,0,0.3,0l0.1,0l0.1,0l0.1,0
		c0.2-0.1,0.4-0.1,0.5-0.2c0.3-0.1,0.6-0.3,0.8-0.6v-1.7c0,0.2-0.1,0.3-0.1,0.5c-0.2,0.4-0.6,0.8-1,1c-0.1,0-0.2,0.1-0.3,0.1l-0.1,0
		l-0.1,0c0,0,0,0,0,0l0,0l0,0c-0.1,0-0.1,0-0.2,0c-0.2,0-0.5-0.1-0.8-0.1c-0.5-0.2-1-0.5-1.3-1c-0.3-0.4-0.5-1-0.5-1.5
		c0-0.6,0.2-1.1,0.5-1.6c0.2-0.3,0.4-0.5,0.6-0.7c0.2-0.2,0.4-0.4,0.7-0.6c0.5-0.4,1.1-0.6,1.7-0.8c0.3-0.1,0.7-0.1,1-0.1V8.6
		c-0.4,0-0.9,0.1-1.3,0.2C13,9,12.2,9.3,11.6,9.8z"/>
	<path class="st8" d="M14.9,12.9L14.9,12.9c-0.2-0.1-0.2-0.2-0.3-0.2c-0.1-0.1-0.2-0.1-0.4-0.2c-0.5-0.2-1.1-0.2-1.5,0
		c-0.4,0.2-0.8,0.5-0.9,0.9c-0.1,0.2-0.1,0.4-0.1,0.6c0,0.2,0,0.4,0.1,0.5c0.1,0.3,0.4,0.5,0.7,0.6c0.3,0,0.5,0,0.6-0.1
		c0.1-0.1,0.2-0.2,0.3-0.2c0.1-0.1,0.1-0.1,0.1-0.1s0,0-0.1,0.1c-0.1,0.1-0.2,0.1-0.3,0.2c-0.1,0.1-0.3,0.1-0.6,0.1
		c-0.2-0.1-0.4-0.2-0.5-0.5c0-0.1-0.1-0.3,0-0.4c0-0.2,0-0.3,0.1-0.5c0.1-0.3,0.5-0.5,0.8-0.6c0.4-0.1,0.8-0.1,1.2,0.1
		c0.1,0,0.2,0.1,0.3,0.2c0,0,0.1,0.1,0.1,0.1l0.1,0.1l0.1,0.1c0.1,0.2,0.3,0.3,0.4,0.5c0.1,0.1,0.1,0.3,0.1,0.4L14.9,12.9
		C15,13,15,13,14.9,12.9L14.9,12.9z"/>
	<path class="st8" d="M12.9,28c-7.3-1-12.5-7.7-11.6-15C2.3,6.1,8.2,1.1,15,1.3V0C7.6-0.2,1.1,5.3,0.1,12.8c-1,8,4.6,15.4,12.7,16.4
		c0.8,0.1,1.5,0.1,2.2,0.1v-1.3C14.3,28.1,13.6,28,12.9,28z"/>
</g>
</svg>
