<?xml version="1.0" encoding="utf-8"?>
<!-- Generator: Adobe Illustrator 19.2.0, SVG Export Plug-In . SVG Version: 6.00 Build 0)  -->
<svg version="1.1" id="Layer_1" xmlns="http://www.w3.org/2000/svg" xmlns:xlink="http://www.w3.org/1999/xlink" x="0px" y="0px"
	 viewBox="0 0 22.7 21.9" style="enable-background:new 0 0 22.7 21.9;" xml:space="preserve">
<style type="text/css">
	.st0{fill:#FF8B08;}
	.st1{fill:#D25458;}
	.st2{fill:#77A5A8;}
</style>
<path class="st1" d="M1.3,2.4c0.1,0,2.2-0.4,3.4,1.9C4.8,4.4,4.9,4.6,5,4.7c0.5,1.1,1.2,2.5,2.6,3.6C5.4,9.6,4,12,4,14.5
	c0,4,3.3,7.3,7.3,7.3c4,0,7.3-3.3,7.3-7.3c0-2.6-1.4-4.9-3.5-6.2c1.3-1,2-2.5,2.6-3.6l0-0.1c0.1-0.1,0.1-0.3,0.2-0.4
	c1.1-2.3,3.2-2,3.4-1.9c0.3,0.1,0.6,0,0.9-0.2c0.3-0.2,0.4-0.4,0.5-0.7c0.1-0.3,0-0.6-0.2-0.9c-0.2-0.3-0.4-0.4-0.7-0.5l0,0
	c-1.4-0.3-4.3,0-5.9,3.1c-0.1,0.2-0.2,0.3-0.3,0.5c-0.8,1.7-1.7,3.5-4.3,3.5c-2.6,0-3.5-1.8-4.3-3.5l0,0C7,3.5,6.9,3.3,6.8,3.2
	C5.2,0.1,2.3-0.2,0.9,0.1C0.6,0.2,0.4,0.3,0.2,0.6C0,0.9,0,1.2,0,1.5C0.1,2.1,0.7,2.5,1.3,2.4z M6.3,14.6c0-2.8,2.3-5,5-5s5,2.3,5,5
	s-2.3,5-5,5S6.3,17.3,6.3,14.6z"/>
</svg>
