<?xml version="1.0" encoding="utf-8"?>
<!-- Generator: Adobe Illustrator 19.2.0, SVG Export Plug-In . SVG Version: 6.00 Build 0)  -->
<svg version="1.1" id="Layer_1" xmlns="http://www.w3.org/2000/svg" xmlns:xlink="http://www.w3.org/1999/xlink" x="0px" y="0px"
	 viewBox="0 0 30 30" style="enable-background:new 0 0 30 30;" xml:space="preserve">
<style type="text/css">
	.st0{opacity:0.42;fill:#D25458;}
	.st1{opacity:0.42;}
	.st2{fill:#D25458;}
	.st3{opacity:0.42;fill:#77A5A8;}
	.st4{opacity:0.42;fill:#FF8B08;}
	.st5{fill:#FF8B08;}
</style>
<path class="st0" d="M21.8,20.9L20,21.4c-0.2,0.1-0.4,0.2-0.6,0.4c0,0.1-0.1,0.1-0.1,0.2c-0.4-0.2-0.6-0.7-0.6-1.3V9.3
	c0-2.3-1.4-3.5-1.4-3.6c-0.2-0.2-0.6-0.3-0.9-0.2C15.6,5.8,14.7,6.3,14,7c-0.4-0.8-0.9-1.3-0.9-1.3c-0.2-0.2-0.6-0.3-0.9-0.2
	C11.3,5.8,10.5,6.3,9.8,7C9.4,6.2,8.9,5.7,8.9,5.7C8.5,5.4,7.9,5.4,7.6,5.8C7.2,6.2,7.3,6.7,7.6,7.1c0,0,0.8,0.8,0.8,2.2v11.2
	c0,0.5,0.4,0.9,0.9,0.9c0.5,0,0.9-0.4,0.9-0.9V9.3c0.2-0.4,0.8-1.3,1.9-1.9c0.2,0.4,0.5,1,0.5,1.8v11.2c0,0.5,0.4,0.9,0.9,0.9
	c0.5,0,0.9-0.4,0.9-0.9V9.3c0.2-0.4,0.8-1.3,1.9-1.9c0.2,0.4,0.5,1,0.5,1.8v11.4c0,1.5,0.8,2.7,2,3.1c0.6,0.2,1.1,0.2,1.7,0.1
	c0,0.1,0,0.1,0.1,0.2c0.1,0.2,0.3,0.4,0.6,0.4c0.1,0,0.2,0,0.2,0c0.4,0,0.8-0.3,0.9-0.7L23,22c0.1-0.3,0-0.6-0.2-0.9
	C22.5,20.9,22.2,20.8,21.8,20.9z"/>
</svg>
