<?xml version="1.0" encoding="utf-8"?>
<!-- Generator: Adobe Illustrator 19.2.0, SVG Export Plug-In . SVG Version: 6.00 Build 0)  -->
<svg version="1.1" id="Layer_1" xmlns="http://www.w3.org/2000/svg" xmlns:xlink="http://www.w3.org/1999/xlink" x="0px" y="0px"
	 viewBox="0 0 30 30" style="enable-background:new 0 0 30 30;" xml:space="preserve">
<style type="text/css">
	.st0{opacity:0.42;fill:#D25458;}
	.st1{opacity:0.42;}
	.st2{fill:#D25458;}
	.st3{opacity:0.42;fill:#77A5A8;}
	.st4{opacity:0.42;fill:#FF8B08;}
	.st5{fill:#FF8B08;}
</style>
<path class="st0" d="M11.1,23.3c2.3,0,4.1-1.8,4.1-4.1c0,0,0-0.1,0-0.1c0,0,0,0,0-0.1c0-1.1-0.4-2.3-1-3.6c-0.7-1.8-1.6-3.9-1.4-6.5
	c0.1-1.9,2-3.1,3.8-3c1.7,0.1,2.7,1.4,2.6,3.6c-0.1,3.3-1,5.8-1.8,7.9c-0.7,2-1.3,3.7-1.1,5.6c0.2,2,1.8,3.1,3.3,3.1
	c0,0,0.1,0,0.1,0c1.6-0.1,3.2-1.3,3.2-3.8c0-0.5-0.4-0.9-0.9-0.9c-0.5,0-0.9,0.4-0.9,0.9c0,1.4-0.8,2-1.5,2c-0.7,0-1.5-0.5-1.6-1.5
	c-0.1-1.4,0.4-2.9,1-4.8c0.8-2.2,1.7-4.9,1.9-8.4c0.2-3.8-2.2-5.4-4.3-5.5c-2.6-0.2-5.4,1.7-5.7,4.7c-0.2,2.6,0.5,4.7,1.2,6.5
	c-0.4-0.1-0.7-0.2-1.1-0.2C8.8,15,7,16.9,7,19.1C7,21.4,8.9,23.3,11.1,23.3z M8.8,19.1c0-1.3,1-2.3,2.3-2.3s2.3,1,2.3,2.3
	c0,1.3-1,2.3-2.3,2.3S8.8,20.4,8.8,19.1z"/>
</svg>
