<?xml version="1.0" encoding="utf-8"?>
<!-- Generator: Adobe Illustrator 19.2.0, SVG Export Plug-In . SVG Version: 6.00 Build 0)  -->
<svg version="1.1" id="Layer_1" xmlns="http://www.w3.org/2000/svg" xmlns:xlink="http://www.w3.org/1999/xlink" x="0px" y="0px"
	 viewBox="0 0 30 30" style="enable-background:new 0 0 30 30;" xml:space="preserve">
<style type="text/css">
	.st0{opacity:0.42;fill:#D25458;}
	.st1{opacity:0.42;}
	.st2{fill:#D25458;}
	.st3{opacity:0.42;fill:#77A5A8;}
	.st4{opacity:0.42;fill:#FF8B08;}
	.st5{fill:#FF8B08;}
</style>
<path class="st0" d="M7.1,8.2c0.1,0,1.8-0.3,2.7,1.5c0.1,0.1,0.1,0.2,0.2,0.4c0.4,0.9,1,2,2,2.8c-1.7,1-2.8,2.9-2.8,5
	c0,3.2,2.6,5.8,5.8,5.8c3.2,0,5.8-2.6,5.8-5.8c0-2-1.1-3.9-2.8-5c1-0.8,1.6-2,2-2.8l0,0c0.1-0.1,0.1-0.2,0.2-0.3
	c0.9-1.8,2.5-1.6,2.7-1.5c0.2,0,0.5,0,0.7-0.1c0.2-0.1,0.3-0.3,0.4-0.6c0-0.2,0-0.5-0.1-0.7c-0.1-0.2-0.3-0.3-0.6-0.4l0,0
	c-1.1-0.2-3.4,0-4.7,2.5c-0.1,0.1-0.1,0.3-0.2,0.4C17.7,10.6,17.1,12,15,12s-2.8-1.4-3.4-2.8l0,0c-0.1-0.1-0.1-0.3-0.2-0.4
	c-1.3-2.5-3.6-2.7-4.7-2.5c-0.2,0-0.4,0.2-0.6,0.4C6,7,6,7.3,6,7.5C6.1,8,6.6,8.3,7.1,8.2z M11,17.9c0-2.2,1.8-4,4-4s4,1.8,4,4
	s-1.8,4-4,4S11,20.1,11,17.9z"/>
</svg>
