<?xml version="1.0" encoding="utf-8"?>
<!-- Generator: Adobe Illustrator 19.2.0, SVG Export Plug-In . SVG Version: 6.00 Build 0)  -->
<svg version="1.1" id="Layer_1" xmlns="http://www.w3.org/2000/svg" xmlns:xlink="http://www.w3.org/1999/xlink" x="0px" y="0px"
	 viewBox="0 0 20.2 27.7" style="enable-background:new 0 0 20.2 27.7;" xml:space="preserve">
<style type="text/css">
	.st0{fill:#FF8B08;}
	.st1{fill:#D25458;}
	.st2{fill:#77A5A8;}
</style>
<path class="st1" d="M5.2,24.3c2.9,0,5.2-2.3,5.2-5.2c0-0.1,0-0.1,0-0.2c0,0,0,0,0-0.1c0-1.4-0.6-2.9-1.2-4.5c-0.9-2.3-2-5-1.7-8.2
	c0.2-2.4,2.6-3.9,4.7-3.8c2.2,0.1,3.4,1.8,3.3,4.5c-0.2,4.2-1.3,7.3-2.2,10c-0.9,2.5-1.6,4.7-1.4,7c0.2,2.6,2.3,3.9,4.2,3.9
	c0.1,0,0.1,0,0.2,0c2-0.1,4.1-1.6,4.1-4.8c0-0.6-0.5-1.1-1.1-1.1s-1.1,0.5-1.1,1.1c0,1.8-1,2.5-1.9,2.5c-0.9,0-1.9-0.6-2-1.8
	c-0.2-1.8,0.5-3.7,1.3-6c1-2.7,2.2-6.2,2.4-10.7C17.9,2,14.9,0.1,12.3,0C9.1-0.2,5.4,2.1,5.1,5.9c-0.2,3.2,0.6,5.9,1.5,8.2
	c-0.5-0.1-0.9-0.2-1.4-0.2c-2.9,0-5.2,2.3-5.2,5.2C0,21.9,2.3,24.3,5.2,24.3z M2.3,19.1c0-1.6,1.3-2.9,2.9-2.9
	c1.6,0,2.9,1.3,2.9,2.9c0,1.6-1.3,2.9-2.9,2.9C3.6,22,2.3,20.7,2.3,19.1z"/>
</svg>
