<?xml version="1.0" encoding="utf-8"?>
<!-- Generator: Adobe Illustrator 19.2.0, SVG Export Plug-In . SVG Version: 6.00 Build 0)  -->
<svg version="1.1" id="Layer_1" xmlns="http://www.w3.org/2000/svg" xmlns:xlink="http://www.w3.org/1999/xlink" x="0px" y="0px"
	 viewBox="0 0 30 30" style="enable-background:new 0 0 30 30;" xml:space="preserve">
<style type="text/css">
	.st0{opacity:0.42;fill:#D25458;}
	.st1{opacity:0.42;}
	.st2{fill:#D25458;}
	.st3{opacity:0.42;fill:#77A5A8;}
	.st4{opacity:0.42;fill:#FF8B08;}
	.st5{fill:#FF8B08;}
</style>
<g class="st1">
	<path class="st2" d="M24.2,10.6c-0.1-0.2-0.3-0.4-0.6-0.4c-0.2-0.1-0.5,0-0.7,0.1l-4.3,2.5l-1.2-2.1c-0.1-0.2-0.3-0.4-0.6-0.4
		c-0.2-0.1-0.5,0-0.7,0.1L12,12.8l-1.2-2.1c-0.1-0.2-0.3-0.4-0.6-0.4c-0.2-0.1-0.5,0-0.7,0.1l-5.1,2.9c-0.4,0.2-0.6,0.8-0.3,1.2
		c0.1,0.2,0.3,0.4,0.6,0.4c0.1,0,0.2,0,0.2,0c0.2,0,0.3,0,0.4-0.1l4.3-2.5l1.1,2.1l0,0c0.1,0.1,0.2,0.2,0.3,0.3c0,0,0.1,0,0.1,0
		c0.1,0,0.2,0.1,0.3,0.1c0.1,0,0.2,0,0.2,0c0.1,0,0.2,0,0.3-0.1c0,0,0,0,0,0h0l4.4-2.5l1.1,2.1l0,0c0.1,0.1,0.2,0.2,0.3,0.3
		c0,0,0.1,0,0.1,0c0.1,0,0.2,0.1,0.3,0.1c0.1,0,0.2,0,0.2,0c0.1,0,0.2,0,0.3-0.1c0,0,0,0,0,0h0l4.3-2.5l1.2,2.1
		c0.2,0.3,0.5,0.5,0.8,0.5c0.2,0,0.3,0,0.4-0.1c0.2-0.1,0.4-0.3,0.4-0.5c0.1-0.2,0-0.5-0.1-0.7L24.2,10.6z"/>
	<path class="st2" d="M24.2,15.5c-0.1-0.2-0.3-0.4-0.6-0.4c-0.2-0.1-0.5,0-0.7,0.1l-4.3,2.5l-1.2-2.1c-0.1-0.2-0.3-0.4-0.6-0.4
		c-0.2-0.1-0.5,0-0.7,0.1L12,17.7l-1.2-2.1c-0.1-0.2-0.3-0.4-0.6-0.4c-0.2-0.1-0.5,0-0.7,0.1l-5.1,2.9c-0.4,0.2-0.6,0.8-0.3,1.2
		c0.1,0.2,0.3,0.4,0.6,0.4c0.1,0,0.2,0,0.2,0c0.2,0,0.3,0,0.4-0.1l4.3-2.5l1.1,2.1l0,0.1c0,0,0,0,0,0.1l0,0c0.1,0.1,0.2,0.2,0.3,0.2
		c0,0,0.1,0,0.1,0c0.1,0,0.2,0.1,0.3,0.1c0.1,0,0.2,0,0.2,0c0.1,0,0.2,0,0.3-0.1c0,0,0,0,0,0h0l4.4-2.5l1.1,2.1l0,0.1c0,0,0,0,0,0.1
		l0,0c0.1,0.1,0.2,0.2,0.3,0.2c0,0,0.1,0,0.1,0c0.1,0,0.2,0.1,0.3,0.1c0.1,0,0.2,0,0.2,0c0.1,0,0.2,0,0.3-0.1c0,0,0,0,0,0h0l4.3-2.5
		l1.2,2.1c0.2,0.3,0.5,0.5,0.8,0.5c0.2,0,0.3,0,0.4-0.1c0.2-0.1,0.4-0.3,0.4-0.5c0.1-0.2,0-0.5-0.1-0.7L24.2,15.5z"/>
</g>
</svg>
