<?xml version="1.0" encoding="utf-8"?>
<!-- Generator: Adobe Illustrator 19.2.0, SVG Export Plug-In . SVG Version: 6.00 Build 0)  -->
<svg version="1.1" id="Layer_1" xmlns="http://www.w3.org/2000/svg" xmlns:xlink="http://www.w3.org/1999/xlink" x="0px" y="0px"
	 viewBox="0 0 19.7 24" style="enable-background:new 0 0 19.7 24;" xml:space="preserve">
<style type="text/css">
	.st0{fill:#FF8B08;}
	.st1{fill:#D25458;}
	.st2{fill:#77A5A8;}
</style>
<path class="st1" d="M18.3,19.5L16,20.1c-0.3,0.1-0.5,0.3-0.7,0.5c0,0.1-0.1,0.2-0.1,0.2c-0.5-0.3-0.8-0.9-0.8-1.6V4.8
	c0-2.9-1.7-4.4-1.8-4.5C12.3,0,11.9-0.1,11.5,0c-1.2,0.3-2.2,1-3.1,1.9c-0.5-1-1.1-1.6-1.1-1.6C7,0,6.6-0.1,6.2,0
	C5,0.4,3.9,1,3.1,1.9c-0.5-1-1.1-1.6-1.1-1.6C1.4-0.1,0.7-0.1,0.3,0.4C-0.1,0.8-0.1,1.6,0.4,2c0,0,1,1,1,2.8V19
	c0,0.6,0.5,1.1,1.1,1.1s1.1-0.5,1.1-1.1V4.8c0.3-0.5,1-1.7,2.4-2.3C6.4,3,6.8,3.7,6.8,4.8v14.1c0,0.6,0.5,1.1,1.1,1.1
	c0.6,0,1.1-0.5,1.1-1.1V4.8c0.3-0.5,1-1.7,2.4-2.3c0.3,0.5,0.6,1.2,0.6,2.3v14.4c0,1.8,1,3.4,2.6,4c0.7,0.3,1.4,0.3,2.2,0.1
	c0,0.1,0.1,0.2,0.1,0.2c0.2,0.3,0.4,0.4,0.7,0.5c0.1,0,0.2,0,0.3,0c0.5,0,1-0.3,1.1-0.9l0.6-2.3c0.1-0.4,0-0.8-0.3-1.1
	C19.1,19.5,18.7,19.4,18.3,19.5z"/>
</svg>
