<?xml version="1.0" encoding="utf-8"?>
<!-- Generator: Adobe Illustrator 19.2.0, SVG Export Plug-In . SVG Version: 6.00 Build 0)  -->
<svg version="1.1" id="Layer_1" xmlns="http://www.w3.org/2000/svg" xmlns:xlink="http://www.w3.org/1999/xlink" x="0px" y="0px"
	 viewBox="0 0 27.7 12.2" style="enable-background:new 0 0 27.7 12.2;" xml:space="preserve">
<style type="text/css">
	.st0{fill:#FF8B08;}
	.st1{fill:#D25458;}
	.st2{fill:#77A5A8;}
</style>
<g>
	<path class="st1" d="M25.5,0.6C25.3,0.3,25,0.1,24.8,0c-0.3-0.1-0.6,0-0.9,0.1l-5.4,3.1L17,0.6c-0.2-0.3-0.4-0.5-0.7-0.5
		C16,0,15.7,0,15.4,0.2L10,3.3L8.6,0.6C8.4,0.3,8.2,0.2,7.9,0.1C7.6,0,7.3,0,7,0.2L0.6,3.9C0,4.2-0.2,4.9,0.1,5.4
		C0.3,5.7,0.5,5.9,0.8,6C0.9,6,1,6,1.1,6C1.3,6,1.5,6,1.7,5.9l5.4-3.1l1.4,2.6l0,0.1C8.7,5.6,8.8,5.7,9,5.8c0,0,0.1,0,0.1,0.1
		C9.2,5.9,9.3,6,9.4,6c0.1,0,0.2,0,0.3,0c0.1,0,0.2,0,0.3-0.1c0,0,0,0,0,0h0l5.5-3.1L17,5.4l0,0.1c0.1,0.2,0.2,0.3,0.4,0.4
		c0,0,0.1,0,0.1,0.1c0.1,0.1,0.2,0.1,0.3,0.1c0.1,0,0.2,0,0.3,0c0.1,0,0.2,0,0.3-0.1c0,0,0,0,0,0h0L24,2.7l1.5,2.7
		c0.2,0.4,0.6,0.6,1,0.6c0.2,0,0.4-0.1,0.5-0.1c0.3-0.2,0.5-0.4,0.5-0.7c0.1-0.3,0.1-0.6-0.1-0.9L25.5,0.6z"/>
	<path class="st1" d="M25.5,6.8c-0.2-0.3-0.4-0.5-0.7-0.5c-0.3-0.1-0.6,0-0.9,0.1l-5.4,3.1L17,6.8c-0.2-0.3-0.4-0.5-0.7-0.5
		c-0.3-0.1-0.6,0-0.9,0.1L10,9.5L8.6,6.8C8.4,6.5,8.2,6.3,7.9,6.2C7.6,6.2,7.3,6.2,7,6.4l-6.4,3.7c-0.5,0.3-0.7,1-0.4,1.6
		c0.2,0.3,0.4,0.4,0.7,0.5c0.1,0,0.2,0,0.3,0c0.2,0,0.4-0.1,0.6-0.2l5.4-3.1l1.4,2.6l0,0.1c0,0,0,0.1,0.1,0.1l0,0
		C8.7,11.8,8.8,11.9,9,12c0,0,0.1,0,0.1,0.1c0.1,0.1,0.2,0.1,0.3,0.1c0.1,0,0.2,0,0.3,0c0.1,0,0.2,0,0.3-0.1c0,0,0,0,0,0h0l5.5-3.1
		l1.4,2.6l0,0.1c0,0,0,0.1,0.1,0.1l0,0c0.1,0.1,0.2,0.2,0.3,0.3c0,0,0.1,0,0.1,0.1c0.1,0.1,0.2,0.1,0.3,0.1c0.1,0,0.2,0,0.3,0
		c0.1,0,0.2,0,0.3-0.1c0,0,0,0,0,0h0l5.5-3.1l1.5,2.7c0.2,0.4,0.6,0.6,1,0.6c0.2,0,0.4-0.1,0.5-0.1c0.3-0.2,0.5-0.4,0.5-0.7
		c0.1-0.3,0.1-0.6-0.1-0.9L25.5,6.8z"/>
</g>
</svg>
