<?xml version="1.0" encoding="UTF-8"?><svg id="Layer_1" xmlns="http://www.w3.org/2000/svg" viewBox="0 0 45.81 45.77"><defs><style>.cls-1{opacity:.13;}.cls-2{fill:#fff;}.cls-3{opacity:.4;}.cls-4{opacity:.25;}.cls-5{fill:#f8a276;}</style></defs><circle class="cls-5" cx="22.93" cy="22.88" r="22.88" transform="translate(-2.95 3.4) rotate(-7.97)"/><g><g class="cls-1"><path class="cls-2" d="m44.41,15.01c-.05-.15-.11-.3-.17-.45l-.02-.07c-.06-.15-.12-.31-.19-.46-.07-.16-.14-.32-.21-.48-.09-.2-.18-.4-.28-.6-.23-.48-.47-.94-.73-1.39-2.91.9-6.95,2.34-10.6,4.33-6.67,3.65-8.9,9.01-16.81,12.47-7.91,3.46-11.83-.43-10.29-2.94,1.53-2.51,11.27-7.47,21.68-11.25,7.1-2.58,12.12-4.11,14.61-4.81-.42-.57-.86-1.13-1.33-1.65-.12-.13-.23-.26-.35-.39-.08-.08-.15-.17-.23-.25-.02-.02-.04-.04-.06-.06-.17-.19-.36-.37-.54-.54-.08-.07-.16-.15-.24-.23-.08-.08-.17-.16-.25-.24-3.66,2.28-11.04,6.46-20.84,9.93C9.27,18.88,3.46,20.68.03,21.66c-.03.52-.04,1.04-.03,1.56,0,.28.01.56.02.84,0,.1.01.2.02.3,0,.06,0,.13.01.19h0c.03.37.06.73.11,1.1.01.14.03.27.05.41h0c.03.24.07.47.11.71.02.09.03.17.05.26.04.21.08.43.13.64h0c.05.22.09.44.15.65.04.16.08.31.12.47.1.37.21.74.33,1.11.02.06.04.12.06.19.04.13.08.25.13.38.08.22.16.44.24.65.04.11.09.23.14.34.03.09.07.18.11.27.12.29.25.58.38.85.11.25.23.49.35.73.8,1.57,1.76,3.01,2.86,4.32,5.24-2.66,18.87-9.55,25.41-12.46,4.84-2.16,10.94-3.77,14.9-4.69-.07-.68-.17-1.36-.31-2.04-.02-.08-.03-.16-.05-.24-.01-.08-.03-.15-.05-.23-.03-.15-.07-.29-.1-.44-.03-.13-.06-.26-.1-.4-.02-.09-.05-.18-.07-.27-.05-.2-.11-.39-.17-.58-.05-.16-.1-.32-.15-.48-.06-.19-.12-.38-.19-.56-.03-.08-.06-.16-.09-.24ZM3.11,21.79c.58-.2,1.21.1,1.41.68.2.57-.1,1.2-.68,1.41-.57.2-1.2-.1-1.4-.68s.1-1.2.67-1.41Zm3.96,12.29c-.76.27-1.58-.13-1.85-.89-.26-.75.13-1.58.89-1.85.75-.26,1.58.13,1.84.89s-.13,1.58-.88,1.84Zm23.68-12.78c-.58.2-1.21-.1-1.41-.68-.2-.57.1-1.2.68-1.41.57-.2,1.2.1,1.4.68.2.57-.1,1.2-.67,1.41Zm3.07,1.77c-.29.1-.6-.05-.7-.34-.1-.29.05-.6.34-.7.29-.1.6.05.71.34.1.29-.05.6-.34.7Z"/></g><g class="cls-4"><path class="cls-2" d="m27.2,33.73c-9.04,3.13-16.82,4.81-20.36,5.49.04.04.08.07.11.11.05.05.1.1.16.15.02.01.03.03.05.05.06.06.12.11.18.16.13.13.27.25.41.37.46.41.94.79,1.42,1.16.03.02.05.04.08.06.45.34.92.66,1.4.96.08.06.17.11.26.16.88.53,1.78,1.01,2.72,1.43.96.43,1.96.79,2.98,1.09,0,0,0,0,0,0,.16.05.31.09.47.14.01,0,.03,0,.04.01.33.08.66.16.98.23.09.02.17.04.26.06h0s.06.01.1.02c.06.02.13.03.19.04.23.05.46.09.7.12.44.07.89.13,1.34.17,4.53-1.92,8.57-3.52,9.81-3.66,1.43-.16-1.09,1.56-4.37,3.54,1.46-.21,2.92-.56,4.36-1.07,2.03-.71,3.9-1.68,5.58-2.86.14-.1.29-.2.43-.31.18-.13.35-.26.53-.4.2-.16.4-.32.6-.49,1.06-.89,2.03-1.88,2.91-2.93h0c.7-.84,1.33-1.73,1.89-2.65.1-.16.19-.32.29-.49-1.09.52-2.66,1.25-4.92,2.28-6.8,3.1-18.69,6.39-18.7,5.43-.01-.96,6.42-4.75,15.16-7.53,4.09-1.3,7.45-2.32,9.87-3.03.15-.37.29-.75.43-1.13.3-.88.55-1.78.75-2.7.05-.22.09-.44.13-.67.05-.3.1-.59.14-.89.07-.5.13-1.01.16-1.52,0-.02,0-.05,0-.07-3.16,2.13-9.81,6.19-18.55,9.22Zm-10.99,7.07c-2.02.71-3.82.82-4.03.25s1.27-1.62,3.29-2.33c2.02-.71,3.82-.82,4.03-.25s-1.27,1.62-3.29,2.33Z"/></g><g class="cls-1"><path class="cls-2" d="m33.2,2.43c-2.82,2.07-7.88,5.28-14.81,7.6-6.68,2.24-12.97,3.85-16.91,4.77.39-1.04.86-2.04,1.4-3.01,3.92-.45,8.48-1.15,11.98-2.23,7.65-2.36,14.66-7.11,13.01-7.52-1.64-.42-6.9,2.83-14.16,4.98-3.28.97-6.53,1.66-9.12,2.13.81-1.09,1.72-2.1,2.72-3.03.01-.01.02-.02.04-.03.02-.02.04-.04.06-.05,2.89-.56,6.67-1.58,11.42-3.38,2.77-1.05,4.9-1.88,6.54-2.53.25.03.5.05.75.09,0,0,0,0,.01,0,.41.06.82.13,1.23.22.01,0,.02,0,.04,0,.72.14,1.44.32,2.15.54,0,0,0,0,0,0,.11.03.21.07.33.1h0c.06.02.12.04.18.06.22.07.44.15.66.23.12.04.24.09.36.13.09.03.17.07.25.1.55.22,1.1.46,1.63.72h0c.07.04.13.07.2.11h.02Z"/></g><g class="cls-3"><path class="cls-2" d="m44.4,14.98c-.05-.15-.11-.3-.17-.45,0-.02-.02-.05-.03-.07v-.04c-.08-.15-.14-.31-.2-.46-.06-.15-.12-.29-.19-.43-.1-.22-.19-.43-.29-.64-.25-.53-.52-1.04-.81-1.53-.04-.07-.08-.14-.12-.21-.04-.06-.08-.13-.12-.19-.11-.18-.21-.35-.33-.53-.63-.99-1.34-1.92-2.11-2.79-.18-.21-.37-.41-.55-.6-.27-.28-.55-.56-.83-.83-.22-.21-.45-.42-.69-.62-.27-.24-.55-.47-.83-.69-.11-.09-.22-.18-.33-.26,0,0,0,0,0,0-.08-.07-.17-.13-.25-.19-.04-.03-.08-.06-.12-.09-.17-.13-.34-.25-.51-.36-.06-.04-.11-.08-.18-.12-.04-.03-.09-.06-.13-.08-.08-.05-.16-.11-.24-.16-.33-.22-.68-.43-1.02-.63l-.05-.03c-.29-.17-.58-.33-.88-.48-.09-.05-.18-.09-.27-.14-.07-.04-.13-.07-.2-.1h0c-.53-.27-1.08-.51-1.63-.72-.08-.03-.16-.07-.25-.1-.12-.04-.24-.09-.36-.13-.22-.08-.44-.16-.66-.23-.06-.02-.12-.04-.18-.06h0c-.11-.03-.22-.07-.33-.1,0,0,0,0,0,0-.88-.27-1.77-.48-2.68-.64.17.04.34.09.51.14.01,0,.02,0,.04,0,.18.05.36.1.54.16,0,0,0,0,0,0,.11.03.21.07.33.1h0c.06.02.12.04.18.06.22.07.44.15.66.23.12.04.24.09.36.13.09.03.17.07.25.1.55.22,1.1.46,1.63.72h0c.07.04.13.07.2.11.39.2.77.4,1.15.62l.05.03s.09.05.13.08c.38.23.77.46,1.13.71.04.03.09.06.13.08.06.04.12.08.18.12.12.08.24.17.35.25.09.07.19.13.28.2.09.06.17.12.25.19,0,0,0,0,0,0,.17.13.34.26.5.4.22.17.43.35.64.54.28.24.55.49.82.75.24.23.47.47.7.71.19.2.38.4.56.61.09.1.18.21.28.32.79.93,1.52,1.93,2.16,3,.04.06.08.13.12.19.03.05.07.11.1.17.19.33.38.66.55,1,.1.19.2.38.29.58.17.35.33.71.48,1.07.06.15.12.3.18.45h0c.07.2.14.39.21.57.03.08.06.16.09.24.02.07.05.13.06.2.04.12.09.24.13.37.15.45.28.9.39,1.35.07.26.13.52.19.78.01.05.02.1.03.15.09.44.18.87.24,1.31.02.13.04.26.05.38.29,2.1.27,4.19-.01,6.23,0,.01,0,.03,0,.04-.04.3-.09.6-.14.89-.15.81-.34,1.61-.58,2.39-.23.79-.51,1.57-.82,2.33-.19.46-.4.92-.62,1.37h0c-.46.94-1,1.84-1.58,2.71h0c-.89,1.31-1.92,2.53-3.08,3.64h0c-.36.35-.73.68-1.11,1-.2.17-.4.33-.6.49-.31.25-.64.49-.96.71-.69.49-1.42.94-2.18,1.35-1.07.59-2.21,1.1-3.4,1.51-2.37.83-4.79,1.25-7.17,1.3-.51.01-1.02,0-1.53-.02-.41-.02-.82-.05-1.23-.09-.41-.04-.81-.1-1.21-.16-.18-.03-.35-.06-.53-.09.29.07.57.14.86.19.12.03.24.05.36.08.03,0,.05.01.07.01.04.01.08.02.12.02.23.05.46.09.7.12.8.13,1.62.21,2.44.25.51.03,1.02.04,1.53.02,2.38-.04,4.8-.46,7.17-1.3,2.03-.71,3.9-1.68,5.58-2.86.11-.07.21-.15.32-.23.22-.16.43-.32.64-.48.2-.16.4-.32.6-.49,1.04-.87,1.99-1.83,2.84-2.85.71-.85,1.35-1.74,1.93-2.68.62-1.01,1.16-2.06,1.62-3.16.18-.44.35-.87.5-1.32.31-.88.56-1.78.76-2.7.05-.24.1-.49.15-.73.05-.3.1-.59.14-.89.07-.49.12-.97.16-1.46h0c.16-2.02.04-4.08-.36-6.14-.02-.08-.03-.16-.05-.24-.02-.09-.04-.19-.06-.28-.03-.14-.06-.27-.09-.4-.03-.13-.07-.26-.1-.39-.02-.09-.04-.18-.07-.27-.05-.2-.11-.39-.17-.58-.05-.16-.1-.32-.15-.48-.06-.19-.12-.38-.19-.56-.03-.08-.06-.16-.09-.24Z"/></g></g><path class="cls-2" d="m13.27,2.59s0,0,0,0h0s-.13.09-.39.22c-.26.13-.63.35-1.11.62-.94.57-2.29,1.45-3.76,2.79-1.46,1.34-3.05,3.14-4.37,5.45-1.31,2.3-2.37,5.11-2.77,8.2l-.07-.15h0s.08.05.08.05v.1c-.07.53-.13,1.08-.19,1.64-.05.56-.03,1.13-.05,1.71.06,1.75.24,3.47.71,5.06l.15.6.2.58c.13.38.27.77.4,1.14.16.37.32.73.47,1.08.08.18.16.36.23.53.09.17.18.34.27.51,1.41,2.71,3.19,4.86,4.87,6.43,1.69,1.57,3.28,2.59,4.39,3.25.56.32,1.02.53,1.32.7.3.16.46.25.45.26,0,0-.17-.06-.48-.2-.31-.15-.78-.34-1.35-.65-1.13-.63-2.75-1.63-4.48-3.19-1.72-1.56-3.54-3.72-4.98-6.45-.09-.17-.18-.34-.28-.51-.08-.18-.16-.36-.24-.54-.16-.36-.32-.73-.48-1.1-.13-.38-.27-.77-.41-1.16l-.2-.59-.16-.61c-.48-1.61-.67-3.36-.73-5.14.02-.58,0-1.17.05-1.73.06-.57.12-1.12.18-1.67l.07.15h0s-.08-.05-.08-.05v-.1c.42-3.14,1.5-5.98,2.85-8.3,1.35-2.33,2.97-4.14,4.47-5.47,1.5-1.33,2.87-2.19,3.84-2.73.49-.26.87-.46,1.14-.58.26-.12.41-.18.41-.17h0s0,0,0,0Z"/></svg>