<?xml version="1.0" encoding="UTF-8"?><svg id="Layer_1" xmlns="http://www.w3.org/2000/svg" viewBox="0 0 19.13 19.09"><defs><style>.cls-1{fill:#fff;}.cls-2{opacity:.2;}.cls-3{opacity:.3;}.cls-4{fill:#ff745e;}</style></defs><g><path class="cls-4" d="m.11,8.39c-.64,5.23,3.09,9.99,8.32,10.63,5.23.64,9.99-3.09,10.63-8.32C19.69,5.47,15.97.71,10.74.07S.75,3.16.11,8.39Z"/><g><path class="cls-4" d="m7.49,12.63c-.14,1.14.67,2.17,1.81,2.31,1.14.14,2.17-.67,2.31-1.81.14-1.14-.67-2.17-1.81-2.31-1.14-.14-2.17.67-2.31,1.81Z"/><g class="cls-3"><path d="m7.49,12.63c-.14,1.14.67,2.17,1.81,2.31,1.14.14,2.17-.67,2.31-1.81.14-1.14-.67-2.17-1.81-2.31-1.14-.14-2.17.67-2.31,1.81Z"/></g><path class="cls-4" d="m7.27,12.62c-.14,1.14.6,2.16,1.74,2.3,1.14.14,2.11-.76,2.25-1.89.14-1.14-.61-2.07-1.75-2.21-1.14-.14-2.1.67-2.24,1.81Z"/></g><g class="cls-3"><path d="m7.62.19C5.29,1.29,3.44,3.31,2.6,5.84c0,0,.38.4.32.88-.06.4-.5.51-.66.54-.02.14-.05.28-.06.42-.09.72-.09,1.42-.02,2.11.03.02.81.61.86,1.16.03.41-.16.81-.35,1.1.06.16.12.32.18.48.54,1.28,1.35,2.43,2.38,3.36.09-.04.66-.27,1.16,0,.55.28.37,1.09.37,1.09l-.07.02c1.13.69,2.41,1.15,3.8,1.32,1.05.13,2.09.08,3.07-.13-1.57.73-3.35,1.05-5.19.83C3.16,18.38-.57,13.62.07,8.39.58,4.21,3.72.99,7.62.19Z"/></g><g class="cls-3"><path d="m2.63,7.85c-.02.13.07.24.2.26.13.02.24-.07.26-.2.02-.13-.07-.24-.2-.26s-.24.07-.26.2Z"/></g><g><path class="cls-4" d="m13.14,13.89c.09-.43.32-.83.58-1.19.17-.23.4-.48.69-.44l.24.04c.34-.13.76-.03,1.01.24.22.26.29.63.22.96-.07.33-.24.64-.45.9-.24.3-.51.57-.82.8-.17.13-.37.24-.58.25-.24,0-.46-.13-.61-.31-.29-.34-.36-.82-.27-1.26Z"/><g class="cls-3"><path d="m13.11,13.89c.09-.44.32-.83.58-1.19.17-.23.4-.48.69-.44l.24.04c.34-.13.76-.03,1.01.24.22.26.29.63.22.96s-.24.64-.45.9c-.24.3-.51.57-.82.8-.17.13-.37.24-.58.25-.24,0-.46-.13-.61-.31-.29-.34-.36-.82-.27-1.26Z"/></g><path class="cls-4" d="m12.92,13.86c.09-.43.32-.83.58-1.19.17-.23.34-.35.69-.44l.37-.06c.37.01.63.07.87.34.22.26.29.63.22.96-.07.33-.24.64-.45.9-.24.3-.51.57-.82.8-.17.13-.33.21-.55.21-.24,0-.39-.15-.55-.33-.29-.34-.46-.76-.37-1.2Z"/></g><g><path class="cls-4" d="m10.25,17.26c-.35.03-.69-.04-1.02-.13-.21-.06-.45-.16-.47-.34l-.02-.16c-.17-.19-.18-.48-.01-.69.15-.19.42-.31.69-.34.27-.03.53.03.78.1.28.09.54.21.77.36.13.08.26.18.31.32.05.15,0,.32-.11.45-.2.25-.56.39-.91.43Z"/><g class="cls-3"><path d="m10.29,17.27c-.35.03-.69-.04-1.02-.13-.21-.06-.45-.16-.47-.34l-.02-.16c-.17-.19-.18-.48-.01-.69.15-.19.42-.31.69-.34.27-.03.53.03.78.1.28.09.54.21.77.36.13.08.26.18.31.32.05.15,0,.32-.11.45-.2.25-.56.39-.91.43Z"/></g><path class="cls-4" d="m10.05,17.31c-.35.03-.69-.04-1.02-.13-.21-.06-.34-.15-.47-.34l-.12-.23c-.06-.24-.07-.41.09-.62.15-.19.42-.31.69-.34.27-.03.53.03.78.1.28.09.54.21.77.36.13.08.22.17.27.3.05.15-.04.28-.14.41-.2.25-.49.45-.84.48Z"/></g><g><path class="cls-4" d="m5.22,3.7c.29-.34.68-.57,1.09-.76.26-.12.59-.23.82-.05l.19.15c.36.05.68.34.76.7.07.33-.05.69-.27.95-.22.26-.52.44-.84.57-.35.15-.73.25-1.11.3-.21.03-.44.03-.63-.06-.21-.11-.34-.33-.39-.56-.09-.44.09-.89.38-1.23Z"/><g class="cls-3"><path d="m5.22,3.7c.29-.34.68-.57,1.09-.76.26-.12.59-.23.82-.05l.19.15c.36.05.68.34.76.7.07.33-.05.69-.27.95-.22.26-.52.44-.84.57-.35.15-.73.25-1.11.3-.21.03-.44.03-.63-.06-.21-.11-.34-.33-.39-.56-.09-.44.09-.89.38-1.23Z"/></g><path class="cls-4" d="m4.86,3.8c.29-.34.68-.57,1.09-.76.26-.12.47-.14.82-.05l.36.13c.32.19.52.37.6.73.07.33-.05.69-.27.95-.22.26-.52.44-.84.57-.35.15-.73.25-1.11.3-.21.03-.39.02-.58-.08-.21-.11-.27-.32-.32-.56-.09-.44-.03-.89.26-1.22Z"/></g><g><g><path class="cls-4" d="m14.26,10.62c.03-.1.09-.2.18-.26.12-.08.28-.07.43-.05.11.01.21.11.3.24.1.14.14.33.11.5-.04.17-.16.32-.32.39-.21.08-.46,0-.6-.18-.14-.17-.17-.42-.1-.64Z"/><g class="cls-3"><path d="m14.23,10.62c.03-.1.09-.2.18-.26.12-.08.28-.07.43-.05.11.01.21.1.3.24.1.14.14.33.11.5-.04.17-.16.32-.32.39-.21.08-.46,0-.6-.18s-.17-.42-.1-.64Z"/></g><path class="cls-4" d="m14.17,10.62c.03-.09.08-.18.17-.24.11-.07.26-.07.4-.05.11.01.2.1.28.22.09.13.13.3.1.46-.03.16-.14.3-.29.36-.19.07-.43,0-.55-.16-.13-.16-.16-.39-.09-.59Z"/></g><g class="cls-2"><path d="m14.17,10.62c.03-.09.08-.18.17-.24.11-.07.26-.07.4-.05.11.01.2.1.28.22.09.13.13.3.1.46-.03.16-.14.3-.29.36-.19.07-.43,0-.55-.16-.13-.16-.16-.39-.09-.59Z"/></g></g><g><g><path class="cls-4" d="m15.14,4.89c.03-.08.07-.16.14-.21.1-.06.23-.06.35-.04.09,0,.17.08.24.19.08.12.11.26.09.4-.03.14-.12.26-.26.31-.17.06-.37,0-.48-.14-.11-.14-.14-.34-.08-.51Z"/><g class="cls-3"><path d="m15.12,4.89c.03-.08.07-.16.14-.21.1-.06.23-.06.35-.04.09,0,.17.08.24.19.08.12.11.26.09.4-.03.14-.13.26-.26.31-.17.07-.37,0-.48-.14s-.14-.34-.08-.51Z"/></g><path class="cls-4" d="m15.06,4.9c.02-.08.07-.15.13-.19.09-.06.21-.05.32-.04.08,0,.16.08.22.18.07.11.11.24.08.37-.03.13-.12.24-.23.29-.15.06-.34,0-.45-.13s-.13-.31-.07-.47Z"/></g><g class="cls-2"><path d="m15.06,4.9c.02-.08.07-.15.13-.19.09-.06.21-.05.32-.04.08,0,.16.08.22.18.07.11.11.24.08.37-.03.13-.12.24-.23.29-.15.06-.34,0-.45-.13s-.13-.31-.07-.47Z"/></g></g><g><g><path class="cls-4" d="m10.07,2.02c.03-.11.09-.21.19-.27.13-.09.3-.07.45-.05.12.01.22.11.32.25.1.15.15.34.11.52-.04.18-.16.34-.33.41-.22.09-.49,0-.63-.19-.15-.18-.18-.45-.11-.67Z"/><g class="cls-3"><path d="m10.03,2.01c.03-.11.09-.21.19-.27.13-.09.3-.07.45-.05.12.01.22.11.32.25.1.15.15.34.11.52-.04.18-.16.34-.33.41-.22.09-.49,0-.63-.19-.15-.18-.18-.45-.11-.67Z"/></g><path class="cls-4" d="m9.96,2.02c.03-.1.09-.19.17-.25.12-.08.28-.07.42-.05.11.01.21.1.29.23.09.14.14.32.1.48-.03.16-.15.31-.31.37-.2.08-.45,0-.58-.17s-.16-.41-.1-.62Z"/></g><g class="cls-2"><path d="m9.96,2.02c.03-.1.09-.19.17-.25.12-.08.28-.07.42-.05.11.01.21.1.29.23.09.14.14.32.1.48-.03.16-.15.31-.31.37-.2.08-.45,0-.58-.17s-.16-.41-.1-.62Z"/></g></g><g><g><path class="cls-4" d="m11.93,2.35c.02-.05.05-.11.09-.14.07-.04.15-.04.23-.03.06,0,.11.06.16.13.05.08.08.17.06.26-.02.09-.08.17-.17.2-.11.04-.24,0-.32-.09-.07-.09-.09-.22-.05-.34Z"/><g class="cls-3"><path d="m11.92,2.35c.02-.05.05-.11.09-.14.07-.04.15-.04.23-.03.06,0,.11.06.16.13.05.08.08.17.06.26-.02.09-.08.17-.17.2-.11.04-.24,0-.32-.09-.07-.09-.09-.22-.05-.34Z"/></g><path class="cls-4" d="m11.88,2.35s.04-.1.09-.12c.06-.04.14-.03.21-.02.06,0,.1.05.15.12.05.07.07.16.05.24-.02.08-.08.16-.15.19-.1.04-.22,0-.29-.09-.07-.08-.08-.21-.05-.31Z"/></g><g class="cls-2"><path d="m11.88,2.35s.04-.1.09-.12c.06-.04.14-.03.21-.02.06,0,.1.05.15.12.05.07.07.16.05.24-.02.08-.08.16-.15.19-.1.04-.22,0-.29-.09-.07-.08-.08-.21-.05-.31Z"/></g></g><g class="cls-2"><path d="m7.27,12.62c-.14,1.14.6,2.16,1.74,2.3,1.14.14,2.11-.76,2.25-1.89.14-1.14-.61-2.07-1.75-2.21-1.14-.14-2.1.67-2.24,1.81Z"/></g><g class="cls-2"><path d="m12.92,13.86c.09-.43.32-.83.58-1.19.17-.23.34-.35.69-.44l.37-.06c.37.01.63.07.87.34.22.26.29.63.22.96-.07.33-.24.64-.45.9-.24.3-.51.57-.82.8-.17.13-.33.21-.55.21-.24,0-.39-.15-.55-.33-.29-.34-.46-.76-.37-1.2Z"/></g><g class="cls-2"><path d="m10.05,17.31c-.35.03-.69-.04-1.02-.13-.21-.06-.34-.15-.47-.34l-.12-.23c-.06-.24-.07-.41.09-.62.15-.19.42-.31.69-.34.27-.03.53.03.78.1.28.09.54.21.77.36.13.08.22.17.27.3.05.15-.04.28-.14.41-.2.25-.49.45-.84.48Z"/></g><g class="cls-2"><path d="m4.86,3.8c.29-.34.68-.57,1.09-.76.26-.12.47-.14.82-.05l.36.13c.32.19.52.37.6.73.07.33-.05.69-.27.95-.22.26-.52.44-.84.57-.35.15-.73.25-1.11.3-.21.03-.39.02-.58-.08-.21-.11-.27-.32-.32-.56-.09-.44-.03-.89.26-1.22Z"/></g></g><path class="cls-1" d="m17.55,14.4h0s0,0,0,0c-.01-.01.11-.24.31-.68.19-.44.44-1.08.62-1.92.18-.83.28-1.86.16-2.99-.12-1.13-.45-2.36-1.09-3.52l.09.05h0s-.06,0-.06,0l-.03-.06c-.12-.21-.24-.45-.38-.67-.38-.6-.82-1.13-1.29-1.6-.48-.46-.99-.86-1.51-1.19-1.04-.66-2.09-1.05-2.98-1.27-.9-.23-1.66-.3-2.18-.32-.52-.02-.81-.01-.81-.03,0,0,.07-.01.21-.02.14,0,.34-.03.6-.02.52,0,1.29.05,2.21.26.91.21,1.99.6,3.05,1.26.53.33,1.05.73,1.54,1.2.48.48.94,1.02,1.33,1.63.14.23.27.47.39.69l-.1-.05h0s.06,0,.06,0l.03.06c.64,1.19.98,2.45,1.09,3.6.11,1.15,0,2.19-.2,3.04-.2.84-.47,1.49-.68,1.92-.11.21-.2.38-.26.49-.07.11-.1.16-.11.16h0s0,0,0,0Z"/></svg>