<?xml version="1.0" encoding="UTF-8"?><svg id="Layer_1" xmlns="http://www.w3.org/2000/svg" viewBox="0 0 23.03 23.08"><defs><style>.cls-1{fill:#fff;}.cls-2{fill:#f5f5f5;}.cls-3{fill:#e1e1e1;}.cls-4{opacity:.3;}.cls-5{fill:#132f36;}</style></defs><circle class="cls-2" cx="11.58" cy="11.54" r="11.41" transform="translate(-4.77 11.57) rotate(-45)"/><path class="cls-3" d="m15.25.73c3.22,2.02,5.37,5.6,5.37,9.68,0,2.06-.54,3.99-1.5,5.65-1.97,3.44-5.67,5.76-9.91,5.76-1.27,0-2.49-.21-3.63-.59,1.75,1.1,3.82,1.73,6.04,1.73,6.3,0,11.41-5.11,11.41-11.41,0-5.03-3.26-9.3-7.78-10.82Z"/><g><path class="cls-3" d="m13.61,15.51c0,1.37-1.11,2.48-2.48,2.48s-2.48-1.11-2.48-2.48,1.11-2.48,2.48-2.48,2.48,1.11,2.48,2.48Z"/><g class="cls-4"><path d="m13.61,15.51c0,1.37-1.11,2.48-2.48,2.48s-2.48-1.11-2.48-2.48,1.11-2.48,2.48-2.48,2.48,1.11,2.48,2.48Z"/></g><path class="cls-3" d="m13.86,15.51c0,1.37-1.02,2.48-2.39,2.48s-2.39-1.2-2.39-2.57,1.02-2.37,2.39-2.37,2.39,1.1,2.39,2.47Z"/></g><path class="cls-3" d="m19.15,14.16c.13-.66,1.19-1.25,1.19-1.25l.33,1.25-.94,1.89s-.77-.98-.58-1.89Z"/><path class="cls-3" d="m20.4,8.16s-.51.41-.5,1c.01.59.77.76.77.76l.82-.88-1.09-.88Z"/><path class="cls-3" d="m15.84,19.71s-.71-.45-1.4-.19c-.7.25-.6,1.24-.6,1.24l1.39.62.61-1.67Z"/><path class="cls-3" d="m20.07,10.54c0,.15-.12.27-.27.27s-.27-.12-.27-.27.12-.27.27-.27.27.12.27.27Z"/><g><path class="cls-3" d="m6.72,16.18c-.04-.53-.26-1.03-.52-1.49-.16-.3-.41-.63-.75-.63h-.29c-.39-.2-.9-.14-1.23.16-.3.27-.43.7-.4,1.11s.2.79.41,1.14c.24.39.53.75.86,1.07.19.17.4.34.65.38.28.04.56-.08.77-.27.39-.36.54-.93.5-1.45Z"/><g class="cls-4"><path d="m6.72,16.18c-.04-.53-.26-1.03-.52-1.49-.16-.3-.41-.63-.75-.63h-.29c-.39-.2-.9-.14-1.23.16-.3.27-.43.7-.4,1.11s.2.79.41,1.14c.24.39.53.75.86,1.07.19.17.4.34.65.38.28.04.56-.08.77-.27.39-.36.54-.93.5-1.45Z"/></g><path class="cls-3" d="m7,16.18c-.04-.53-.26-1.03-.52-1.49-.16-.3-.36-.47-.75-.63l-.44-.13c-.44-.04-.76-.01-1.09.28-.3.27-.43.7-.4,1.11.03.41.2.79.41,1.14.24.39.53.75.86,1.07.19.17.36.29.62.33.28.04.49-.12.7-.31.39-.36.66-.84.61-1.36Z"/></g><g><path class="cls-3" d="m9.67,20.61c.41.09.83.06,1.23,0,.26-.04.55-.12.61-.34l.04-.19c.23-.2.28-.54.12-.81-.15-.25-.45-.43-.77-.5-.31-.07-.64-.05-.94.01-.34.06-.67.17-.97.31-.17.08-.33.18-.41.33-.08.17-.04.38.07.55.2.33.6.55,1.01.64Z"/><g class="cls-4"><path d="m9.67,20.61c.41.09.83.06,1.23,0,.26-.04.55-.12.61-.34l.04-.19c.23-.2.28-.54.12-.81-.15-.25-.45-.43-.77-.5-.31-.07-.64-.05-.94.01-.34.06-.67.17-.97.31-.17.08-.33.18-.41.33-.08.17-.04.38.07.55.2.33.6.55,1.01.64Z"/></g><path class="cls-3" d="m9.88,20.67c.41.09.83.06,1.23,0,.26-.04.42-.12.61-.34l.18-.25c.11-.27.15-.48-.02-.75-.15-.25-.45-.43-.77-.5-.31-.07-.64-.05-.94.01-.34.06-.67.17-.97.31-.17.08-.29.17-.36.32-.08.17,0,.34.11.51.2.33.51.6.92.69Z"/></g><g><path class="cls-3" d="m17.6,5.23c-.3-.44-.73-.77-1.18-1.05-.29-.18-.66-.35-.96-.18l-.25.15c-.44,0-.86.31-1,.72-.13.38-.04.82.19,1.16.22.34.56.59.91.8.4.23.83.4,1.27.51.25.06.52.1.76.01.26-.1.45-.35.54-.61.17-.5.03-1.07-.27-1.51Z"/><g class="cls-4"><path d="m17.6,5.23c-.3-.44-.73-.77-1.18-1.05-.29-.18-.66-.35-.96-.18l-.25.15c-.44,0-.86.31-1,.72-.13.38-.04.82.19,1.16.22.34.56.59.91.8.4.23.83.4,1.27.51.25.06.52.1.76.01.26-.1.45-.35.54-.61.17-.5.03-1.07-.27-1.51Z"/></g><path class="cls-3" d="m17.99,5.39c-.3-.44-.73-.77-1.18-1.05-.29-.18-.54-.24-.96-.18l-.44.1c-.41.18-.67.36-.81.77-.13.38-.04.82.19,1.16.22.34.56.59.91.8.4.23.83.4,1.27.51.25.06.46.08.7-.01.26-.1.37-.35.46-.61.17-.5.17-1.05-.13-1.49Z"/></g><g><path class="cls-3" d="m5.86,12.14c-.02-.13-.08-.25-.18-.33-.14-.11-.33-.13-.51-.12-.14,0-.27.09-.39.24-.14.16-.22.37-.2.57.02.21.14.41.32.51.24.13.55.06.74-.12.19-.19.26-.48.21-.74Z"/><g class="cls-4"><path d="m5.86,12.14c-.02-.13-.08-.25-.18-.33-.14-.11-.33-.13-.51-.12-.14,0-.27.09-.39.24-.14.16-.22.37-.2.57.02.21.14.41.32.51.24.13.55.06.74-.12.19-.19.26-.48.21-.74Z"/></g><path class="cls-3" d="m5.98,12.16c-.02-.12-.07-.23-.16-.31-.12-.1-.3-.12-.46-.11-.13,0-.25.09-.36.22-.13.14-.2.34-.18.53.02.19.13.37.3.46.22.12.5.06.68-.11.18-.17.24-.44.19-.68Z"/></g><g><path class="cls-3" d="m12.04,2.21c-.02-.13-.08-.25-.18-.33-.14-.11-.33-.13-.5-.12-.14,0-.27.09-.39.24-.14.16-.22.37-.2.57s.14.41.32.51c.24.13.55.06.74-.12.19-.19.26-.48.21-.74Z"/><g class="cls-4"><path d="m12.04,2.21c-.02-.13-.08-.25-.18-.33-.14-.11-.33-.13-.5-.12-.14,0-.27.09-.39.24-.14.16-.22.37-.2.57s.14.41.32.51c.24.13.55.06.74-.12.19-.19.26-.48.21-.74Z"/></g><path class="cls-3" d="m12.16,2.23c-.02-.12-.07-.23-.16-.31-.12-.1-.3-.12-.46-.11-.13,0-.25.09-.36.22-.13.14-.2.34-.18.53.02.19.13.37.3.46.22.12.5.06.68-.11.18-.17.24-.44.19-.68Z"/></g><g><path class="cls-3" d="m9.24,3.24c-.02-.08-.05-.16-.11-.21-.09-.07-.21-.08-.32-.08-.09,0-.17.06-.25.16-.09.1-.14.24-.13.37.01.13.09.26.21.32.15.08.35.04.48-.08.12-.12.17-.31.14-.48Z"/><g class="cls-4"><path d="m9.24,3.24c-.02-.08-.05-.16-.11-.21-.09-.07-.21-.08-.32-.08-.09,0-.17.06-.25.16-.09.1-.14.24-.13.37.01.13.09.26.21.32.15.08.35.04.48-.08.12-.12.17-.31.14-.48Z"/></g><path class="cls-3" d="m9.31,3.25c-.01-.07-.05-.15-.1-.2-.08-.07-.19-.07-.3-.07-.08,0-.16.06-.23.14-.08.09-.13.22-.12.34.01.12.08.24.19.3.14.07.32.04.44-.07.11-.11.16-.28.12-.44Z"/></g><g><path class="cls-3" d="m4.96,4.78c-.02-.08-.05-.16-.11-.21-.09-.07-.21-.08-.32-.08-.09,0-.17.06-.25.16-.09.1-.14.24-.13.37.01.13.09.26.21.32.15.08.35.04.48-.08.12-.12.17-.31.14-.48Z"/><g class="cls-4"><path d="m4.96,4.78c-.02-.08-.05-.16-.11-.21-.09-.07-.21-.08-.32-.08-.09,0-.17.06-.25.16-.09.1-.14.24-.13.37.01.13.09.26.21.32.15.08.35.04.48-.08.12-.12.17-.31.14-.48Z"/></g><path class="cls-3" d="m5.04,4.8c-.01-.07-.05-.15-.1-.2-.08-.07-.19-.07-.3-.07-.08,0-.16.06-.23.14-.08.09-.13.22-.12.34.01.12.08.24.19.3.14.07.32.04.44-.07.11-.11.16-.28.12-.44Z"/></g><path class="cls-1" d="m2.79,5.4s-.34.58-.74,1.57c-.4.99-.76,2.44-.72,4.07.03,1.64.25,3.11.54,4.14.28,1.03.58,1.64.53,1.66-.03.02-.41-.55-.76-1.59-.36-1.03-.62-2.54-.65-4.2-.04-1.68.36-3.19.83-4.17.23-.5.47-.88.65-1.12.18-.25.3-.37.31-.36Z"/><path class="cls-1" d="m8.09,1.31c.05.11-1.15.59-2.48,1.39-.66.41-1.19.87-1.53,1.24-.35.37-.53.63-.57.61-.04-.02.07-.33.39-.76.31-.43.85-.94,1.54-1.37,1.38-.83,2.63-1.16,2.66-1.1Z"/><path class="cls-3" d="m13.54,13.06s.32.18.6.67c.29.48.53,1.28.38,2.15-.16.87-.66,1.54-1.09,1.89-.44.36-.78.46-.8.42-.03-.05.27-.22.63-.6.36-.37.78-1,.92-1.78.14-.78-.04-1.51-.26-1.99-.21-.48-.43-.74-.39-.78Z"/><path class="cls-3" d="m12.22,20.23c-.07-.06.02-.29-.01-.57-.02-.28-.16-.49-.1-.57.04-.08.39.1.43.53.04.43-.26.68-.32.61Z"/><path class="cls-3" d="m12.57,19.67c-.09.02-.18,0-.19-.07-.01-.06.05-.13.14-.15.09-.02.18,0,.19.07.01.06-.05.13-.14.15Z"/><path class="cls-3" d="m6.79,14.38s.17.14.32.44c.15.29.35.73.36,1.27.02.55-.22,1.01-.45,1.27-.23.26-.44.34-.46.31-.03-.04.11-.18.27-.45.16-.26.32-.66.31-1.12-.01-.46-.15-.88-.25-1.19-.1-.31-.15-.51-.1-.53Z"/><path class="cls-3" d="m7.53,15.82c.07-.06.27.08.31.36.04.27-.11.47-.19.43-.09-.03-.11-.2-.14-.38-.02-.18-.05-.35.02-.41Z"/><path class="cls-3" d="m6.01,11.65c.06-.07.4.18.42.67.02.48-.3.77-.36.7-.07-.06.05-.34.03-.69,0-.35-.15-.62-.08-.68Z"/><path class="cls-3" d="m18.71,6.65s.14.1.16.33c.02.23-.05.58-.33.83-.28.25-.64.3-.86.25-.23-.04-.34-.15-.32-.19.02-.08.55.06.95-.31.4-.37.32-.9.4-.92Z"/><path class="cls-3" d="m8.24,8.85s.15-.22.51-.07c.16.08.33.31.25.58-.09.27-.33.41-.57.47-.24.06-.54.06-.73-.18-.17-.26-.05-.51.06-.63.25-.23.44-.23.46-.2.03.04-.14.15-.27.35-.06.09-.07.24,0,.29.05.07.23.09.4.05.17-.04.32-.15.36-.24.05-.1,0-.22-.08-.28-.17-.14-.37-.09-.38-.13Z"/><path class="cls-3" d="m12.25,2.09s.16.03.23.24c.07.2.03.52-.2.77-.23.24-.51.31-.69.32-.19.01-.31-.03-.31-.07-.02-.1.45-.17.76-.48.14-.15.2-.36.21-.5,0-.15-.03-.25,0-.28Z"/><path class="cls-3" d="m12.55,3.04c.07.05.06.2-.07.3-.13.09-.28.06-.31-.02-.03-.09.03-.19.11-.25.08-.06.19-.08.27-.03Z"/><path class="cls-3" d="m9.47,3.83c-.07-.06-.04-.22-.07-.39-.01-.17-.06-.32,0-.4.05-.08.31.05.34.37.03.31-.21.49-.27.42Z"/><path class="cls-5" d="m22.99,11.54c-.06,0,.02-1.02-.42-2.77-.21-.88-.62-1.91-1.27-3.01-.66-1.09-1.6-2.23-2.89-3.2-1.28-.96-2.89-1.77-4.75-2.1-1.85-.31-3.93-.26-5.91.5-1,.35-1.96.87-2.85,1.53-.46.31-.86.71-1.28,1.09-.38.42-.78.83-1.1,1.3C1.14,6.74.36,9.1.34,11.54c.02,2.44.8,4.81,2.19,6.65.33.48.72.89,1.1,1.3.42.38.82.77,1.28,1.09.88.66,1.85,1.19,2.85,1.53,1.98.76,4.07.81,5.91.5,1.86-.33,3.47-1.14,4.75-2.1,1.28-.97,2.23-2.1,2.88-3.2.65-1.1,1.07-2.13,1.27-3.01.44-1.75.36-2.78.42-2.77,0,0,0,.06,0,.18,0,.14,0,.32-.01.54,0,.24-.01.54-.07.88-.05.35-.09.75-.22,1.19-.19.89-.59,1.95-1.24,3.07-.65,1.12-1.6,2.29-2.9,3.29-1.3.99-2.94,1.83-4.84,2.18-1.89.34-4.03.28-6.07-.48-1.03-.35-2.02-.89-2.93-1.57-.47-.32-.88-.72-1.31-1.11-.39-.43-.8-.85-1.14-1.34C.83,16.49.02,14.05,0,11.54c.02-2.51.83-4.95,2.26-6.84.34-.49.75-.91,1.14-1.34.43-.39.84-.79,1.31-1.11.91-.68,1.9-1.21,2.93-1.57C9.68-.09,11.82-.14,13.71.2c1.9.35,3.55,1.19,4.84,2.18,1.3,1,2.25,2.17,2.9,3.29.65,1.12,1.05,2.18,1.24,3.07.13.44.17.84.22,1.19.06.35.07.64.07.88,0,.22,0,.4.01.54,0,.12,0,.18,0,.18Z"/></svg>