<?xml version="1.0" encoding="UTF-8"?><svg id="Layer_1" xmlns="http://www.w3.org/2000/svg" viewBox="0 0 21.56 21.61"><defs><style>.cls-1{fill:#fff;}.cls-2{fill:#f5f5f5;}.cls-3{fill:#e1e1e1;}.cls-4{opacity:.3;}.cls-5{fill:#132f36;}</style></defs><circle class="cls-2" cx="10.84" cy="10.8" r="10.68"/><path class="cls-3" d="m14.28.68c3.02,1.89,5.02,5.24,5.02,9.06,0,1.93-.51,3.73-1.4,5.29-1.84,3.22-5.31,5.39-9.28,5.39-1.19,0-2.33-.2-3.4-.56,1.64,1.03,3.58,1.62,5.66,1.62,5.9,0,10.68-4.78,10.68-10.68,0-4.71-3.05-8.71-7.28-10.13Z"/><g><path class="cls-3" d="m12.74,14.52c0,1.28-1.04,2.32-2.32,2.32s-2.32-1.04-2.32-2.32,1.04-2.32,2.32-2.32,2.32,1.04,2.32,2.32Z"/><g class="cls-4"><path d="m12.74,14.52c0,1.28-1.04,2.32-2.32,2.32s-2.32-1.04-2.32-2.32,1.04-2.32,2.32-2.32,2.32,1.04,2.32,2.32Z"/></g><path class="cls-3" d="m12.98,14.52c0,1.28-.96,2.32-2.24,2.32s-2.24-1.13-2.24-2.41.96-2.22,2.24-2.22,2.24,1.03,2.24,2.31Z"/></g><path class="cls-3" d="m17.93,13.25c.13-.61,1.12-1.17,1.12-1.17l.31,1.17-.88,1.77s-.72-.92-.55-1.77Z"/><path class="cls-3" d="m19.1,7.64s-.48.39-.47.94c.01.55.72.71.72.71l.77-.82-1.02-.82Z"/><path class="cls-3" d="m14.83,18.45s-.66-.42-1.31-.18c-.65.24-.56,1.16-.56,1.16l1.3.58.57-1.56Z"/><path class="cls-3" d="m18.79,9.87c0,.14-.12.26-.26.26s-.26-.12-.26-.26.12-.26.26-.26.26.12.26.26Z"/><g><path class="cls-3" d="m6.29,15.15c-.04-.5-.25-.96-.49-1.4-.15-.28-.38-.59-.7-.59h-.28c-.36-.18-.84-.13-1.15.15-.28.25-.4.66-.38,1.04.03.38.19.74.38,1.07.22.37.49.7.81,1,.17.16.37.32.61.36.26.04.53-.08.72-.26.37-.34.51-.87.47-1.36Z"/><g class="cls-4"><path d="m6.29,15.15c-.04-.5-.25-.96-.49-1.4-.15-.28-.38-.59-.7-.59h-.28c-.36-.18-.84-.13-1.15.15-.28.25-.4.66-.38,1.04.03.38.19.74.38,1.07.22.37.49.7.81,1,.17.16.37.32.61.36.26.04.53-.08.72-.26.37-.34.51-.87.47-1.36Z"/></g><path class="cls-3" d="m6.55,15.15c-.04-.5-.25-.96-.49-1.4-.15-.28-.33-.44-.7-.59l-.41-.12c-.42-.04-.71,0-1.02.26-.28.25-.4.66-.38,1.04.03.38.19.74.38,1.07.22.37.49.7.81,1,.17.16.34.27.58.31.26.04.46-.12.65-.29.37-.34.61-.78.57-1.28Z"/></g><g><path class="cls-3" d="m9.05,19.29c.38.08.78.05,1.15,0,.24-.04.52-.11.57-.32l.04-.18c.22-.19.26-.51.11-.76-.14-.24-.43-.4-.72-.47-.29-.07-.6-.04-.88,0-.32.06-.63.16-.91.29-.16.08-.31.17-.38.31-.08.16-.04.35.06.52.19.31.56.51.95.6Z"/><g class="cls-4"><path d="m9.05,19.29c.38.08.78.05,1.15,0,.24-.04.52-.11.57-.32l.04-.18c.22-.19.26-.51.11-.76-.14-.24-.43-.4-.72-.47-.29-.07-.6-.04-.88,0-.32.06-.63.16-.91.29-.16.08-.31.17-.38.31-.08.16-.04.35.06.52.19.31.56.51.95.6Z"/></g><path class="cls-3" d="m9.25,19.35c.38.08.78.05,1.15,0,.24-.04.39-.12.57-.32l.16-.23c.1-.26.14-.45-.01-.7-.14-.24-.43-.4-.72-.47-.29-.07-.6-.04-.88,0-.32.06-.63.16-.91.29-.16.08-.27.16-.34.3-.08.16,0,.32.1.48.19.31.48.56.87.64Z"/></g><g><path class="cls-3" d="m16.48,4.9c-.28-.41-.68-.72-1.1-.99-.27-.17-.62-.33-.9-.17l-.24.14c-.41,0-.8.29-.94.68-.13.36-.03.77.18,1.09.21.32.52.56.85.75.37.21.77.38,1.19.48.23.06.48.1.71.01.25-.09.42-.32.51-.57.16-.47.02-1.01-.25-1.42Z"/><g class="cls-4"><path d="m16.48,4.9c-.28-.41-.68-.72-1.1-.99-.27-.17-.62-.33-.9-.17l-.24.14c-.41,0-.8.29-.94.68-.13.36-.03.77.18,1.09.21.32.52.56.85.75.37.21.77.38,1.19.48.23.06.48.1.71.01.25-.09.42-.32.51-.57.16-.47.02-1.01-.25-1.42Z"/></g><path class="cls-3" d="m16.84,5.04c-.28-.41-.68-.72-1.1-.99-.27-.17-.51-.22-.9-.17l-.41.09c-.38.17-.63.34-.76.72-.13.36-.03.77.18,1.09.21.32.52.56.85.75.37.21.77.38,1.19.48.23.06.43.07.66-.01.25-.09.34-.32.43-.57.16-.47.16-.98-.12-1.39Z"/></g><g><path class="cls-3" d="m5.49,11.37c-.02-.12-.07-.23-.16-.31-.13-.11-.31-.12-.47-.12-.13,0-.25.09-.37.23-.13.15-.2.34-.19.54.02.19.13.38.3.47.22.12.51.06.69-.12.18-.18.25-.45.2-.69Z"/><g class="cls-4"><path d="m5.49,11.37c-.02-.12-.07-.23-.16-.31-.13-.11-.31-.12-.47-.12-.13,0-.25.09-.37.23-.13.15-.2.34-.19.54.02.19.13.38.3.47.22.12.51.06.69-.12.18-.18.25-.45.2-.69Z"/></g><path class="cls-3" d="m5.6,11.38c-.02-.11-.07-.22-.15-.29-.12-.1-.28-.11-.43-.11-.12,0-.23.08-.34.21-.12.13-.19.32-.17.49.02.18.12.35.28.43.2.11.47.05.64-.11.16-.16.23-.41.18-.64Z"/></g><g><path class="cls-3" d="m11.27,2.07c-.02-.12-.07-.23-.16-.31-.13-.11-.31-.12-.47-.12-.13,0-.25.09-.37.23-.13.15-.2.34-.19.54.02.19.13.38.3.47.22.12.51.06.69-.12.18-.18.25-.45.2-.69Z"/><g class="cls-4"><path d="m11.27,2.07c-.02-.12-.07-.23-.16-.31-.13-.11-.31-.12-.47-.12-.13,0-.25.09-.37.23-.13.15-.2.34-.19.54.02.19.13.38.3.47.22.12.51.06.69-.12.18-.18.25-.45.2-.69Z"/></g><path class="cls-3" d="m11.38,2.09c-.02-.11-.07-.22-.15-.29-.12-.1-.28-.11-.43-.11-.12,0-.23.08-.34.21-.12.13-.19.32-.17.49.02.18.12.35.28.43.2.11.47.05.64-.11.16-.16.23-.41.18-.64Z"/></g><g><path class="cls-3" d="m8.65,3.03c-.01-.08-.05-.15-.11-.2-.08-.07-.2-.08-.3-.07-.08,0-.16.06-.24.15-.08.09-.13.22-.12.35.01.12.08.25.19.3.14.08.33.04.45-.07.12-.11.16-.29.13-.45Z"/><g class="cls-4"><path d="m8.65,3.03c-.01-.08-.05-.15-.11-.2-.08-.07-.2-.08-.3-.07-.08,0-.16.06-.24.15-.08.09-.13.22-.12.35.01.12.08.25.19.3.14.08.33.04.45-.07.12-.11.16-.29.13-.45Z"/></g><path class="cls-3" d="m8.72,3.04c-.01-.07-.04-.14-.1-.18-.08-.06-.18-.07-.28-.07-.08,0-.15.05-.22.13-.08.09-.12.2-.11.32,0,.11.08.23.18.28.13.07.3.04.41-.07.11-.1.15-.26.12-.41Z"/></g><g><path class="cls-3" d="m4.65,4.48c-.01-.08-.05-.15-.11-.2-.08-.07-.2-.08-.3-.07-.08,0-.16.06-.24.15-.08.09-.13.22-.12.35.01.12.08.25.19.3.14.08.33.04.45-.07.12-.11.16-.29.13-.45Z"/><g class="cls-4"><path d="m4.65,4.48c-.01-.08-.05-.15-.11-.2-.08-.07-.2-.08-.3-.07-.08,0-.16.06-.24.15-.08.09-.13.22-.12.35.01.12.08.25.19.3.14.08.33.04.45-.07.12-.11.16-.29.13-.45Z"/></g><path class="cls-3" d="m4.71,4.49c-.01-.07-.04-.14-.1-.18-.08-.06-.18-.07-.28-.07-.08,0-.15.05-.22.13-.08.09-.12.2-.11.32,0,.11.08.23.18.28.13.07.3.04.41-.07.11-.1.15-.26.12-.41Z"/></g><path class="cls-1" d="m2.61,5.05s-.32.54-.7,1.47c-.38.92-.71,2.29-.67,3.81.03,1.54.23,2.91.5,3.88.27.97.54,1.53.5,1.55-.03.02-.38-.52-.71-1.49-.34-.97-.58-2.38-.61-3.93-.04-1.57.34-2.98.78-3.91.22-.46.44-.82.61-1.05.17-.23.28-.35.29-.33Z"/><path class="cls-1" d="m7.57,1.23c.05.1-1.08.55-2.32,1.3-.61.38-1.11.81-1.43,1.16-.32.34-.49.59-.53.57-.03-.02.07-.31.36-.71.29-.4.8-.88,1.44-1.28,1.3-.78,2.47-1.09,2.49-1.03Z"/><path class="cls-3" d="m12.68,12.23s.3.17.57.63c.27.45.5,1.2.35,2.02-.15.82-.62,1.44-1.02,1.77-.41.34-.73.43-.75.4-.02-.04.25-.2.59-.56.34-.35.73-.93.86-1.67.13-.73-.04-1.41-.24-1.86-.2-.45-.4-.7-.37-.73Z"/><path class="cls-3" d="m11.44,18.94c-.07-.06.02-.27-.01-.54-.02-.26-.15-.46-.09-.53.04-.08.37.1.41.5.04.4-.24.64-.3.57Z"/><path class="cls-3" d="m11.77,18.42c-.08.02-.16,0-.18-.07-.01-.06.04-.12.13-.14.08-.02.16,0,.18.07s-.04.12-.13.14Z"/><path class="cls-3" d="m6.36,13.47s.16.13.3.41c.14.27.33.68.34,1.19.02.51-.21.95-.42,1.19-.22.24-.41.32-.43.29-.03-.04.11-.17.25-.42.15-.25.3-.62.29-1.05-.01-.43-.14-.82-.23-1.11-.09-.29-.14-.48-.1-.49Z"/><path class="cls-3" d="m7.05,14.81c.07-.05.25.08.29.33.04.26-.1.44-.18.4-.08-.03-.1-.19-.13-.36-.02-.17-.05-.33.02-.38Z"/><path class="cls-3" d="m5.62,10.91c.05-.07.38.17.39.63.02.45-.28.72-.34.65-.07-.06.05-.32.03-.64,0-.33-.14-.58-.08-.64Z"/><path class="cls-3" d="m17.51,6.22s.13.09.15.31c.02.21-.05.54-.31.78-.26.24-.6.28-.81.23-.22-.04-.32-.14-.3-.18.02-.08.51.05.89-.29.38-.35.3-.84.38-.86Z"/><path class="cls-3" d="m7.71,8.28s.14-.2.47-.06c.15.07.31.29.23.54-.08.25-.31.38-.53.44-.22.05-.5.06-.69-.17-.16-.24-.05-.48.06-.59.23-.22.41-.22.43-.19.03.04-.13.14-.25.33-.05.09-.07.22,0,.28.05.06.22.09.38.04.16-.04.3-.14.33-.23.04-.09,0-.2-.08-.26-.16-.13-.34-.08-.35-.13Z"/><path class="cls-3" d="m11.47,1.96s.15.03.22.23c.06.19.03.49-.19.72-.21.22-.48.29-.65.3-.18.01-.29-.02-.29-.07-.02-.1.42-.15.71-.45.13-.14.19-.34.19-.47,0-.14-.03-.23,0-.26Z"/><path class="cls-3" d="m11.75,2.84c.07.05.05.19-.07.28-.12.09-.26.06-.29-.02-.03-.08.02-.18.1-.23.08-.06.18-.08.25-.02Z"/><path class="cls-3" d="m8.87,3.59c-.07-.06-.04-.21-.06-.37,0-.16-.06-.3,0-.37.05-.07.29.05.32.34.03.29-.19.46-.25.39Z"/><path class="cls-5" d="m21.52,10.8c-.06,0,.02-.95-.39-2.59-.19-.82-.58-1.79-1.19-2.82-.61-1.02-1.5-2.09-2.7-2.99-1.2-.9-2.71-1.66-4.45-1.96-1.73-.29-3.68-.24-5.54.47-.93.33-1.84.82-2.66,1.44-.43.29-.8.66-1.19,1.02-.35.39-.73.78-1.03,1.22C1.07,6.31.34,8.52.32,10.8c.02,2.28.75,4.5,2.05,6.22.31.45.68.83,1.03,1.22.39.35.77.72,1.19,1.02.83.62,1.73,1.11,2.66,1.44,1.86.71,3.81.76,5.54.47,1.74-.31,3.25-1.07,4.45-1.96,1.2-.9,2.09-1.97,2.7-2.99.61-1.03,1-2,1.19-2.82.41-1.64.34-2.6.39-2.59,0,0,0,.06,0,.17,0,.13,0,.3-.01.51,0,.22-.01.5-.07.83-.04.33-.09.7-.2,1.11-.18.83-.55,1.82-1.16,2.88-.61,1.05-1.5,2.14-2.72,3.08-1.21.93-2.75,1.72-4.53,2.04-1.77.31-3.77.27-5.68-.45-.96-.33-1.89-.83-2.74-1.47-.44-.3-.83-.68-1.23-1.04-.37-.4-.75-.8-1.06-1.25C.78,15.44.02,13.15,0,10.8c.02-2.35.78-4.63,2.11-6.4.32-.46.7-.85,1.06-1.25.4-.36.79-.74,1.23-1.04.85-.63,1.78-1.14,2.74-1.47,1.91-.72,3.91-.77,5.68-.45,1.78.32,3.32,1.12,4.53,2.04,1.22.93,2.11,2.03,2.72,3.08.61,1.05.98,2.04,1.16,2.88.12.41.16.79.2,1.11.06.32.07.6.07.83,0,.21,0,.38.01.51,0,.11,0,.17,0,.17Z"/></svg>