<?xml version="1.0" encoding="utf-8"?>
<!-- Generator: Adobe Illustrator 19.2.0, SVG Export Plug-In . SVG Version: 6.00 Build 0)  -->
<svg version="1.1" id="Layer_1" xmlns="http://www.w3.org/2000/svg" xmlns:xlink="http://www.w3.org/1999/xlink" x="0px" y="0px"
	 viewBox="0 0 21.3 21.3" style="enable-background:new 0 0 21.3 21.3;" xml:space="preserve">
<style type="text/css">
	.st0{fill:#FF8B08;}
	.st1{fill:#D25458;}
	.st2{fill:#77A5A8;}
</style>
<path class="st2" d="M20,2.2c0-0.1,0-0.1-0.1-0.2c0,0,0-0.1,0-0.1c-0.1-0.3-0.3-0.4-0.6-0.6c0,0-0.1,0-0.1,0c0,0-0.1,0-0.2,0L11,0
	c-0.3-0.1-0.6,0-0.9,0.2C9.9,0.4,9.7,0.7,9.7,1c0,0.3,0,0.6,0.2,0.9c0.2,0.3,0.4,0.4,0.7,0.4l5.8,0.9l-8.9,8.9L3.8,8.2
	c-0.4-0.4-1.2-0.4-1.6,0c-0.4,0.4-0.4,1.2,0,1.6L6,13.7l-5.7,5.7c-0.4,0.4-0.4,1.2,0,1.6c0.2,0.2,0.5,0.3,0.8,0.3S1.7,21.2,2,21
	l5.7-5.7l3.9,3.9c0.2,0.2,0.5,0.3,0.8,0.3s0.6-0.1,0.8-0.3c0.2-0.2,0.3-0.5,0.3-0.8s-0.1-0.6-0.3-0.8l-3.9-3.8l8.9-8.9l0.9,5.8
	c0.1,0.6,0.6,1,1.1,1c0.1,0,0.1,0,0.2,0c0.3,0,0.6-0.2,0.7-0.4c0.2-0.3,0.3-0.5,0.2-0.9L20,2.2z"/>
</svg>
