<?xml version="1.0" encoding="utf-8"?>
<!-- Generator: Adobe Illustrator 19.2.0, SVG Export Plug-In . SVG Version: 6.00 Build 0)  -->
<svg version="1.1" id="Layer_1" xmlns="http://www.w3.org/2000/svg" xmlns:xlink="http://www.w3.org/1999/xlink" x="0px" y="0px"
	 viewBox="0 0 20.6 23.1" style="enable-background:new 0 0 20.6 23.1;" xml:space="preserve">
<style type="text/css">
	.st0{fill:#FF8B08;}
	.st1{fill:#D25458;}
	.st2{fill:#77A5A8;}
</style>
<path class="st2" d="M0.9,20.8c-0.3,0.1-0.6,0.2-0.7,0.5C0,21.5,0,21.8,0,22.1c0.1,0.3,0.2,0.6,0.5,0.7C0.8,23,1.1,23.1,1.4,23
	c1.4-0.3,3-0.5,4.8-0.6c0.3,0.1,0.5,0.1,0.8-0.1c2.3-0.1,4.6-0.1,6.9,0c0.2,0.1,0.4,0.1,0.6,0c1.8,0.1,3.4,0.4,4.8,0.6
	c0.1,0,0.2,0,0.2,0c0.5,0,1-0.4,1.1-0.9c0.1-0.6-0.3-1.2-0.9-1.3c-1.3-0.3-2.8-0.5-4.4-0.6V2.9c1.6-0.1,3-0.3,4.4-0.6
	c0.3-0.1,0.6-0.2,0.7-0.5c0.2-0.3,0.2-0.6,0.2-0.9c-0.1-0.6-0.7-1-1.3-0.9c-5.4,1-12.4,1-17.8-0.1C0.8-0.1,0.2,0.3,0,0.9
	c-0.1,0.6,0.3,1.2,0.9,1.3c1.4,0.3,2.8,0.5,4.4,0.6v17.3C3.7,20.3,2.3,20.5,0.9,20.8z M7.6,20v-17c1,0.1,2,0.1,2.8,0.1
	c0.8,0,1.6,0,2.6-0.1v17c-1,0-1.9-0.1-2.8-0.1C9.3,20,8.4,20,7.6,20z"/>
</svg>
