<?xml version="1.0" encoding="utf-8"?>
<!-- Generator: Adobe Illustrator 19.2.0, SVG Export Plug-In . SVG Version: 6.00 Build 0)  -->
<svg version="1.1" id="Layer_1" xmlns="http://www.w3.org/2000/svg" xmlns:xlink="http://www.w3.org/1999/xlink" x="0px" y="0px"
	 viewBox="0 0 19.6 24" style="enable-background:new 0 0 19.6 24;" xml:space="preserve">
<style type="text/css">
	.st0{fill:#FF8B08;}
	.st1{fill:#D25458;}
	.st2{fill:#77A5A8;}
</style>
<path class="st2" d="M19.6,8.7c0-2.7-1.6-4.2-1.7-4.4C17.6,4,17.2,4,16.8,4.1c-0.6,0.2-1.1,0.4-1.6,0.7C15,2,13.5,0.5,13.3,0.3
	C13,0,12.6-0.1,12.2,0c-1.3,0.4-2.4,1.1-3.4,2.1C8.3,0.9,7.6,0.3,7.6,0.3C7.3,0,6.9-0.1,6.5,0C5.2,0.4,4.1,1.1,3.2,2.1
	C2.6,1,1.9,0.3,1.9,0.3C1.4-0.1,0.7-0.1,0.3,0.4C-0.1,0.8-0.1,1.6,0.4,2c0,0,1.1,1.1,1.1,3.1v15.1c0,0.6,0.5,1.1,1.1,1.1
	s1.1-0.5,1.1-1.1V5.1C4,4.6,4.9,3.2,6.5,2.5C6.8,3,7.2,3.8,7.2,5.1v15.1c0,0.6,0.5,1.1,1.1,1.1c0.1,0,0.1,0,0.2,0c0,0.2,0,0.3,0,0.5
	c0.2,0.5,0.6,0.8,1.1,0.8c0.1,0,0.2,0,0.3-0.1c1-0.3,2-0.7,2.9-1.3c0.1,1,0.5,1.7,1.1,2.2c0.5,0.3,1,0.5,1.6,0.5c0.3,0,0.6,0,1-0.1
	c0.3-0.1,0.5-0.3,0.7-0.5c0.2-0.3,0.2-0.6,0.1-0.9c-0.1-0.3-0.3-0.5-0.5-0.7c-0.3-0.2-0.6-0.2-0.9-0.1c-0.4,0.1-0.6,0.1-0.6,0
	c-0.1-0.1-0.3-0.5-0.3-1.3v-0.7C19.3,15.9,19.6,10.3,19.6,8.7z M15.2,16.3V8c0.1-0.2,0.4-0.9,1.6-1.5C17,7,17.4,7.7,17.4,8.7
	C17.4,10.4,17,13.6,15.2,16.3z M12.2,2.5c0.3,0.5,0.7,1.4,0.7,2.6v13.5c-1,0.8-2.1,1.3-3.4,1.7c0-0.1,0-0.1,0-0.2V5.1
	C9.7,4.6,10.6,3.3,12.2,2.5z"/>
</svg>
