<?xml version="1.0" encoding="utf-8"?>
<!-- Generator: Adobe Illustrator 19.2.0, SVG Export Plug-In . SVG Version: 6.00 Build 0)  -->
<svg version="1.1" id="Layer_1" xmlns="http://www.w3.org/2000/svg" xmlns:xlink="http://www.w3.org/1999/xlink" x="0px" y="0px"
	 viewBox="0 0 15 23.1" style="enable-background:new 0 0 15 23.1;" xml:space="preserve">
<style type="text/css">
	.st0{fill:#FF8B08;}
	.st1{fill:#D25458;}
	.st2{fill:#77A5A8;}
</style>
<path class="st2" d="M3,10.4H1.5c-0.6,0-1.1,0.5-1.1,1.1s0.5,1.1,1.1,1.1H3c-0.2,3.4-1.2,6.6-2.8,8.5c-0.4,0.5-0.3,1.2,0.2,1.6
	c0.2,0.2,0.4,0.3,0.7,0.3c0.3,0,0.7-0.2,0.9-0.4c1.9-2.3,3.1-6,3.3-10h4.4c0.2,4,1.4,7.6,3.3,10c0.2,0.3,0.5,0.4,0.9,0.4
	c0.3,0,0.5-0.1,0.7-0.3c0.2-0.2,0.4-0.5,0.4-0.8c0-0.3-0.1-0.6-0.3-0.8c-1.6-1.9-2.6-5.1-2.8-8.5h1.6c0.6,0,1.1-0.5,1.1-1.1
	s-0.5-1.1-1.1-1.1H12c0.2-3.4,1.2-6.6,2.8-8.5C15,1.6,15,1.3,15,1c0-0.3-0.2-0.6-0.4-0.8l0,0C14.1-0.1,13.4,0,13,0.4
	c-1.9,2.3-3.1,6-3.3,10H5.3c-0.2-4-1.4-7.6-3.3-10C1.8,0.2,1.6,0,1.3,0C1,0,0.7,0.1,0.4,0.3C0.2,0.5,0.1,0.7,0,1
	c0,0.3,0.1,0.6,0.3,0.8C1.8,3.8,2.8,6.9,3,10.4z"/>
</svg>
