<?xml version="1.0" encoding="utf-8"?>
<!-- Generator: Adobe Illustrator 19.2.0, SVG Export Plug-In . SVG Version: 6.00 Build 0)  -->
<svg version="1.1" id="Layer_1" xmlns="http://www.w3.org/2000/svg" xmlns:xlink="http://www.w3.org/1999/xlink" x="0px" y="0px"
	 viewBox="0 0 30 30" style="enable-background:new 0 0 30 30;" xml:space="preserve">
<style type="text/css">
	.st0{opacity:0.42;fill:#D25458;}
	.st1{opacity:0.42;}
	.st2{fill:#D25458;}
	.st3{opacity:0.42;fill:#77A5A8;}
	.st4{opacity:0.42;fill:#FF8B08;}
	.st5{fill:#FF8B08;}
</style>
<path class="st3" d="M22.8,12.4c0-2.2-1.2-3.3-1.4-3.5c-0.2-0.2-0.6-0.3-0.9-0.2c-0.5,0.1-0.9,0.3-1.3,0.6c-0.1-2.2-1.3-3.4-1.5-3.5
	c-0.2-0.2-0.6-0.3-0.9-0.2c-1,0.3-1.9,0.9-2.7,1.6c-0.4-0.9-1-1.4-1-1.4c-0.2-0.2-0.6-0.3-0.9-0.2c-1,0.3-1.9,0.9-2.7,1.6
	c-0.4-0.9-1-1.4-1-1.4C8.4,5.4,7.8,5.4,7.4,5.8C7.1,6.2,7.1,6.7,7.5,7.1c0,0,0.9,0.9,0.9,2.4v11.9c0,0.5,0.4,0.9,0.9,0.9
	c0.5,0,0.9-0.4,0.9-0.9V9.5c0.2-0.4,0.9-1.5,2.1-2c0.3,0.4,0.6,1.1,0.6,2v11.9c0,0.5,0.4,0.9,0.9,0.9c0.1,0,0.1,0,0.2,0
	c0,0.1,0,0.3,0,0.4c0.1,0.4,0.5,0.6,0.9,0.6c0.1,0,0.2,0,0.3,0c0.8-0.3,1.6-0.6,2.3-1c0.1,0.8,0.4,1.4,0.9,1.8
	c0.4,0.3,0.8,0.4,1.3,0.4c0.2,0,0.5,0,0.8-0.1c0.2-0.1,0.4-0.2,0.6-0.4c0.1-0.2,0.2-0.4,0.1-0.7c-0.1-0.2-0.2-0.4-0.4-0.6
	c-0.2-0.1-0.4-0.2-0.7-0.1c-0.3,0.1-0.4,0-0.5,0c-0.1-0.1-0.2-0.4-0.2-1v-0.6C22.5,18.1,22.8,13.7,22.8,12.4z M19.2,18.4v-6.6
	c0.1-0.2,0.3-0.7,1.3-1.2c0.2,0.4,0.5,0.9,0.5,1.7C21,13.8,20.7,16.3,19.2,18.4z M16.8,7.5c0.3,0.4,0.6,1.1,0.6,2v10.7
	c-0.8,0.6-1.7,1-2.7,1.4c0,0,0-0.1,0-0.1V9.5C14.9,9.2,15.6,8.1,16.8,7.5z"/>
</svg>
