<?xml version="1.0" encoding="utf-8"?>
<!-- Generator: Adobe Illustrator 19.2.0, SVG Export Plug-In . SVG Version: 6.00 Build 0)  -->
<svg version="1.1" id="Layer_1" xmlns="http://www.w3.org/2000/svg" xmlns:xlink="http://www.w3.org/1999/xlink" x="0px" y="0px"
	 viewBox="0 0 30 30" style="enable-background:new 0 0 30 30;" xml:space="preserve">
<style type="text/css">
	.st0{opacity:0.42;fill:#D25458;}
	.st1{opacity:0.42;}
	.st2{fill:#D25458;}
	.st3{opacity:0.42;fill:#77A5A8;}
	.st4{opacity:0.42;fill:#FF8B08;}
	.st5{fill:#FF8B08;}
</style>
<path class="st3" d="M22.4,8.3c0-0.1,0-0.1,0-0.1c0,0,0-0.1,0-0.1c-0.1-0.2-0.2-0.4-0.4-0.4c0,0-0.1,0-0.1,0c0,0-0.1,0-0.1,0l-6.4-1
	c-0.2,0-0.5,0-0.7,0.2c-0.2,0.1-0.3,0.4-0.4,0.6c0,0.2,0,0.5,0.2,0.7c0.1,0.2,0.4,0.3,0.6,0.4l4.6,0.7l-7,7l-3-3.1
	c-0.4-0.4-0.9-0.4-1.3,0c-0.4,0.4-0.4,0.9,0,1.3l3.1,3.1l-4.5,4.5c-0.4,0.4-0.4,0.9,0,1.3c0.2,0.2,0.4,0.3,0.6,0.3s0.5-0.1,0.6-0.3
	l4.5-4.5l3.1,3.1c0.2,0.2,0.4,0.3,0.6,0.3s0.5-0.1,0.6-0.3c0.2-0.2,0.3-0.4,0.3-0.6c0-0.2-0.1-0.5-0.3-0.6l-3.1-3l7-7l0.7,4.6
	c0.1,0.4,0.4,0.8,0.9,0.8c0,0,0.1,0,0.1,0c0.2,0,0.4-0.2,0.6-0.4c0.1-0.2,0.2-0.4,0.2-0.7L22.4,8.3z"/>
</svg>
