<?xml version="1.0" encoding="utf-8"?>
<!-- Generator: Adobe Illustrator 19.2.0, SVG Export Plug-In . SVG Version: 6.00 Build 0)  -->
<svg version="1.1" id="Layer_1" xmlns="http://www.w3.org/2000/svg" xmlns:xlink="http://www.w3.org/1999/xlink" x="0px" y="0px"
	 viewBox="0 0 30 30" style="enable-background:new 0 0 30 30;" xml:space="preserve">
<style type="text/css">
	.st0{opacity:0.42;fill:#D25458;}
	.st1{opacity:0.42;}
	.st2{fill:#D25458;}
	.st3{opacity:0.42;fill:#77A5A8;}
	.st4{opacity:0.42;fill:#FF8B08;}
	.st5{fill:#FF8B08;}
</style>
<path class="st3" d="M11.4,14.1h-1.2c-0.5,0-0.9,0.4-0.9,0.9c0,0.5,0.4,0.9,0.9,0.9h1.2c-0.2,2.7-1,5.2-2.2,6.8
	c-0.3,0.4-0.2,1,0.1,1.3c0.2,0.1,0.4,0.2,0.6,0.2c0.3,0,0.5-0.1,0.7-0.3c1.5-1.9,2.4-4.7,2.6-7.9h3.5c0.2,3.2,1.1,6,2.6,7.9
	c0.2,0.2,0.4,0.3,0.7,0.3c0.2,0,0.4-0.1,0.6-0.2c0.2-0.2,0.3-0.4,0.3-0.6c0-0.2,0-0.5-0.2-0.7c-1.2-1.5-2-4-2.2-6.8h1.2
	c0.5,0,0.9-0.4,0.9-0.9c0-0.5-0.4-0.9-0.9-0.9h-1.2c0.2-2.7,1-5.2,2.2-6.8C20.9,7.1,21,6.9,21,6.7c0-0.2-0.1-0.5-0.3-0.6l0,0
	c-0.4-0.3-1-0.2-1.3,0.1c-1.5,1.9-2.4,4.7-2.6,7.9h-3.5c-0.2-3.2-1.1-6-2.6-7.9c-0.2-0.2-0.4-0.3-0.6-0.3c-0.2,0-0.5,0-0.7,0.2
	S9.1,6.4,9.1,6.7c0,0.2,0,0.5,0.2,0.7C10.5,8.8,11.3,11.4,11.4,14.1z"/>
</svg>
