<?xml version="1.0" encoding="utf-8"?>
<!-- Generator: Adobe Illustrator 19.2.0, SVG Export Plug-In . SVG Version: 6.00 Build 0)  -->
<svg version="1.1" id="Layer_1" xmlns="http://www.w3.org/2000/svg" xmlns:xlink="http://www.w3.org/1999/xlink" x="0px" y="0px"
	 viewBox="0 0 30 30" style="enable-background:new 0 0 30 30;" xml:space="preserve">
<style type="text/css">
	.st0{opacity:0.42;fill:#D25458;}
	.st1{opacity:0.42;}
	.st2{fill:#D25458;}
	.st3{opacity:0.42;fill:#77A5A8;}
	.st4{opacity:0.42;fill:#FF8B08;}
	.st5{fill:#FF8B08;}
</style>
<path class="st3" d="M7.6,22.3c-0.2,0-0.4,0.2-0.6,0.4c-0.1,0.2-0.2,0.4-0.1,0.7c0,0.2,0.2,0.4,0.4,0.6c0.2,0.1,0.4,0.2,0.7,0.1
	c1.1-0.2,2.4-0.4,3.8-0.5c0.2,0.1,0.4,0,0.6,0c1.8-0.1,3.6-0.1,5.4,0c0.2,0.1,0.4,0.1,0.5,0c1.4,0.1,2.7,0.3,3.8,0.5
	c0.1,0,0.1,0,0.2,0c0.4,0,0.8-0.3,0.9-0.7c0.1-0.5-0.2-1-0.7-1.1c-1.1-0.2-2.2-0.4-3.5-0.5V8.2c1.2-0.1,2.4-0.3,3.5-0.5
	c0.2,0,0.4-0.2,0.6-0.4c0.1-0.2,0.2-0.4,0.1-0.7c-0.1-0.5-0.6-0.8-1.1-0.7c-4.3,0.8-9.8,0.8-14.1,0C7.5,5.8,7,6.1,6.9,6.6
	c-0.1,0.5,0.2,1,0.7,1.1C8.7,7.9,9.8,8,11.1,8.1v13.7C9.8,22,8.6,22.1,7.6,22.3z M12.9,21.7V8.3c0.8,0,1.6,0.1,2.2,0.1
	c0.6,0,1.3,0,2-0.1v13.5c-0.8,0-1.5-0.1-2.2-0.1C14.2,21.7,13.5,21.7,12.9,21.7z"/>
</svg>
