<?xml version="1.0" encoding="UTF-8"?><svg id="Layer_1" xmlns="http://www.w3.org/2000/svg" viewBox="0 0 35.61 35.45"><defs><style>.cls-1{fill:#fff;}.cls-2{opacity:.4;}.cls-3{opacity:.3;}.cls-4{opacity:.1;}.cls-5{fill:#2f6d7e;}</style></defs><circle class="cls-5" cx="17.82" cy="17.79" r="17.66"/><g class="cls-3"><path d="m10.09,28.33c3.19,1.38,6.51,2.12,9.94,2.62,2.54.37,4.96.76,7.18,1.82-.47.29-.95.57-1.45.82-2.54-.54-5.19-.7-7.72-1.02-3.49-.44-6.88-1.31-10.07-2.81-2.01-.94-3.91-2.11-5.66-3.47-.8-1.45-1.39-3.03-1.75-4.7.31.36.64.71.98,1.04,2.46,2.43,5.38,4.34,8.55,5.71Z"/></g><g class="cls-4"><path d="m6.34,30.32c.37-.11.94.26.79.68-.05.13-.17.25-.32.24-.04,0-.07-.02-.11-.02-.01,0-.03,0-.04,0-.33.02-.56-.26-.58-.56-.01-.16.12-.3.26-.34Z"/></g><g class="cls-3"><path d="m32.15,14.32c.47.55.84,1.2,1.37,1.69-.01-.01.77.42.74.63,0,.02,0,.03,0,.05-.02.21-.18.33-.39.29-.96-.17-1.81-1.01-2.52-1.63-.51-.45-1.02-.84-1.63-1.14-.65-.33-1.31-.47-1.87-.95-.43-.36-.05-1,.43-1.03,1.42-.08,2.98,1.06,3.86,2.1Z"/></g><g class="cls-3"><path d="m10.88,19.67c.41.48.03,1.21-.62,1.07-2.98-.68-5.08-2.58-6.87-5.02-.76-1.03-1.58-2.29-2.28-3.63.58-1.25.72-2,1.43-3.16.89,1.46,1.01,3.46,1.91,4.82,1.58,2.4,4.58,3.74,6.43,5.93Z"/></g><g class="cls-3"><path d="m9.07,31.7c2.33.7,4.69,1.22,7.08,1.68,1.83.36,3.74.53,5.24,1.59-.99.33-1.98.18-3.04.33-.03,0-.06-.06-.09-.06-1.22-.21-2.49.09-3.7-.18-2.12-.46-4.25-1.25-5.79-2.85-.21-.22,0-.6.3-.51Z"/></g><g class="cls-3"><path d="m27.6,20.47c-.2-.57.47-.91.92-.71,1.33.6,2.21,2.03,3.4,2.88.72.51,1.59.96,2.49,1.25-.18.49-.38.96-.6,1.42-.76-.15-1.51-.47-2.22-.89-1.48-.86-3.41-2.29-3.99-3.96Z"/></g><g class="cls-4"><path d="m30.22,7.07c-1.59.18-2.89-.32-4.39-.78-1.45-.44-3.07-.46-4.43-1.17-1.45-.75-3.56-2.9-2.6-4.43,0-.02.37-.47.38-.49,2.95.14,4.75.97,6.55,1.79,2.44,1.11,4.58,3.11,5.97,4.88-.29,0-.51.05-.8,0-.21.1-.43.17-.68.19Z"/></g><path d="m9.83,16.44s0,0,.01,0c.02,0,.02,0-.01,0Z"/><g class="cls-4"><path d="m14.29,22.43c.07-.42.3-.81.6-1.11.2-.21.48-.36.76-.4h-.04s.03,0,.05,0c.13-.02.26,0,.37.06.73.12,1.52.37,1.94.91.34.43.56,1.06.28,1.53-.28.48-.91.59-1.46.66-.77.09-1.67.14-2.19-.44-.29-.32-.39-.78-.32-1.2Z"/></g><g class="cls-2"><path d="m1.2,11.42s0,0,0,0c.74-1.88,1.8-3.63,3.12-5.15h0c.06-.07.11-.13.17-.2,0,0,0,0,0,0,.47-.53.97-1.02,1.51-1.49-.2.21-.41.42-.6.64,0,0,0,0,0,0-.06.06-.12.13-.17.2h0c-1.32,1.53-2.38,3.28-3.12,5.15,0,0,0,0,0,0-3.11,7.6-.02,17.02,6.98,21.3h0c.68.43,1.39.81,2.12,1.15h0c6.15,2.89,13.96,1.72,18.97-2.84-7.23,7.75-20.95,6.7-26.9-2.08h0c-1.4-1.94-2.42-4.26-2.91-6.64-.7-3.33-.42-6.87.83-10.03Z"/></g><path class="cls-1" d="m24.83,33.89s.04-.03.12-.08c.1-.05.21-.12.36-.2.34-.18.8-.42,1.39-.74h.03s-.07.02-.06.04l.03-.04c.07-.04.14-.09.22-.14h.02s.02,0,.02,0h0s-.04,0-.04,0c1.21-.76,2.9-1.99,4.5-3.97l.09-.04s-.13.05-.12.09l.02-.06c1.41-1.75,2.74-4.11,3.41-6.98.69-2.84.68-6.18-.36-9.41l.13.11h0s-.1-.01-.1-.01l-.04-.1c-.13-.35-.26-.72-.39-1.09-.14-.37-.25-.76-.45-1.11-.22-.43-.44-.86-.66-1.29-.25-.41-.53-.79-.79-1.19-.24-.41-.56-.75-.86-1.11-.31-.34-.57-.73-.93-1.03-.33-.31-.66-.62-.99-.93-.33-.3-.71-.55-1.05-.82l-.52-.4c-.18-.13-.37-.23-.55-.34-.37-.22-.73-.44-1.09-.66C23.2.85,20.15.23,17.61.22c-2.55-.01-4.58.54-5.92,1.02-.67.24-1.16.51-1.51.65-.16.07-.29.13-.39.17-.09.04-.14.05-.14.05s.04-.03.12-.08c.1-.05.23-.12.38-.2.34-.16.82-.45,1.49-.71C12.98.61,15.02.01,17.61,0c2.57-.02,5.68.59,8.71,2.17.37.22.74.44,1.11.67.19.12.38.22.56.35l.53.4c.35.28.73.53,1.07.83.33.31.67.63,1.01.94.36.3.63.69.94,1.04.31.36.63.71.88,1.13.27.4.55.8.8,1.21.22.43.44.87.67,1.31.21.36.32.75.46,1.13.14.38.27.75.4,1.11l-.13-.11h0s.1.01.1.01l.03.1c1.06,3.29,1.05,6.69.34,9.57-.7,2.91-2.07,5.3-3.52,7.05l.02-.06s-.09.12-.12.1l.09-.04c-1.64,1.98-3.37,3.2-4.6,3.93h-.02s-.02,0-.02,0h0s.04,0,.04,0c-.08.05-.16.09-.23.13l.03-.04s-.05.06-.07.05h.03c-.6.28-1.08.51-1.42.68-.15.07-.27.12-.37.17-.08.04-.13.05-.13.05Z"/></svg>