<?xml version="1.0" encoding="utf-8"?>
<!-- Generator: Adobe Illustrator 19.2.0, SVG Export Plug-In . SVG Version: 6.00 Build 0)  -->
<svg version="1.1" id="Layer_1" xmlns="http://www.w3.org/2000/svg" xmlns:xlink="http://www.w3.org/1999/xlink" x="0px" y="0px"
	 viewBox="0 0 21.6 21.6" style="enable-background:new 0 0 21.6 21.6;" xml:space="preserve">
<style type="text/css">
	.st0{fill:#F8CA30;}
	.st1{opacity:0.7;}
	.st2{fill:#FFFFFF;}
	.st3{fill:#F9C233;}
	.st4{opacity:0.4;}
	.st5{opacity:0.2;}
	.st6{opacity:0.1;}
	.st7{fill:#F8F5DE;fill-opacity:0.4512;}
	.st8{fill:#F8F4C7;fill-opacity:0.4512;}
	.st9{fill:#F9F1A1;fill-opacity:0.4421;}
	.st10{fill:url(#SVGID_1_);}
	.st11{fill:#F8A276;}
	.st12{opacity:0.13;}
	.st13{opacity:0.25;}
	.st14{fill:#F5F5F5;}
	.st15{fill:#E1E1E1;}
	.st16{opacity:0.3;}
	.st17{fill:#132F36;}
	.st18{fill:#375A64;}
	.st19{fill:#FF745E;}
	.st20{fill:#F9A868;}
	.st21{fill:#F68E62;}
	.st22{fill:#AB8C81;}
	.st23{fill:#2F6D7E;}
	.st24{fill:#D68D67;}
</style>
<g>
	<g>
		<circle class="st14" cx="10.8" cy="10.8" r="10.7"/>
	</g>
	<g>
		<path class="st15" d="M14.3,0.7c3,1.9,5,5.2,5,9.1c0,1.9-0.5,3.7-1.4,5.3c-1.8,3.2-5.3,5.4-9.3,5.4c-1.2,0-2.3-0.2-3.4-0.6
			c1.6,1,3.6,1.6,5.7,1.6c5.9,0,10.7-4.8,10.7-10.7C21.6,6.1,18.5,2.1,14.3,0.7z"/>
	</g>
	<g>
		<g>
			<circle class="st15" cx="10.4" cy="14.5" r="2.3"/>
		</g>
		<g class="st16">
			<circle cx="10.4" cy="14.5" r="2.3"/>
		</g>
		<g>
			<path class="st15" d="M13,14.5c0,1.3-1,2.3-2.2,2.3s-2.2-1.1-2.2-2.4s1-2.2,2.2-2.2S13,13.2,13,14.5z"/>
		</g>
	</g>
	<g>
		<path class="st15" d="M17.9,13.3c0.1-0.6,1.1-1.2,1.1-1.2l0.3,1.2L18.5,15C18.5,15,17.8,14.1,17.9,13.3z"/>
	</g>
	<g>
		<path class="st15" d="M19.1,7.6c0,0-0.5,0.4-0.5,0.9c0,0.5,0.7,0.7,0.7,0.7l0.8-0.8L19.1,7.6z"/>
	</g>
	<g>
		<path class="st15" d="M14.8,18.5c0,0-0.7-0.4-1.3-0.2c-0.7,0.2-0.6,1.2-0.6,1.2l1.3,0.6L14.8,18.5z"/>
	</g>
	<g>
		<circle class="st15" cx="18.5" cy="9.9" r="0.3"/>
	</g>
	<g>
		<g>
			<path class="st15" d="M6.3,15.2c0-0.5-0.2-1-0.5-1.4c-0.2-0.3-0.4-0.6-0.7-0.6l-0.3,0C4.5,13,4,13,3.7,13.3
				c-0.3,0.3-0.4,0.7-0.4,1c0,0.4,0.2,0.7,0.4,1.1c0.2,0.4,0.5,0.7,0.8,1c0.2,0.2,0.4,0.3,0.6,0.4c0.3,0,0.5-0.1,0.7-0.3
				C6.2,16.2,6.3,15.6,6.3,15.2z"/>
		</g>
		<g class="st16">
			<g>
				<path d="M6.3,15.2c0-0.5-0.2-1-0.5-1.4c-0.2-0.3-0.4-0.6-0.7-0.6l-0.3,0C4.5,13,4,13,3.7,13.3c-0.3,0.3-0.4,0.7-0.4,1
					c0,0.4,0.2,0.7,0.4,1.1c0.2,0.4,0.5,0.7,0.8,1c0.2,0.2,0.4,0.3,0.6,0.4c0.3,0,0.5-0.1,0.7-0.3C6.2,16.2,6.3,15.6,6.3,15.2z"/>
			</g>
		</g>
		<g>
			<path class="st15" d="M6.5,15.2c0-0.5-0.2-1-0.5-1.4c-0.2-0.3-0.3-0.4-0.7-0.6L5,13c-0.4,0-0.7,0-1,0.3c-0.3,0.3-0.4,0.7-0.4,1
				c0,0.4,0.2,0.7,0.4,1.1c0.2,0.4,0.5,0.7,0.8,1c0.2,0.2,0.3,0.3,0.6,0.3c0.3,0,0.5-0.1,0.7-0.3C6.3,16.1,6.6,15.6,6.5,15.2z"/>
		</g>
	</g>
	<g>
		<g>
			<path class="st15" d="M9.1,19.3c0.4,0.1,0.8,0.1,1.2,0c0.2,0,0.5-0.1,0.6-0.3l0-0.2c0.2-0.2,0.3-0.5,0.1-0.8
				c-0.1-0.2-0.4-0.4-0.7-0.5c-0.3-0.1-0.6,0-0.9,0c-0.3,0.1-0.6,0.2-0.9,0.3C8.3,17.9,8.1,18,8,18.2c-0.1,0.2,0,0.4,0.1,0.5
				C8.3,19,8.7,19.2,9.1,19.3z"/>
		</g>
		<g class="st16">
			<g>
				<path d="M9.1,19.3c0.4,0.1,0.8,0.1,1.2,0c0.2,0,0.5-0.1,0.6-0.3l0-0.2c0.2-0.2,0.3-0.5,0.1-0.8c-0.1-0.2-0.4-0.4-0.7-0.5
					c-0.3-0.1-0.6,0-0.9,0c-0.3,0.1-0.6,0.2-0.9,0.3C8.3,17.9,8.1,18,8,18.2c-0.1,0.2,0,0.4,0.1,0.5C8.3,19,8.7,19.2,9.1,19.3z"/>
			</g>
		</g>
		<g>
			<path class="st15" d="M9.3,19.4c0.4,0.1,0.8,0.1,1.2,0c0.2,0,0.4-0.1,0.6-0.3l0.2-0.2c0.1-0.3,0.1-0.4,0-0.7
				c-0.1-0.2-0.4-0.4-0.7-0.5c-0.3-0.1-0.6,0-0.9,0c-0.3,0.1-0.6,0.2-0.9,0.3c-0.2,0.1-0.3,0.2-0.3,0.3c-0.1,0.2,0,0.3,0.1,0.5
				C8.6,19,8.9,19.3,9.3,19.4z"/>
		</g>
	</g>
	<g>
		<g>
			<path class="st15" d="M16.5,4.9c-0.3-0.4-0.7-0.7-1.1-1c-0.3-0.2-0.6-0.3-0.9-0.2l-0.2,0.1c-0.4,0-0.8,0.3-0.9,0.7
				c-0.1,0.4,0,0.8,0.2,1.1C13.7,6,14,6.2,14.3,6.4c0.4,0.2,0.8,0.4,1.2,0.5c0.2,0.1,0.5,0.1,0.7,0c0.2-0.1,0.4-0.3,0.5-0.6
				C16.9,5.8,16.8,5.3,16.5,4.9z"/>
		</g>
		<g class="st16">
			<g>
				<path d="M16.5,4.9c-0.3-0.4-0.7-0.7-1.1-1c-0.3-0.2-0.6-0.3-0.9-0.2l-0.2,0.1c-0.4,0-0.8,0.3-0.9,0.7c-0.1,0.4,0,0.8,0.2,1.1
					C13.7,6,14,6.2,14.3,6.4c0.4,0.2,0.8,0.4,1.2,0.5c0.2,0.1,0.5,0.1,0.7,0c0.2-0.1,0.4-0.3,0.5-0.6C16.9,5.8,16.8,5.3,16.5,4.9z"
					/>
			</g>
		</g>
		<g>
			<path class="st15" d="M16.8,5c-0.3-0.4-0.7-0.7-1.1-1c-0.3-0.2-0.5-0.2-0.9-0.2L14.4,4c-0.4,0.2-0.6,0.3-0.8,0.7
				c-0.1,0.4,0,0.8,0.2,1.1c0.2,0.3,0.5,0.6,0.9,0.7c0.4,0.2,0.8,0.4,1.2,0.5c0.2,0.1,0.4,0.1,0.7,0c0.2-0.1,0.3-0.3,0.4-0.6
				C17.1,6,17.1,5.5,16.8,5z"/>
		</g>
	</g>
	<g>
		<g>
			<path class="st15" d="M5.5,11.4c0-0.1-0.1-0.2-0.2-0.3c-0.1-0.1-0.3-0.1-0.5-0.1c-0.1,0-0.3,0.1-0.4,0.2
				c-0.1,0.1-0.2,0.3-0.2,0.5c0,0.2,0.1,0.4,0.3,0.5c0.2,0.1,0.5,0.1,0.7-0.1C5.5,11.9,5.5,11.6,5.5,11.4z"/>
		</g>
		<g class="st16">
			<g>
				<path d="M5.5,11.4c0-0.1-0.1-0.2-0.2-0.3c-0.1-0.1-0.3-0.1-0.5-0.1c-0.1,0-0.3,0.1-0.4,0.2c-0.1,0.1-0.2,0.3-0.2,0.5
					c0,0.2,0.1,0.4,0.3,0.5c0.2,0.1,0.5,0.1,0.7-0.1C5.5,11.9,5.5,11.6,5.5,11.4z"/>
			</g>
		</g>
		<g>
			<path class="st15" d="M5.6,11.4c0-0.1-0.1-0.2-0.2-0.3C5.3,11,5.2,11,5,11c-0.1,0-0.2,0.1-0.3,0.2c-0.1,0.1-0.2,0.3-0.2,0.5
				c0,0.2,0.1,0.4,0.3,0.4C5,12.2,5.3,12.2,5.4,12C5.6,11.9,5.6,11.6,5.6,11.4z"/>
		</g>
	</g>
	<g>
		<g>
			<path class="st15" d="M11.3,2.1c0-0.1-0.1-0.2-0.2-0.3c-0.1-0.1-0.3-0.1-0.5-0.1c-0.1,0-0.3,0.1-0.4,0.2
				c-0.1,0.1-0.2,0.3-0.2,0.5c0,0.2,0.1,0.4,0.3,0.5c0.2,0.1,0.5,0.1,0.7-0.1C11.3,2.6,11.3,2.3,11.3,2.1z"/>
		</g>
		<g class="st16">
			<g>
				<path d="M11.3,2.1c0-0.1-0.1-0.2-0.2-0.3c-0.1-0.1-0.3-0.1-0.5-0.1c-0.1,0-0.3,0.1-0.4,0.2c-0.1,0.1-0.2,0.3-0.2,0.5
					c0,0.2,0.1,0.4,0.3,0.5c0.2,0.1,0.5,0.1,0.7-0.1C11.3,2.6,11.3,2.3,11.3,2.1z"/>
			</g>
		</g>
		<g>
			<path class="st15" d="M11.4,2.1c0-0.1-0.1-0.2-0.2-0.3c-0.1-0.1-0.3-0.1-0.4-0.1c-0.1,0-0.2,0.1-0.3,0.2
				c-0.1,0.1-0.2,0.3-0.2,0.5c0,0.2,0.1,0.4,0.3,0.4c0.2,0.1,0.5,0.1,0.6-0.1C11.4,2.6,11.4,2.3,11.4,2.1z"/>
		</g>
	</g>
	<g>
		<g>
			<path class="st15" d="M8.6,3c0-0.1,0-0.2-0.1-0.2C8.5,2.8,8.3,2.8,8.2,2.8C8.2,2.8,8.1,2.8,8,2.9C7.9,3,7.9,3.1,7.9,3.2
				c0,0.1,0.1,0.2,0.2,0.3c0.1,0.1,0.3,0,0.4-0.1C8.6,3.4,8.7,3.2,8.6,3z"/>
		</g>
		<g class="st16">
			<g>
				<path d="M8.6,3c0-0.1,0-0.2-0.1-0.2C8.5,2.8,8.3,2.8,8.2,2.8C8.2,2.8,8.1,2.8,8,2.9C7.9,3,7.9,3.1,7.9,3.2
					c0,0.1,0.1,0.2,0.2,0.3c0.1,0.1,0.3,0,0.4-0.1C8.6,3.4,8.7,3.2,8.6,3z"/>
			</g>
		</g>
		<g>
			<path class="st15" d="M8.7,3c0-0.1,0-0.1-0.1-0.2C8.5,2.8,8.4,2.8,8.3,2.8c-0.1,0-0.1,0.1-0.2,0.1C8,3,8,3.1,8,3.2
				c0,0.1,0.1,0.2,0.2,0.3c0.1,0.1,0.3,0,0.4-0.1C8.7,3.4,8.7,3.2,8.7,3z"/>
		</g>
	</g>
	<g>
		<g>
			<path class="st15" d="M4.6,4.5c0-0.1,0-0.2-0.1-0.2C4.5,4.2,4.3,4.2,4.2,4.2C4.2,4.2,4.1,4.3,4,4.3C3.9,4.4,3.9,4.6,3.9,4.7
				C3.9,4.8,4,4.9,4.1,5c0.1,0.1,0.3,0,0.4-0.1C4.6,4.8,4.7,4.6,4.6,4.5z"/>
		</g>
		<g class="st16">
			<g>
				<path d="M4.6,4.5c0-0.1,0-0.2-0.1-0.2C4.5,4.2,4.3,4.2,4.2,4.2C4.2,4.2,4.1,4.3,4,4.3C3.9,4.4,3.9,4.6,3.9,4.7
					C3.9,4.8,4,4.9,4.1,5c0.1,0.1,0.3,0,0.4-0.1C4.6,4.8,4.7,4.6,4.6,4.5z"/>
			</g>
		</g>
		<g>
			<path class="st15" d="M4.7,4.5c0-0.1,0-0.1-0.1-0.2C4.5,4.2,4.4,4.2,4.3,4.2c-0.1,0-0.1,0.1-0.2,0.1C4,4.5,4,4.6,4,4.7
				C4,4.8,4.1,4.9,4.2,5C4.3,5,4.5,5,4.6,4.9C4.7,4.8,4.7,4.6,4.7,4.5z"/>
		</g>
	</g>
	<g>
		<g>
			<path class="st2" d="M2.6,5.1c0,0-0.3,0.5-0.7,1.5c-0.4,0.9-0.7,2.3-0.7,3.8c0,1.5,0.2,2.9,0.5,3.9c0.3,1,0.5,1.5,0.5,1.6
				c0,0-0.4-0.5-0.7-1.5c-0.3-1-0.6-2.4-0.6-3.9c0-1.6,0.3-3,0.8-3.9c0.2-0.5,0.4-0.8,0.6-1C2.5,5.2,2.6,5,2.6,5.1z"/>
		</g>
	</g>
	<g>
		<g>
			<path class="st2" d="M7.6,1.2c0,0.1-1.1,0.5-2.3,1.3C4.6,2.9,4.1,3.3,3.8,3.7C3.5,4,3.3,4.3,3.3,4.3c0,0,0.1-0.3,0.4-0.7
				c0.3-0.4,0.8-0.9,1.4-1.3C6.4,1.5,7.5,1.2,7.6,1.2z"/>
		</g>
	</g>
	<g>
		<g>
			<path class="st15" d="M12.7,12.2c0,0,0.3,0.2,0.6,0.6c0.3,0.5,0.5,1.2,0.4,2c-0.1,0.8-0.6,1.4-1,1.8c-0.4,0.3-0.7,0.4-0.7,0.4
				c0,0,0.3-0.2,0.6-0.6c0.3-0.4,0.7-0.9,0.9-1.7c0.1-0.7,0-1.4-0.2-1.9C12.8,12.5,12.6,12.3,12.7,12.2z"/>
		</g>
	</g>
	<g>
		<g>
			<path class="st15" d="M11.4,18.9c-0.1-0.1,0-0.3,0-0.5c0-0.3-0.1-0.5-0.1-0.5c0-0.1,0.4,0.1,0.4,0.5C11.8,18.8,11.5,19,11.4,18.9
				z"/>
		</g>
	</g>
	<g>
		<g>
			<ellipse transform="matrix(0.9728 -0.2315 0.2315 0.9728 -3.9207 3.217)" class="st15" cx="11.7" cy="18.3" rx="0.2" ry="0.1"/>
		</g>
	</g>
	<g>
		<g>
			<path class="st15" d="M6.4,13.5c0,0,0.2,0.1,0.3,0.4C6.8,14.1,7,14.6,7,15.1c0,0.5-0.2,0.9-0.4,1.2c-0.2,0.2-0.4,0.3-0.4,0.3
				c0,0,0.1-0.2,0.3-0.4c0.1-0.2,0.3-0.6,0.3-1c0-0.4-0.1-0.8-0.2-1.1C6.4,13.7,6.3,13.5,6.4,13.5z"/>
		</g>
	</g>
	<g>
		<g>
			<path class="st15" d="M7.1,14.8c0.1-0.1,0.3,0.1,0.3,0.3c0,0.3-0.1,0.4-0.2,0.4c-0.1,0-0.1-0.2-0.1-0.4C7,15,7,14.9,7.1,14.8z"/>
		</g>
	</g>
	<g>
		<g>
			<path class="st15" d="M5.6,10.9C5.7,10.8,6,11.1,6,11.5c0,0.5-0.3,0.7-0.3,0.7c-0.1-0.1,0-0.3,0-0.6C5.7,11.2,5.6,11,5.6,10.9z"
				/>
		</g>
	</g>
	<g>
		<g>
			<path class="st15" d="M17.5,6.2c0,0,0.1,0.1,0.1,0.3c0,0.2-0.1,0.5-0.3,0.8c-0.3,0.2-0.6,0.3-0.8,0.2c-0.2,0-0.3-0.1-0.3-0.2
				c0-0.1,0.5,0.1,0.9-0.3C17.5,6.7,17.4,6.2,17.5,6.2z"/>
		</g>
	</g>
	<g>
		<g>
			<path class="st15" d="M7.7,8.3c0,0,0.1-0.2,0.5-0.1c0.1,0.1,0.3,0.3,0.2,0.5C8.3,9,8.1,9.1,7.9,9.2C7.7,9.3,7.4,9.3,7.2,9
				C7,8.8,7.2,8.6,7.3,8.4C7.5,8.2,7.7,8.2,7.7,8.3c0,0-0.2,0.1-0.3,0.3c-0.1,0.1-0.1,0.2,0,0.3c0,0.1,0.2,0.1,0.4,0
				c0.2,0,0.3-0.1,0.3-0.2c0-0.1,0-0.2-0.1-0.3C7.9,8.3,7.7,8.3,7.7,8.3z"/>
		</g>
	</g>
	<g>
		<g>
			<path class="st15" d="M11.5,2c0,0,0.2,0,0.2,0.2c0.1,0.2,0,0.5-0.2,0.7c-0.2,0.2-0.5,0.3-0.7,0.3c-0.2,0-0.3,0-0.3-0.1
				C10.5,3,11,3,11.3,2.7c0.1-0.1,0.2-0.3,0.2-0.5C11.5,2.1,11.4,2,11.5,2z"/>
		</g>
	</g>
	<g>
		<g>
			<path class="st15" d="M11.8,2.8c0.1,0.1,0.1,0.2-0.1,0.3c-0.1,0.1-0.3,0.1-0.3,0c0-0.1,0-0.2,0.1-0.2C11.6,2.8,11.7,2.8,11.8,2.8
				z"/>
		</g>
	</g>
	<g>
		<g>
			<path class="st15" d="M8.9,3.6c-0.1-0.1,0-0.2-0.1-0.4c0-0.2-0.1-0.3,0-0.4c0-0.1,0.3,0,0.3,0.3C9.1,3.5,8.9,3.7,8.9,3.6z"/>
		</g>
	</g>
	<g>
		<g>
			<path class="st17" d="M21.5,10.8c-0.1,0,0-1-0.4-2.6c-0.2-0.8-0.6-1.8-1.2-2.8c-0.6-1-1.5-2.1-2.7-3c-1.2-0.9-2.7-1.7-4.4-2
				c-1.7-0.3-3.7-0.2-5.5,0.5C6.3,1.2,5.4,1.7,4.6,2.3C4.2,2.6,3.8,3,3.4,3.4C3,3.8,2.7,4.1,2.4,4.6c-1.3,1.7-2,3.9-2,6.2
				c0,2.3,0.8,4.5,2,6.2c0.3,0.4,0.7,0.8,1,1.2c0.4,0.4,0.8,0.7,1.2,1c0.8,0.6,1.7,1.1,2.7,1.4c1.9,0.7,3.8,0.8,5.5,0.5
				c1.7-0.3,3.2-1.1,4.4-2c1.2-0.9,2.1-2,2.7-3c0.6-1,1-2,1.2-2.8C21.5,11.8,21.5,10.8,21.5,10.8c0,0,0,0.1,0,0.2c0,0.1,0,0.3,0,0.5
				c0,0.2,0,0.5-0.1,0.8c0,0.3-0.1,0.7-0.2,1.1c-0.2,0.8-0.6,1.8-1.2,2.9c-0.6,1-1.5,2.1-2.7,3.1c-1.2,0.9-2.8,1.7-4.5,2
				c-1.8,0.3-3.8,0.3-5.7-0.5c-1-0.3-1.9-0.8-2.7-1.5c-0.4-0.3-0.8-0.7-1.2-1c-0.4-0.4-0.7-0.8-1.1-1.3C0.8,15.4,0,13.2,0,10.8
				c0-2.3,0.8-4.6,2.1-6.4c0.3-0.5,0.7-0.9,1.1-1.3c0.4-0.4,0.8-0.7,1.2-1C5.3,1.5,6.2,1,7.2,0.6c1.9-0.7,3.9-0.8,5.7-0.5
				c1.8,0.3,3.3,1.1,4.5,2c1.2,0.9,2.1,2,2.7,3.1c0.6,1.1,1,2,1.2,2.9c0.1,0.4,0.2,0.8,0.2,1.1c0.1,0.3,0.1,0.6,0.1,0.8
				c0,0.2,0,0.4,0,0.5C21.5,10.7,21.5,10.8,21.5,10.8z"/>
		</g>
	</g>
</g>
</svg>
