<?xml version="1.0" encoding="utf-8"?>
<!-- Generator: Adobe Illustrator 19.2.0, SVG Export Plug-In . SVG Version: 6.00 Build 0)  -->
<svg version="1.1" id="Layer_1" xmlns="http://www.w3.org/2000/svg" xmlns:xlink="http://www.w3.org/1999/xlink" x="0px" y="0px"
	 viewBox="0 0 33.8 33.8" style="enable-background:new 0 0 33.8 33.8;" xml:space="preserve">
<style type="text/css">
	.st0{fill:#F8CA30;}
	.st1{opacity:0.7;}
	.st2{fill:#FFFFFF;}
	.st3{fill:#F9C233;}
	.st4{opacity:0.4;}
	.st5{opacity:0.2;}
	.st6{opacity:0.1;}
	.st7{fill:#F8F5DE;fill-opacity:0.4512;}
	.st8{fill:#F8F4C7;fill-opacity:0.4512;}
	.st9{fill:#F9F1A1;fill-opacity:0.4421;}
	.st10{fill:url(#SVGID_1_);}
	.st11{fill:#F8A276;}
	.st12{opacity:0.13;}
	.st13{opacity:0.25;}
	.st14{fill:#F5F5F5;}
	.st15{fill:#E1E1E1;}
	.st16{opacity:0.3;}
	.st17{fill:#132F36;}
	.st18{fill:#375A64;}
	.st19{fill:#FF745E;}
	.st20{fill:#F9A868;}
	.st21{fill:#F68E62;}
	.st22{fill:#AB8C81;}
	.st23{fill:#2F6D7E;}
	.st24{fill:#D68D67;}
</style>
<g>
	<g>
		<g>
			
				<ellipse transform="matrix(0.5154 -0.8569 0.8569 0.5154 -6.2827 22.6354)" class="st18" cx="16.9" cy="16.9" rx="16.9" ry="16.9"/>
		</g>
		<g class="st16">
			<path d="M15.4,0c0.1,0.3,0.1,0.6,0.2,0.8c-0.8,0.1-1.8,0.3-2.3,1c-0.5,0.7-0.4,1.6-0.6,2.5c-0.1,0.2-0.2,0.5-0.4,0.6
				c-0.2,0.1-0.4,0.1-0.6,0C10.5,4.7,9,4.3,8.1,5.1C7.5,5.5,7.1,6.4,6.4,6.4C5.6,6.5,5.1,5.8,4.9,5C7.7,2.1,11.5,0.4,15.4,0z"/>
		</g>
		<g class="st16">
			<path d="M8.6,8.5c0,0-0.1,0-0.1,0C7,7.7,9.1,5.1,10.4,5.3c0.8,0.1,1,1,0.6,1.6c-0.5,0.8-1.6,0.9-2.2,1.5C8.7,8.5,8.7,8.5,8.6,8.5
				z"/>
		</g>
		<g class="st16">
			<path d="M4.4,10.8c-0.2,0.1-0.4-0.1-0.6-0.3C3.4,9.9,3.3,9,3.8,8.4c0.7-1.1,2.8-1.2,3.1,0.3C7,9.3,6.7,9.9,6.1,10.1
				c-0.3,0.1-0.6,0.1-0.9,0.2c-0.2,0.1-0.4,0.3-0.6,0.4C4.6,10.8,4.5,10.8,4.4,10.8z"/>
		</g>
		<g class="st16">
			<path d="M4.4,15.7c-0.2,0-0.5-0.2-0.7-0.1c-0.2,0.1-0.3,0.3-0.5,0.4C3.1,16,3,15.8,3,15.6c-0.1-0.6-0.1-1.2,0.2-1.7
				c0-0.1,0.1-0.2,0.2-0.2C3.6,13.5,4,13.5,4,13.5c0.3,0,0.6,0.2,0.7,0.5c0.1,0.3,0.1,0.6,0.1,0.9C4.9,15.3,4.7,15.7,4.4,15.7z"/>
		</g>
		<g class="st16">
			<path d="M6.4,13.2c0.9-0.7,2.3,0.1,2.8,0.9c0.4,0.6,0.8,2.4-0.6,2.3c-0.4-0.1-0.8-0.3-1.1-0.7c-0.2-0.3-0.3-0.6-0.5-0.8
				c0,0,0,0-0.1,0c-0.3-0.2-0.6-0.2-0.8-0.5C6,14,6.1,13.5,6.4,13.2z"/>
		</g>
		<g class="st16">
			<path d="M6.6,16.1c0,0.1,0,0.3-0.1,0.4c-0.1,0.1-0.2,0.1-0.3,0.1c-0.3-0.1-0.6-0.4-0.5-0.8c0.1-0.3,0.4-0.5,0.7-0.5
				C6.5,15.5,6.6,15.8,6.6,16.1z"/>
		</g>
		<g class="st16">
			<path d="M6.5,15.3c-0.1,0-0.1,0-0.2,0c0,0,0,0-0.1-0.1L6.5,15.3z"/>
		</g>
		<g class="st16">
			<path d="M1.8,11.3C2,11.7,2.1,12.1,2,12.5c-0.1,0.3-0.3,0.5-0.5,0.8c-0.5,0.9,0.2,2.3-0.5,3c-0.2,0.3-0.6,0.4-0.9,0.5
				c0-2.1,0.4-4.3,1.2-6.3C1.5,10.8,1.7,11,1.8,11.3z"/>
		</g>
		<g class="st16">
			<path d="M1.2,23c-0.6-1.4-0.9-3-1.1-4.5c0.9-0.8,1.6-1.4,3-1.2c0.7,0.1,1.4,0.6,1.5,1.3c0.1,0.4,0,0.7-0.1,1.1
				c-0.1,0.4-0.2,0.7-0.3,1.1c0,0.2-0.1,0.3-0.2,0.4c-0.3,0.3-0.9,0-1.4,0.1c-0.4,0-0.7,0.3-0.9,0.6c-0.2,0.3-0.3,0.6-0.5,1
				C1.2,22.9,1.2,23,1.2,23z"/>
		</g>
		<g class="st16">
			<path d="M6.4,21.6c-0.1-0.2,0-0.5-0.1-0.7c0-0.3-0.2-0.6-0.3-0.9C6,19.6,6,19.3,6.2,19c0.1-0.1,0.2-0.1,0.3-0.1
				c0.1,0,0.2,0.1,0.3,0.1c0.5,0.4,0.8,1,1.1,1.6l-0.2-0.2c0.1,0.2,0.2,0.4,0.2,0.7c0,0.4-0.2,0.7-0.6,0.8C7,22.1,6.6,21.9,6.4,21.6
				z"/>
		</g>
		<g class="st16">
			<path d="M24,5.7c-0.1-0.1-0.2-0.1-0.3-0.2c-0.3-0.1-0.6,0.3-0.9,0.4c-0.3,0.1-0.7-0.1-0.9-0.4c-0.9-1.5,1.3-2.5,2.4-1.9
				C25.6,4.3,25.9,7.1,24,5.7z"/>
		</g>
		<g class="st16">
			<path d="M22,13.9c-0.2-0.5-0.3-1.1-0.3-1.7c0-0.5,0-0.9,0.2-1.3c0.4-0.7,1.3-0.9,2-0.9c0.7,0,1.4,0,1.9,0.3
				c0.4,0.2,0.7,0.6,1,0.9c0.5,0.5,1.2,0.9,1.7,1.3c0.4,0.3,0.7,0.8,0.9,1.2c0.7,1.1,1.1,2.5,0.9,3.8c-0.1,0.6-0.2,1.2-0.7,1.6
				c-0.8,0.7-2.2,0.2-3.1,0.7c-0.8,0.5-1.1,1.6-2,1.9c-0.9,0.3-1.7-0.5-2.3-1.2c-0.8-1-1.6-2.3-1.1-3.5c0.3-0.8,1.1-1.4,1.1-2.3
				C22.2,14.5,22.1,14.2,22,13.9z"/>
		</g>
		<g class="st16">
			<path d="M30.2,11.9c-0.4-0.3-0.8-0.5-1.2-0.8c-0.1-0.1-0.2-0.2-0.3-0.3c-0.2-0.3,0-0.7,0.3-0.8c0.3-0.1,0.6,0,0.9,0.2
				c0.2,0.2,0.4,0.5,0.6,0.8l-0.3-0.3C30.4,11,30.4,11.5,30.2,11.9z"/>
		</g>
		<g class="st16">
			<path d="M31.8,14.9c-0.1,0.3-0.4,0.5-0.6,0.3C31,15.2,31,15,30.9,14.9c-0.1-0.3-0.3-0.7-0.4-1c0-0.1-0.1-0.2,0-0.3
				c0-0.1,0.2-0.2,0.4-0.2c0.2,0,0.3,0.1,0.4,0.3c0.3,0.3,0.4,0.8,0.5,1.2l-0.1-0.6C31.7,14.4,31.8,14.7,31.8,14.9z"/>
		</g>
		<g class="st16">
			<path d="M8.8,11.5c-0.5-0.3,0-1.1,0.5-0.8C9.8,11,9.3,11.8,8.8,11.5z"/>
		</g>
		<g class="st16">
			<path d="M10.4,8.8c0.6,0.4,0,1.4-0.6,1C9.1,9.4,9.7,8.4,10.4,8.8z"/>
		</g>
		<g class="st16">
			<path d="M10.7,13.7c-0.5-1.1-0.7-2.3,0.3-3.2c0.5-0.5,1.4-0.8,1.9-0.1c0.5,0.7,0.2,1.6-0.2,2.2c-0.3,0.6-0.2,0.8,0,1.4
				c0.1,0.3,0.1,0.7,0,1c-0.2,0.6-0.9,1-1.5,0.6C10.8,15.2,10.7,14.4,10.7,13.7z"/>
		</g>
		<g class="st16">
			<path d="M7,17.1c0.4,0.1,1,0.2,1.3,0.5c0,0,0.1,0.1,0.1,0.1c0.4,0.3,0.7,0.8,0.5,1.3c-0.2,0.4-0.8,0.5-1.2,0.3
				c-0.2-0.1-0.3-0.3-0.4-0.5c-0.2-0.2-0.4-0.4-0.6-0.6C6.3,17.9,6.4,17,7,17.1z"/>
		</g>
		<g class="st16">
			<path d="M9.5,17.7c-0.1-0.1-0.1-0.2-0.2-0.3c-0.1-0.3,0.3-0.6,0.6-0.4c0.2,0.1,0.3,0.3,0.2,0.6C10.1,17.8,9.8,17.9,9.5,17.7z"/>
		</g>
		<g class="st16">
			<path d="M19.3,16.1c-0.8-0.3-0.9-1.1-1-1.8c-0.1-0.7-0.3-1.5,0.4-2c0.6-0.5,1.5-0.2,1.9,0.4c0.4,0.6,0.5,1.4,0.3,2.1
				c0,0.1-0.1,0.2-0.2,0.3c0,0.1,0,0.1-0.1,0.2C20.5,15.8,19.9,16.3,19.3,16.1z"/>
		</g>
		<g class="st16">
			<path d="M19,17.9c0-0.1,0-0.1,0-0.2c0,0,0,0,0,0c-0.1-0.2,0-0.4,0.2-0.6c0.2-0.2,0.6-0.2,0.8,0c0.3,0.3,0.4,0.8,0,1.1
				C19.6,18.5,19.2,18.3,19,17.9z"/>
		</g>
		<g class="st16">
			<path d="M17.4,18.1c-0.6-0.1-0.8-0.6-1-1.1c-0.2-0.5-0.5-1-0.6-1.5c-0.1-0.4,0-0.9,0.4-1.2c0.4-0.2,0.8-0.1,1.1,0.3
				c0.3,0.4,0.3,1,0.4,1.5c0,0.1,0,0.1,0.1,0.2c0,0,0,0,0,0C18.4,16.7,18.6,18.2,17.4,18.1z"/>
		</g>
		<g class="st16">
			<path d="M33.6,14.4c-0.8-0.3-1.4-0.8-1.8-1.5c-0.5-0.9-0.7-2.4-0.2-3.4c0-0.3,0-0.5,0.1-0.8C32.7,10.5,33.3,12.4,33.6,14.4z"/>
		</g>
		<g class="st16">
			<path d="M27,24.6C27,24.6,27,24.5,27,24.6c-0.5,0.4-1.1,0.7-1.6,0.7c-0.2,0.2-0.5,0.2-0.7,0c-0.2-0.2-0.3-0.5-0.3-0.7
				c-0.1-0.3-0.1-0.6,0.1-0.9c0.2-0.5,0.7-0.7,1.1-1c0,0,0,0,0,0c0.2-0.2,0.4-0.4,0.5-0.7c0.1-0.1,0.2-0.3,0.3-0.4
				c0.4-0.4,1-0.2,1.4,0.2c0,0,0.1,0.1,0.1,0.2c0.2,0.1,0.3,0.4,0.3,0.6c0.1,0.2,0.1,0.4,0.2,0.6l-0.2-0.4c0,0.4,0,0.8-0.2,1.2
				C27.9,24.3,27.5,24.6,27,24.6z"/>
		</g>
		<g class="st16">
			<path d="M21.8,8.3c0.5,0,0.8,0.6,0.5,1.1c-0.1,0.2-0.3,0.3-0.5,0.4c0,0-0.1,0.1-0.1,0.1c0,0,0,0.1,0,0.1
				c-0.1,0.2-0.2,0.4-0.3,0.5c-0.4,0.3-1,0.1-1-0.4c0-0.3,0.2-0.6,0.4-0.9c0,0,0,0,0-0.1C20.9,8.6,21.2,8.3,21.8,8.3z"/>
		</g>
		<g class="st16">
			<path d="M23.3,28.4c0.2-0.8,1.2-0.9,1.8-1.2c0.7-0.4,0.8-1.4,1.6-1.4c0.6,0,1,0.5,0.9,1.1c-0.1,0.6-0.5,1.2-1,1.7
				c-0.6,0.8-1.4,1.4-2.4,1.2C23.6,29.6,23.1,29,23.3,28.4z"/>
		</g>
		<g class="st16">
			<path d="M28.7,24.2c0.2-0.3,0.8-0.3,0.9,0.1c0.1,0.4,0.1,0.7,0,1.1c-0.1,0.3-0.4,0.7-0.7,0.7c0,0-0.1,0-0.1,0c-0.2,0-0.4,0-0.6,0
				c-0.4-0.2-0.6-0.7-0.4-1.1c0.1-0.2,0.2-0.4,0.4-0.5C28.4,24.4,28.6,24.4,28.7,24.2z"/>
		</g>
		<g class="st16">
			<path d="M29,22.5c0-0.2,0.1-0.3,0.2-0.4c0.1-0.1,0.3,0,0.4,0.1c0.1,0.1,0.1,0.3,0.1,0.4c0,0.2-0.2,0.3-0.4,0.2
				C29.1,22.9,29,22.7,29,22.5z"/>
		</g>
		<g class="st16">
			<path d="M30.6,26.1c0.6-1.2,0.4-2.1,0.2-3.3c-0.1-0.7-0.2-1.4,0.1-2c0.5-1.1,1.6-1.5,2.7-1.7c-0.3,2.2-1,4.4-2.3,6.4
				c-0.2,0.4-0.5,0.8-0.8,1.2C30.5,26.5,30.5,26.3,30.6,26.1z"/>
		</g>
		<g class="st16">
			<path d="M32.2,18.6c-0.3,0.1-0.7,0.1-0.9-0.3c0,0,0,0,0,0c-0.1-0.1-0.1-0.1-0.1-0.2c-0.1-0.3,0-0.6,0.3-0.8
				c0.1-0.1,0.3-0.2,0.4-0.2c0.6-0.2,1.3-0.5,1.9-0.5c0,0.5,0,1.1-0.1,1.6C33.2,18.3,32.7,18.3,32.2,18.6z"/>
		</g>
		<g class="st16">
			<path d="M32.4,15c0.1-0.2,0.5-0.3,0.7,0c0,0,0,0.1,0.1,0.1c0,0,0,0,0,0c0.1,0.1,0.1,0.2,0,0.4c0,0.1-0.1,0.2-0.1,0.3
				c0,0-0.1,0.1-0.1,0.1c0,0,0,0-0.1,0.1c-0.1,0.1-0.3,0.1-0.5,0c-0.2-0.2-0.3-0.4-0.2-0.6C32.2,15.2,32.3,15.1,32.4,15z"/>
		</g>
		<g class="st16">
			<path d="M30.5,20.3c-0.1,0.1-0.2,0.2-0.4,0.2c-0.3,0.5-0.9,1-1.4,0.5c-0.3-0.3-0.1-0.7,0.2-0.9c0.3-0.2,0.8-0.4,1.1-0.5
				C30.5,19.4,30.9,19.9,30.5,20.3z"/>
		</g>
		<g class="st16">
			<path d="M4.1,11.6c0.2-0.3,0.6-0.4,1-0.4c0.4,0,0.7,0,1.1-0.2c0.4-0.2,0.9,0.2,0.6,0.7c-0.2,0.4-0.6,0.7-1.1,0.8
				c-0.4,0.1-0.9,0.1-1.1-0.2c-0.1,0-0.2-0.1-0.3-0.1C4.1,12,4,11.8,4.1,11.6z"/>
		</g>
		<g class="st16">
			<path d="M3.4,7.8C3.1,8.1,2.7,8.3,2.3,8.4c0.1-0.1,0.1-0.2,0.2-0.3c0.5-0.8,1.1-1.6,1.7-2.3c0,0,0,0,0,0.1
				C4.3,6.6,3.8,7.3,3.4,7.8z"/>
		</g>
		<g class="st16">
			<path d="M8,26c-0.1-0.6,0.5-1,1-1.2c0.7-0.2,1.4,0,2.1-0.5c0.5-0.3,1.1-0.8,1.8-0.8c0.5,0,0.9,0.4,1,0.9c0.1,0.4-0.1,0.8-0.4,1.2
				c-0.1,0.4-0.4,0.8-0.8,1.1C12,27.3,10.9,27.4,10,27C9.2,27.1,8.1,26.9,8,26z"/>
		</g>
		<g class="st16">
			<path d="M10.2,24c-0.2-0.2-0.2-0.5,0-0.7c0.2-0.3,0.5-0.4,0.9-0.4c0.1,0,0.3,0,0.4,0.2c0.4,0.4,0,1-0.5,1.1
				C10.7,24.2,10.4,24.1,10.2,24z"/>
		</g>
		<g class="st16">
			<path d="M14,26.9c-0.1,0-0.3-0.2-0.3-0.3c0-0.4,0-0.7,0.3-0.9c0.2-0.2,0.6-0.1,0.7,0.2c0.2,0.2,0.2,0.4,0.1,0.7
				C14.7,26.9,14.4,27,14,26.9z"/>
		</g>
		<g class="st5">
			<path d="M12,0.7c-2,1.3-3.8,3.2-5.2,5.4c-4.8,8-2.2,18.3,5.8,23.2c4.3,2.6,9.2,3,13.6,1.7c-5.3,3.5-12.2,3.8-18,0.4
				c-8-4.8-10.6-15.2-5.8-23.2C4.7,4.5,8.2,1.9,12,0.7z"/>
		</g>
	</g>
	<g>
		<g>
			<path class="st2" d="M27.8,29.4L27.8,29.4c0,0,0.3-0.4,0.8-1c0.5-0.7,1.3-1.6,2-3c0.7-1.3,1.4-3,1.7-5c0.4-2,0.4-4.3-0.1-6.6
				l0.2,0.2l0,0l-0.1,0l0-0.1c-0.1-0.4-0.2-0.8-0.3-1.2c-0.1-0.4-0.3-0.8-0.4-1.2c-0.9-2.5-2.5-4.6-4.2-6.2
				c-1.7-1.6-3.5-2.7-5.1-3.4c-1.6-0.7-3-1-4-1.2c-1-0.2-1.5-0.2-1.5-0.3c0,0,0.1,0,0.4,0c0.3,0,0.6,0,1.1,0.1
				c1,0.2,2.4,0.4,4.1,1.1c1.6,0.7,3.5,1.8,5.3,3.4c1.8,1.6,3.3,3.8,4.3,6.3c0.1,0.4,0.3,0.8,0.4,1.3c0.1,0.4,0.2,0.8,0.3,1.3
				l-0.2-0.2l0,0l0.1,0l0,0.1c0.5,2.4,0.5,4.7,0.1,6.7c-0.4,2-1.1,3.8-1.8,5.1c-0.7,1.3-1.5,2.3-2.1,2.9c-0.3,0.3-0.5,0.5-0.7,0.7
				C27.9,29.4,27.8,29.4,27.8,29.4C27.8,29.4,27.8,29.4,27.8,29.4z"/>
		</g>
	</g>
</g>
</svg>
