<?xml version="1.0" encoding="utf-8"?>
<!-- Generator: Adobe Illustrator 19.2.0, SVG Export Plug-In . SVG Version: 6.00 Build 0)  -->
<svg version="1.1" id="Layer_1" xmlns="http://www.w3.org/2000/svg" xmlns:xlink="http://www.w3.org/1999/xlink" x="0px" y="0px"
	 viewBox="0 0 84.9 44.8" style="enable-background:new 0 0 84.9 44.8;" xml:space="preserve">
<style type="text/css">
	.st0{fill:#F8CA30;}
	.st1{opacity:0.7;}
	.st2{fill:#FFFFFF;}
	.st3{fill:#F9C233;}
	.st4{opacity:0.4;}
	.st5{opacity:0.2;}
	.st6{opacity:0.1;}
	.st7{fill:#F8F5DE;fill-opacity:0.4512;}
	.st8{fill:#F8F4C7;fill-opacity:0.4512;}
	.st9{fill:#F9F1A1;fill-opacity:0.4421;}
	.st10{fill:url(#SVGID_1_);}
	.st11{fill:#F8A276;}
	.st12{opacity:0.13;}
	.st13{opacity:0.25;}
	.st14{fill:#F5F5F5;}
	.st15{fill:#E1E1E1;}
	.st16{opacity:0.3;}
	.st17{fill:#132F36;}
	.st18{fill:#375A64;}
	.st19{fill:#FF745E;}
	.st20{fill:#F9A868;}
	.st21{fill:#F68E62;}
	.st22{fill:#AB8C81;}
	.st23{fill:#2F6D7E;}
	.st24{fill:#D68D67;}
</style>
<g>
	<g>
		<g>
			<path class="st20" d="M31.1,4c-10.5,7-13.1,20.8-5.7,30.8c7.4,10,21.9,12.4,32.4,5.4c10.5-7,13.1-20.8,5.7-30.8
				C56.1-0.6,41.6-3,31.1,4z"/>
		</g>
		<g class="st5">
			<g>
				<path class="st2" d="M36,6.8c2.9,3.8,6.8,6.8,11,9.1c4.3,2.3,9.2,3.8,14.1,4.4c1.9,0.2,4.3,0.4,6.6,0.2
					c-0.1-0.8-0.2-1.5-0.3-2.3c-1.8,0.2-3.7,0.2-5.5,0c-4.1-0.4-8.2-1.5-11.9-3.2c-3.6-1.6-7-3.7-9.9-6.4c-1.8-1.7-4.2-4.1-5.3-6.6
					c-0.5,0.2-0.9,0.4-1.4,0.7C34.1,4.3,35.2,5.8,36,6.8z"/>
			</g>
			<g>
				<path class="st2" d="M53.2,5.9c2,1.2,6.3,2.8,9,1.8c-0.5-0.6-1.1-1.1-1.7-1.7c-0.2,0-0.3,0-0.5,0.1c-1.7,0.1-3.4-0.4-5-1.1
					c-1.8-0.8-4.6-2.5-5.9-4.6c-0.5-0.1-1-0.2-1.4-0.2C48.5,2.6,51.2,4.7,53.2,5.9z"/>
			</g>
			<g>
				<path class="st2" d="M51.7,9.1c2.9,1.7,6.1,2.9,9.5,3.1c1.2,0.1,2.7,0,4.1-0.2c-0.3-0.6-0.7-1.2-1.1-1.8
					c-1.1,0.2-2.3,0.3-3.4,0.2c-2.8-0.2-5.6-1.2-8-2.6c-3.5-2-7-4.6-9.1-7.9c-0.5,0-1.1,0.1-1.6,0.1C44.1,3.9,48.4,7.2,51.7,9.1z"/>
			</g>
			<g>
				<path class="st2" d="M59.7,38.9c-2.1-0.2-4.1-0.4-6.2-0.8c-4.1-0.8-8.1-2-11.8-3.7c-4-1.8-7.7-4.2-11.1-6.9
					c-3.2-2.5-6.7-5.3-9-8.6c-0.1,0.5-0.2,1-0.2,1.6c1.8,2.5,4.7,4.7,6.9,6.6c3.6,3.1,7.5,5.9,11.8,8c5.3,2.6,11.5,4.6,17.7,5.4
					c0.1,0,0.1-0.1,0.2-0.1C58.5,39.8,59.1,39.4,59.7,38.9z"/>
			</g>
			<g>
				<path class="st2" d="M41.9,32.4c5.4,2.5,11.3,4.3,17.2,5c0.6,0.1,1.3,0.1,2,0.2c2.1-2,3.8-4.4,4.9-7c-2.2,0.1-4.5,0-6.7-0.3
					c-5.1-0.7-10-2.3-14.6-4.5c-4.8-2.2-9.3-5.2-13-8.9c-2-2-3.7-4.2-5.2-6.6c-0.3-0.4-0.5-0.8-0.7-1.3c-1.7,2.3-3,4.8-3.7,7.5
					c1.2,1.7,2.4,3.3,3.9,4.8C30.4,26,35.9,29.6,41.9,32.4z"/>
			</g>
			<g>
				<path class="st2" d="M34.3,38.1c-0.4-0.2-0.8-0.3-1.3-0.3c-0.5-0.1-0.7,0.6-0.3,0.8c0.3,0.1,0.7,0.3,1,0.5
					c0.3,0.2,0.7,0.3,1,0.4c0.3,0.1,0.6-0.2,0.4-0.5C35,38.6,34.7,38.3,34.3,38.1z"/>
			</g>
			<g>
				<path class="st2" d="M30.1,35.5c0.8,0.2,1-0.7,0.6-1.2c-1.5-1.5-3.6-2.4-5.3-3.6c-1.1-0.8-2.2-1.7-3.3-2.6
					c0.3,1,0.7,2.1,1.2,3.1C25.3,33.2,27.6,34.9,30.1,35.5z"/>
			</g>
		</g>
		<g>
			<g>
				<path class="st2" d="M34.2,40.4c0,0-0.3-0.1-0.7-0.3c-0.4-0.2-1-0.5-1.8-0.9c-1.4-0.9-3.3-2.3-5-4.3c-0.8-1-1.5-2-2.1-3
					c-0.5-1-1-1.9-1.2-2.7c-0.2-0.4-0.3-0.8-0.4-1.1c-0.1-0.3-0.2-0.6-0.2-0.8c-0.1-0.5-0.1-0.7-0.1-0.7c0.1,0,0.3,1,0.9,2.5
					c0.3,0.8,0.7,1.7,1.3,2.6c0.6,0.9,1.2,1.9,2,2.9c1.6,2,3.4,3.4,4.8,4.3C33.3,39.9,34.2,40.3,34.2,40.4z"/>
			</g>
		</g>
		<g>
			<g>
				<path class="st21" d="M66.5,25.4c0,0.1-0.6,0.2-1.7,0.3c-0.3,0-0.6,0.1-0.9,0.1c-0.3,0-0.7,0-1.1,0c-0.8,0-1.7,0-2.7-0.1
					c-0.5,0-1-0.1-1.6-0.2c-0.5-0.1-1.1-0.2-1.7-0.3c-1.2-0.2-2.4-0.5-3.7-0.8c-2.6-0.8-5.3-1.8-8-3.3C42.4,19.8,40,18,38,16.3
					c-1-0.9-1.9-1.7-2.7-2.6c-0.4-0.4-0.8-0.8-1.2-1.3c-0.3-0.4-0.7-0.8-1-1.2C32.5,10.4,32,9.6,31.6,9C31.4,8.6,31.2,8.3,31,8
					c-0.2-0.3-0.3-0.6-0.4-0.8c-0.5-1-0.7-1.6-0.6-1.6C30,5.5,30.4,6,31.1,6.9c0.2,0.2,0.3,0.5,0.5,0.7c0.2,0.3,0.4,0.5,0.7,0.8
					c0.5,0.6,1,1.3,1.7,2c0.3,0.4,0.7,0.7,1,1.1c0.4,0.4,0.8,0.8,1.2,1.2c0.8,0.8,1.7,1.6,2.7,2.4c2,1.6,4.3,3.2,6.9,4.6
					c2.6,1.4,5.2,2.5,7.7,3.3c1.2,0.4,2.4,0.7,3.5,1c0.6,0.1,1.1,0.3,1.6,0.4c0.5,0.1,1,0.2,1.5,0.3c1,0.2,1.8,0.2,2.6,0.3
					c0.4,0,0.7,0.1,1.1,0.1c0.3,0,0.6,0,0.9,0.1C65.9,25.2,66.5,25.3,66.5,25.4z"/>
			</g>
		</g>
	</g>
	<g>
		<g>
			<path class="st2" d="M53.6,42.4c0,0,0,0,0.1-0.1c0.1-0.1,0.3-0.1,0.4-0.2c0.4-0.2,1-0.5,1.7-0.9l0,0c0,0-0.1,0-0.1,0.1l0,0
				c0.1-0.1,0.2-0.1,0.3-0.2l0,0l0,0l0,0l0,0c1.5-0.9,3.6-2.5,5.6-4.9l0.1,0c0,0-0.1,0.1-0.1,0.1l0-0.1c1.8-2.2,3.4-5.1,4.2-8.7
				c0.9-3.5,0.9-7.7-0.4-11.7l0.1,0.1l0,0l-0.1,0l0-0.1c-0.3-1-0.6-2-1.1-2.9c-2.1-4.4-5.7-7.6-9.5-9.5c-3.7-1.9-7.6-2.7-10.7-2.7
				c-3.2-0.1-5.7,0.6-7.4,1.1c-0.8,0.3-1.5,0.5-1.9,0.7c-0.2,0.1-0.4,0.2-0.5,0.2c-0.1,0-0.2,0.1-0.2,0.1c0,0,0.9-0.5,2.6-1.1
				c1.7-0.6,4.3-1.2,7.5-1.2c3.2,0,7.1,0.7,10.9,2.7c1.9,1,3.8,2.2,5.4,3.9c1.7,1.6,3.1,3.6,4.2,5.8c0.5,1,0.8,2,1.2,3l-0.1-0.1l0,0
				l0.1,0l0,0.1c1.3,4.1,1.3,8.3,0.4,11.9C65.5,31,63.8,34,62,36.2l0-0.1c0,0.1-0.1,0.1-0.1,0.1l0.1,0c-2,2.5-4.2,4-5.7,4.9l0,0l0,0
				l0,0l0,0c-0.1,0.1-0.2,0.1-0.3,0.2l0,0c0,0-0.1,0.1-0.1,0.1l0,0c-0.8,0.4-1.3,0.7-1.8,0.9c-0.2,0.1-0.3,0.2-0.5,0.2
				C53.7,42.3,53.6,42.4,53.6,42.4z"/>
		</g>
	</g>
	<g>
		<g>
			<g>
				<path class="st19" d="M24.3,11c0.1-0.2,0.3-0.5,0.4-0.7C14.4,6.1,8.8,5,7.2,5.5C7,5.6,6.9,5.6,6.9,5.7l0,0.1c0,0.1,0,0.2,0,0.3
					c0.4,1.2,3.9,6.1,33.5,20.5c17.8,8.7,32.1,13.2,37,13.7c0.6,0.1,1-0.6,0.5-1c-1.7-1.7-5.7-4.6-12-8.4c-0.1,0.2-0.2,0.4-0.3,0.5
					c5.2,3.2,8.2,5.5,7.8,6.3c-0.8,1.6-15.1-3.8-31.9-12S11.8,9.6,12.6,8C13.1,7.2,17.6,8.4,24.3,11z"/>
			</g>
			<g>
				<path class="st19" d="M66.8,28.6c-0.1,0.2-0.1,0.3-0.2,0.5c8.1,4.9,13.5,8.9,14.1,10.8c0.2,0.7,0,1.3-0.5,1.7
					c-0.5,0.4-2.1,1.7-14.4-2.5c-7.9-2.7-17.3-6.6-26.4-11c-3.8-1.9-7.9-3.9-11.8-6C16.4,16.2,6.2,10,5.1,6.5C4.8,5.8,5,5.2,5.2,4.9
					C5.4,4.5,5.7,4,6.6,3.8c3-1,11,1.6,19.2,5c0.1-0.1,0.1-0.2,0.2-0.3C11.9,2.9,2,0.7,0.4,2.8C-3,7.4,15.2,18.9,38.5,30.2
					c23.3,11.3,44.5,17,46.3,13.6C86,41.6,78.7,35.7,66.8,28.6z"/>
			</g>
			<g>
				<path class="st19" d="M68.4,34.6c0.1,0.1-1.4,0-1.5,0c-0.6-0.1-1.1-0.3-1.7-0.5c-1.5-0.5-3-1-4.4-1.6c-2.1-0.8-4.1-1.9-6.2-2.4
					c-0.2-0.1-0.3,0.2-0.1,0.4c3.5,2.4,8.6,4.2,12.7,5c0.6,0.1,1.5,0.4,1.9-0.3c0.2-0.4,0.1-0.8-0.3-1C68.5,34,68.2,34.4,68.4,34.6
					L68.4,34.6z"/>
			</g>
		</g>
		<g class="st16">
			<g>
				<path class="st22" d="M24.3,11c0.1-0.2,0.3-0.5,0.4-0.7C14.4,6.1,8.8,5,7.2,5.5C7,5.6,6.9,5.6,6.9,5.7l0,0.1c0,0.1,0,0.2,0,0.3
					c0.4,1.2,3.9,6.1,33.5,20.5c17.8,8.7,32.1,13.2,37,13.7c0.6,0.1,1-0.6,0.5-1c-1.7-1.7-5.7-4.6-12-8.4c-0.1,0.2-0.2,0.4-0.3,0.5
					c5.2,3.2,8.2,5.5,7.8,6.3c-0.8,1.6-15.1-3.8-31.9-12S11.8,9.6,12.6,8C13.1,7.2,17.6,8.4,24.3,11z"/>
			</g>
			<g>
				<path class="st22" d="M68.4,34.6c0.1,0.1-1.4,0-1.5,0c-0.6-0.1-1.1-0.3-1.7-0.5c-1.5-0.5-3-1-4.4-1.6c-2.1-0.8-4.1-1.9-6.2-2.4
					c-0.2-0.1-0.3,0.2-0.1,0.4c3.5,2.4,8.6,4.2,12.7,5c0.6,0.1,1.5,0.4,1.9-0.3c0.2-0.4,0.1-0.8-0.3-1C68.5,34,68.2,34.4,68.4,34.6
					L68.4,34.6z"/>
			</g>
		</g>
		<g class="st16">
			<path class="st22" d="M66.8,28.6c-0.1,0.2-0.1,0.3-0.2,0.5c8.1,4.9,13.5,8.9,14.1,10.8c0.2,0.7,0,1.3-0.5,1.7
				c-0.5,0.4-2.1,1.7-14.4-2.5c-7.9-2.7-17.3-6.6-26.4-11c-3.8-1.9-7.9-3.9-11.8-6C16.4,16.2,6.2,10,5.1,6.5C4.8,5.8,5,5.2,5.2,4.9
				C5.4,4.5,5.7,4,6.6,3.8c3-1,11,1.6,19.2,5c0.1-0.1,0.1-0.2,0.2-0.3C11.9,2.9,2,0.7,0.4,2.8C-3,7.4,15.2,18.9,38.5,30.2
				c23.3,11.3,44.5,17,46.3,13.6C86,41.6,78.7,35.7,66.8,28.6z"/>
		</g>
	</g>
</g>
</svg>
