<?xml version="1.0" encoding="utf-8"?>
<!-- Generator: Adobe Illustrator 19.2.0, SVG Export Plug-In . SVG Version: 6.00 Build 0)  -->
<svg version="1.1" id="Layer_1" xmlns="http://www.w3.org/2000/svg" xmlns:xlink="http://www.w3.org/1999/xlink" x="0px" y="0px"
	 viewBox="0 0 23 23.1" style="enable-background:new 0 0 23 23.1;" xml:space="preserve">
<style type="text/css">
	.st0{fill:#F8CA30;}
	.st1{opacity:0.7;}
	.st2{fill:#FFFFFF;}
	.st3{fill:#F9C233;}
	.st4{opacity:0.4;}
	.st5{opacity:0.2;}
	.st6{opacity:0.1;}
	.st7{fill:#F8F5DE;fill-opacity:0.4512;}
	.st8{fill:#F8F4C7;fill-opacity:0.4512;}
	.st9{fill:#F9F1A1;fill-opacity:0.4421;}
	.st10{fill:url(#SVGID_1_);}
	.st11{fill:#F8A276;}
	.st12{opacity:0.13;}
	.st13{opacity:0.25;}
	.st14{fill:#F5F5F5;}
	.st15{fill:#E1E1E1;}
	.st16{opacity:0.3;}
	.st17{fill:#132F36;}
	.st18{fill:#375A64;}
	.st19{fill:#FF745E;}
	.st20{fill:#F9A868;}
	.st21{fill:#F68E62;}
	.st22{fill:#AB8C81;}
	.st23{fill:#2F6D7E;}
	.st24{fill:#D68D67;}
</style>
<g>
	<g>
		<circle class="st14" cx="11.6" cy="11.5" r="11.4"/>
	</g>
	<g>
		<path class="st15" d="M15.3,0.7c3.2,2,5.4,5.6,5.4,9.7c0,2.1-0.5,4-1.5,5.7c-2,3.4-5.7,5.8-9.9,5.8c-1.3,0-2.5-0.2-3.6-0.6
			c1.8,1.1,3.8,1.7,6,1.7C17.9,23,23,17.8,23,11.5C23,6.5,19.8,2.2,15.3,0.7z"/>
	</g>
	<g>
		<g>
			<circle class="st15" cx="11.1" cy="15.5" r="2.5"/>
		</g>
		<g class="st16">
			<circle cx="11.1" cy="15.5" r="2.5"/>
		</g>
		<g>
			<path class="st15" d="M13.9,15.5c0,1.4-1,2.5-2.4,2.5s-2.4-1.2-2.4-2.6c0-1.4,1-2.4,2.4-2.4S13.9,14.1,13.9,15.5z"/>
		</g>
	</g>
	<g>
		<path class="st15" d="M19.2,14.2c0.1-0.7,1.2-1.3,1.2-1.3l0.3,1.3l-0.9,1.9C19.7,16.1,19,15.1,19.2,14.2z"/>
	</g>
	<g>
		<path class="st15" d="M20.4,8.2c0,0-0.5,0.4-0.5,1c0,0.6,0.8,0.8,0.8,0.8L21.5,9L20.4,8.2z"/>
	</g>
	<g>
		<path class="st15" d="M15.8,19.7c0,0-0.7-0.4-1.4-0.2c-0.7,0.3-0.6,1.2-0.6,1.2l1.4,0.6L15.8,19.7z"/>
	</g>
	<g>
		<circle class="st15" cx="19.8" cy="10.5" r="0.3"/>
	</g>
	<g>
		<g>
			<path class="st15" d="M6.7,16.2c0-0.5-0.3-1-0.5-1.5c-0.2-0.3-0.4-0.6-0.8-0.6l-0.3,0c-0.4-0.2-0.9-0.1-1.2,0.1
				c-0.3,0.3-0.4,0.7-0.4,1.1c0,0.4,0.2,0.8,0.4,1.1c0.2,0.4,0.5,0.8,0.9,1.1c0.2,0.2,0.4,0.3,0.7,0.4c0.3,0,0.6-0.1,0.8-0.3
				C6.6,17.3,6.8,16.7,6.7,16.2z"/>
		</g>
		<g class="st16">
			<g>
				<path d="M6.7,16.2c0-0.5-0.3-1-0.5-1.5c-0.2-0.3-0.4-0.6-0.8-0.6l-0.3,0c-0.4-0.2-0.9-0.1-1.2,0.1c-0.3,0.3-0.4,0.7-0.4,1.1
					c0,0.4,0.2,0.8,0.4,1.1c0.2,0.4,0.5,0.8,0.9,1.1c0.2,0.2,0.4,0.3,0.7,0.4c0.3,0,0.6-0.1,0.8-0.3C6.6,17.3,6.8,16.7,6.7,16.2z"/>
			</g>
		</g>
		<g>
			<path class="st15" d="M7,16.2c0-0.5-0.3-1-0.5-1.5c-0.2-0.3-0.4-0.5-0.8-0.6l-0.4-0.1c-0.4,0-0.8,0-1.1,0.3
				c-0.3,0.3-0.4,0.7-0.4,1.1c0,0.4,0.2,0.8,0.4,1.1c0.2,0.4,0.5,0.8,0.9,1.1c0.2,0.2,0.4,0.3,0.6,0.3c0.3,0,0.5-0.1,0.7-0.3
				C6.8,17.2,7,16.7,7,16.2z"/>
		</g>
	</g>
	<g>
		<g>
			<path class="st15" d="M9.7,20.6c0.4,0.1,0.8,0.1,1.2,0c0.3,0,0.6-0.1,0.6-0.3l0-0.2c0.2-0.2,0.3-0.5,0.1-0.8
				c-0.2-0.3-0.5-0.4-0.8-0.5c-0.3-0.1-0.6,0-0.9,0c-0.3,0.1-0.7,0.2-1,0.3c-0.2,0.1-0.3,0.2-0.4,0.3c-0.1,0.2,0,0.4,0.1,0.6
				C8.9,20.3,9.3,20.5,9.7,20.6z"/>
		</g>
		<g class="st16">
			<g>
				<path d="M9.7,20.6c0.4,0.1,0.8,0.1,1.2,0c0.3,0,0.6-0.1,0.6-0.3l0-0.2c0.2-0.2,0.3-0.5,0.1-0.8c-0.2-0.3-0.5-0.4-0.8-0.5
					c-0.3-0.1-0.6,0-0.9,0c-0.3,0.1-0.7,0.2-1,0.3c-0.2,0.1-0.3,0.2-0.4,0.3c-0.1,0.2,0,0.4,0.1,0.6C8.9,20.3,9.3,20.5,9.7,20.6z"/>
			</g>
		</g>
		<g>
			<path class="st15" d="M9.9,20.7c0.4,0.1,0.8,0.1,1.2,0c0.3,0,0.4-0.1,0.6-0.3l0.2-0.2c0.1-0.3,0.1-0.5,0-0.8
				c-0.2-0.3-0.5-0.4-0.8-0.5c-0.3-0.1-0.6,0-0.9,0c-0.3,0.1-0.7,0.2-1,0.3c-0.2,0.1-0.3,0.2-0.4,0.3c-0.1,0.2,0,0.3,0.1,0.5
				C9.2,20.3,9.5,20.6,9.9,20.7z"/>
		</g>
	</g>
	<g>
		<g>
			<path class="st15" d="M17.6,5.2c-0.3-0.4-0.7-0.8-1.2-1.1c-0.3-0.2-0.7-0.4-1-0.2l-0.3,0.2c-0.4,0-0.9,0.3-1,0.7
				c-0.1,0.4,0,0.8,0.2,1.2c0.2,0.3,0.6,0.6,0.9,0.8c0.4,0.2,0.8,0.4,1.3,0.5c0.2,0.1,0.5,0.1,0.8,0c0.3-0.1,0.5-0.3,0.5-0.6
				C18,6.2,17.9,5.7,17.6,5.2z"/>
		</g>
		<g class="st16">
			<g>
				<path d="M17.6,5.2c-0.3-0.4-0.7-0.8-1.2-1.1c-0.3-0.2-0.7-0.4-1-0.2l-0.3,0.2c-0.4,0-0.9,0.3-1,0.7c-0.1,0.4,0,0.8,0.2,1.2
					c0.2,0.3,0.6,0.6,0.9,0.8c0.4,0.2,0.8,0.4,1.3,0.5c0.2,0.1,0.5,0.1,0.8,0c0.3-0.1,0.5-0.3,0.5-0.6C18,6.2,17.9,5.7,17.6,5.2z"/>
			</g>
		</g>
		<g>
			<path class="st15" d="M18,5.4c-0.3-0.4-0.7-0.8-1.2-1.1c-0.3-0.2-0.5-0.2-1-0.2l-0.4,0.1C15,4.4,14.7,4.6,14.6,5
				c-0.1,0.4,0,0.8,0.2,1.2C15,6.5,15.3,6.8,15.7,7c0.4,0.2,0.8,0.4,1.3,0.5c0.2,0.1,0.5,0.1,0.7,0c0.3-0.1,0.4-0.3,0.5-0.6
				C18.3,6.4,18.3,5.8,18,5.4z"/>
		</g>
	</g>
	<g>
		<g>
			<path class="st15" d="M5.9,12.1c0-0.1-0.1-0.2-0.2-0.3c-0.1-0.1-0.3-0.1-0.5-0.1c-0.1,0-0.3,0.1-0.4,0.2
				c-0.1,0.2-0.2,0.4-0.2,0.6c0,0.2,0.1,0.4,0.3,0.5c0.2,0.1,0.5,0.1,0.7-0.1C5.8,12.7,5.9,12.4,5.9,12.1z"/>
		</g>
		<g class="st16">
			<g>
				<path d="M5.9,12.1c0-0.1-0.1-0.2-0.2-0.3c-0.1-0.1-0.3-0.1-0.5-0.1c-0.1,0-0.3,0.1-0.4,0.2c-0.1,0.2-0.2,0.4-0.2,0.6
					c0,0.2,0.1,0.4,0.3,0.5c0.2,0.1,0.5,0.1,0.7-0.1C5.8,12.7,5.9,12.4,5.9,12.1z"/>
			</g>
		</g>
		<g>
			<path class="st15" d="M6,12.2c0-0.1-0.1-0.2-0.2-0.3c-0.1-0.1-0.3-0.1-0.5-0.1c-0.1,0-0.2,0.1-0.4,0.2c-0.1,0.1-0.2,0.3-0.2,0.5
				c0,0.2,0.1,0.4,0.3,0.5c0.2,0.1,0.5,0.1,0.7-0.1C6,12.7,6,12.4,6,12.2z"/>
		</g>
	</g>
	<g>
		<g>
			<path class="st15" d="M12,2.2C12,2.1,12,2,11.9,1.9c-0.1-0.1-0.3-0.1-0.5-0.1c-0.1,0-0.3,0.1-0.4,0.2c-0.1,0.2-0.2,0.4-0.2,0.6
				c0,0.2,0.1,0.4,0.3,0.5c0.2,0.1,0.5,0.1,0.7-0.1C12,2.8,12.1,2.5,12,2.2z"/>
		</g>
		<g class="st16">
			<g>
				<path d="M12,2.2C12,2.1,12,2,11.9,1.9c-0.1-0.1-0.3-0.1-0.5-0.1c-0.1,0-0.3,0.1-0.4,0.2c-0.1,0.2-0.2,0.4-0.2,0.6
					c0,0.2,0.1,0.4,0.3,0.5c0.2,0.1,0.5,0.1,0.7-0.1C12,2.8,12.1,2.5,12,2.2z"/>
			</g>
		</g>
		<g>
			<path class="st15" d="M12.2,2.2c0-0.1-0.1-0.2-0.2-0.3c-0.1-0.1-0.3-0.1-0.5-0.1c-0.1,0-0.2,0.1-0.4,0.2C11,2.2,11,2.4,11,2.6
				c0,0.2,0.1,0.4,0.3,0.5c0.2,0.1,0.5,0.1,0.7-0.1C12.1,2.7,12.2,2.5,12.2,2.2z"/>
		</g>
	</g>
	<g>
		<g>
			<path class="st15" d="M9.2,3.2c0-0.1-0.1-0.2-0.1-0.2C9,3,8.9,2.9,8.8,2.9C8.7,2.9,8.6,3,8.5,3.1C8.5,3.2,8.4,3.3,8.4,3.5
				c0,0.1,0.1,0.3,0.2,0.3c0.2,0.1,0.4,0,0.5-0.1C9.2,3.6,9.3,3.4,9.2,3.2z"/>
		</g>
		<g class="st16">
			<g>
				<path d="M9.2,3.2c0-0.1-0.1-0.2-0.1-0.2C9,3,8.9,2.9,8.8,2.9C8.7,2.9,8.6,3,8.5,3.1C8.5,3.2,8.4,3.3,8.4,3.5
					c0,0.1,0.1,0.3,0.2,0.3c0.2,0.1,0.4,0,0.5-0.1C9.2,3.6,9.3,3.4,9.2,3.2z"/>
			</g>
		</g>
		<g>
			<path class="st15" d="M9.3,3.3c0-0.1,0-0.1-0.1-0.2C9.1,3,9,3,8.9,3C8.8,3,8.8,3,8.7,3.1C8.6,3.2,8.5,3.3,8.6,3.5
				c0,0.1,0.1,0.2,0.2,0.3c0.1,0.1,0.3,0,0.4-0.1C9.3,3.6,9.3,3.4,9.3,3.3z"/>
		</g>
	</g>
	<g>
		<g>
			<path class="st15" d="M5,4.8c0-0.1-0.1-0.2-0.1-0.2C4.8,4.5,4.6,4.5,4.5,4.5c-0.1,0-0.2,0.1-0.3,0.2C4.2,4.7,4.1,4.9,4.1,5
				c0,0.1,0.1,0.3,0.2,0.3c0.2,0.1,0.4,0,0.5-0.1C4.9,5.1,5,5,5,4.8z"/>
		</g>
		<g class="st16">
			<g>
				<path d="M5,4.8c0-0.1-0.1-0.2-0.1-0.2C4.8,4.5,4.6,4.5,4.5,4.5c-0.1,0-0.2,0.1-0.3,0.2C4.2,4.7,4.1,4.9,4.1,5
					c0,0.1,0.1,0.3,0.2,0.3c0.2,0.1,0.4,0,0.5-0.1C4.9,5.1,5,5,5,4.8z"/>
			</g>
		</g>
		<g>
			<path class="st15" d="M5,4.8c0-0.1,0-0.1-0.1-0.2C4.9,4.5,4.7,4.5,4.6,4.5c-0.1,0-0.2,0.1-0.2,0.1C4.3,4.8,4.3,4.9,4.3,5
				c0,0.1,0.1,0.2,0.2,0.3c0.1,0.1,0.3,0,0.4-0.1C5,5.1,5.1,5,5,4.8z"/>
		</g>
	</g>
	<g>
		<g>
			<path class="st2" d="M2.8,5.4C2.8,5.4,2.4,6,2,7C1.6,8,1.3,9.4,1.3,11c0,1.6,0.2,3.1,0.5,4.1c0.3,1,0.6,1.6,0.5,1.7
				c0,0-0.4-0.6-0.8-1.6C1.3,14.2,1,12.7,1,11c0-1.7,0.4-3.2,0.8-4.2C2.1,6.4,2.3,6,2.5,5.8C2.7,5.5,2.8,5.4,2.8,5.4z"/>
		</g>
	</g>
	<g>
		<g>
			<path class="st2" d="M8.1,1.3c0,0.1-1.2,0.6-2.5,1.4C4.9,3.1,4.4,3.6,4.1,3.9C3.7,4.3,3.5,4.6,3.5,4.5c0,0,0.1-0.3,0.4-0.8
				c0.3-0.4,0.9-0.9,1.5-1.4C6.8,1.6,8.1,1.2,8.1,1.3z"/>
		</g>
	</g>
	<g>
		<g>
			<path class="st15" d="M13.5,13.1c0,0,0.3,0.2,0.6,0.7c0.3,0.5,0.5,1.3,0.4,2.2c-0.2,0.9-0.7,1.5-1.1,1.9
				c-0.4,0.4-0.8,0.5-0.8,0.4c0,0,0.3-0.2,0.6-0.6c0.4-0.4,0.8-1,0.9-1.8c0.1-0.8,0-1.5-0.3-2C13.7,13.4,13.5,13.1,13.5,13.1z"/>
		</g>
	</g>
	<g>
		<g>
			<path class="st15" d="M12.2,20.2c-0.1-0.1,0-0.3,0-0.6c0-0.3-0.2-0.5-0.1-0.6c0-0.1,0.4,0.1,0.4,0.5
				C12.6,20.1,12.3,20.3,12.2,20.2z"/>
		</g>
	</g>
	<g>
		<g>
			<ellipse transform="matrix(0.9728 -0.2315 0.2315 0.9728 -4.1879 3.436)" class="st15" cx="12.5" cy="19.6" rx="0.2" ry="0.1"/>
		</g>
	</g>
	<g>
		<g>
			<path class="st15" d="M6.8,14.4c0,0,0.2,0.1,0.3,0.4c0.2,0.3,0.3,0.7,0.4,1.3c0,0.5-0.2,1-0.5,1.3c-0.2,0.3-0.4,0.3-0.5,0.3
				c0,0,0.1-0.2,0.3-0.4C7,17,7.2,16.6,7.1,16.1c0-0.5-0.2-0.9-0.2-1.2C6.8,14.6,6.7,14.4,6.8,14.4z"/>
		</g>
	</g>
	<g>
		<g>
			<path class="st15" d="M7.5,15.8c0.1-0.1,0.3,0.1,0.3,0.4c0,0.3-0.1,0.5-0.2,0.4c-0.1,0-0.1-0.2-0.1-0.4C7.5,16,7.5,15.9,7.5,15.8
				z"/>
		</g>
	</g>
	<g>
		<g>
			<path class="st15" d="M6,11.7c0.1-0.1,0.4,0.2,0.4,0.7c0,0.5-0.3,0.8-0.4,0.7c-0.1-0.1,0-0.3,0-0.7C6.1,12,5.9,11.7,6,11.7z"/>
		</g>
	</g>
	<g>
		<g>
			<path class="st15" d="M18.7,6.6c0,0,0.1,0.1,0.2,0.3c0,0.2-0.1,0.6-0.3,0.8c-0.3,0.3-0.6,0.3-0.9,0.3c-0.2,0-0.3-0.2-0.3-0.2
				c0-0.1,0.5,0.1,1-0.3C18.7,7.2,18.6,6.7,18.7,6.6z"/>
		</g>
	</g>
	<g>
		<g>
			<path class="st15" d="M8.2,8.8c0,0,0.2-0.2,0.5-0.1C8.9,8.9,9.1,9.1,9,9.4C8.9,9.6,8.7,9.8,8.4,9.8C8.2,9.9,7.9,9.9,7.7,9.7
				C7.5,9.4,7.6,9.1,7.8,9C8,8.8,8.2,8.8,8.2,8.8c0,0-0.2,0.1-0.3,0.3c-0.1,0.1-0.1,0.2,0,0.3c0.1,0.1,0.2,0.1,0.4,0
				c0.2,0,0.3-0.1,0.4-0.2c0-0.1,0-0.2-0.1-0.3C8.5,8.8,8.3,8.9,8.2,8.8z"/>
		</g>
	</g>
	<g>
		<g>
			<path class="st15" d="M12.3,2.1c0,0,0.2,0,0.2,0.2c0.1,0.2,0,0.5-0.2,0.8c-0.2,0.2-0.5,0.3-0.7,0.3c-0.2,0-0.3,0-0.3-0.1
				c0-0.1,0.4-0.2,0.8-0.5c0.1-0.2,0.2-0.4,0.2-0.5C12.3,2.2,12.2,2.1,12.3,2.1z"/>
		</g>
	</g>
	<g>
		<g>
			<path class="st15" d="M12.6,3c0.1,0.1,0.1,0.2-0.1,0.3c-0.1,0.1-0.3,0.1-0.3,0c0-0.1,0-0.2,0.1-0.2C12.4,3,12.5,3,12.6,3z"/>
		</g>
	</g>
	<g>
		<g>
			<path class="st15" d="M9.5,3.8c-0.1-0.1,0-0.2-0.1-0.4c0-0.2-0.1-0.3,0-0.4C9.5,3,9.7,3.1,9.7,3.4C9.8,3.7,9.5,3.9,9.5,3.8z"/>
		</g>
	</g>
	<g>
		<g>
			<path class="st17" d="M23,11.5c-0.1,0,0-1-0.4-2.8c-0.2-0.9-0.6-1.9-1.3-3c-0.7-1.1-1.6-2.2-2.9-3.2c-1.3-1-2.9-1.8-4.8-2.1
				C11.8,0.2,9.7,0.2,7.7,1c-1,0.3-2,0.9-2.8,1.5C4.4,2.8,4,3.2,3.6,3.6C3.2,4,2.8,4.4,2.5,4.9c-1.4,1.8-2.2,4.2-2.2,6.6
				c0,2.4,0.8,4.8,2.2,6.6c0.3,0.5,0.7,0.9,1.1,1.3c0.4,0.4,0.8,0.8,1.3,1.1c0.9,0.7,1.8,1.2,2.8,1.5c2,0.8,4.1,0.8,5.9,0.5
				c1.9-0.3,3.5-1.1,4.8-2.1c1.3-1,2.2-2.1,2.9-3.2c0.7-1.1,1.1-2.1,1.3-3C23,12.6,22.9,11.5,23,11.5c0,0,0,0.1,0,0.2
				c0,0.1,0,0.3,0,0.5c0,0.2,0,0.5-0.1,0.9c0,0.3-0.1,0.8-0.2,1.2c-0.2,0.9-0.6,1.9-1.2,3.1c-0.7,1.1-1.6,2.3-2.9,3.3
				c-1.3,1-2.9,1.8-4.8,2.2c-1.9,0.3-4,0.3-6.1-0.5c-1-0.4-2-0.9-2.9-1.6c-0.5-0.3-0.9-0.7-1.3-1.1c-0.4-0.4-0.8-0.9-1.1-1.3
				C0.8,16.5,0,14.1,0,11.5C0,9,0.8,6.6,2.3,4.7C2.6,4.2,3,3.8,3.4,3.4C3.8,3,4.2,2.6,4.7,2.2C5.6,1.6,6.6,1,7.6,0.7
				c2-0.8,4.2-0.8,6.1-0.5c1.9,0.3,3.5,1.2,4.8,2.2c1.3,1,2.2,2.2,2.9,3.3c0.6,1.1,1,2.2,1.2,3.1c0.1,0.4,0.2,0.8,0.2,1.2
				c0.1,0.3,0.1,0.6,0.1,0.9c0,0.2,0,0.4,0,0.5C23,11.5,23,11.5,23,11.5z"/>
		</g>
	</g>
</g>
</svg>
