<?xml version="1.0" encoding="utf-8"?>
<!-- Generator: Adobe Illustrator 19.2.0, SVG Export Plug-In . SVG Version: 6.00 Build 0)  -->
<svg version="1.1" id="Layer_1" xmlns="http://www.w3.org/2000/svg" xmlns:xlink="http://www.w3.org/1999/xlink" x="0px" y="0px"
	 viewBox="0 0 17.4 17.4" style="enable-background:new 0 0 17.4 17.4;" xml:space="preserve">
<style type="text/css">
	.st0{fill:#F8CA30;}
	.st1{opacity:0.7;}
	.st2{fill:#FFFFFF;}
	.st3{fill:#F9C233;}
	.st4{opacity:0.4;}
	.st5{opacity:0.2;}
	.st6{opacity:0.1;}
	.st7{fill:#F8F5DE;fill-opacity:0.4512;}
	.st8{fill:#F8F4C7;fill-opacity:0.4512;}
	.st9{fill:#F9F1A1;fill-opacity:0.4421;}
	.st10{fill:url(#SVGID_1_);}
	.st11{fill:#F8A276;}
	.st12{opacity:0.13;}
	.st13{opacity:0.25;}
	.st14{fill:#F5F5F5;}
	.st15{fill:#E1E1E1;}
	.st16{opacity:0.3;}
	.st17{fill:#132F36;}
	.st18{fill:#375A64;}
	.st19{fill:#FF745E;}
	.st20{fill:#F9A868;}
	.st21{fill:#F68E62;}
	.st22{fill:#AB8C81;}
	.st23{fill:#2F6D7E;}
	.st24{fill:#D68D67;}
</style>
<g>
	<g>
		<ellipse transform="matrix(0.9434 -0.3316 0.3316 0.9434 -2.3899 3.3796)" class="st24" cx="8.7" cy="8.7" rx="8.7" ry="8.7"/>
	</g>
	<g>
		<g class="st12">
			<path class="st2" d="M16.9,5.7c0-0.1,0-0.1-0.1-0.2l0,0c0-0.1,0-0.1-0.1-0.2c0-0.1-0.1-0.1-0.1-0.2c0-0.1-0.1-0.2-0.1-0.2
				c-0.1-0.2-0.2-0.4-0.3-0.5c-1.1,0.3-2.6,0.9-4,1.6c-2.5,1.4-3.4,3.4-6.4,4.7c-3,1.3-4.5-0.2-3.9-1.1c0.6-1,4.3-2.8,8.2-4.3
				c2.7-1,4.6-1.6,5.5-1.8c-0.2-0.2-0.3-0.4-0.5-0.6c0,0-0.1-0.1-0.1-0.1c0,0-0.1-0.1-0.1-0.1c0,0,0,0,0,0c-0.1-0.1-0.1-0.1-0.2-0.2
				c0,0-0.1-0.1-0.1-0.1c0,0-0.1-0.1-0.1-0.1c-1.4,0.9-4.2,2.5-7.9,3.8C3.5,7.2,1.3,7.9,0,8.2c0,0.2,0,0.4,0,0.6C0,8.9,0,9,0,9.1
				c0,0,0,0.1,0,0.1c0,0,0,0,0,0.1l0,0c0,0.1,0,0.3,0,0.4c0,0.1,0,0.1,0,0.2l0,0c0,0.1,0,0.2,0,0.3c0,0,0,0.1,0,0.1
				c0,0.1,0,0.2,0,0.2l0,0c0,0.1,0,0.2,0.1,0.2c0,0.1,0,0.1,0,0.2c0,0.1,0.1,0.3,0.1,0.4c0,0,0,0,0,0.1c0,0,0,0.1,0,0.1
				c0,0.1,0.1,0.2,0.1,0.2c0,0,0,0.1,0.1,0.1c0,0,0,0.1,0,0.1c0,0.1,0.1,0.2,0.1,0.3c0,0.1,0.1,0.2,0.1,0.3c0.3,0.6,0.7,1.1,1.1,1.6
				c2-1,7.2-3.6,9.7-4.7c1.8-0.8,4.2-1.4,5.7-1.8c0-0.3-0.1-0.5-0.1-0.8c0,0,0-0.1,0-0.1c0,0,0-0.1,0-0.1c0-0.1,0-0.1,0-0.2
				c0,0,0-0.1,0-0.2c0,0,0-0.1,0-0.1c0-0.1,0-0.1-0.1-0.2C17,6.1,17,6.1,17,6C17,5.9,16.9,5.9,16.9,5.7C16.9,5.8,16.9,5.7,16.9,5.7z
				 M1.2,8.3c0.2-0.1,0.5,0,0.5,0.3s0,0.5-0.3,0.5C1.2,9.1,1,9,0.9,8.8C0.9,8.6,1,8.4,1.2,8.3z M2.7,12.9C2.4,13,2.1,12.9,2,12.6
				c-0.1-0.3,0-0.6,0.3-0.7C2.6,11.8,2.9,12,3,12.2C3.1,12.5,3,12.8,2.7,12.9z M11.7,8.1c-0.2,0.1-0.5,0-0.5-0.3
				c-0.1-0.2,0-0.5,0.3-0.5c0.2-0.1,0.5,0,0.5,0.3C12,7.8,11.9,8,11.7,8.1z M12.8,8.8c-0.1,0-0.2,0-0.3-0.1c0-0.1,0-0.2,0.1-0.3
				c0.1,0,0.2,0,0.3,0.1C13,8.6,13,8.7,12.8,8.8z"/>
		</g>
		<g class="st13">
			<g>
				<path class="st2" d="M10.3,12.8c-3.4,1.2-6.4,1.8-7.7,2.1c0,0,0,0,0,0c0,0,0,0,0.1,0.1c0,0,0,0,0,0c0,0,0,0,0.1,0.1
					c0,0,0.1,0.1,0.2,0.1c0.2,0.2,0.4,0.3,0.5,0.4c0,0,0,0,0,0C3.7,15.8,3.9,15.9,4,16c0,0,0.1,0,0.1,0.1c0.3,0.2,0.7,0.4,1,0.5
					c0.4,0.2,0.7,0.3,1.1,0.4c0,0,0,0,0,0c0.1,0,0.1,0,0.2,0.1c0,0,0,0,0,0c0.1,0,0.2,0.1,0.4,0.1c0,0,0.1,0,0.1,0l0,0c0,0,0,0,0,0
					c0,0,0,0,0.1,0c0.1,0,0.2,0,0.3,0c0.2,0,0.3,0,0.5,0.1c1.7-0.7,3.3-1.3,3.7-1.4c0.5-0.1-0.4,0.6-1.7,1.3
					c0.6-0.1,1.1-0.2,1.7-0.4c0.8-0.3,1.5-0.6,2.1-1.1c0.1,0,0.1-0.1,0.2-0.1c0.1,0,0.1-0.1,0.2-0.2c0.1-0.1,0.2-0.1,0.2-0.2
					c0.4-0.3,0.8-0.7,1.1-1.1l0,0c0.3-0.3,0.5-0.7,0.7-1c0-0.1,0.1-0.1,0.1-0.2c-0.4,0.2-1,0.5-1.9,0.9c-2.6,1.2-7.1,2.4-7.1,2.1
					c0-0.4,2.4-1.8,5.8-2.9c1.6-0.5,2.8-0.9,3.7-1.2c0.1-0.1,0.1-0.3,0.2-0.4c0.1-0.3,0.2-0.7,0.3-1c0-0.1,0-0.2,0.1-0.3
					c0-0.1,0-0.2,0.1-0.3c0-0.2,0-0.4,0.1-0.6c0,0,0,0,0,0C16.2,10.1,13.7,11.7,10.3,12.8z M6.2,15.5c-0.8,0.3-1.5,0.3-1.5,0.1
					c-0.1-0.2,0.5-0.6,1.3-0.9c0.8-0.3,1.5-0.3,1.5-0.1C7.5,14.8,6.9,15.2,6.2,15.5z"/>
			</g>
		</g>
		<g class="st12">
			<path class="st2" d="M12.6,0.9c-1.1,0.8-3,2-5.6,2.9C4.4,4.7,2.1,5.3,0.6,5.6c0.1-0.4,0.3-0.8,0.5-1.1C2.6,4.3,4.3,4,5.6,3.6
				c2.9-0.9,5.6-2.7,4.9-2.9C10,0.6,8,1.9,5.2,2.7C4,3,2.7,3.3,1.7,3.5c0.3-0.4,0.7-0.8,1-1.2c0,0,0,0,0,0c0,0,0,0,0,0
				C3.9,2.1,5.3,1.7,7.1,1C8.2,0.6,9,0.3,9.6,0c0.1,0,0.2,0,0.3,0c0,0,0,0,0,0c0.2,0,0.3,0,0.5,0.1c0,0,0,0,0,0
				c0.3,0.1,0.5,0.1,0.8,0.2c0,0,0,0,0,0c0,0,0.1,0,0.1,0l0,0c0,0,0,0,0.1,0c0.1,0,0.2,0.1,0.3,0.1c0,0,0.1,0,0.1,0.1
				c0,0,0.1,0,0.1,0C12.1,0.7,12.3,0.8,12.6,0.9L12.6,0.9C12.6,0.9,12.6,0.9,12.6,0.9L12.6,0.9z"/>
		</g>
		<g class="st4">
			<path class="st2" d="M16.9,5.7c0-0.1,0-0.1-0.1-0.2c0,0,0,0,0,0l0,0c0-0.1,0-0.1-0.1-0.2c0-0.1,0-0.1-0.1-0.2
				c0-0.1-0.1-0.2-0.1-0.2c-0.1-0.2-0.2-0.4-0.3-0.6c0,0,0-0.1,0-0.1c0,0,0,0,0-0.1C16.1,4.1,16.1,4,16,4c-0.2-0.4-0.5-0.7-0.8-1.1
				c-0.1-0.1-0.1-0.2-0.2-0.2c-0.1-0.1-0.2-0.2-0.3-0.3c-0.1-0.1-0.2-0.2-0.3-0.2c-0.1-0.1-0.2-0.2-0.3-0.3c0,0-0.1-0.1-0.1-0.1
				c0,0,0,0,0,0c0,0-0.1,0-0.1-0.1c0,0,0,0,0,0c-0.1,0-0.1-0.1-0.2-0.1c0,0,0,0-0.1,0c0,0,0,0,0,0c0,0-0.1,0-0.1-0.1
				c-0.1-0.1-0.3-0.2-0.4-0.2l0,0c-0.1-0.1-0.2-0.1-0.3-0.2c0,0-0.1,0-0.1-0.1c0,0-0.1,0-0.1,0l0,0c-0.2-0.1-0.4-0.2-0.6-0.3
				c0,0-0.1,0-0.1,0c0,0-0.1,0-0.1-0.1c-0.1,0-0.2-0.1-0.3-0.1c0,0,0,0-0.1,0l0,0c0,0-0.1,0-0.1,0c0,0,0,0,0,0
				c-0.3-0.1-0.7-0.2-1-0.2c0.1,0,0.1,0,0.2,0.1c0,0,0,0,0,0c0.1,0,0.1,0,0.2,0.1c0,0,0,0,0,0c0,0,0.1,0,0.1,0l0,0c0,0,0,0,0.1,0
				c0.1,0,0.2,0.1,0.3,0.1c0,0,0.1,0,0.1,0.1c0,0,0.1,0,0.1,0c0.2,0.1,0.4,0.2,0.6,0.3l0,0c0,0,0.1,0,0.1,0c0.1,0.1,0.3,0.2,0.4,0.2
				l0,0c0,0,0,0,0,0c0.1,0.1,0.3,0.2,0.4,0.3c0,0,0,0,0,0c0,0,0,0,0.1,0c0,0,0.1,0.1,0.1,0.1c0,0,0.1,0,0.1,0.1c0,0,0.1,0,0.1,0.1
				c0,0,0,0,0,0c0.1,0,0.1,0.1,0.2,0.2c0.1,0.1,0.2,0.1,0.2,0.2c0.1,0.1,0.2,0.2,0.3,0.3c0.1,0.1,0.2,0.2,0.3,0.3
				c0.1,0.1,0.1,0.2,0.2,0.2c0,0,0.1,0.1,0.1,0.1C15,3.2,15.3,3.6,15.5,4c0,0,0,0,0,0.1c0,0,0,0,0,0.1c0.1,0.1,0.1,0.3,0.2,0.4
				c0,0.1,0.1,0.1,0.1,0.2C16,4.9,16.1,5,16.1,5.2c0,0.1,0,0.1,0.1,0.2l0,0c0,0.1,0.1,0.1,0.1,0.2c0,0,0,0.1,0,0.1c0,0,0,0.1,0,0.1
				c0,0,0,0.1,0,0.1c0.1,0.2,0.1,0.3,0.1,0.5c0,0.1,0,0.2,0.1,0.3c0,0,0,0,0,0.1c0,0.2,0.1,0.3,0.1,0.5c0,0,0,0.1,0,0.1
				c0.1,0.8,0.1,1.6,0,2.4c0,0,0,0,0,0c0,0.1,0,0.2-0.1,0.3c-0.1,0.3-0.1,0.6-0.2,0.9c-0.1,0.3-0.2,0.6-0.3,0.9
				c-0.1,0.2-0.2,0.3-0.2,0.5l0,0c-0.2,0.4-0.4,0.7-0.6,1l0,0c-0.3,0.5-0.7,1-1.2,1.4l0,0c-0.1,0.1-0.3,0.3-0.4,0.4
				c-0.1,0.1-0.2,0.1-0.2,0.2c-0.1,0.1-0.2,0.2-0.4,0.3c-0.3,0.2-0.5,0.4-0.8,0.5c-0.4,0.2-0.8,0.4-1.3,0.6
				c-0.9,0.3-1.8,0.5-2.7,0.5c-0.2,0-0.4,0-0.6,0c-0.2,0-0.3,0-0.5,0c-0.2,0-0.3,0-0.5-0.1c-0.1,0-0.1,0-0.2,0
				c0.1,0,0.2,0.1,0.3,0.1c0,0,0.1,0,0.1,0c0,0,0,0,0,0c0,0,0,0,0,0c0.1,0,0.2,0,0.3,0c0.3,0,0.6,0.1,0.9,0.1c0.2,0,0.4,0,0.6,0
				c0.9,0,1.8-0.2,2.7-0.5c0.8-0.3,1.5-0.6,2.1-1.1c0,0,0.1-0.1,0.1-0.1c0.1-0.1,0.2-0.1,0.2-0.2c0.1-0.1,0.2-0.1,0.2-0.2
				c0.4-0.3,0.8-0.7,1.1-1.1c0.3-0.3,0.5-0.7,0.7-1c0.2-0.4,0.4-0.8,0.6-1.2c0.1-0.2,0.1-0.3,0.2-0.5c0.1-0.3,0.2-0.7,0.3-1
				c0-0.1,0-0.2,0.1-0.3c0-0.1,0-0.2,0.1-0.3c0-0.2,0-0.4,0.1-0.6l0,0c0.1-0.8,0-1.5-0.1-2.3c0,0,0-0.1,0-0.1c0,0,0-0.1,0-0.1
				c0-0.1,0-0.1,0-0.2c0,0,0-0.1,0-0.1c0,0,0-0.1,0-0.1c0-0.1,0-0.1-0.1-0.2C17,6.1,17,6.1,17,6C16.9,5.9,16.9,5.9,16.9,5.7
				C16.9,5.8,16.9,5.7,16.9,5.7z"/>
		</g>
	</g>
	<g>
		<g>
			<path class="st2" d="M5,1C5,1,5,1,5,1L5,1C5,1,5,1,4.9,1.1C4.8,1.1,4.7,1.2,4.5,1.3C4.1,1.5,3.6,1.9,3,2.4
				C2.5,2.9,1.9,3.6,1.4,4.4C0.9,5.3,0.5,6.4,0.3,7.6l0-0.1l0,0l0,0l0,0c0,0.2,0,0.4-0.1,0.6c0,0.2,0,0.4,0,0.6
				c0,0.7,0.1,1.3,0.3,1.9L0.6,11l0.1,0.2c0.1,0.1,0.1,0.3,0.2,0.4C0.9,11.8,0.9,11.9,1,12c0,0.1,0.1,0.1,0.1,0.2
				c0,0.1,0.1,0.1,0.1,0.2c0.5,1,1.2,1.8,1.9,2.4c0.6,0.6,1.2,1,1.7,1.2c0.2,0.1,0.4,0.2,0.5,0.3c0.1,0.1,0.2,0.1,0.2,0.1
				c0,0-0.1,0-0.2-0.1c-0.1-0.1-0.3-0.1-0.5-0.2c-0.4-0.2-1-0.6-1.7-1.2c-0.7-0.6-1.3-1.4-1.9-2.5C1,12.4,1,12.4,1,12.3
				c0-0.1-0.1-0.1-0.1-0.2c-0.1-0.1-0.1-0.3-0.2-0.4c-0.1-0.1-0.1-0.3-0.2-0.4L0.5,11l-0.1-0.2c-0.2-0.6-0.3-1.3-0.3-2
				c0-0.2,0-0.4,0-0.7c0-0.2,0-0.4,0.1-0.6l0,0.1l0,0l0,0l0,0c0.2-1.2,0.6-2.3,1.1-3.2C1.8,3.5,2.4,2.8,3,2.3c0.6-0.5,1.1-0.8,1.5-1
				c0.2-0.1,0.3-0.2,0.4-0.2C5,1,5,1,5,1L5,1C5,1,5,1,5,1z"/>
		</g>
	</g>
</g>
</svg>
