<?xml version="1.0" encoding="utf-8"?>
<!-- Generator: Adobe Illustrator 19.2.0, SVG Export Plug-In . SVG Version: 6.00 Build 0)  -->
<svg version="1.1" id="Layer_1" xmlns="http://www.w3.org/2000/svg" xmlns:xlink="http://www.w3.org/1999/xlink" x="0px" y="0px"
	 viewBox="0 0 45.8 45.8" style="enable-background:new 0 0 45.8 45.8;" xml:space="preserve">
<style type="text/css">
	.st0{fill:#F8CA30;}
	.st1{opacity:0.7;}
	.st2{fill:#FFFFFF;}
	.st3{fill:#F9C233;}
	.st4{opacity:0.4;}
	.st5{opacity:0.2;}
	.st6{opacity:0.1;}
	.st7{fill:#F8F5DE;fill-opacity:0.4512;}
	.st8{fill:#F8F4C7;fill-opacity:0.4512;}
	.st9{fill:#F9F1A1;fill-opacity:0.4421;}
	.st10{fill:url(#SVGID_1_);}
	.st11{fill:#F8A276;}
	.st12{opacity:0.13;}
	.st13{opacity:0.25;}
	.st14{fill:#F5F5F5;}
	.st15{fill:#E1E1E1;}
	.st16{opacity:0.3;}
	.st17{fill:#132F36;}
	.st18{fill:#375A64;}
	.st19{fill:#FF745E;}
	.st20{fill:#F9A868;}
	.st21{fill:#F68E62;}
	.st22{fill:#AB8C81;}
	.st23{fill:#2F6D7E;}
	.st24{fill:#D68D67;}
</style>
<g>
	<g>
		
			<ellipse transform="matrix(0.9434 -0.3316 0.3316 0.9434 -6.2916 8.8972)" class="st11" cx="22.9" cy="22.9" rx="22.9" ry="22.9"/>
	</g>
	<g>
		<g class="st12">
			<path class="st2" d="M44.4,15c-0.1-0.1-0.1-0.3-0.2-0.4l0-0.1c-0.1-0.2-0.1-0.3-0.2-0.5c-0.1-0.2-0.1-0.3-0.2-0.5
				c-0.1-0.2-0.2-0.4-0.3-0.6c-0.2-0.5-0.5-0.9-0.7-1.4c-2.9,0.9-7,2.3-10.6,4.3c-6.7,3.6-8.9,9-16.8,12.5
				c-7.9,3.5-11.8-0.4-10.3-2.9c1.5-2.5,11.3-7.5,21.7-11.3c7.1-2.6,12.1-4.1,14.6-4.8c-0.4-0.6-0.9-1.1-1.3-1.7
				c-0.1-0.1-0.2-0.3-0.4-0.4c-0.1-0.1-0.2-0.2-0.2-0.2c0,0,0,0-0.1-0.1c-0.2-0.2-0.4-0.4-0.5-0.5c-0.1-0.1-0.2-0.2-0.2-0.2
				c-0.1-0.1-0.2-0.2-0.3-0.2c-3.7,2.3-11,6.5-20.8,9.9C9.3,18.9,3.5,20.7,0,21.7c0,0.5,0,1,0,1.6c0,0.3,0,0.6,0,0.8
				c0,0.1,0,0.2,0,0.3c0,0.1,0,0.1,0,0.2l0,0c0,0.4,0.1,0.7,0.1,1.1c0,0.1,0,0.3,0.1,0.4l0,0c0,0.2,0.1,0.5,0.1,0.7
				c0,0.1,0,0.2,0,0.3c0,0.2,0.1,0.4,0.1,0.6l0,0c0,0.2,0.1,0.4,0.2,0.7c0,0.2,0.1,0.3,0.1,0.5c0.1,0.4,0.2,0.7,0.3,1.1
				c0,0.1,0,0.1,0.1,0.2c0,0.1,0.1,0.3,0.1,0.4c0.1,0.2,0.2,0.4,0.2,0.7c0,0.1,0.1,0.2,0.1,0.3c0,0.1,0.1,0.2,0.1,0.3
				C1.9,32,2,32.3,2.2,32.6c0.1,0.2,0.2,0.5,0.4,0.7c0.8,1.6,1.8,3,2.9,4.3c5.2-2.7,18.9-9.6,25.4-12.5c4.8-2.2,10.9-3.8,14.9-4.7
				c-0.1-0.7-0.2-1.4-0.3-2c0-0.1,0-0.2-0.1-0.2c0-0.1,0-0.2,0-0.2c0-0.1-0.1-0.3-0.1-0.4c0-0.1-0.1-0.3-0.1-0.4
				c0-0.1,0-0.2-0.1-0.3c-0.1-0.2-0.1-0.4-0.2-0.6c0-0.2-0.1-0.3-0.1-0.5c-0.1-0.2-0.1-0.4-0.2-0.6C44.5,15.2,44.4,15.1,44.4,15z
				 M3.1,21.8c0.6-0.2,1.2,0.1,1.4,0.7c0.2,0.6-0.1,1.2-0.7,1.4c-0.6,0.2-1.2-0.1-1.4-0.7C2.2,22.6,2.5,22,3.1,21.8z M7.1,34.1
				c-0.8,0.3-1.6-0.1-1.8-0.9c-0.3-0.8,0.1-1.6,0.9-1.8c0.8-0.3,1.6,0.1,1.8,0.9C8.2,33,7.8,33.8,7.1,34.1z M30.8,21.3
				c-0.6,0.2-1.2-0.1-1.4-0.7c-0.2-0.6,0.1-1.2,0.7-1.4c0.6-0.2,1.2,0.1,1.4,0.7C31.6,20.5,31.3,21.1,30.8,21.3z M33.8,23.1
				c-0.3,0.1-0.6-0.1-0.7-0.3c-0.1-0.3,0-0.6,0.3-0.7c0.3-0.1,0.6,0,0.7,0.3C34.3,22.7,34.1,23,33.8,23.1z"/>
		</g>
		<g class="st13">
			<g>
				<path class="st2" d="M27.2,33.7c-9,3.1-16.8,4.8-20.4,5.5c0,0,0.1,0.1,0.1,0.1c0,0.1,0.1,0.1,0.2,0.1c0,0,0,0,0,0
					c0.1,0.1,0.1,0.1,0.2,0.2c0.1,0.1,0.3,0.2,0.4,0.4c0.5,0.4,0.9,0.8,1.4,1.2c0,0,0.1,0,0.1,0.1c0.5,0.3,0.9,0.7,1.4,1
					c0.1,0.1,0.2,0.1,0.3,0.2c0.9,0.5,1.8,1,2.7,1.4c1,0.4,2,0.8,3,1.1c0,0,0,0,0,0c0.2,0.1,0.3,0.1,0.5,0.1c0,0,0,0,0,0
					c0.3,0.1,0.7,0.2,1,0.2c0.1,0,0.2,0,0.3,0.1l0,0c0,0,0.1,0,0.1,0c0.1,0,0.1,0,0.2,0c0.2,0,0.5,0.1,0.7,0.1
					c0.4,0.1,0.9,0.1,1.3,0.2c4.5-1.9,8.6-3.5,9.8-3.7c1.4-0.2-1.1,1.6-4.4,3.5c1.5-0.2,2.9-0.6,4.4-1.1c2-0.7,3.9-1.7,5.6-2.9
					c0.1-0.1,0.3-0.2,0.4-0.3c0.2-0.1,0.4-0.3,0.5-0.4c0.2-0.2,0.4-0.3,0.6-0.5c1.1-0.9,2-1.9,2.9-2.9l0,0c0.7-0.8,1.3-1.7,1.9-2.6
					c0.1-0.2,0.2-0.3,0.3-0.5c-1.1,0.5-2.7,1.3-4.9,2.3C31,39.7,19.1,43,19.1,42.1c0-1,6.4-4.7,15.2-7.5c4.1-1.3,7.4-2.3,9.9-3
					c0.2-0.4,0.3-0.8,0.4-1.1c0.3-0.9,0.6-1.8,0.8-2.7c0-0.2,0.1-0.4,0.1-0.7c0.1-0.3,0.1-0.6,0.1-0.9c0.1-0.5,0.1-1,0.2-1.5
					c0,0,0,0,0-0.1C42.6,26.6,35.9,30.7,27.2,33.7z M16.2,40.8c-2,0.7-3.8,0.8-4,0.2c-0.2-0.6,1.3-1.6,3.3-2.3c2-0.7,3.8-0.8,4-0.2
					C19.7,39.1,18.2,40.1,16.2,40.8z"/>
			</g>
		</g>
		<g class="st12">
			<path class="st2" d="M33.2,2.4c-2.8,2.1-7.9,5.3-14.8,7.6c-6.7,2.2-13,3.8-16.9,4.8c0.4-1,0.9-2,1.4-3c3.9-0.4,8.5-1.1,12-2.2
				c7.6-2.4,14.7-7.1,13-7.5C26.2,1.6,21,4.9,13.7,7c-3.3,1-6.5,1.7-9.1,2.1c0.8-1.1,1.7-2.1,2.7-3c0,0,0,0,0,0c0,0,0,0,0.1-0.1
				c2.9-0.6,6.7-1.6,11.4-3.4c2.8-1.1,4.9-1.9,6.5-2.5c0.3,0,0.5,0.1,0.8,0.1c0,0,0,0,0,0c0.4,0.1,0.8,0.1,1.2,0.2c0,0,0,0,0,0
				c0.7,0.1,1.4,0.3,2.1,0.5c0,0,0,0,0,0c0.1,0,0.2,0.1,0.3,0.1l0,0c0.1,0,0.1,0,0.2,0.1c0.2,0.1,0.4,0.1,0.7,0.2
				c0.1,0,0.2,0.1,0.4,0.1c0.1,0,0.2,0.1,0.3,0.1c0.6,0.2,1.1,0.5,1.6,0.7l0,0C33,2.4,33.1,2.4,33.2,2.4L33.2,2.4z"/>
		</g>
		<g class="st4">
			<path class="st2" d="M44.4,15c-0.1-0.1-0.1-0.3-0.2-0.5c0,0,0,0,0-0.1l0,0c-0.1-0.2-0.1-0.3-0.2-0.5c-0.1-0.1-0.1-0.3-0.2-0.4
				c-0.1-0.2-0.2-0.4-0.3-0.6c-0.3-0.5-0.5-1-0.8-1.5c0-0.1-0.1-0.1-0.1-0.2c0-0.1-0.1-0.1-0.1-0.2c-0.1-0.2-0.2-0.4-0.3-0.5
				c-0.6-1-1.3-1.9-2.1-2.8c-0.2-0.2-0.4-0.4-0.6-0.6c-0.3-0.3-0.5-0.6-0.8-0.8C38.4,6,38.2,5.8,38,5.6c-0.3-0.2-0.5-0.5-0.8-0.7
				c-0.1-0.1-0.2-0.2-0.3-0.3c0,0,0,0,0,0c-0.1-0.1-0.2-0.1-0.3-0.2c0,0-0.1-0.1-0.1-0.1c-0.2-0.1-0.3-0.2-0.5-0.4
				c-0.1,0-0.1-0.1-0.2-0.1c0,0-0.1-0.1-0.1-0.1c-0.1-0.1-0.2-0.1-0.2-0.2c-0.3-0.2-0.7-0.4-1-0.6l0,0c-0.3-0.2-0.6-0.3-0.9-0.5
				c-0.1,0-0.2-0.1-0.3-0.1c-0.1,0-0.1-0.1-0.2-0.1l0,0c-0.5-0.3-1.1-0.5-1.6-0.7c-0.1,0-0.2-0.1-0.3-0.1c-0.1,0-0.2-0.1-0.4-0.1
				c-0.2-0.1-0.4-0.2-0.7-0.2C30,1,29.9,1,29.9,1l0,0c-0.1,0-0.2-0.1-0.3-0.1c0,0,0,0,0,0c-0.9-0.3-1.8-0.5-2.7-0.6
				c0.2,0,0.3,0.1,0.5,0.1c0,0,0,0,0,0c0.2,0,0.4,0.1,0.5,0.2c0,0,0,0,0,0c0.1,0,0.2,0.1,0.3,0.1l0,0c0.1,0,0.1,0,0.2,0.1
				c0.2,0.1,0.4,0.1,0.7,0.2c0.1,0,0.2,0.1,0.4,0.1c0.1,0,0.2,0.1,0.3,0.1c0.6,0.2,1.1,0.5,1.6,0.7l0,0c0.1,0,0.1,0.1,0.2,0.1
				c0.4,0.2,0.8,0.4,1.2,0.6l0,0c0,0,0.1,0.1,0.1,0.1C33.3,3,33.7,3.2,34,3.4c0,0,0.1,0.1,0.1,0.1c0.1,0,0.1,0.1,0.2,0.1
				c0.1,0.1,0.2,0.2,0.4,0.3C34.8,4,34.9,4,35,4.1c0.1,0.1,0.2,0.1,0.3,0.2c0,0,0,0,0,0c0.2,0.1,0.3,0.3,0.5,0.4
				c0.2,0.2,0.4,0.4,0.6,0.5c0.3,0.2,0.6,0.5,0.8,0.7c0.2,0.2,0.5,0.5,0.7,0.7c0.2,0.2,0.4,0.4,0.6,0.6c0.1,0.1,0.2,0.2,0.3,0.3
				c0.8,0.9,1.5,1.9,2.2,3c0,0.1,0.1,0.1,0.1,0.2c0,0.1,0.1,0.1,0.1,0.2c0.2,0.3,0.4,0.7,0.5,1c0.1,0.2,0.2,0.4,0.3,0.6
				c0.2,0.4,0.3,0.7,0.5,1.1c0.1,0.1,0.1,0.3,0.2,0.4l0,0c0.1,0.2,0.1,0.4,0.2,0.6c0,0.1,0.1,0.2,0.1,0.2c0,0.1,0,0.1,0.1,0.2
				c0,0.1,0.1,0.2,0.1,0.4c0.1,0.4,0.3,0.9,0.4,1.4c0.1,0.3,0.1,0.5,0.2,0.8c0,0.1,0,0.1,0,0.2c0.1,0.4,0.2,0.9,0.2,1.3
				c0,0.1,0,0.3,0.1,0.4c0.3,2.1,0.3,4.2,0,6.2c0,0,0,0,0,0c0,0.3-0.1,0.6-0.1,0.9c-0.1,0.8-0.3,1.6-0.6,2.4
				c-0.2,0.8-0.5,1.6-0.8,2.3c-0.2,0.5-0.4,0.9-0.6,1.4l0,0c-0.5,0.9-1,1.8-1.6,2.7l0,0c-0.9,1.3-1.9,2.5-3.1,3.6l0,0
				c-0.4,0.3-0.7,0.7-1.1,1c-0.2,0.2-0.4,0.3-0.6,0.5c-0.3,0.2-0.6,0.5-1,0.7c-0.7,0.5-1.4,0.9-2.2,1.3c-1.1,0.6-2.2,1.1-3.4,1.5
				c-2.4,0.8-4.8,1.3-7.2,1.3c-0.5,0-1,0-1.5,0c-0.4,0-0.8,0-1.2-0.1c-0.4,0-0.8-0.1-1.2-0.2c-0.2,0-0.4-0.1-0.5-0.1
				c0.3,0.1,0.6,0.1,0.9,0.2c0.1,0,0.2,0.1,0.4,0.1c0,0,0,0,0.1,0c0,0,0.1,0,0.1,0c0.2,0,0.5,0.1,0.7,0.1c0.8,0.1,1.6,0.2,2.4,0.3
				c0.5,0,1,0,1.5,0c2.4,0,4.8-0.5,7.2-1.3c2-0.7,3.9-1.7,5.6-2.9c0.1-0.1,0.2-0.1,0.3-0.2c0.2-0.2,0.4-0.3,0.6-0.5
				c0.2-0.2,0.4-0.3,0.6-0.5c1-0.9,2-1.8,2.8-2.9c0.7-0.8,1.4-1.7,1.9-2.7c0.6-1,1.2-2.1,1.6-3.2c0.2-0.4,0.4-0.9,0.5-1.3
				c0.3-0.9,0.6-1.8,0.8-2.7c0.1-0.2,0.1-0.5,0.1-0.7c0.1-0.3,0.1-0.6,0.1-0.9c0.1-0.5,0.1-1,0.2-1.5l0,0c0.2-2,0-4.1-0.4-6.1
				c0-0.1,0-0.2,0-0.2c0-0.1,0-0.2-0.1-0.3c0-0.1-0.1-0.3-0.1-0.4c0-0.1-0.1-0.3-0.1-0.4c0-0.1,0-0.2-0.1-0.3
				c-0.1-0.2-0.1-0.4-0.2-0.6c0-0.2-0.1-0.3-0.1-0.5c-0.1-0.2-0.1-0.4-0.2-0.6C44.5,15.1,44.4,15.1,44.4,15z"/>
		</g>
	</g>
	<g>
		<g>
			<path class="st2" d="M13.3,2.6C13.3,2.6,13.3,2.6,13.3,2.6L13.3,2.6c0,0-0.1,0.1-0.4,0.2c-0.3,0.1-0.6,0.3-1.1,0.6
				C10.8,4,9.5,4.9,8,6.2c-1.5,1.3-3,3.1-4.4,5.5c-1.3,2.3-2.4,5.1-2.8,8.2l-0.1-0.1l0,0l0.1,0.1l0,0.1c-0.1,0.5-0.1,1.1-0.2,1.6
				c0,0.6,0,1.1,0,1.7c0.1,1.8,0.2,3.5,0.7,5.1l0.2,0.6l0.2,0.6c0.1,0.4,0.3,0.8,0.4,1.1c0.2,0.4,0.3,0.7,0.5,1.1
				c0.1,0.2,0.2,0.4,0.2,0.5c0.1,0.2,0.2,0.3,0.3,0.5c1.4,2.7,3.2,4.9,4.9,6.4c1.7,1.6,3.3,2.6,4.4,3.2c0.6,0.3,1,0.5,1.3,0.7
				c0.3,0.2,0.5,0.2,0.5,0.3c0,0-0.2-0.1-0.5-0.2c-0.3-0.1-0.8-0.3-1.3-0.7c-1.1-0.6-2.7-1.6-4.5-3.2c-1.7-1.6-3.5-3.7-5-6.5
				c-0.1-0.2-0.2-0.3-0.3-0.5c-0.1-0.2-0.2-0.4-0.2-0.5c-0.2-0.4-0.3-0.7-0.5-1.1c-0.1-0.4-0.3-0.8-0.4-1.2L1.2,29l-0.2-0.6
				c-0.5-1.6-0.7-3.4-0.7-5.1c0-0.6,0-1.2,0-1.7c0.1-0.6,0.1-1.1,0.2-1.7L0.7,20l0,0l-0.1-0.1l0-0.1c0.4-3.1,1.5-6,2.8-8.3
				c1.4-2.3,3-4.1,4.5-5.5c1.5-1.3,2.9-2.2,3.8-2.7c0.5-0.3,0.9-0.5,1.1-0.6C13.1,2.6,13.3,2.6,13.3,2.6L13.3,2.6
				C13.3,2.6,13.3,2.6,13.3,2.6z"/>
		</g>
	</g>
</g>
</svg>
