<?xml version="1.0" encoding="utf-8"?>
<!-- Generator: Adobe Illustrator 19.2.0, SVG Export Plug-In . SVG Version: 6.00 Build 0)  -->
<svg version="1.1" id="Layer_1" xmlns="http://www.w3.org/2000/svg" xmlns:xlink="http://www.w3.org/1999/xlink" x="0px" y="0px"
	 viewBox="0 0 35.6 35.5" style="enable-background:new 0 0 35.6 35.5;" xml:space="preserve">
<style type="text/css">
	.st0{fill:#F8CA30;}
	.st1{opacity:0.7;}
	.st2{fill:#FFFFFF;}
	.st3{fill:#F9C233;}
	.st4{opacity:0.4;}
	.st5{opacity:0.2;}
	.st6{opacity:0.1;}
	.st7{fill:#F8F5DE;fill-opacity:0.4512;}
	.st8{fill:#F8F4C7;fill-opacity:0.4512;}
	.st9{fill:#F9F1A1;fill-opacity:0.4421;}
	.st10{fill:url(#SVGID_1_);}
	.st11{fill:#F8A276;}
	.st12{opacity:0.13;}
	.st13{opacity:0.25;}
	.st14{fill:#F5F5F5;}
	.st15{fill:#E1E1E1;}
	.st16{opacity:0.3;}
	.st17{fill:#132F36;}
	.st18{fill:#375A64;}
	.st19{fill:#FF745E;}
	.st20{fill:#F9A868;}
	.st21{fill:#F68E62;}
	.st22{fill:#AB8C81;}
	.st23{fill:#2F6D7E;}
	.st24{fill:#D68D67;}
</style>
<g>
	<g>
		<circle class="st23" cx="17.8" cy="17.8" r="17.7"/>
	</g>
	<g class="st16">
		<path d="M10.1,28.3c3.2,1.4,6.5,2.1,9.9,2.6c2.5,0.4,5,0.8,7.2,1.8c-0.5,0.3-1,0.6-1.4,0.8c-2.5-0.5-5.2-0.7-7.7-1
			c-3.5-0.4-6.9-1.3-10.1-2.8c-2-0.9-3.9-2.1-5.7-3.5c-0.8-1.5-1.4-3-1.8-4.7c0.3,0.4,0.6,0.7,1,1C4,25,6.9,27,10.1,28.3z"/>
	</g>
	<g class="st6">
		<path d="M6.3,30.3c0.4-0.1,0.9,0.3,0.8,0.7c0,0.1-0.2,0.3-0.3,0.2c0,0-0.1,0-0.1,0c0,0,0,0,0,0c-0.3,0-0.6-0.3-0.6-0.6
			C6.1,30.5,6.2,30.4,6.3,30.3z"/>
	</g>
	<g class="st16">
		<path d="M32.2,14.3c0.5,0.6,0.8,1.2,1.4,1.7c0,0,0.8,0.4,0.7,0.6c0,0,0,0,0,0c0,0.2-0.2,0.3-0.4,0.3c-1-0.2-1.8-1-2.5-1.6
			c-0.5-0.4-1-0.8-1.6-1.1c-0.7-0.3-1.3-0.5-1.9-0.9c-0.4-0.4-0.1-1,0.4-1C29.7,12.1,31.3,13.3,32.2,14.3z"/>
	</g>
	<g class="st16">
		<path d="M10.9,19.7c0.4,0.5,0,1.2-0.6,1.1c-3-0.7-5.1-2.6-6.9-5c-0.8-1-1.6-2.3-2.3-3.6c0.6-1.2,0.7-2,1.4-3.2
			c0.9,1.5,1,3.5,1.9,4.8C6,16.1,9,17.5,10.9,19.7z"/>
	</g>
	<g class="st16">
		<path d="M9.1,31.7c2.3,0.7,4.7,1.2,7.1,1.7c1.8,0.4,3.7,0.5,5.2,1.6c-1,0.3-2,0.2-3,0.3c0,0-0.1-0.1-0.1-0.1
			c-1.2-0.2-2.5,0.1-3.7-0.2c-2.1-0.5-4.2-1.3-5.8-2.8C8.6,32,8.8,31.6,9.1,31.7z"/>
	</g>
	<g class="st16">
		<path d="M27.6,20.5c-0.2-0.6,0.5-0.9,0.9-0.7c1.3,0.6,2.2,2,3.4,2.9c0.7,0.5,1.6,1,2.5,1.3c-0.2,0.5-0.4,1-0.6,1.4
			c-0.8-0.1-1.5-0.5-2.2-0.9C30.1,23.6,28.2,22.1,27.6,20.5z"/>
	</g>
	<g class="st6">
		<path d="M30.2,7.1c-1.6,0.2-2.9-0.3-4.4-0.8c-1.5-0.4-3.1-0.5-4.4-1.2c-1.4-0.8-3.6-2.9-2.6-4.4c0,0,0.4-0.5,0.4-0.5
			c2.9,0.1,4.7,1,6.5,1.8c2.4,1.1,4.6,3.1,6,4.9c-0.3,0-0.5,0.1-0.8,0C30.7,7,30.5,7,30.2,7.1z"/>
	</g>
	<g>
		<path d="M9.8,16.4C9.8,16.4,9.8,16.4,9.8,16.4C9.9,16.4,9.9,16.4,9.8,16.4z"/>
	</g>
	<g class="st6">
		<g>
			<path d="M14.3,22.4c0.1-0.4,0.3-0.8,0.6-1.1c0.2-0.2,0.5-0.4,0.8-0.4l0,0c0,0,0,0,0,0c0.1,0,0.3,0,0.4,0.1
				c0.7,0.1,1.5,0.4,1.9,0.9c0.3,0.4,0.6,1.1,0.3,1.5c-0.3,0.5-0.9,0.6-1.5,0.7c-0.8,0.1-1.7,0.1-2.2-0.4
				C14.3,23.3,14.2,22.8,14.3,22.4z"/>
		</g>
	</g>
	<g class="st4">
		<path d="M1.2,11.4C1.2,11.4,1.2,11.4,1.2,11.4C1.9,9.5,3,7.8,4.3,6.3l0,0c0.1-0.1,0.1-0.1,0.2-0.2c0,0,0,0,0,0C5,5.5,5.5,5,6,4.6
			C5.8,4.8,5.6,5,5.4,5.2c0,0,0,0,0,0C5.4,5.3,5.3,5.3,5.2,5.4l0,0c-1.3,1.5-2.4,3.3-3.1,5.2c0,0,0,0,0,0c-3.1,7.6,0,17,7,21.3l0,0
			c0.7,0.4,1.4,0.8,2.1,1.2l0,0c6.1,2.9,14,1.7,19-2.8c-7.2,7.8-21,6.7-26.9-2.1l0,0c-1.4-1.9-2.4-4.3-2.9-6.6
			C-0.3,18.1,0,14.6,1.2,11.4z"/>
	</g>
	<g>
		<g>
			<path class="st2" d="M24.8,33.9c0,0,0,0,0.1-0.1c0.1-0.1,0.2-0.1,0.4-0.2c0.3-0.2,0.8-0.4,1.4-0.7l0,0c0,0-0.1,0-0.1,0l0,0
				c0.1,0,0.1-0.1,0.2-0.1l0,0l0,0l0,0l0,0c1.2-0.8,2.9-2,4.5-4l0.1,0c0,0-0.1,0-0.1,0.1l0-0.1c1.4-1.7,2.7-4.1,3.4-7
				c0.7-2.8,0.7-6.2-0.4-9.4l0.1,0.1l0,0l-0.1,0l0-0.1c-0.1-0.4-0.3-0.7-0.4-1.1c-0.1-0.4-0.3-0.8-0.5-1.1c-0.2-0.4-0.4-0.9-0.7-1.3
				c-0.3-0.4-0.5-0.8-0.8-1.2c-0.2-0.4-0.6-0.8-0.9-1.1c-0.3-0.3-0.6-0.7-0.9-1c-0.3-0.3-0.7-0.6-1-0.9c-0.3-0.3-0.7-0.5-1.1-0.8
				l-0.5-0.4c-0.2-0.1-0.4-0.2-0.6-0.3c-0.4-0.2-0.7-0.4-1.1-0.7c-3-1.6-6-2.2-8.6-2.2c-2.6,0-4.6,0.5-5.9,1
				c-0.7,0.2-1.2,0.5-1.5,0.7C10,2,9.9,2,9.8,2.1c-0.1,0-0.1,0.1-0.1,0c0,0,0,0,0.1-0.1C9.9,2,10,1.9,10.2,1.8
				c0.3-0.2,0.8-0.5,1.5-0.7C13,0.6,15,0,17.6,0c2.6,0,5.7,0.6,8.7,2.2c0.4,0.2,0.7,0.4,1.1,0.7C27.6,3,27.8,3.1,28,3.2l0.5,0.4
				c0.4,0.3,0.7,0.5,1.1,0.8c0.3,0.3,0.7,0.6,1,0.9c0.4,0.3,0.6,0.7,0.9,1c0.3,0.4,0.6,0.7,0.9,1.1c0.3,0.4,0.5,0.8,0.8,1.2
				c0.2,0.4,0.4,0.9,0.7,1.3c0.2,0.4,0.3,0.8,0.5,1.1c0.1,0.4,0.3,0.7,0.4,1.1l-0.1-0.1l0,0l0.1,0l0,0.1c1.1,3.3,1,6.7,0.3,9.6
				c-0.7,2.9-2.1,5.3-3.5,7.1l0-0.1c0,0-0.1,0.1-0.1,0.1l0.1,0c-1.6,2-3.4,3.2-4.6,3.9l0,0l0,0l0,0l0,0c-0.1,0-0.2,0.1-0.2,0.1l0,0
				c0,0-0.1,0.1-0.1,0.1l0,0c-0.6,0.3-1.1,0.5-1.4,0.7c-0.1,0.1-0.3,0.1-0.4,0.2C24.9,33.9,24.8,33.9,24.8,33.9z"/>
		</g>
	</g>
</g>
</svg>
