<?xml version="1.0" encoding="utf-8"?>
<!-- Generator: Adobe Illustrator 19.2.0, SVG Export Plug-In . SVG Version: 6.00 Build 0)  -->
<svg version="1.1" id="Layer_1" xmlns="http://www.w3.org/2000/svg" xmlns:xlink="http://www.w3.org/1999/xlink" x="0px" y="0px"
	 viewBox="0 0 19.1 19.1" style="enable-background:new 0 0 19.1 19.1;" xml:space="preserve">
<style type="text/css">
	.st0{fill:#F8CA30;}
	.st1{opacity:0.7;}
	.st2{fill:#FFFFFF;}
	.st3{fill:#F9C233;}
	.st4{opacity:0.4;}
	.st5{opacity:0.2;}
	.st6{opacity:0.1;}
	.st7{fill:#F8F5DE;fill-opacity:0.4512;}
	.st8{fill:#F8F4C7;fill-opacity:0.4512;}
	.st9{fill:#F9F1A1;fill-opacity:0.4421;}
	.st10{fill:url(#SVGID_1_);}
	.st11{fill:#F8A276;}
	.st12{opacity:0.13;}
	.st13{opacity:0.25;}
	.st14{fill:#F5F5F5;}
	.st15{fill:#E1E1E1;}
	.st16{opacity:0.3;}
	.st17{fill:#132F36;}
	.st18{fill:#375A64;}
	.st19{fill:#FF745E;}
	.st20{fill:#F9A868;}
	.st21{fill:#F68E62;}
	.st22{fill:#AB8C81;}
	.st23{fill:#2F6D7E;}
	.st24{fill:#D68D67;}
</style>
<g>
	<g>
		<g>
			<ellipse transform="matrix(0.1209 -0.9927 0.9927 0.1209 -1.0515 17.9011)" class="st19" cx="9.6" cy="9.5" rx="9.5" ry="9.5"/>
		</g>
		<g>
			<g>
				
					<ellipse transform="matrix(0.1209 -0.9927 0.9927 0.1209 -4.3891 20.8091)" class="st19" cx="9.6" cy="12.9" rx="2.1" ry="2.1"/>
			</g>
			<g class="st16">
				<ellipse transform="matrix(0.1209 -0.9927 0.9927 0.1209 -4.3891 20.8091)" cx="9.6" cy="12.9" rx="2.1" ry="2.1"/>
			</g>
			<g>
				<path class="st19" d="M7.3,12.6c-0.1,1.1,0.6,2.2,1.7,2.3c1.1,0.1,2.1-0.8,2.2-1.9c0.1-1.1-0.6-2.1-1.7-2.2
					C8.4,10.7,7.4,11.5,7.3,12.6z"/>
			</g>
		</g>
		<g class="st16">
			<path d="M7.6,0.2c-2.3,1.1-4.2,3.1-5,5.7c0,0,0.4,0.4,0.3,0.9C2.9,7.1,2.4,7.2,2.3,7.3c0,0.1,0,0.3-0.1,0.4
				c-0.1,0.7-0.1,1.4,0,2.1c0,0,0.8,0.6,0.9,1.2c0,0.4-0.2,0.8-0.4,1.1c0.1,0.2,0.1,0.3,0.2,0.5c0.5,1.3,1.4,2.4,2.4,3.4
				c0.1,0,0.7-0.3,1.2,0C7,16.2,6.8,17,6.8,17l-0.1,0c1.1,0.7,2.4,1.2,3.8,1.3c1.1,0.1,2.1,0.1,3.1-0.1c-1.6,0.7-3.3,1.1-5.2,0.8
				c-5.2-0.6-9-5.4-8.3-10.6C0.6,4.2,3.7,1,7.6,0.2z"/>
		</g>
		<g class="st16">
			<ellipse transform="matrix(0.121 -0.9927 0.9927 0.121 -5.309 9.7675)" cx="2.9" cy="7.9" rx="0.2" ry="0.2"/>
		</g>
		<g>
			<g>
				<path class="st19" d="M13.1,13.9c0.1-0.4,0.3-0.8,0.6-1.2c0.2-0.2,0.4-0.5,0.7-0.4l0.2,0c0.3-0.1,0.8,0,1,0.2
					c0.2,0.3,0.3,0.6,0.2,1c-0.1,0.3-0.2,0.6-0.5,0.9c-0.2,0.3-0.5,0.6-0.8,0.8c-0.2,0.1-0.4,0.2-0.6,0.2c-0.2,0-0.5-0.1-0.6-0.3
					C13.1,14.8,13.1,14.3,13.1,13.9z"/>
			</g>
			<g class="st16">
				<g>
					<path d="M13.1,13.9c0.1-0.4,0.3-0.8,0.6-1.2c0.2-0.2,0.4-0.5,0.7-0.4l0.2,0c0.3-0.1,0.8,0,1,0.2c0.2,0.3,0.3,0.6,0.2,1
						c-0.1,0.3-0.2,0.6-0.5,0.9c-0.2,0.3-0.5,0.6-0.8,0.8c-0.2,0.1-0.4,0.2-0.6,0.2c-0.2,0-0.5-0.1-0.6-0.3
						C13.1,14.8,13,14.3,13.1,13.9z"/>
				</g>
			</g>
			<g>
				<path class="st19" d="M12.9,13.9c0.1-0.4,0.3-0.8,0.6-1.2c0.2-0.2,0.3-0.4,0.7-0.4l0.4-0.1c0.4,0,0.6,0.1,0.9,0.3
					c0.2,0.3,0.3,0.6,0.2,1c-0.1,0.3-0.2,0.6-0.5,0.9c-0.2,0.3-0.5,0.6-0.8,0.8c-0.2,0.1-0.3,0.2-0.5,0.2c-0.2,0-0.4-0.2-0.5-0.3
					C13,14.7,12.8,14.3,12.9,13.9z"/>
			</g>
		</g>
		<g>
			<g>
				<path class="st19" d="M10.2,17.3c-0.3,0-0.7,0-1-0.1C9,17.1,8.8,17,8.8,16.8l0-0.2c-0.2-0.2-0.2-0.5,0-0.7
					c0.2-0.2,0.4-0.3,0.7-0.3c0.3,0,0.5,0,0.8,0.1c0.3,0.1,0.5,0.2,0.8,0.4c0.1,0.1,0.3,0.2,0.3,0.3c0.1,0.1,0,0.3-0.1,0.5
					C11,17.1,10.6,17.2,10.2,17.3z"/>
			</g>
			<g class="st16">
				<g>
					<path d="M10.3,17.3c-0.3,0-0.7,0-1-0.1c-0.2-0.1-0.4-0.2-0.5-0.3l0-0.2c-0.2-0.2-0.2-0.5,0-0.7c0.2-0.2,0.4-0.3,0.7-0.3
						c0.3,0,0.5,0,0.8,0.1c0.3,0.1,0.5,0.2,0.8,0.4c0.1,0.1,0.3,0.2,0.3,0.3c0.1,0.1,0,0.3-0.1,0.5C11,17.1,10.6,17.2,10.3,17.3z"/>
				</g>
			</g>
			<g>
				<path class="st19" d="M10,17.3c-0.3,0-0.7,0-1-0.1c-0.2-0.1-0.3-0.1-0.5-0.3l-0.1-0.2c-0.1-0.2-0.1-0.4,0.1-0.6
					c0.2-0.2,0.4-0.3,0.7-0.3c0.3,0,0.5,0,0.8,0.1c0.3,0.1,0.5,0.2,0.8,0.4c0.1,0.1,0.2,0.2,0.3,0.3c0.1,0.1,0,0.3-0.1,0.4
					C10.7,17.1,10.4,17.3,10,17.3z"/>
			</g>
		</g>
		<g>
			<g>
				<path class="st19" d="M5.2,3.7c0.3-0.3,0.7-0.6,1.1-0.8c0.3-0.1,0.6-0.2,0.8-0.1L7.3,3c0.4,0,0.7,0.3,0.8,0.7
					C8.1,4.1,8,4.4,7.8,4.7C7.6,4.9,7.3,5.1,7,5.3C6.6,5.4,6.2,5.5,5.9,5.6c-0.2,0-0.4,0-0.6-0.1C5,5.4,4.9,5.2,4.8,4.9
					C4.8,4.5,4.9,4,5.2,3.7z"/>
			</g>
			<g class="st16">
				<g>
					<path d="M5.2,3.7c0.3-0.3,0.7-0.6,1.1-0.8c0.3-0.1,0.6-0.2,0.8-0.1L7.3,3c0.4,0,0.7,0.3,0.8,0.7C8.1,4.1,8,4.4,7.8,4.7
						C7.6,4.9,7.3,5.1,7,5.3C6.6,5.4,6.2,5.5,5.9,5.6c-0.2,0-0.4,0-0.6-0.1C5,5.4,4.9,5.2,4.8,4.9C4.8,4.5,4.9,4,5.2,3.7z"/>
				</g>
			</g>
			<g>
				<path class="st19" d="M4.9,3.8C5.2,3.5,5.5,3.2,5.9,3C6.2,2.9,6.4,2.9,6.8,3l0.4,0.1c0.3,0.2,0.5,0.4,0.6,0.7
					c0.1,0.3-0.1,0.7-0.3,0.9C7.2,5,6.9,5.2,6.6,5.4C6.3,5.5,5.9,5.6,5.5,5.7c-0.2,0-0.4,0-0.6-0.1C4.7,5.5,4.7,5.3,4.6,5
					C4.5,4.6,4.6,4.1,4.9,3.8z"/>
			</g>
		</g>
		<g>
			<g>
				<g>
					<path class="st19" d="M14.3,10.6c0-0.1,0.1-0.2,0.2-0.3c0.1-0.1,0.3-0.1,0.4-0.1c0.1,0,0.2,0.1,0.3,0.2
						c0.1,0.1,0.1,0.3,0.1,0.5c0,0.2-0.2,0.3-0.3,0.4c-0.2,0.1-0.5,0-0.6-0.2C14.2,11.1,14.2,10.8,14.3,10.6z"/>
				</g>
				<g class="st16">
					<g>
						<path d="M14.2,10.6c0-0.1,0.1-0.2,0.2-0.3c0.1-0.1,0.3-0.1,0.4-0.1c0.1,0,0.2,0.1,0.3,0.2c0.1,0.1,0.1,0.3,0.1,0.5
							c0,0.2-0.2,0.3-0.3,0.4c-0.2,0.1-0.5,0-0.6-0.2C14.2,11.1,14.2,10.8,14.2,10.6z"/>
					</g>
				</g>
				<g>
					<path class="st19" d="M14.2,10.6c0-0.1,0.1-0.2,0.2-0.2c0.1-0.1,0.3-0.1,0.4,0c0.1,0,0.2,0.1,0.3,0.2c0.1,0.1,0.1,0.3,0.1,0.5
						c0,0.2-0.1,0.3-0.3,0.4c-0.2,0.1-0.4,0-0.6-0.2C14.1,11,14.1,10.8,14.2,10.6z"/>
				</g>
			</g>
			<g>
				<g class="st5">
					<g>
						<path d="M14.2,10.6c0-0.1,0.1-0.2,0.2-0.2c0.1-0.1,0.3-0.1,0.4,0c0.1,0,0.2,0.1,0.3,0.2c0.1,0.1,0.1,0.3,0.1,0.5
							c0,0.2-0.1,0.3-0.3,0.4c-0.2,0.1-0.4,0-0.6-0.2C14.1,11,14.1,10.8,14.2,10.6z"/>
					</g>
				</g>
			</g>
		</g>
		<g>
			<g>
				<g>
					<path class="st19" d="M15.1,4.9c0-0.1,0.1-0.2,0.1-0.2c0.1-0.1,0.2-0.1,0.3,0c0.1,0,0.2,0.1,0.2,0.2C16,5,16,5.1,16,5.2
						c0,0.1-0.1,0.3-0.3,0.3c-0.2,0.1-0.4,0-0.5-0.1C15.1,5.3,15.1,5.1,15.1,4.9z"/>
				</g>
				<g class="st16">
					<g>
						<path d="M15.1,4.9c0-0.1,0.1-0.2,0.1-0.2c0.1-0.1,0.2-0.1,0.3,0c0.1,0,0.2,0.1,0.2,0.2c0.1,0.1,0.1,0.3,0.1,0.4
							c0,0.1-0.1,0.3-0.3,0.3c-0.2,0.1-0.4,0-0.5-0.1C15.1,5.3,15.1,5.1,15.1,4.9z"/>
					</g>
				</g>
				<g>
					<path class="st19" d="M15.1,4.9c0-0.1,0.1-0.1,0.1-0.2c0.1-0.1,0.2-0.1,0.3,0c0.1,0,0.2,0.1,0.2,0.2c0.1,0.1,0.1,0.2,0.1,0.4
						c0,0.1-0.1,0.2-0.2,0.3c-0.2,0.1-0.3,0-0.4-0.1S15,5.1,15.1,4.9z"/>
				</g>
			</g>
			<g>
				<g class="st5">
					<g>
						<path d="M15.1,4.9c0-0.1,0.1-0.1,0.1-0.2c0.1-0.1,0.2-0.1,0.3,0c0.1,0,0.2,0.1,0.2,0.2c0.1,0.1,0.1,0.2,0.1,0.4
							c0,0.1-0.1,0.2-0.2,0.3c-0.2,0.1-0.3,0-0.4-0.1S15,5.1,15.1,4.9z"/>
					</g>
				</g>
			</g>
		</g>
		<g>
			<g>
				<g>
					<path class="st19" d="M10.1,2c0-0.1,0.1-0.2,0.2-0.3c0.1-0.1,0.3-0.1,0.5-0.1c0.1,0,0.2,0.1,0.3,0.3c0.1,0.2,0.2,0.3,0.1,0.5
						c0,0.2-0.2,0.3-0.3,0.4c-0.2,0.1-0.5,0-0.6-0.2C10,2.5,10,2.2,10.1,2z"/>
				</g>
				<g class="st16">
					<g>
						<path d="M10,2c0-0.1,0.1-0.2,0.2-0.3c0.1-0.1,0.3-0.1,0.5-0.1c0.1,0,0.2,0.1,0.3,0.3c0.1,0.2,0.2,0.3,0.1,0.5
							c0,0.2-0.2,0.3-0.3,0.4c-0.2,0.1-0.5,0-0.6-0.2C10,2.5,10,2.2,10,2z"/>
					</g>
				</g>
				<g>
					<path class="st19" d="M10,2c0-0.1,0.1-0.2,0.2-0.2c0.1-0.1,0.3-0.1,0.4,0c0.1,0,0.2,0.1,0.3,0.2C10.9,2.1,11,2.3,11,2.4
						c0,0.2-0.2,0.3-0.3,0.4c-0.2,0.1-0.4,0-0.6-0.2S9.9,2.2,10,2z"/>
				</g>
			</g>
			<g>
				<g class="st5">
					<g>
						<path d="M10,2c0-0.1,0.1-0.2,0.2-0.2c0.1-0.1,0.3-0.1,0.4,0c0.1,0,0.2,0.1,0.3,0.2C10.9,2.1,11,2.3,11,2.4
							c0,0.2-0.2,0.3-0.3,0.4c-0.2,0.1-0.4,0-0.6-0.2S9.9,2.2,10,2z"/>
					</g>
				</g>
			</g>
		</g>
		<g>
			<g>
				<g>
					<path class="st19" d="M11.9,2.3c0-0.1,0-0.1,0.1-0.1c0.1,0,0.1,0,0.2,0c0.1,0,0.1,0.1,0.2,0.1c0.1,0.1,0.1,0.2,0.1,0.3
						c0,0.1-0.1,0.2-0.2,0.2c-0.1,0-0.2,0-0.3-0.1C11.9,2.6,11.9,2.5,11.9,2.3z"/>
				</g>
				<g class="st16">
					<g>
						<path d="M11.9,2.3c0-0.1,0-0.1,0.1-0.1c0.1,0,0.2,0,0.2,0c0.1,0,0.1,0.1,0.2,0.1c0.1,0.1,0.1,0.2,0.1,0.3
							c0,0.1-0.1,0.2-0.2,0.2c-0.1,0-0.2,0-0.3-0.1C11.9,2.6,11.9,2.5,11.9,2.3z"/>
					</g>
				</g>
				<g>
					<path class="st19" d="M11.9,2.4c0,0,0-0.1,0.1-0.1c0.1,0,0.1,0,0.2,0c0.1,0,0.1,0.1,0.1,0.1c0,0.1,0.1,0.2,0.1,0.2
						c0,0.1-0.1,0.2-0.2,0.2c-0.1,0-0.2,0-0.3-0.1C11.9,2.6,11.8,2.5,11.9,2.4z"/>
				</g>
			</g>
			<g>
				<g class="st5">
					<g>
						<path d="M11.9,2.4c0,0,0-0.1,0.1-0.1c0.1,0,0.1,0,0.2,0c0.1,0,0.1,0.1,0.1,0.1c0,0.1,0.1,0.2,0.1,0.2c0,0.1-0.1,0.2-0.2,0.2
							c-0.1,0-0.2,0-0.3-0.1C11.9,2.6,11.8,2.5,11.9,2.4z"/>
					</g>
				</g>
			</g>
		</g>
		<g class="st5">
			<path d="M7.3,12.6c-0.1,1.1,0.6,2.2,1.7,2.3c1.1,0.1,2.1-0.8,2.2-1.9c0.1-1.1-0.6-2.1-1.7-2.2C8.4,10.7,7.4,11.5,7.3,12.6z"/>
		</g>
		<g class="st5">
			<g>
				<path d="M12.9,13.9c0.1-0.4,0.3-0.8,0.6-1.2c0.2-0.2,0.3-0.4,0.7-0.4l0.4-0.1c0.4,0,0.6,0.1,0.9,0.3c0.2,0.3,0.3,0.6,0.2,1
					c-0.1,0.3-0.2,0.6-0.5,0.9c-0.2,0.3-0.5,0.6-0.8,0.8c-0.2,0.1-0.3,0.2-0.5,0.2c-0.2,0-0.4-0.2-0.5-0.3
					C13,14.7,12.8,14.3,12.9,13.9z"/>
			</g>
		</g>
		<g class="st5">
			<g>
				<path d="M10,17.3c-0.3,0-0.7,0-1-0.1c-0.2-0.1-0.3-0.1-0.5-0.3l-0.1-0.2c-0.1-0.2-0.1-0.4,0.1-0.6c0.2-0.2,0.4-0.3,0.7-0.3
					c0.3,0,0.5,0,0.8,0.1c0.3,0.1,0.5,0.2,0.8,0.4c0.1,0.1,0.2,0.2,0.3,0.3c0.1,0.1,0,0.3-0.1,0.4C10.7,17.1,10.4,17.3,10,17.3z"/>
			</g>
		</g>
		<g class="st5">
			<g>
				<path d="M4.9,3.8C5.2,3.5,5.5,3.2,5.9,3C6.2,2.9,6.4,2.9,6.8,3l0.4,0.1c0.3,0.2,0.5,0.4,0.6,0.7c0.1,0.3-0.1,0.7-0.3,0.9
					C7.2,5,6.9,5.2,6.6,5.4C6.3,5.5,5.9,5.6,5.5,5.7c-0.2,0-0.4,0-0.6-0.1C4.7,5.5,4.7,5.3,4.6,5C4.5,4.6,4.6,4.1,4.9,3.8z"/>
			</g>
		</g>
	</g>
	<g>
		<g>
			<path class="st2" d="M17.6,14.4L17.6,14.4L17.6,14.4c0,0,0.1-0.2,0.3-0.7c0.2-0.4,0.4-1.1,0.6-1.9c0.2-0.8,0.3-1.9,0.2-3
				c-0.1-1.1-0.5-2.4-1.1-3.5l0.1,0.1l0,0l-0.1,0l0-0.1c-0.1-0.2-0.2-0.4-0.4-0.7C16.8,4,16.3,3.5,15.9,3c-0.5-0.5-1-0.9-1.5-1.2
				c-1-0.7-2.1-1-3-1.3c-0.9-0.2-1.7-0.3-2.2-0.3c-0.5,0-0.8,0-0.8,0c0,0,0.1,0,0.2,0c0.1,0,0.3,0,0.6,0c0.5,0,1.3,0.1,2.2,0.3
				c0.9,0.2,2,0.6,3,1.3C15,2,15.5,2.4,16,2.9c0.5,0.5,0.9,1,1.3,1.6c0.1,0.2,0.3,0.5,0.4,0.7l-0.1-0.1l0,0l0.1,0l0,0.1
				c0.6,1.2,1,2.4,1.1,3.6c0.1,1.2,0,2.2-0.2,3c-0.2,0.8-0.5,1.5-0.7,1.9c-0.1,0.2-0.2,0.4-0.3,0.5C17.6,14.3,17.6,14.4,17.6,14.4
				L17.6,14.4C17.6,14.4,17.6,14.4,17.6,14.4z"/>
		</g>
	</g>
</g>
</svg>
