<?xml version="1.0" encoding="utf-8"?>
<!-- Generator: Adobe Illustrator 19.2.0, SVG Export Plug-In . SVG Version: 6.00 Build 0)  -->
<svg version="1.1" id="Layer_1" xmlns="http://www.w3.org/2000/svg" xmlns:xlink="http://www.w3.org/1999/xlink" x="0px" y="0px"
	 viewBox="0 0 60.2 60.3" style="enable-background:new 0 0 60.2 60.3;" xml:space="preserve">
<style type="text/css">
	.st0{fill:#F8CA30;}
	.st1{opacity:0.7;}
	.st2{fill:#FFFFFF;}
	.st3{fill:#F9C233;}
	.st4{opacity:0.4;}
	.st5{opacity:0.2;}
	.st6{opacity:0.1;}
	.st7{fill:#F8F5DE;fill-opacity:0.4512;}
	.st8{fill:#F8F4C7;fill-opacity:0.4512;}
	.st9{fill:#F9F1A1;fill-opacity:0.4421;}
	.st10{fill:url(#SVGID_1_);}
	.st11{fill:#F8A276;}
	.st12{opacity:0.13;}
	.st13{opacity:0.25;}
	.st14{fill:#F5F5F5;}
	.st15{fill:#E1E1E1;}
	.st16{opacity:0.3;}
	.st17{fill:#132F36;}
	.st18{fill:#375A64;}
	.st19{fill:#FF745E;}
	.st20{fill:#F9A868;}
	.st21{fill:#F68E62;}
	.st22{fill:#AB8C81;}
	.st23{fill:#2F6D7E;}
	.st24{fill:#D68D67;}
</style>
<g>
	<g>
		<g>
			<path class="st0" d="M58.7,16.1c-0.8-1.1-1.8-2-3-2.8c-4-3-6.3-7.5-10.7-10c-1.6-0.9-4.6-1.2-6.8-1.2C36.5,2,34.7,1.7,33,1.2
				C29.6,0.3,25.9,0,25.9,0C20.1,0,16,5.3,11.1,8.4c-2.7,1.7-5.7,2.9-7.9,5.2c-4.3,4.5-3.7,11.8-1.5,17.5c0.6,1.6,1.3,3.1,1.5,4.8
				c0.2,1.7-0.1,3.4-0.1,5c0.2,4.5,3.2,8.4,6.3,11.8c1.9,2.1,4,4.2,6.8,4.5c1.8,0.2,3.6-0.3,5.4-0.3c4.2,0.1,7.9,3.5,12.1,3.3
				c4.8-0.3,8.1-5.1,12.5-7c2.6-1.1,5.7-1.3,8-2.9c2.6-1.8,3.6-5.2,3.9-8.3c0.2-3.2-0.2-6.3,0.2-9.5c0.3-2.8,1.3-5.5,1.7-8.3
				C60.4,21.5,60.3,18.4,58.7,16.1z"/>
		</g>
		<g class="st1">
			<g>
				<path class="st2" d="M58.7,16.1c-0.8-1.1-1.8-2-3-2.8c-4-3-6.3-7.5-10.7-10c-1.6-0.9-4.6-1.2-6.8-1.2C36.5,2,34.7,1.7,33,1.2
					C29.6,0.3,25.9,0,25.9,0C20.1,0,16,5.3,11.1,8.4c-2.7,1.7-5.7,2.9-7.9,5.2c-4.3,4.5-3.7,11.8-1.5,17.5c0.6,1.6,1.3,3.1,1.5,4.8
					c0.2,1.7-0.1,3.4-0.1,5c0.2,4.5,3.2,8.4,6.3,11.8c1.9,2.1,4,4.2,6.8,4.5c1.8,0.2,3.6-0.3,5.4-0.3c4.2,0.1,7.9,3.5,12.1,3.3
					c4.8-0.3,8.1-5.1,12.5-7c2.6-1.1,5.7-1.3,8-2.9c2.6-1.8,3.6-5.2,3.9-8.3c0.2-3.2-0.2-6.3,0.2-9.5c0.3-2.8,1.3-5.5,1.7-8.3
					C60.4,21.5,60.3,18.4,58.7,16.1z"/>
			</g>
		</g>
		<g>
			<path class="st3" d="M51.6,11.1c-0.9-0.8-2.1-1.3-3.2-1.8c-4.1-1.7-7.2-5-11.5-6.2c-1.6-0.4-4.2,0-6.1,0.5
				C29.2,4,27.6,4.2,26,4.2c-3.1,0-6.4,0.6-6.4,0.6c-5,1.3-7.3,6.8-10.8,10.6c-1.9,2.1-4.3,3.8-5.6,6.3c-2.7,4.8-0.5,11,2.7,15.4
				c0.9,1.2,1.9,2.4,2.4,3.8c0.6,1.4,0.6,2.9,1.1,4.4c1.2,3.9,4.7,6.5,8.1,8.7c2.1,1.3,4.4,2.7,6.9,2.3c1.6-0.2,3-1.1,4.6-1.5
				c3.6-0.9,7.6,1.2,11.1,0.1c4.1-1.3,5.8-6.2,9.2-8.9c2-1.6,4.6-2.4,6.2-4.4c1.8-2.2,1.9-5.3,1.4-8.1c-0.5-2.8-1.6-5.4-2-8.2
				c-0.4-2.5-0.2-5-0.4-7.5C54.3,15.3,53.5,12.7,51.6,11.1z"/>
		</g>
		<g class="st4">
			<g>
				<path class="st2" d="M51.6,11.1c-0.9-0.8-2.1-1.3-3.2-1.8c-4.1-1.7-7.2-5-11.5-6.2c-1.6-0.4-4.2,0-6.1,0.5
					C29.2,4,27.6,4.2,26,4.2c-3.1,0-6.4,0.6-6.4,0.6c-5,1.3-7.3,6.8-10.8,10.6c-1.9,2.1-4.3,3.8-5.6,6.3c-2.7,4.8-0.5,11,2.7,15.4
					c0.9,1.2,1.9,2.4,2.4,3.8c0.6,1.4,0.6,2.9,1.1,4.4c1.2,3.9,4.7,6.5,8.1,8.7c2.1,1.3,4.4,2.7,6.9,2.3c1.6-0.2,3-1.1,4.6-1.5
					c3.6-0.9,7.6,1.2,11.1,0.1c4.1-1.3,5.8-6.2,9.2-8.9c2-1.6,4.6-2.4,6.2-4.4c1.8-2.2,1.9-5.3,1.4-8.1c-0.5-2.8-1.6-5.4-2-8.2
					c-0.4-2.5-0.2-5-0.4-7.5C54.3,15.3,53.5,12.7,51.6,11.1z"/>
			</g>
		</g>
		<g>
			<g>
				<g>
					<g>
						<circle class="st0" cx="30.6" cy="29.8" r="23.1"/>
					</g>
				</g>
			</g>
		</g>
		<g class="st5">
			<path class="st2" d="M53.6,32.3c0-0.2,0-0.3,0.1-0.5c0,0,0,0,0-0.1l0,0c0-0.2,0-0.3,0-0.5c0-0.2,0-0.3,0-0.5c0-0.2,0-0.5,0-0.7
				c0-0.6,0-1.2,0-1.8c0-0.1,0-0.2,0-0.2c0-0.1,0-0.2,0-0.2c0-0.2,0-0.4-0.1-0.6c-0.1-1.2-0.3-2.3-0.7-3.5c-0.1-0.3-0.1-0.5-0.2-0.8
				c-0.1-0.4-0.2-0.8-0.4-1.1c-0.1-0.3-0.2-0.6-0.3-0.9c-0.1-0.3-0.3-0.7-0.4-1c-0.1-0.1-0.1-0.3-0.2-0.4c0,0,0,0,0,0
				c0-0.1-0.1-0.2-0.1-0.3c0,0,0-0.1-0.1-0.1c-0.1-0.2-0.2-0.4-0.3-0.6c0-0.1-0.1-0.1-0.1-0.2c0,0-0.1-0.1-0.1-0.1
				c0-0.1-0.1-0.2-0.1-0.3c-0.2-0.3-0.4-0.7-0.6-1l0,0c-0.2-0.3-0.4-0.6-0.6-0.8c-0.1-0.1-0.1-0.2-0.2-0.2c0-0.1-0.1-0.1-0.1-0.2
				l0,0c-0.4-0.5-0.7-0.9-1.2-1.4c-0.1-0.1-0.1-0.1-0.2-0.2c-0.1-0.1-0.2-0.2-0.3-0.3c-0.2-0.2-0.3-0.3-0.5-0.5c0,0-0.1-0.1-0.1-0.1
				l0,0c-0.1-0.1-0.2-0.2-0.2-0.2c0,0,0,0,0,0c-0.7-0.6-1.4-1.2-2.1-1.8c0.1,0.1,0.3,0.2,0.4,0.4c0,0,0,0,0,0
				c0.1,0.1,0.3,0.3,0.4,0.4c0,0,0,0,0,0c0.1,0.1,0.2,0.2,0.2,0.2l0,0c0,0,0.1,0.1,0.1,0.1c0.2,0.2,0.3,0.3,0.5,0.5
				c0.1,0.1,0.2,0.2,0.3,0.3c0.1,0.1,0.1,0.1,0.2,0.2c0.4,0.4,0.8,0.9,1.2,1.4l0,0c0,0.1,0.1,0.1,0.1,0.2c0.3,0.4,0.5,0.7,0.8,1.1
				l0,0c0,0,0.1,0.1,0.1,0.1c0.2,0.4,0.5,0.8,0.7,1.2c0,0,0.1,0.1,0.1,0.1c0,0.1,0.1,0.1,0.1,0.2c0.1,0.1,0.1,0.3,0.2,0.4
				c0.1,0.1,0.1,0.2,0.2,0.3c0,0.1,0.1,0.2,0.1,0.3c0,0,0,0,0,0c0.1,0.2,0.2,0.4,0.3,0.6c0.1,0.3,0.2,0.5,0.3,0.8
				c0.1,0.3,0.3,0.7,0.4,1c0.1,0.3,0.2,0.6,0.3,1c0.1,0.3,0.2,0.5,0.2,0.8c0,0.1,0.1,0.3,0.1,0.4c0.3,1.2,0.5,2.4,0.6,3.7
				c0,0.1,0,0.2,0,0.2c0,0.1,0,0.1,0,0.2c0,0.4,0,0.8,0,1.2c0,0.2,0,0.4,0,0.7c0,0.4,0,0.8,0,1.2c0,0.2,0,0.3,0,0.5l0,0
				c0,0.2,0,0.4-0.1,0.6c0,0.1,0,0.2,0,0.3c0,0.1,0,0.1,0,0.2c0,0.1,0,0.3-0.1,0.4c-0.1,0.5-0.2,0.9-0.3,1.4
				c-0.1,0.3-0.1,0.5-0.2,0.8c0,0.1,0,0.1,0,0.2c-0.1,0.4-0.2,0.9-0.4,1.3c0,0.1-0.1,0.2-0.1,0.4c-0.7,2-1.6,3.9-2.8,5.6
				c0,0,0,0,0,0c-0.2,0.3-0.4,0.5-0.5,0.7c-0.5,0.7-1,1.3-1.6,1.9c-0.6,0.6-1.2,1.2-1.8,1.7c-0.4,0.3-0.8,0.6-1.2,1l0,0
				c-0.8,0.6-1.7,1.2-2.7,1.7l0,0c-1.4,0.8-2.9,1.4-4.4,1.9l0,0c-0.5,0.2-1,0.3-1.5,0.4c-0.3,0.1-0.5,0.1-0.8,0.2
				c-0.4,0.1-0.8,0.2-1.2,0.2c-0.8,0.1-1.7,0.2-2.6,0.2c-1.2,0-2.5,0-3.8-0.2c-2.5-0.3-4.9-1-7.1-2.1c-0.5-0.2-0.9-0.5-1.4-0.7
				c-0.4-0.2-0.7-0.4-1.1-0.6c-0.3-0.2-0.7-0.5-1-0.7c-0.1-0.1-0.3-0.2-0.4-0.3c0.2,0.2,0.5,0.4,0.7,0.6c0.1,0.1,0.2,0.2,0.3,0.2
				c0,0,0,0,0.1,0c0,0,0.1,0.1,0.1,0.1c0.2,0.1,0.4,0.3,0.6,0.4c0.7,0.5,1.4,0.9,2.1,1.3c0.5,0.3,0.9,0.5,1.4,0.7
				c2.2,1,4.6,1.7,7.1,2.1c2.2,0.3,4.3,0.2,6.3-0.1c0.1,0,0.3,0,0.4-0.1c0.3,0,0.5-0.1,0.8-0.1c0.3-0.1,0.5-0.1,0.8-0.2
				c1.3-0.3,2.6-0.8,3.9-1.3c1-0.4,2-1,3-1.6c1-0.6,2-1.3,2.9-2.1c0.4-0.3,0.7-0.6,1-1c0.7-0.7,1.3-1.4,1.9-2.1
				c0.2-0.2,0.3-0.4,0.5-0.6c0.2-0.2,0.4-0.5,0.5-0.7c0.3-0.4,0.6-0.8,0.8-1.3l0,0c1-1.8,1.9-3.7,2.4-5.7c0-0.1,0-0.2,0.1-0.2
				c0-0.1,0-0.2,0.1-0.3c0-0.1,0.1-0.3,0.1-0.4c0-0.1,0.1-0.3,0.1-0.4c0-0.1,0-0.2,0.1-0.3c0-0.2,0.1-0.4,0.1-0.6
				c0-0.2,0.1-0.3,0.1-0.5c0-0.2,0.1-0.4,0.1-0.6C53.6,32.5,53.6,32.4,53.6,32.3z"/>
		</g>
		<g>
			<g>
				<path class="st2" d="M50,17.2c0,0,0,0-0.1-0.1c-0.1-0.1-0.2-0.3-0.3-0.4c-0.1-0.2-0.3-0.4-0.5-0.7c-0.2-0.3-0.4-0.6-0.8-1
					c-0.3-0.3-0.6-0.7-1-1.1c-0.2-0.2-0.4-0.4-0.6-0.6c-0.2-0.2-0.5-0.4-0.7-0.6c-0.2-0.2-0.5-0.5-0.8-0.7c-0.3-0.2-0.6-0.4-0.9-0.6
					c-0.3-0.2-0.6-0.5-0.9-0.7c-0.3-0.2-0.7-0.4-1-0.6c-1.4-0.9-3-1.6-4.9-2.2c-0.5-0.1-0.9-0.3-1.4-0.4c-0.2-0.1-0.5-0.1-0.7-0.2
					c-0.2,0-0.5-0.1-0.8-0.1c-0.5-0.1-1-0.2-1.5-0.2c-0.5,0-1.1-0.1-1.6-0.1l-0.4,0l-0.4,0c-0.3,0-0.5,0-0.8,0c-0.3,0-0.6,0-0.8,0
					c-0.3,0-0.6,0.1-0.8,0.1C27.6,6.9,27,6.9,26.4,7c-0.6,0.1-1.1,0.3-1.7,0.4C22.5,8,20.2,9,18.1,10.3c-2.1,1.4-3.9,3-5.4,4.8
					c-0.4,0.5-0.7,0.9-1.1,1.4c-0.3,0.5-0.6,1-0.9,1.5c-0.1,0.2-0.3,0.5-0.4,0.7c-0.1,0.3-0.2,0.5-0.4,0.7c-0.1,0.2-0.2,0.5-0.4,0.7
					l-0.2,0.4l-0.1,0.4c-0.2,0.5-0.4,1-0.6,1.5c-0.2,0.5-0.3,1-0.4,1.5c-0.1,0.2-0.1,0.5-0.2,0.7c-0.1,0.2-0.1,0.5-0.1,0.7
					c-0.1,0.5-0.2,1-0.2,1.4c-0.2,1.9-0.2,3.7,0,5.3c0,0.4,0.1,0.8,0.1,1.2c0,0.4,0.2,0.8,0.2,1.1c0.1,0.4,0.2,0.7,0.2,1.1
					c0.1,0.3,0.2,0.7,0.3,1c0.1,0.3,0.2,0.6,0.3,0.9C8.9,37.7,9,38,9.1,38.2c0.2,0.5,0.4,1,0.6,1.4c0.2,0.4,0.4,0.8,0.6,1.1
					c0.2,0.3,0.3,0.6,0.4,0.8c0.1,0.2,0.2,0.4,0.3,0.5c0.1,0.1,0.1,0.2,0.1,0.2c0,0,0-0.1-0.1-0.2c-0.1-0.1-0.2-0.3-0.3-0.5
					c-0.1-0.2-0.3-0.5-0.5-0.8c-0.2-0.3-0.4-0.7-0.6-1.1c-0.2-0.4-0.4-0.9-0.6-1.4c-0.1-0.3-0.2-0.5-0.3-0.8
					c-0.1-0.3-0.2-0.6-0.3-0.9c-0.1-0.3-0.2-0.6-0.3-1c-0.1-0.3-0.2-0.7-0.2-1.1c-0.1-0.4-0.2-0.7-0.2-1.1c0-0.4-0.1-0.8-0.1-1.2
					c-0.2-1.6-0.2-3.5,0-5.4c0.1-0.5,0.2-1,0.2-1.5c0-0.2,0.1-0.5,0.1-0.7c0.1-0.2,0.1-0.5,0.2-0.7c0.1-0.5,0.3-1,0.4-1.5
					c0.2-0.5,0.4-1,0.6-1.5l0.1-0.4l0.2-0.4c0.1-0.2,0.2-0.5,0.4-0.7c0.1-0.3,0.2-0.5,0.4-0.8c0.1-0.3,0.3-0.5,0.4-0.7
					c0.3-0.5,0.6-1,0.9-1.5c0.4-0.5,0.7-0.9,1.1-1.4c1.5-1.8,3.4-3.5,5.5-4.9c2.1-1.3,4.4-2.3,6.7-2.9c0.6-0.1,1.2-0.3,1.7-0.4
					c0.6-0.1,1.2-0.1,1.7-0.2c0.3,0,0.6-0.1,0.8-0.1c0.3,0,0.6,0,0.8,0c0.3,0,0.6,0,0.8,0l0.4,0l0.4,0c0.5,0,1.1,0.1,1.6,0.1
					c0.5,0.1,1,0.2,1.6,0.2c0.3,0,0.5,0.1,0.8,0.1c0.2,0.1,0.5,0.1,0.7,0.2c0.5,0.1,1,0.3,1.4,0.4c1.8,0.6,3.5,1.4,4.9,2.2
					c0.4,0.2,0.7,0.4,1,0.6c0.3,0.2,0.6,0.5,0.9,0.7c0.3,0.2,0.6,0.4,0.9,0.7c0.3,0.2,0.5,0.5,0.8,0.7c0.2,0.2,0.5,0.4,0.7,0.6
					c0.2,0.2,0.4,0.4,0.6,0.6c0.4,0.4,0.7,0.8,1,1.2c0.3,0.3,0.5,0.7,0.7,1c0.2,0.3,0.4,0.5,0.5,0.7c0.1,0.2,0.2,0.3,0.3,0.5
					C49.9,17.1,50,17.2,50,17.2z"/>
			</g>
		</g>
		<g class="st6">
			<g>
				<path class="st2" d="M38,14.5c-0.2-0.6-1.1-1.1-1.8-0.7c-0.5,0.3-0.8,1-0.6,1.6c0.2,0.6,0.9,1,1.4,0.8
					C37.6,16,38.2,15.2,38,14.5z"/>
			</g>
		</g>
	</g>
	<g>
		<g>
			<path class="st2" d="M29.7,24.4c2.5,0,4.6,2,4.6,4.5s-2,4.5-4.6,4.5c-2.5,0-4.6-2-4.6-4.5S27.2,24.4,29.7,24.4z"/>
			<path class="st7" d="M29.9,22.6c3.6,0,6.5,2.8,6.5,6.3s-2.9,6.3-6.5,6.3s-6.5-2.8-6.5-6.3S26.3,22.6,29.9,22.6z"/>
			<path class="st8" d="M30,21.2c4.4,0,7.9,3.5,7.9,7.7c0,4.3-3.5,7.7-7.9,7.7c-4.4,0-7.9-3.5-7.9-7.7C22.1,24.7,25.6,21.2,30,21.2z
				"/>
			<path class="st9" d="M30,19.3c5.4,0,9.7,4.3,9.7,9.5c0,5.3-4.4,9.5-9.7,9.5s-9.7-4.3-9.7-9.5C20.3,23.6,24.6,19.3,30,19.3z"/>
		</g>
		<radialGradient id="SVGID_1_" cx="29.7325" cy="28.9398" r="27.0928" gradientUnits="userSpaceOnUse">
			<stop  offset="4.913750e-02" style="stop-color:#FFFFFF"/>
			<stop  offset="9.665525e-02" style="stop-color:#F9FDD5"/>
			<stop  offset="0.1888" style="stop-color:#EFFA88"/>
			<stop  offset="0.2313" style="stop-color:#EBF969"/>
			<stop  offset="0.2922" style="stop-color:#E9EE55"/>
			<stop  offset="0.4167" style="stop-color:#E4D121"/>
			<stop  offset="0.4881" style="stop-color:#E1BF00"/>
			<stop  offset="0.6048" style="stop-color:#A28A00"/>
			<stop  offset="0.7449" style="stop-color:#5D4F00"/>
			<stop  offset="0.8623" style="stop-color:#2B2400"/>
			<stop  offset="0.9507" style="stop-color:#0C0A00"/>
			<stop  offset="1" style="stop-color:#000000"/>
		</radialGradient>
		<circle class="st10" cx="29.7" cy="28.9" r="27.1"/>
	</g>
</g>
</svg>
