<?xml version="1.0" encoding="utf-8"?>
<!-- Generator: Adobe Illustrator 19.2.0, SVG Export Plug-In . SVG Version: 6.00 Build 0)  -->
<svg version="1.1" id="Layer_1" xmlns="http://www.w3.org/2000/svg" xmlns:xlink="http://www.w3.org/1999/xlink" x="0px" y="0px"
	 viewBox="0 0 38.4 38.3" style="enable-background:new 0 0 38.4 38.3;" xml:space="preserve">
<style type="text/css">
	.st0{fill:#F8CA30;}
	.st1{opacity:0.7;}
	.st2{fill:#FFFFFF;}
	.st3{fill:#F9C233;}
	.st4{opacity:0.4;}
	.st5{opacity:0.2;}
	.st6{opacity:0.1;}
	.st7{fill:#F8F5DE;fill-opacity:0.4512;}
	.st8{fill:#F8F4C7;fill-opacity:0.4512;}
	.st9{fill:#F9F1A1;fill-opacity:0.4421;}
	.st10{fill:url(#SVGID_1_);}
	.st11{fill:#F8A276;}
	.st12{opacity:0.13;}
	.st13{opacity:0.25;}
	.st14{fill:#F5F5F5;}
	.st15{fill:#E1E1E1;}
	.st16{opacity:0.3;}
	.st17{fill:#132F36;}
	.st18{fill:#375A64;}
	.st19{fill:#FF745E;}
	.st20{fill:#F9A868;}
	.st21{fill:#F68E62;}
	.st22{fill:#AB8C81;}
	.st23{fill:#2F6D7E;}
	.st24{fill:#D68D67;}
</style>
<g>
	<g>
		<circle class="st18" cx="19.2" cy="19.2" r="19.1"/>
	</g>
	<g class="st16">
		<path d="M10.9,30.6c3.4,1.5,7,2.3,10.7,2.8c2.7,0.4,5.4,0.8,7.8,2c-0.5,0.3-1,0.6-1.6,0.9c-2.7-0.6-5.6-0.8-8.3-1.1
			c-3.8-0.5-7.4-1.4-10.9-3c-2.2-1-4.2-2.3-6.1-3.8c-0.9-1.6-1.5-3.3-1.9-5.1c0.3,0.4,0.7,0.8,1.1,1.1C4.3,27,7.5,29.1,10.9,30.6z"
			/>
	</g>
	<g class="st6">
		<path d="M6.8,32.7c0.4-0.1,1,0.3,0.8,0.7c-0.1,0.1-0.2,0.3-0.3,0.3c0,0-0.1,0-0.1,0c0,0,0,0,0,0c-0.4,0-0.6-0.3-0.6-0.6
			C6.6,32.9,6.7,32.8,6.8,32.7z"/>
	</g>
	<g class="st5">
		<path d="M24.4,31.6c2.3,0.5,4.4,1.7,6.6,2.6c0.9-0.7,1.7-1.5,2.4-2.3c0.8-0.9,1.5-1.8,2.1-2.9c-0.7-0.2-1.4-0.5-2.1-0.8
			c-1.3-0.8-2.2-1.9-3.1-3.2c-1.9-2.6-4-4.7-7.1-5.7c-1.6-0.5-3.4-0.3-4.9-1.1c-0.8-0.4-1.5-1-2.1-1.7c0.4,0.2,0.8,0.4,1.3,0.5
			c2,0.7,3.9,0.7,5.9,0.6c1.7-0.1,3.3,0,4.9,0.8c2.9,1.5,5.3,4.5,8.7,4.9c0.3,0,0.5,0,0.8,0c0.2-1.1,0.4-2.2,0.4-3.3
			c-0.2,0-0.3,0-0.5,0c-1.7-0.3-3.2-1.6-4.5-2.6C31.7,16.2,30,15,28,14.3c-2-0.7-4.1-0.4-6.1-0.4c-2,0-3.6-0.8-5.4-1.6
			c-1.6-0.7-3.1-1-4.8-1.4c-3-0.7-4.4-3.6-4.6-6.4C5.8,5.6,4.6,6.9,3.7,8.2c0.7,2.2,2.1,4.1,4,5.4c0.5,0.3,1.1,0.6,1.6,0.8
			c0.4,0.3,0.9,0.5,1.3,0.7c1.5,0.9,2.6,1.9,3.7,3.2c1.2,1.3,2.4,2.5,4.1,3.1c1.7,0.6,3.5,0.7,5.1,1.6c2.8,1.6,3.9,4.8,6.3,6.9
			c0.3,0.3-0.3-0.2,0,0c-1.2-1-1.9-1-3.6-1.5c-2.5-0.7-5.6-0.5-8.1-1.1c-7.6-1.7-13.5-6.6-17.3-13.1c-0.4,1.3-0.6,2.8-0.6,4.2
			c0.5,0.8,1.1,1.7,1.8,2.5c2.6,3.2,5.1,6.5,8.9,8.2c1.9,0.9,4.1,1.7,6.2,2.1C19.2,31.8,22.2,31.1,24.4,31.6z M10.8,27.2
			c-0.9,0.1-1.8-0.8-2.4-1.3c-0.9-0.7-1.4-1.6-2.2-2.4c-0.2-0.3,0.1-0.6,0.4-0.5c0.9,0.4,1.5,1.2,2.2,1.9c0.7,0.6,1.9,1,2.3,1.8
			C11.2,26.9,11,27.1,10.8,27.2z M10.6,12.6c0,0.1-0.1,0.1-0.2,0.1c0,0,0,0-0.1,0c-0.2-0.1-0.4-0.2-0.6-0.4
			c-0.3-0.2-0.5-0.3-0.8-0.5C8.4,11.5,8,11,7.6,10.5C7.4,10.3,7.2,10.1,7,9.8C6.9,9.5,6.7,9.2,6.5,8.8c0-0.1-0.1-0.1-0.1-0.2
			C6.4,8.5,6.3,8.3,6.3,8.2C6.2,7.9,6.2,7.7,6.2,7.5c0-0.4,0.1-0.7,0.3-1c0,0,0,0,0.1,0c0,0,0,0,0.1,0C6.9,6.9,6.8,7.1,7,7.6
			C7,7.8,7,7.9,7.1,8.1c0.1,0.3,0.3,0.7,0.4,1c0.1,0.2,0.2,0.3,0.3,0.5c0.7,1.1,1.7,2,2.8,2.9C10.6,12.5,10.6,12.6,10.6,12.6z
			 M21.8,21.6C21.8,21.6,21.8,21.6,21.8,21.6c-1.9-0.4-3.8-1.2-5.2-2.3c-1.6-1.3-2.6-3.1-4.5-4.1c0,0,0,0-0.1,0
			c-0.1-0.1,0-0.3,0.1-0.3c0,0,0,0,0.1,0c0.2,0.1,0.4,0.2,0.6,0.3c0.4,0.2,0.7,0.4,1,0.7c0.3,0.3,0.6,0.5,0.9,0.8
			c0.1,0.1,0.3,0.3,0.4,0.4c0.3,0.3,0.6,0.6,0.9,0.9c0.6,0.6,1.3,1.1,2,1.5c1,0.5,2,0.9,3,1.4c0.3,0.1,0.5,0.2,0.8,0.4
			C22.1,21.3,22,21.6,21.8,21.6z M26.3,31.1c-1.7-0.4-3.3-0.5-5-0.6c-2.9-0.2-6.4-0.4-8.7-2.3c-0.3-0.3,0-0.8,0.4-0.7
			c1.6,0.5,3.2,1.1,4.9,1.3c1.8,0.3,3.6,0.3,5.4,0.5c2.5,0.3,6.3,0.6,7.9,2.8c0.2,0.3-0.1,0.6-0.4,0.5
			C29.3,32.3,27.9,31.4,26.3,31.1z"/>
	</g>
	<g class="st16">
		<path d="M34.7,15.5c0.5,0.6,0.9,1.3,1.5,1.8c0,0,0.8,0.5,0.8,0.7c0,0,0,0,0,0.1c0,0.2-0.2,0.4-0.4,0.3c-1-0.2-2-1.1-2.7-1.8
			c-0.5-0.5-1.1-0.9-1.8-1.2c-0.7-0.4-1.4-0.5-2-1c-0.5-0.4-0.1-1.1,0.5-1.1C32.1,13.1,33.7,14.3,34.7,15.5z"/>
	</g>
	<g class="st16">
		<path d="M11.7,21.2c0.4,0.5,0,1.3-0.7,1.2c-3.2-0.7-5.5-2.8-7.4-5.4C2.8,15.8,2,14.5,1.2,13c0.6-1.3,0.8-2.2,1.5-3.4
			c1,1.6,1.1,3.7,2.1,5.2C6.5,17.4,9.7,18.9,11.7,21.2z"/>
	</g>
	<g class="st16">
		<path d="M9.8,34.2c2.5,0.8,5.1,1.3,7.6,1.8c2,0.4,4,0.6,5.7,1.7c-1.1,0.4-2.1,0.2-3.3,0.4c0,0-0.1-0.1-0.1-0.1
			c-1.3-0.2-2.7,0.1-4-0.2c-2.3-0.5-4.6-1.4-6.2-3.1C9.2,34.5,9.5,34.1,9.8,34.2z"/>
	</g>
	<g class="st16">
		<path d="M29.8,22.1c-0.2-0.6,0.5-1,1-0.8c1.4,0.6,2.4,2.2,3.7,3.1c0.8,0.6,1.7,1,2.7,1.4c-0.2,0.5-0.4,1-0.6,1.5
			c-0.8-0.2-1.6-0.5-2.4-1C32.5,25.4,30.4,23.9,29.8,22.1z"/>
	</g>
	<g class="st6">
		<path d="M32.6,7.6c-1.7,0.2-3.1-0.3-4.7-0.8c-1.6-0.5-3.3-0.5-4.8-1.3c-1.6-0.8-3.8-3.1-2.8-4.8c0,0,0.4-0.5,0.4-0.5
			c3.2,0.2,5.1,1,7.1,1.9c2.6,1.2,4.9,3.4,6.4,5.3c-0.3,0-0.6,0.1-0.9,0C33.1,7.5,32.9,7.6,32.6,7.6z"/>
	</g>
	<g class="st6">
		<path d="M37.3,15.1c0.2,0,0.4,0,0.5,0c-0.2-1.1-0.6-2.1-1-3.1c-0.7-0.3-1.4-0.8-2-1.2c-0.7-0.4-1.5-0.9-2.3-1.2
			c-1.4-0.7-2.9-1.2-4.4-1.2c-0.8,0-1.6,0.1-2.4,0.2c-0.1,0-0.1,0-0.2-0.1c-1.7-0.5-3.4-1.5-4.6-2.8c-1.2-1.3-2.3-2.8-2.9-4.4
			c-0.1-0.4-0.2-0.8-0.3-1.2c-0.3,0-0.7,0.1-1,0.1c0.2,0.1,0.3,0.3,0.3,0.5C17.4,1.9,18,2.9,17.8,4c0,0.2-0.3,0.5-0.6,0.4
			c-1.7-0.2-2.1-2.2-1.9-3.6c0-0.1,0.1-0.2,0.1-0.3c-0.4,0.1-0.8,0.2-1.2,0.3c0,2.3,1,4.4,2.6,6.1c-1.1-0.5-2-1.1-2.9-1.7
			c-1.4-1-1.6-2-1.1-3.6c0-0.1,0.1-0.3,0.1-0.4c-0.6,0.2-1.2,0.4-1.7,0.7c0.3,0.6,0.4,1.3,0.6,1.9c0.1,0.2,0.1,0.4,0.2,0.6
			c0.6,1.1,1.3,1.9,2.1,2.8c0.2,0.2,0.1,0.6-0.2,0.6c0,0-0.1,0-0.1,0c-0.4-0.1-0.8-0.2-1.1-0.4c-0.2-0.1-0.4-0.2-0.5-0.3
			c-0.5-0.3-1-0.8-1.3-1.2c-0.1-0.2-0.2-0.3-0.3-0.5c-0.1-0.2-0.2-0.3-0.3-0.5c0-0.1-0.1-0.1-0.1-0.2c0-0.1-0.1-0.1-0.1-0.2
			C9.9,4.1,9.7,3.4,9.6,2.8C9.2,3,8.7,3.3,8.3,3.6C8.4,4,8.5,4.5,8.7,4.8c0.8,1.8,2.4,3.2,4.1,4.2C16.2,11,21,12.7,25,12
			c1.1-0.2,2.1-0.6,3.2-0.6c1.2,0,2.3,0.4,3.3,0.9C33.4,13.3,35.3,14.8,37.3,15.1z M19.4,6c0,0.1,0,0.1,0,0.1c0,0.1-0.1,0.1-0.2,0.2
			c0,0-0.1,0-0.1,0c-0.2,0-0.3-0.1-0.4-0.1c-0.2-0.1-0.3-0.2-0.4-0.4c-0.1-0.1-0.2-0.2-0.2-0.4c0-0.1,0-0.3-0.1-0.4
			c0-0.1,0.1-0.2,0.2-0.3c0.1,0,0.2-0.1,0.3,0c0,0,0.1,0,0.1,0c0.1,0,0.1,0.1,0.2,0.1c0.1,0,0.1,0.1,0.2,0.1c0,0,0.1,0,0.1,0.1
			C18.9,5,18.9,5.1,19,5.2C19.2,5.4,19.4,5.7,19.4,6z M21.8,8.1c0,0.1-0.1,0.3-0.2,0.3c-0.1,0-0.2,0-0.3,0c-0.1,0-0.2,0-0.3-0.1
			c-0.2-0.1-0.4-0.2-0.6-0.3c-0.1-0.1-0.2-0.1-0.2-0.2c-0.2-0.2-0.4-0.5-0.6-0.7c-0.1-0.1-0.1-0.3,0-0.4c0.1-0.1,0.2-0.2,0.3-0.2
			c0.1,0,0.2,0,0.3,0.1c0.3,0.2,0.6,0.4,0.9,0.6c0.2,0.1,0.2,0.2,0.4,0.3c0,0,0.1,0.1,0.1,0.1c0,0,0.1,0.1,0.1,0.1
			c0.1,0.1,0.1,0.1,0.2,0.2C21.8,8,21.8,8,21.8,8.1z M36.7,13.4c0,0,0,0.1-0.1,0.1c-0.2,0.1-0.4,0.2-0.7,0.2c-0.1,0-0.3,0-0.4,0
			c-0.8-0.1-1.5-0.7-2.1-1.2c-0.2-0.1-0.4-0.3-0.6-0.4c-0.4-0.3-0.9-0.5-1.3-0.8c-0.2-0.1-0.4-0.2-0.7-0.3c-0.6-0.3-1.3-0.5-2-0.6
			c-0.2,0-0.5-0.1-0.7-0.1c-0.2,0-0.3,0-0.5,0c-1.2,0-2.4,0.2-3.6,0.3c-0.2,0-0.5,0-0.7,0c-0.2,0-0.5,0-0.7,0
			c-0.6,0-1.2-0.1-1.8-0.2c-0.6-0.1-1.2-0.3-1.8-0.5c-0.4-0.1-0.8-0.3-1.1-0.5c0,0-0.1,0-0.1-0.1c0-0.1-0.1-0.1-0.1-0.2
			c0-0.1,0-0.2,0.1-0.2c0-0.1,0.1-0.1,0.2-0.1c0,0,0.1,0,0.1,0C18.5,8.8,19,8.9,19.6,9c0.3,0,0.6,0.1,0.9,0.1
			c0.9,0.1,1.7,0.2,2.6,0.3c1.3,0,2.5-0.2,3.8-0.2c0.2,0,0.4,0,0.6,0c0.2,0,0.4,0,0.6,0c0.2,0,0.3,0,0.4,0.1c0.1,0,0.3,0,0.4,0.1
			c0.8,0.1,1.5,0.4,2.2,0.7c0.2,0.1,0.5,0.2,0.7,0.4c0.4,0.2,0.9,0.6,1.3,1c0.8,0.7,1.7,1.5,2.6,1.7c0.2,0.1,0.4,0.1,0.6,0.1
			c0.1,0,0.1,0,0.1,0C36.7,13.2,36.7,13.3,36.7,13.4z"/>
	</g>
	<g>
		<path d="M10.6,17.7C10.6,17.7,10.6,17.7,10.6,17.7C10.6,17.8,10.6,17.8,10.6,17.7z"/>
	</g>
	<g class="st6">
		<g>
			<path d="M15.4,24.2c0.1-0.5,0.3-0.9,0.7-1.2c0.2-0.2,0.5-0.4,0.8-0.4l0,0c0,0,0,0,0.1,0c0.1,0,0.3,0,0.4,0.1
				c0.8,0.1,1.6,0.4,2.1,1c0.4,0.5,0.6,1.1,0.3,1.7c-0.3,0.5-1,0.6-1.6,0.7c-0.8,0.1-1.8,0.1-2.4-0.5C15.5,25.2,15.3,24.7,15.4,24.2
				z"/>
		</g>
	</g>
	<g class="st4">
		<path d="M1.3,12.3C1.3,12.3,1.3,12.3,1.3,12.3c0.8-2,1.9-3.9,3.4-5.6l0,0c0.1-0.1,0.1-0.1,0.2-0.2c0,0,0,0,0,0
			C5.4,6,5.9,5.4,6.5,4.9C6.3,5.2,6.1,5.4,5.8,5.6c0,0,0,0,0,0C5.8,5.7,5.7,5.8,5.7,5.8l0,0c-1.4,1.6-2.6,3.5-3.4,5.6c0,0,0,0,0,0
			c-3.4,8.2,0,18.4,7.5,23l0,0c0.7,0.5,1.5,0.9,2.3,1.2l0,0c6.6,3.1,15.1,1.9,20.5-3.1c-7.8,8.4-22.6,7.2-29-2.2l0,0
			c-1.5-2.1-2.6-4.6-3.1-7.2C-0.4,19.6,0,15.7,1.3,12.3z"/>
	</g>
	<g>
		<g>
			<path class="st2" d="M26.8,36.6c0,0,0,0,0.1-0.1c0.1-0.1,0.2-0.1,0.4-0.2c0.4-0.2,0.9-0.5,1.5-0.8l0,0c0,0-0.1,0-0.1,0.1l0,0
				c0.1,0,0.2-0.1,0.2-0.1l0,0l0,0l0,0l0,0c1.3-0.8,3.1-2.2,4.9-4.3l0.1,0c0,0-0.1,0.1-0.1,0.1l0-0.1c1.5-1.9,3-4.4,3.7-7.5
				c0.7-3.1,0.7-6.7-0.4-10.2l0.1,0.1l0,0l-0.1,0l0-0.1c-0.1-0.4-0.3-0.8-0.4-1.2c-0.1-0.4-0.3-0.8-0.5-1.2
				c-0.2-0.5-0.5-0.9-0.7-1.4c-0.3-0.4-0.6-0.9-0.8-1.3c-0.3-0.4-0.6-0.8-0.9-1.2c-0.3-0.4-0.6-0.8-1-1.1c-0.4-0.3-0.7-0.7-1.1-1
				c-0.4-0.3-0.8-0.6-1.1-0.9L30,3.7c-0.2-0.1-0.4-0.2-0.6-0.4c-0.4-0.2-0.8-0.5-1.2-0.7C25,0.9,21.7,0.2,19,0.2
				c-2.8,0-4.9,0.6-6.4,1.1C11.9,1.6,11.4,1.9,11,2c-0.2,0.1-0.3,0.1-0.4,0.2c-0.1,0-0.1,0.1-0.2,0.1c0,0,0,0,0.1-0.1
				C10.7,2.1,10.8,2.1,11,2c0.4-0.2,0.9-0.5,1.6-0.8C14,0.7,16.2,0,19,0c2.8,0,6.1,0.6,9.4,2.3c0.4,0.2,0.8,0.5,1.2,0.7
				c0.2,0.1,0.4,0.2,0.6,0.4l0.6,0.4c0.4,0.3,0.8,0.6,1.2,0.9c0.4,0.3,0.7,0.7,1.1,1c0.4,0.3,0.7,0.7,1,1.1c0.3,0.4,0.7,0.8,0.9,1.2
				c0.3,0.4,0.6,0.9,0.9,1.3c0.2,0.5,0.5,0.9,0.7,1.4c0.2,0.4,0.3,0.8,0.5,1.2c0.1,0.4,0.3,0.8,0.4,1.2l-0.1-0.1l0,0l0.1,0l0,0.1
				c1.1,3.6,1.1,7.2,0.4,10.3c-0.8,3.1-2.2,5.7-3.8,7.6l0-0.1c0,0-0.1,0.1-0.1,0.1l0.1,0c-1.8,2.1-3.6,3.5-5,4.2l0,0l0,0l0,0l0,0
				c-0.1,0-0.2,0.1-0.2,0.1l0,0c0,0-0.1,0.1-0.1,0.1l0,0c-0.7,0.3-1.2,0.6-1.5,0.7c-0.2,0.1-0.3,0.1-0.4,0.2
				C26.8,36.6,26.8,36.6,26.8,36.6z"/>
		</g>
	</g>
</g>
</svg>
