<?xml version="1.0" encoding="UTF-8"?><svg id="Layer_1" xmlns="http://www.w3.org/2000/svg" viewBox="0 0 17.4 17.39"><defs><style>.cls-1{opacity:.13;}.cls-2{fill:#fff;}.cls-3{fill:#d68d67;}.cls-4{opacity:.4;}.cls-5{opacity:.25;}</style></defs><path class="cls-3" d="m16.91,5.81c1.59,4.53-.79,9.49-5.32,11.08-4.53,1.59-9.49-.79-11.08-5.32C-1.08,7.05,1.3,2.09,5.83.49c4.53-1.59,9.49.79,11.08,5.32Z"/><g><g class="cls-1"><path class="cls-2" d="m16.87,5.7c-.02-.06-.04-.11-.06-.17v-.03c-.03-.06-.06-.12-.08-.18-.03-.06-.05-.12-.08-.18-.03-.08-.07-.15-.1-.23-.09-.18-.18-.36-.28-.53-1.11.34-2.64.89-4.02,1.65-2.53,1.39-3.38,3.42-6.39,4.74-3.01,1.32-4.49-.16-3.91-1.12.58-.95,4.28-2.84,8.23-4.27,2.7-.98,4.61-1.56,5.55-1.83-.16-.22-.33-.43-.5-.63-.04-.05-.09-.1-.13-.15-.03-.03-.06-.06-.09-.09,0,0-.02-.02-.02-.02-.07-.07-.14-.14-.2-.21-.03-.03-.06-.06-.09-.09-.03-.03-.06-.06-.1-.09-1.39.87-4.19,2.45-7.91,3.77C3.52,7.17,1.31,7.85.01,8.23c-.01.2-.02.39-.01.59,0,.11,0,.21,0,.32,0,.04,0,.08,0,.11,0,.02,0,.05,0,.07h0c.01.14.02.28.04.42,0,.05.01.1.02.16h0c.01.09.03.18.04.27,0,.03.01.07.02.1.01.08.03.16.05.24h0c.02.08.04.17.06.25.01.06.03.12.05.18.04.14.08.28.13.42,0,.02.01.05.02.07.02.05.03.1.05.14.03.08.06.17.09.25.02.04.03.09.05.13.01.03.03.07.04.1.05.11.09.22.14.32.04.09.09.19.13.28.3.6.67,1.14,1.09,1.64,1.99-1.01,7.17-3.63,9.65-4.73,1.84-.82,4.15-1.43,5.66-1.78-.03-.26-.07-.52-.12-.78,0-.03-.01-.06-.02-.09,0-.03-.01-.06-.02-.09-.01-.06-.03-.11-.04-.17-.01-.05-.02-.1-.04-.15,0-.03-.02-.07-.03-.1-.02-.07-.04-.15-.06-.22-.02-.06-.04-.12-.06-.18-.02-.07-.05-.14-.07-.21-.01-.03-.02-.06-.03-.09ZM1.18,8.28c.22-.08.46.04.53.26s-.04.46-.26.53c-.22.08-.46-.04-.53-.26s.04-.46.26-.53Zm1.5,4.67c-.29.1-.6-.05-.7-.34-.1-.29.05-.6.34-.7.29-.1.6.05.7.34.1.29-.05.6-.33.7Zm8.99-4.85c-.22.08-.46-.04-.53-.26-.08-.22.04-.46.26-.53.22-.08.46.04.53.26.08.22-.04.46-.26.53Zm1.17.67c-.11.04-.23-.02-.27-.13-.04-.11.02-.23.13-.27.11-.04.23.02.27.13.04.11-.02.23-.13.27Z"/></g><g class="cls-5"><path class="cls-2" d="m10.33,12.81c-3.43,1.19-6.39,1.83-7.73,2.09.01.01.03.03.04.04.02.02.04.04.06.06,0,0,.01.01.02.02.02.02.04.04.07.06.05.05.1.09.16.14.17.15.36.3.54.44,0,0,.02.02.03.02.17.13.35.25.53.36.03.02.07.04.1.06.33.2.68.38,1.03.54.37.16.74.3,1.13.41,0,0,0,0,0,0,.06.02.12.04.18.05,0,0,0,0,.01,0,.12.03.25.06.37.09.03,0,.07.02.1.02h0s.02,0,.04,0c.02,0,.05.01.07.01.09.02.18.03.27.05.17.03.34.05.51.07,1.72-.73,3.26-1.34,3.73-1.39.54-.06-.41.59-1.66,1.34.55-.08,1.11-.21,1.66-.41.77-.27,1.48-.64,2.12-1.09.05-.04.11-.08.16-.12.07-.05.13-.1.2-.15.08-.06.15-.12.23-.19.4-.34.77-.71,1.1-1.11h0c.26-.32.5-.66.72-1.01.04-.06.07-.12.11-.19-.42.2-1.01.48-1.87.87-2.58,1.18-7.1,2.43-7.1,2.06,0-.37,2.44-1.8,5.76-2.86,1.55-.49,2.83-.88,3.75-1.15.06-.14.11-.29.16-.43.12-.33.21-.68.29-1.03.02-.08.03-.17.05-.25.02-.11.04-.22.05-.34.03-.19.05-.38.06-.58,0,0,0-.02,0-.03-1.2.81-3.73,2.35-7.05,3.5Zm-4.17,2.69c-.77.27-1.45.31-1.53.09-.08-.22.48-.61,1.25-.88.77-.27,1.45-.31,1.53-.09.08.22-.48.61-1.25.88Z"/></g><g class="cls-1"><path class="cls-2" d="m12.61.92c-1.07.79-2.99,2.01-5.63,2.89-2.54.85-4.93,1.46-6.42,1.81.15-.39.32-.78.53-1.14,1.49-.17,3.22-.44,4.55-.85,2.91-.9,5.57-2.7,4.94-2.86-.62-.16-2.62,1.07-5.38,1.89-1.25.37-2.48.63-3.46.81.31-.41.65-.8,1.03-1.15,0,0,0,0,.01-.01,0,0,.01-.01.02-.02,1.1-.21,2.53-.6,4.34-1.29,1.05-.4,1.86-.72,2.49-.96.1,0,.19.02.29.03,0,0,0,0,0,0,.16.02.31.05.47.08,0,0,0,0,.01,0,.27.05.55.12.81.2,0,0,0,0,0,0,.04.01.08.02.12.04h0s.05.01.07.02c.08.03.17.06.25.09.05.02.09.03.14.05.03.01.06.03.1.04.21.08.42.17.62.27h0s.05.03.08.04h0Z"/></g><g class="cls-4"><path class="cls-2" d="m16.87,5.69c-.02-.06-.04-.11-.06-.17,0,0,0-.02-.01-.03v-.02c-.03-.06-.05-.12-.08-.18-.02-.06-.05-.11-.07-.17-.04-.08-.07-.16-.11-.24-.1-.2-.2-.39-.31-.58-.01-.03-.03-.05-.05-.08-.01-.02-.03-.05-.04-.07-.04-.07-.08-.13-.12-.2-.24-.38-.51-.73-.8-1.06-.07-.08-.14-.15-.21-.23-.1-.11-.21-.21-.32-.32-.09-.08-.17-.16-.26-.24-.1-.09-.21-.18-.32-.26-.04-.03-.08-.07-.13-.1,0,0,0,0,0,0-.03-.02-.06-.05-.1-.07-.02-.01-.03-.02-.05-.03-.06-.05-.13-.09-.19-.14-.02-.02-.04-.03-.07-.05-.02-.01-.03-.02-.05-.03-.03-.02-.06-.04-.09-.06-.13-.08-.26-.16-.39-.24h-.02c-.11-.08-.22-.14-.33-.19-.03-.02-.07-.04-.1-.05-.03-.01-.05-.03-.08-.04h0c-.2-.1-.41-.19-.62-.27-.03-.01-.06-.03-.1-.04-.04-.02-.09-.03-.14-.05-.08-.03-.17-.06-.25-.09-.02,0-.05-.02-.07-.02h0s-.08-.03-.12-.04c0,0,0,0,0,0-.33-.1-.67-.18-1.02-.24.06.02.13.03.2.05,0,0,0,0,.01,0,.07.02.14.04.21.06,0,0,0,0,0,0,.04.01.08.02.12.04h0s.05.01.07.02c.08.03.17.06.25.09.05.02.09.03.14.05.03.01.06.03.09.04.21.08.42.17.62.27h0s.05.03.08.04c.15.07.29.15.44.23h.02s.03.03.05.04c.15.09.29.18.43.27.02.01.03.02.05.03.02.02.04.03.07.05.05.03.09.06.13.1.04.02.07.05.1.07.03.02.06.05.1.07,0,0,0,0,0,0,.07.05.13.1.19.15.08.07.16.13.24.2.11.09.21.19.31.28.09.09.18.18.27.27.07.08.14.15.21.23.03.04.07.08.1.12.3.35.58.73.82,1.14.01.02.03.05.04.07.01.02.03.04.04.06.07.12.14.25.21.38.04.07.07.14.11.22.06.13.13.27.18.41.02.06.05.11.07.17h0c.03.08.05.15.08.22.01.03.02.06.03.09,0,.03.02.05.02.07.02.05.03.09.05.14.06.17.11.34.15.51.03.1.05.2.07.29,0,.02,0,.04.01.06.04.17.07.33.09.5,0,.05.01.1.02.15.11.8.1,1.59,0,2.37,0,0,0,.01,0,.02-.02.11-.03.23-.05.34-.06.31-.13.61-.22.91-.09.3-.19.6-.31.88-.07.17-.15.35-.24.52h0c-.18.36-.38.7-.6,1.03h0c-.34.5-.73.96-1.17,1.38h0c-.14.13-.28.26-.42.38-.08.06-.15.13-.23.19-.12.09-.24.18-.37.27-.26.18-.54.36-.83.51-.41.22-.84.42-1.29.58-.9.32-1.82.48-2.72.49-.19,0-.39,0-.58,0-.16,0-.31-.02-.47-.03-.15-.02-.31-.04-.46-.06-.07-.01-.13-.02-.2-.03.11.03.22.05.33.07.05.01.09.02.14.03,0,0,.02,0,.03,0,.02,0,.03,0,.05,0,.09.02.18.03.27.05.31.05.61.08.93.1.19.01.39.01.58,0,.91-.02,1.82-.18,2.72-.49.77-.27,1.48-.64,2.12-1.09.04-.03.08-.06.12-.09.08-.06.16-.12.24-.18.08-.06.15-.12.23-.19.39-.33.76-.69,1.08-1.08.27-.32.51-.66.73-1.02.24-.38.44-.78.62-1.2.07-.17.13-.33.19-.5.12-.34.21-.68.29-1.03.02-.09.04-.18.06-.28.02-.11.04-.22.05-.34.03-.18.05-.37.06-.56h0c.06-.77.02-1.55-.14-2.33,0-.03-.01-.06-.02-.09,0-.03-.01-.07-.02-.11-.01-.05-.02-.1-.03-.15-.01-.05-.03-.1-.04-.15,0-.03-.02-.07-.03-.1-.02-.07-.04-.15-.06-.22-.02-.06-.04-.12-.06-.18-.02-.07-.05-.14-.07-.21-.01-.03-.02-.06-.03-.09Z"/></g></g><path class="cls-2" d="m5.04.99s0,0,0,0h0s-.05.03-.15.09c-.1.05-.24.13-.42.24-.36.22-.87.55-1.43,1.06-.56.51-1.16,1.19-1.66,2.07-.5.87-.9,1.94-1.05,3.12l-.03-.06h0s.03.02.03.02v.04c-.03.2-.05.41-.07.62-.02.21-.01.43-.02.65.02.67.09,1.32.27,1.92l.06.23.08.22c.05.15.1.29.15.43.06.14.12.28.18.41.03.07.06.14.09.2.03.06.07.13.1.19.53,1.03,1.21,1.84,1.85,2.44.64.6,1.25.98,1.67,1.23.21.12.39.2.5.27.11.06.17.09.17.1,0,0-.06-.02-.18-.08-.12-.06-.29-.13-.51-.25-.43-.24-1.04-.62-1.7-1.21-.65-.59-1.34-1.41-1.89-2.45-.03-.06-.07-.13-.11-.19-.03-.07-.06-.14-.09-.2-.06-.14-.12-.28-.18-.42-.05-.14-.1-.29-.15-.44l-.08-.22-.06-.23c-.18-.61-.26-1.28-.28-1.95,0-.22,0-.44.02-.66.02-.22.05-.43.07-.63l.03.06h0s-.03-.02-.03-.02v-.04c.16-1.19.57-2.27,1.08-3.15.51-.88,1.13-1.57,1.7-2.08.57-.51,1.09-.83,1.46-1.04.19-.1.33-.18.43-.22.1-.05.15-.07.16-.07h0s0,0,0,0Z"/></svg>