<?xml version="1.0" encoding="utf-8"?>
<!-- Generator: Adobe Illustrator 19.2.0, SVG Export Plug-In . SVG Version: 6.00 Build 0)  -->
<svg version="1.1" id="Layer_1" xmlns="http://www.w3.org/2000/svg" xmlns:xlink="http://www.w3.org/1999/xlink" x="0px" y="0px"
	 viewBox="0 0 70 70" style="enable-background:new 0 0 70 70;" xml:space="preserve">
<style type="text/css">
	.st0{clip-path:url(#SVGID_2_);}
	.st1{clip-path:url(#SVGID_4_);}
	.st2{clip-path:url(#SVGID_6_);}
	.st3{fill:#D25458;}
</style>
<g>
	<g>
		<path class="st3" d="M31.6,57.9c-1.4-0.3-2.9-0.5-4.3-0.9c-9.8-2.6-13.5-10.7-12.4-18.7c0.4-3.1,2-5.7,3.6-8.2
			c0.2-0.4,0.5-0.7,0.7-1.1c-2.6-0.6-4.6-1.8-5.9-4.1c-2.1-3.6-1.3-8.3,1.9-10.8c3.4-2.7,8.1-2.6,11.2,0.3c3.1,2.9,3.5,7.5,1.1,11
			c-1.4,2-2.9,3.9-4.3,5.9c-1.7,2.5-2.9,5.2-3.5,8.2c-0.9,4.3,0.5,7.7,4,10.3c3.2,2.4,6.9,3.2,10.8,3.2c4,0.1,7.7-0.6,11.1-2.8
			c4.1-2.7,5.6-6.7,4.4-11.5c-0.9-3.7-2.7-6.8-5-9.8c-0.9-1.2-1.8-2.5-2.6-3.7c-2-2.9-1.9-6.7,0.1-9.5c2-2.8,5.5-4.1,8.7-3.4
			c3.5,0.8,5.9,3.5,6.5,7c0,0.2,0.1,0.4,0.2,0.6c0,0.4,0,0.9,0,1.3c-0.1,0.2-0.2,0.4-0.2,0.6c-0.3,2.2-1.3,4-3.1,5.3
			c-1.1,0.8-2.4,1.3-3.7,2c0.5,0.8,1.1,1.7,1.6,2.6c1.4,2.4,2.5,4.8,2.7,7.6c0.6,8.5-4,15.1-12.2,17.5c-1.6,0.4-3.2,0.7-4.8,1
			C36,57.9,33.8,57.9,31.6,57.9z M44.4,20.4c0,2.7,2.2,4.8,5,4.7c2.6,0,4.6-2.2,4.6-4.8c0-2.7-2.2-4.9-4.9-4.8
			C46.5,15.6,44.4,17.8,44.4,20.4z M20.7,25.2c2.7,0,4.9-2.1,4.8-4.8c0-2.6-2.2-4.8-4.8-4.8c-2.7,0-4.9,2.1-4.9,4.8
			C15.8,23.1,17.9,25.2,20.7,25.2z"/>
	</g>
</g>
</svg>
