<?xml version="1.0" encoding="utf-8"?>
<!-- Generator: Adobe Illustrator 19.2.0, SVG Export Plug-In . SVG Version: 6.00 Build 0)  -->
<svg version="1.1" id="Layer_1" xmlns="http://www.w3.org/2000/svg" xmlns:xlink="http://www.w3.org/1999/xlink" x="0px" y="0px"
	 viewBox="0 0 70 70" style="enable-background:new 0 0 70 70;" xml:space="preserve">
<style type="text/css">
	.st0{clip-path:url(#SVGID_2_);}
	.st1{clip-path:url(#SVGID_4_);}
	.st2{clip-path:url(#SVGID_6_);}
	.st3{fill:#D25458;}
</style>
<g>
	<path class="st3" d="M34.5,36.8c-0.3-4.8-0.6-10.5-0.5-14.7h-0.2c-1.2,4-2.6,8.2-4.3,13l-6,16.6h-3.3l-5.5-16.2
		c-1.6-4.8-3-9.2-3.9-13.3h-0.1c-0.1,4.3-0.4,10-0.7,15.1L9,51.8H4.8l2.4-34.1h5.6l5.8,16.5c1.4,4.2,2.6,7.9,3.4,11.5h0.2
		c0.9-3.4,2.1-7.2,3.6-11.5l6.1-16.5h5.6l2.1,34.1h-4.3L34.5,36.8z"/>
	<path class="st3" d="M65.1,50.9c-1.2,0.6-3.7,1.4-7,1.4c-7.4,0-12.2-5-12.2-12.5c0-7.5,5.2-13,13.2-13c2.6,0,5,0.7,6.2,1.3l-1,3.4
		c-1.1-0.6-2.7-1.2-5.2-1.2c-5.6,0-8.7,4.2-8.7,9.3c0,5.7,3.6,9.2,8.5,9.2c2.5,0,4.2-0.7,5.5-1.2L65.1,50.9z"/>
</g>
</svg>
