<?xml version="1.0" encoding="utf-8"?>
<!-- Generator: Adobe Illustrator 19.2.0, SVG Export Plug-In . SVG Version: 6.00 Build 0)  -->
<svg version="1.1" id="Layer_1" xmlns="http://www.w3.org/2000/svg" xmlns:xlink="http://www.w3.org/1999/xlink" x="0px" y="0px"
	 viewBox="0 0 70 70" style="enable-background:new 0 0 70 70;" xml:space="preserve">
<style type="text/css">
	.st0{clip-path:url(#SVGID_2_);}
	.st1{clip-path:url(#SVGID_4_);}
	.st2{clip-path:url(#SVGID_6_);}
	.st3{fill:#D25458;}
</style>
<g>
	<path class="st3" d="M16.7,41.3L13,52.5H8.3l12-35.5h5.5L38,52.5h-4.9l-3.8-11.2H16.7z M28.3,37.7l-3.5-10.2
		c-0.8-2.3-1.3-4.4-1.8-6.5h-0.1c-0.5,2.1-1.1,4.3-1.8,6.4l-3.5,10.3H28.3z"/>
	<path class="st3" d="M61.6,51.5c-1.2,0.6-3.9,1.5-7.3,1.5c-7.7,0-12.7-5.2-12.7-13c0-7.8,5.4-13.5,13.7-13.5c2.7,0,5.2,0.7,6.4,1.3
		l-1.1,3.6c-1.1-0.6-2.8-1.2-5.4-1.2c-5.8,0-9,4.3-9,9.6c0,5.9,3.8,9.5,8.8,9.5c2.6,0,4.4-0.7,5.7-1.3L61.6,51.5z"/>
</g>
</svg>
