<?xml version="1.0" encoding="utf-8"?>
<!-- Generator: Adobe Illustrator 19.2.0, SVG Export Plug-In . SVG Version: 6.00 Build 0)  -->
<svg version="1.1" id="Layer_1" xmlns="http://www.w3.org/2000/svg" xmlns:xlink="http://www.w3.org/1999/xlink" x="0px" y="0px"
	 viewBox="0 0 70 70" style="enable-background:new 0 0 70 70;" xml:space="preserve">
<style type="text/css">
	.st0{clip-path:url(#SVGID_2_);}
	.st1{clip-path:url(#SVGID_4_);}
	.st2{clip-path:url(#SVGID_6_);}
	.st3{fill:#D25458;}
</style>
<path class="st3" d="M32.5,12.1c1.7,0,3.3,0,5,0c0,1.4,0,2.7,0,4.2c2.1-1.6,4.1-3,6.1-4.5c1,1.3,2,2.7,3,4c-2.5,1.8-4.9,3.7-7.4,5.5
	c2.5,1.9,4.9,3.7,7.4,5.5c-1,1.3-2,2.7-3,4c-2-1.5-4-3-6-4.5c0,0.2,0,0.3,0,0.4c0,2,0,4.1,0,6.1c0,0.3,0.1,0.5,0.4,0.6
	c5.3,1.5,8.6,4.9,9.5,10.4c1.2,6.6-3.6,13.2-10.3,14.3c-6.8,1.1-13-3.1-14.5-9.7c-1.5-6.6,2.6-13.2,9.1-14.9
	c0.6-0.2,0.7-0.4,0.7-0.9c0-6.6,0-13.2,0-19.8C32.5,12.6,32.5,12.4,32.5,12.1z M27.4,45.6c0,4.2,3.4,7.6,7.5,7.6
	c4.2,0,7.6-3.4,7.6-7.5c0-4.2-3.4-7.6-7.5-7.6C30.9,38.1,27.4,41.5,27.4,45.6z"/>
</svg>
