<?xml version="1.0" encoding="UTF-8"?><svg id="Layer_1" xmlns="http://www.w3.org/2000/svg" viewBox="0 0 84.9 44.79"><defs><style>.cls-1{fill:#fff;}.cls-2{fill:#ab8c81;}.cls-3{opacity:.2;}.cls-4{opacity:.3;}.cls-5{fill:#f68e62;}.cls-6{fill:#ff745e;}.cls-7{fill:#f9a868;}</style></defs><g><ellipse class="cls-7" cx="44.5" cy="22.12" rx="23.28" ry="22.11"/><g class="cls-3"><path class="cls-1" d="m36.01,6.82c2.9,3.77,6.75,6.82,11.02,9.11,4.31,2.31,9.21,3.8,14.11,4.37,1.88.22,4.27.38,6.58.18-.06-.76-.16-1.52-.3-2.28-1.82.23-3.68.21-5.51.03-4.12-.4-8.16-1.51-11.91-3.17-3.65-1.61-7.02-3.73-9.89-6.42-1.83-1.71-4.23-4.09-5.31-6.64-.47.2-.93.42-1.39.66.68,1.58,1.82,3.12,2.61,4.14Z"/><path class="cls-1" d="m53.16,5.94c2.01,1.23,6.29,2.8,9.03,1.8-.53-.59-1.08-1.14-1.66-1.67-.16.03-.32.05-.49.06-1.72.11-3.45-.45-4.98-1.13-1.79-.8-4.58-2.51-5.93-4.56-.48-.09-.96-.17-1.45-.24.84,2.39,3.52,4.53,5.48,5.73Z"/><path class="cls-1" d="m51.67,9.15c2.85,1.7,6.06,2.95,9.45,3.14,1.18.07,2.68.03,4.11-.23-.33-.61-.68-1.2-1.07-1.79-1.12.23-2.29.29-3.43.21-2.85-.2-5.58-1.19-8.03-2.55-3.5-1.95-6.98-4.59-9.13-7.9-.54.02-1.09.05-1.63.11,2.11,3.8,6.45,7.05,9.73,9.01Z"/><path class="cls-1" d="m59.67,38.89c-2.07-.18-4.13-.42-6.2-.83-4.08-.82-8.07-2.01-11.84-3.72-4.02-1.83-7.7-4.23-11.11-6.93-3.17-2.5-6.74-5.28-9.03-8.65-.08.52-.15,1.04-.2,1.56,1.82,2.54,4.65,4.68,6.9,6.6,3.61,3.09,7.53,5.89,11.84,8.04,5.26,2.63,11.49,4.58,17.68,5.36.06-.04.12-.07.18-.11.62-.41,1.21-.85,1.78-1.31Z"/><path class="cls-1" d="m41.91,32.4c5.39,2.48,11.26,4.34,17.22,5.04.65.08,1.3.14,1.96.19,2.13-2.05,3.76-4.42,4.89-6.98-2.25.09-4.47-.02-6.7-.34-5.12-.73-10.01-2.34-14.64-4.5-4.81-2.24-9.33-5.16-13.02-8.87-1.97-1.98-3.73-4.23-5.18-6.59-.25-.41-.49-.84-.73-1.28-1.74,2.26-2.99,4.8-3.72,7.45,1.16,1.7,2.45,3.3,3.91,4.81,4.51,4.67,10.04,8.31,16.03,11.07Z"/><path class="cls-1" d="m34.27,38.14c-.41-.15-.84-.25-1.28-.31-.46-.06-.72.6-.25.77.35.13.68.28.98.49.33.22.66.29,1.03.42.34.12.63-.21.45-.51-.24-.39-.48-.7-.93-.86Z"/><path class="cls-1" d="m30.09,35.53c.75.18.99-.74.56-1.17-1.47-1.47-3.61-2.37-5.29-3.65-1.11-.84-2.21-1.7-3.27-2.6.31,1.04.7,2.07,1.18,3.08,2,1.98,4.33,3.73,6.81,4.33Z"/></g><path class="cls-1" d="m34.18,40.4s-.25-.08-.68-.27c-.43-.19-1.03-.51-1.75-.94-1.44-.87-3.3-2.31-4.95-4.29-.82-.99-1.5-2.02-2.06-2.98-.53-.98-.96-1.89-1.23-2.69-.16-.39-.26-.76-.35-1.08-.1-.32-.17-.6-.22-.83-.1-.46-.14-.71-.12-.72.06-.02.29,1,.91,2.54.3.78.75,1.66,1.28,2.62.56.94,1.24,1.94,2.05,2.92,1.62,1.95,3.43,3.4,4.82,4.31,1.39.91,2.33,1.35,2.3,1.41Z"/><path class="cls-5" d="m66.51,25.45c0,.12-.6.23-1.72.35-.28.03-.59.05-.93.08-.34.02-.71,0-1.11.01-.79-.01-1.71.02-2.7-.1-.5-.05-1.03-.1-1.57-.15-.55-.06-1.1-.18-1.69-.27-1.17-.17-2.39-.51-3.68-.84-2.55-.75-5.3-1.81-8.02-3.27-2.7-1.49-5.09-3.21-7.11-4.94-.98-.9-1.93-1.74-2.71-2.63-.4-.44-.8-.84-1.15-1.27-.34-.43-.67-.84-.98-1.23-.65-.77-1.12-1.55-1.56-2.21-.22-.33-.42-.64-.6-.93-.16-.3-.3-.57-.44-.83-.51-1-.74-1.57-.64-1.63.1-.06.52.4,1.19,1.27.17.22.35.47.55.73.21.26.45.53.69.83.5.59,1.03,1.3,1.71,2,.33.36.67.74,1.03,1.13.36.39.78.76,1.18,1.16.8.82,1.75,1.59,2.72,2.43,2,1.6,4.32,3.22,6.91,4.65,2.61,1.4,5.23,2.46,7.66,3.26,1.23.36,2.39.73,3.52.95.56.12,1.09.27,1.61.36.52.09,1.03.17,1.51.25.96.19,1.84.25,2.61.35.39.04.75.1,1.08.13.33.02.63.04.91.06,1.1.09,1.71.19,1.72.31Z"/></g><path class="cls-1" d="m53.63,42.36s.05-.04.15-.09c.12-.06.26-.14.44-.24.41-.22.99-.52,1.73-.91h.04s-.07.02-.06.04l.03-.05c.08-.05.18-.11.28-.17h.02s.02,0,.02,0h0s-.04,0-.04,0c1.5-.94,3.6-2.47,5.59-4.92l.1-.04s-.14.05-.13.1l.03-.06c1.75-2.16,3.41-5.1,4.24-8.66.86-3.53.85-7.67-.44-11.69l.14.11h0s-.11-.01-.11-.01l-.03-.11c-.31-.95-.65-1.97-1.14-2.94-2.1-4.4-5.75-7.61-9.47-9.53-3.74-1.94-7.57-2.66-10.75-2.7-3.19-.05-5.74.56-7.43,1.11-.85.28-1.5.53-1.93.72-.2.08-.37.15-.5.2-.11.04-.17.06-.17.06,0,0,.86-.5,2.55-1.11,1.69-.59,4.25-1.24,7.48-1.22,3.21.01,7.08.71,10.89,2.66,1.89.97,3.76,2.25,5.43,3.87,1.67,1.61,3.14,3.56,4.2,5.79.5.98.85,2.01,1.16,2.99l-.14-.12h0s.11.01.11.01l.03.1c1.31,4.08,1.3,8.29.42,11.87-.87,3.6-2.56,6.56-4.35,8.74l.03-.06c.01.05-.1.13-.13.11l.1-.04c-2.03,2.46-4.17,3.97-5.7,4.88h-.02s-.02,0-.02,0h0s.04,0,.04,0c-.1.06-.2.11-.28.16l.03-.05s-.06.07-.07.06h.04c-.75.36-1.34.64-1.76.85-.19.09-.34.16-.46.21-.1.05-.16.07-.16.06Z"/><g><g><path class="cls-6" d="m24.32,11.02c.13-.23.28-.45.41-.68C14.37,6.15,8.85,4.96,7.18,5.51c-.14.05-.24.1-.26.15l-.03.06c-.04.07,0,.22.02.29.37,1.16,3.88,6.07,33.49,20.5,17.82,8.69,32.09,13.2,36.99,13.74.6.07.96-.62.54-1.03-1.72-1.67-5.69-4.6-12.01-8.42-.09.18-.17.36-.26.54,5.19,3.17,8.19,5.53,7.77,6.31-.85,1.57-15.14-3.79-31.94-11.97C24.68,17.49,11.75,9.59,12.6,8.03c.46-.86,4.98.37,11.72,2.99Z"/><path class="cls-6" d="m66.85,28.6c-.06.16-.13.31-.19.47,8.1,4.85,13.45,8.88,14.08,10.85.21.65.04,1.26-.47,1.67-.52.41-2.1,1.67-14.38-2.46-7.91-2.66-17.28-6.56-26.37-10.99-3.83-1.87-7.88-3.89-11.79-5.95C16.43,16.24,6.18,10.03,5.07,6.54c-.24-.76-.07-1.33.12-1.67.18-.36.56-.82,1.37-1.08,2.98-.97,10.95,1.63,19.23,5,.07-.09.13-.19.2-.28C11.95,2.94,1.98.65.41,2.78c-3.39,4.58,14.79,16.08,38.09,27.42,23.3,11.34,44.49,16.95,46.28,13.64,1.19-2.2-6.1-8.16-17.93-15.24Z"/><path class="cls-6" d="m68.41,34.59c.13.13-1.41,0-1.46-.02-.57-.11-1.14-.32-1.69-.49-1.5-.47-2.98-1-4.44-1.58-2.06-.82-4.05-1.9-6.21-2.45-.25-.06-.33.24-.15.37,3.46,2.38,8.56,4.19,12.73,5.01.6.12,1.51.37,1.89-.28.25-.43.09-.77-.34-.99-.28-.15-.53.2-.33.42h0Z"/></g><g class="cls-4"><path class="cls-2" d="m24.32,11.02c.13-.23.28-.45.41-.68C14.37,6.15,8.85,4.96,7.18,5.51c-.14.05-.24.1-.26.15l-.03.06c-.04.07,0,.22.02.29.37,1.16,3.88,6.07,33.49,20.5,17.82,8.69,32.09,13.2,36.99,13.74.6.07.96-.62.54-1.03-1.72-1.67-5.69-4.6-12.01-8.42-.09.18-.17.36-.26.54,5.19,3.17,8.19,5.53,7.77,6.31-.85,1.57-15.14-3.79-31.94-11.97C24.68,17.49,11.75,9.59,12.6,8.03c.46-.86,4.98.37,11.72,2.99Z"/><path class="cls-2" d="m68.41,34.59c.13.13-1.41,0-1.46-.02-.57-.11-1.14-.32-1.69-.49-1.5-.47-2.98-1-4.44-1.58-2.06-.82-4.05-1.9-6.21-2.45-.25-.06-.33.24-.15.37,3.46,2.38,8.56,4.19,12.73,5.01.6.12,1.51.37,1.89-.28.25-.43.09-.77-.34-.99-.28-.15-.53.2-.33.42h0Z"/></g><g class="cls-4"><path class="cls-2" d="m66.85,28.6c-.06.16-.13.31-.19.47,8.1,4.85,13.45,8.88,14.08,10.85.21.65.04,1.26-.47,1.67-.52.41-2.1,1.67-14.38-2.46-7.91-2.66-17.28-6.56-26.37-10.99-3.83-1.87-7.88-3.89-11.79-5.95C16.43,16.24,6.18,10.03,5.07,6.54c-.24-.76-.07-1.33.12-1.67.18-.36.56-.82,1.37-1.08,2.98-.97,10.95,1.63,19.23,5,.07-.09.13-.19.2-.28C11.95,2.94,1.98.65.41,2.78c-3.39,4.58,14.79,16.08,38.09,27.42,23.3,11.34,44.49,16.95,46.28,13.64,1.19-2.2-6.1-8.16-17.93-15.24Z"/></g></g></svg>