<?xml version="1.0" encoding="utf-8"?>
<!-- Generator: Adobe Illustrator 19.2.0, SVG Export Plug-In . SVG Version: 6.00 Build 0)  -->
<svg version="1.1" id="Layer_1" xmlns="http://www.w3.org/2000/svg" xmlns:xlink="http://www.w3.org/1999/xlink" x="0px" y="0px"
	 viewBox="0 0 26 31.7" style="enable-background:new 0 0 26 31.7;" xml:space="preserve">
<style type="text/css">
	.st0{fill:#FFFFFF;}
</style>
<path class="st0" d="M25.5,11.7c0-3.5-2-5.4-2.2-5.6c-0.4-0.3-0.9-0.4-1.4-0.3c-0.8,0.2-1.5,0.5-2.1,0.9c-0.1-3.5-2.2-5.5-2.4-5.7
	C17,0.6,16.5,0.5,16,0.6c-1.6,0.5-3.1,1.4-4.3,2.6c-0.7-1.5-1.5-2.3-1.6-2.3C9.8,0.6,9.3,0.5,8.8,0.6C7.1,1.1,5.7,2,4.5,3.2
	C3.8,1.8,2.9,1,2.9,0.9C2.3,0.4,1.4,0.4,0.8,1C0.3,1.6,0.3,2.5,0.9,3.1c0,0,1.4,1.4,1.4,3.9v19.2c0,0.8,0.6,1.5,1.5,1.5
	s1.5-0.6,1.5-1.5V7c0.3-0.6,1.4-2.4,3.4-3.3C9.1,4.4,9.6,5.5,9.6,7v19.2c0,0.8,0.6,1.5,1.5,1.5c0.1,0,0.2,0,0.3,0c0,0.2,0,0.4,0,0.7
	c0.2,0.6,0.7,1,1.4,1c0.1,0,0.3,0,0.4-0.1c1.3-0.4,2.6-0.9,3.7-1.6c0.2,1.3,0.6,2.2,1.4,2.8c0.6,0.4,1.3,0.7,2.1,0.7
	c0.4,0,0.8,0,1.2-0.2c0.4-0.1,0.7-0.3,0.9-0.7c0.2-0.3,0.2-0.7,0.1-1.1c-0.1-0.4-0.3-0.7-0.7-0.9c-0.3-0.2-0.7-0.2-1.1-0.1
	c-0.5,0.1-0.7,0.1-0.8,0c-0.2-0.1-0.4-0.7-0.4-1.7v-0.9C25.1,20.8,25.5,13.7,25.5,11.7z M19.8,21.3V10.7c0.1-0.3,0.5-1.2,2-1.9
	c0.3,0.6,0.8,1.5,0.8,2.8C22.6,13.9,22.2,17.9,19.8,21.3z M16,3.8c0.4,0.6,0.9,1.7,0.9,3.3v17.2c-1.3,1-2.7,1.7-4.4,2.2
	c0-0.1,0-0.1,0-0.2V7.1C12.9,6.5,13.9,4.7,16,3.8z"/>
</svg>
