<?xml version="1.0" encoding="utf-8"?>
<!-- Generator: Adobe Illustrator 19.2.0, SVG Export Plug-In . SVG Version: 6.00 Build 0)  -->
<svg version="1.1" id="Layer_1" xmlns="http://www.w3.org/2000/svg" xmlns:xlink="http://www.w3.org/1999/xlink" x="0px" y="0px"
	 viewBox="0 0 27.6 27.6" style="enable-background:new 0 0 27.6 27.6;" xml:space="preserve">
<style type="text/css">
	.st0{fill:#FFFFFF;}
</style>
<path class="st0" d="M25.7,3.1c0-0.1,0-0.2-0.1-0.2c0,0,0-0.1,0-0.1c-0.1-0.3-0.4-0.6-0.7-0.7c0,0-0.1,0-0.2,0c0,0-0.1,0-0.2,0
	L14.2,0.2c-0.4-0.1-0.8,0-1.1,0.2S12.6,1,12.6,1.4c0,0.4,0,0.8,0.2,1.1C13,2.8,13.4,3,13.8,3.1l7.4,1.2L9.9,15.6L5,10.7
	c-0.6-0.6-1.5-0.6-2.1,0c-0.6,0.6-0.6,1.5,0,2.1l4.9,4.9l-7.3,7.3c-0.6,0.6-0.6,1.5,0,2.1c0.3,0.3,0.6,0.4,1,0.4
	c0.4,0,0.7-0.1,1-0.4l7.3-7.3l4.9,4.9c0.3,0.3,0.6,0.4,1,0.4c0.4,0,0.7-0.1,1-0.4c0.3-0.3,0.4-0.6,0.4-1c0-0.4-0.1-0.7-0.4-1l-5-4.9
	L23.3,6.3l1.2,7.4c0.1,0.7,0.7,1.2,1.4,1.2c0.1,0,0.1,0,0.2,0c0.4,0,0.7-0.3,0.9-0.6c0.2-0.3,0.3-0.7,0.3-1.1L25.7,3.1z"/>
</svg>
