<?xml version="1.0" encoding="utf-8"?>
<!-- Generator: Adobe Illustrator 19.2.0, SVG Export Plug-In . SVG Version: 6.00 Build 0)  -->
<svg version="1.1" id="Layer_1" xmlns="http://www.w3.org/2000/svg" xmlns:xlink="http://www.w3.org/1999/xlink" x="0px" y="0px"
	 viewBox="0 0 30.5 22.6" style="enable-background:new 0 0 30.5 22.6;" xml:space="preserve">
<style type="text/css">
	.st0{fill:#FFFFFF;}
</style>
<g>
	<path class="st0" d="M1.8,22.3h26.8c0.8,0,1.5-0.6,1.5-1.5s-0.6-1.5-1.5-1.5H1.8c-0.8,0-1.5,0.6-1.5,1.5S1,22.3,1.8,22.3z"/>
	<path class="st0" d="M1.8,16.4h8.7c0.6,0,1.2-0.4,1.4-1c0.2-0.6,0-1.2-0.4-1.6C10,12.7,9.2,11,9.2,9.2c0-3.3,2.7-6,6-6
		c3.3,0,6,2.7,6,6c0,1.8-0.8,3.5-2.2,4.7c-0.5,0.4-0.7,1-0.4,1.6c0.2,0.6,0.8,1,1.4,1h8.7c0.8,0,1.5-0.6,1.5-1.5s-0.6-1.5-1.5-1.5
		H23c0.7-1.3,1.1-2.8,1.1-4.3c0-4.9-4-8.9-8.9-8.9c-4.9,0-8.9,4-8.9,8.9c0,1.5,0.4,3,1.1,4.3H1.8c-0.8,0-1.5,0.6-1.5,1.5
		S1,16.4,1.8,16.4z"/>
</g>
</svg>
