<?xml version="1.0" encoding="utf-8"?>
<!-- Generator: Adobe Illustrator 19.2.0, SVG Export Plug-In . SVG Version: 6.00 Build 0)  -->
<svg version="1.1" id="Layer_1" xmlns="http://www.w3.org/2000/svg" xmlns:xlink="http://www.w3.org/1999/xlink" x="0px" y="0px"
	 viewBox="0 0 26.5 29.8" style="enable-background:new 0 0 26.5 29.8;" xml:space="preserve">
<style type="text/css">
	.st0{fill:#FFFFFF;}
</style>
<path class="st0" d="M1.3,26.6c-0.4,0.1-0.7,0.3-0.9,0.6c-0.2,0.3-0.3,0.7-0.2,1.1c0.1,0.4,0.3,0.7,0.6,0.9c0.3,0.2,0.7,0.3,1.1,0.2
	c1.8-0.3,3.8-0.6,6.1-0.8c0.3,0.1,0.6,0.1,1-0.1c2.9-0.2,5.8-0.2,8.7,0c0.3,0.1,0.6,0.1,0.8,0c2.3,0.2,4.3,0.5,6.2,0.8
	c0.1,0,0.2,0,0.3,0c0.7,0,1.3-0.5,1.4-1.2c0.1-0.8-0.3-1.6-1.1-1.7c-1.7-0.3-3.6-0.6-5.6-0.8v-22c2-0.2,3.9-0.4,5.6-0.8
	c0.4-0.1,0.7-0.3,0.9-0.6c0.2-0.3,0.3-0.7,0.2-1.1c-0.1-0.8-0.9-1.3-1.7-1.2C17.7,1.6,8.8,1.6,1.9,0.2C1.1,0,0.3,0.6,0.2,1.3
	C0.1,2.1,0.5,2.9,1.3,3c1.7,0.3,3.6,0.6,5.6,0.8v22C4.9,26.1,3,26.3,1.3,26.6z M9.8,25.7V4.1c1.3,0.1,2.5,0.1,3.6,0.1
	c1,0,2.1,0,3.3-0.1v21.6c-1.2,0-2.4-0.1-3.6-0.1C12,25.6,10.9,25.7,9.8,25.7z"/>
</svg>
