<?xml version="1.0" encoding="utf-8"?>
<!-- Generator: Adobe Illustrator 19.2.0, SVG Export Plug-In . SVG Version: 6.00 Build 0)  -->
<svg version="1.1" id="Layer_1" xmlns="http://www.w3.org/2000/svg" xmlns:xlink="http://www.w3.org/1999/xlink" x="0px" y="0px"
	 viewBox="0 0 35.4 26.4" style="enable-background:new 0 0 35.4 26.4;" xml:space="preserve">
<style type="text/css">
	.st0{fill:#FFFFFF;}
</style>
<g>
	<path class="st0" d="M28.3,8.2c-3.7,0-6.7,3-6.7,6.7c0,2.8,1.7,5.2,4.2,6.2c-3.7,1.6-11.8,3.8-22.1,0.3c-0.4-0.1-0.8-0.1-1.1,0.1
		c-0.3,0.2-0.6,0.5-0.7,0.8C1.8,22.6,1.8,23,2,23.3c0.2,0.3,0.5,0.6,0.8,0.7c3.8,1.3,7.8,2,11.9,2c9.5,0,17.2-3.8,19-7.3
		c0.8-1.2,1.3-2.5,1.3-3.9C35,11.2,32,8.2,28.3,8.2z M32.1,14.9c0,2.1-1.7,3.7-3.7,3.7c-2.1,0-3.7-1.7-3.7-3.7
		c0-2.1,1.7-3.7,3.7-3.7C30.4,11.1,32.1,12.8,32.1,14.9z"/>
	<path class="st0" d="M7.1,18.2c3.7,0,6.7-3,6.7-6.7c0-2.8-1.7-5.2-4.2-6.2c3.7-1.6,11.8-3.8,22.1-0.3C32,5.2,32.4,5.2,32.8,5
		c0.3-0.2,0.6-0.5,0.7-0.8c0.1-0.4,0.1-0.8-0.1-1.1c-0.2-0.3-0.5-0.6-0.8-0.7c-6.5-2.2-13.6-2.6-20-1C7.3,2.6,3,5.1,1.7,7.7
		c-0.8,1.2-1.3,2.5-1.3,3.9C0.4,15.2,3.4,18.2,7.1,18.2z M3.3,11.6c0-2.1,1.7-3.7,3.7-3.7c2.1,0,3.7,1.7,3.7,3.7s-1.7,3.7-3.7,3.7
		S3.3,13.6,3.3,11.6z"/>
</g>
</svg>
