<?xml version="1.0" encoding="utf-8"?>
<!-- Generator: Adobe Illustrator 19.2.0, SVG Export Plug-In . SVG Version: 6.00 Build 0)  -->
<svg version="1.1" id="Layer_1" xmlns="http://www.w3.org/2000/svg" xmlns:xlink="http://www.w3.org/1999/xlink" x="0px" y="0px"
	 viewBox="0 0 26.5 36.4" style="enable-background:new 0 0 26.5 36.4;" xml:space="preserve">
<style type="text/css">
	.st0{fill:#FFFFFF;}
</style>
<path class="st0" d="M7,31.5c3.7,0,6.6-3,6.6-6.6c0-0.1,0-0.1,0-0.2c0,0,0,0,0-0.1c0-1.8-0.7-3.6-1.6-5.8c-1.2-3-2.5-6.3-2.2-10.5
	c0.2-3.1,3.3-5,6-4.9c2.8,0.1,4.3,2.3,4.2,5.8c-0.2,5.3-1.6,9.3-2.8,12.7c-1.1,3.2-2.1,6-1.8,8.9c0.3,3.3,2.9,5,5.4,5
	c0.1,0,0.1,0,0.2,0c2.6-0.1,5.2-2.1,5.2-6.2c0-0.8-0.6-1.5-1.5-1.5c-0.8,0-1.5,0.6-1.5,1.5c0,2.3-1.2,3.2-2.4,3.2
	c-1.2,0-2.4-0.7-2.6-2.4c-0.2-2.3,0.6-4.7,1.7-7.7c1.2-3.5,2.7-7.8,3-13.6c0.3-6.2-3.5-8.6-6.9-8.8C11.9,0.3,7.3,3.3,7,8.1
	c-0.3,4.1,0.8,7.5,1.9,10.4c-0.6-0.2-1.2-0.3-1.8-0.3c-3.7,0-6.6,3-6.6,6.6C0.4,28.5,3.4,31.5,7,31.5z M3.3,24.9
	c0-2.1,1.7-3.7,3.7-3.7s3.7,1.7,3.7,3.7s-1.7,3.7-3.7,3.7S3.3,26.9,3.3,24.9z"/>
</svg>
