<?xml version="1.0" encoding="utf-8"?>
<!-- Generator: Adobe Illustrator 19.2.0, SVG Export Plug-In . SVG Version: 6.00 Build 0)  -->
<svg version="1.1" id="Layer_1" xmlns="http://www.w3.org/2000/svg" xmlns:xlink="http://www.w3.org/1999/xlink" x="0px" y="0px"
	 viewBox="0 0 25.9 31.4" style="enable-background:new 0 0 25.9 31.4;" xml:space="preserve">
<style type="text/css">
	.st0{fill:#FFFFFF;}
</style>
<path class="st0" d="M23.7,25.2l-3,0.8c-0.4,0.1-0.7,0.3-0.9,0.7c0,0.1-0.1,0.2-0.1,0.3c-0.6-0.4-1-1.2-1-2.1V6.6
	c0-3.7-2.2-5.7-2.3-5.8c-0.4-0.3-0.9-0.4-1.4-0.3c-1.5,0.4-2.8,1.3-4,2.4c-0.6-1.3-1.4-2.1-1.5-2.1C9.2,0.5,8.7,0.4,8.2,0.5
	c-1.5,0.4-2.8,1.3-4,2.4C3.6,1.5,2.8,0.8,2.8,0.8C2.2,0.3,1.3,0.3,0.7,0.9C0.2,1.5,0.2,2.4,0.8,3c0,0,1.3,1.3,1.3,3.6v18
	c0,0.8,0.6,1.5,1.5,1.5s1.5-0.6,1.5-1.5v-18c0.3-0.6,1.3-2.1,3.1-3C8.5,4.2,9,5.2,9,6.5v18c0,0.8,0.6,1.5,1.5,1.5s1.5-0.6,1.5-1.5
	v-18c0.3-0.6,1.3-2.1,3.1-3c0.4,0.6,0.8,1.6,0.8,2.9v18.3c0,2.4,1.3,4.3,3.3,5c0.9,0.3,1.8,0.4,2.8,0.1c0,0.1,0.1,0.2,0.1,0.3
	c0.2,0.3,0.5,0.6,0.9,0.7c0.1,0,0.2,0,0.4,0c0.7,0,1.2-0.4,1.4-1.1l0.8-3c0.1-0.5,0-1-0.4-1.4C24.7,25.2,24.2,25.1,23.7,25.2z"/>
</svg>
