<?xml version="1.0" encoding="utf-8"?>
<!-- Generator: Adobe Illustrator 19.2.0, SVG Export Plug-In . SVG Version: 6.00 Build 0)  -->
<svg version="1.1" id="Layer_1" xmlns="http://www.w3.org/2000/svg" xmlns:xlink="http://www.w3.org/1999/xlink" x="0px" y="0px"
	 viewBox="0 0 36.4 36.1" style="enable-background:new 0 0 36.4 36.1;" xml:space="preserve">
<style type="text/css">
	.st0{fill:#FFFFFF;}
</style>
<path class="st0" d="M27.5,19.3c-1.4,0.4-2.5,1.1-3.3,2.1c-0.2-1.3-0.3-2.6-0.4-4.2C22.9,2.7,18.5,0.7,17.7,0.4c-0.1,0-0.3,0-0.4,0
	c-1.7,0-3.2,0.6-4.5,1.9c-1.4,1.4-2.5,3.6-3.2,6.6c-0.8-3-1.9-5.2-3.2-6.6C5.1,1,3.6,0.4,1.9,0.4C1.1,0.4,0.4,1,0.4,1.9
	c0,0.8,0.6,1.5,1.5,1.5c0.9,0,1.7,0.3,2.4,1C6.7,6.9,8,13.2,8.1,23.2c0,0.9,0,1.7,0,2.4v0.8c0,0.8,0.6,1.5,1.5,1.5
	c0.8,0,1.5-0.6,1.5-1.5v-0.8c0-0.7,0-1.5,0-2.4c0.1-10,1.4-16.4,3.9-18.9c0.6-0.6,1.3-1,2.1-1c0.7,0.5,3.3,3.2,3.9,14.1
	c0.2,3.6,0.7,6.5,1.5,8.8c-0.1,0.4-0.1,0.7-0.2,1.1c-0.7,4-1,6.3-6.7,5.3c-0.8-0.1-1.5,0.4-1.7,1.2c-0.1,0.8,0.4,1.5,1.2,1.7
	c0.9,0.1,1.8,0.2,2.5,0.2c4.6,0,6.2-2.5,7-5.4c0.5,0.6,1,1,1.6,1.4c1.8,1.1,4.1,1.2,6.5,0.2c3.1-1.3,4-5.7,2.8-8.9
	C34.6,20.5,31.9,18,27.5,19.3z M31.5,29.2c-1.5,0.7-2.8,0.7-3.9,0c-0.9-0.5-1.7-1.7-2.3-3.3c0.4-2.1,1.1-3.4,2.9-3.9
	c2.8-0.8,4,0.6,4.5,2C33.5,26.2,32.7,28.7,31.5,29.2z"/>
</svg>
