<?xml version="1.0" encoding="utf-8"?>
<!-- Generator: Adobe Illustrator 19.2.0, SVG Export Plug-In . SVG Version: 6.00 Build 0)  -->
<svg version="1.1" id="Layer_1" xmlns="http://www.w3.org/2000/svg" xmlns:xlink="http://www.w3.org/1999/xlink" x="0px" y="0px"
	 viewBox="0 0 34.6 30.5" style="enable-background:new 0 0 34.6 30.5;" xml:space="preserve">
<style type="text/css">
	.st0{fill:#FFFFFF;}
</style>
<path class="st0" d="M2.5,11.3c0.8-0.2,1.3-0.9,1.1-1.7c0,0-0.5-2.8,0.9-4.5C5.4,4,6.9,3.4,8.9,3.4c1,0,1.9,0.4,2.7,1.2
	c2.7,2.7,4.1,9.6,4.2,20.5c0,0.9,0,1.8,0,2.5v0.8c0,0.8,0.6,1.5,1.5,1.5c0.8,0,1.5-0.6,1.5-1.5v-0.9c0-0.7,0-1.6,0-2.5
	c0.1-10.9,1.5-17.8,4.2-20.5c0.8-0.8,1.6-1.2,2.7-1.2c2.1,0,3.6,0.5,4.5,1.6c1.4,1.7,0.9,4.5,0.9,4.5c-0.2,0.8,0.3,1.6,1.1,1.7
	c0.8,0.2,1.6-0.3,1.7-1.1c0-0.2,0.8-4.1-1.5-7c-1.4-1.8-3.7-2.7-6.7-2.7c-1.8,0-3.4,0.7-4.7,2c-1.6,1.6-2.7,4.1-3.6,7.4
	c-0.8-3.4-2.1-5.9-3.6-7.4c-1.3-1.3-2.9-2-4.7-2c-3,0-5.3,0.9-6.7,2.7c-2.3,2.8-1.5,6.8-1.5,7C1,10.9,1.7,11.4,2.5,11.3z"/>
</svg>
