<?xml version="1.0" encoding="utf-8"?>
<!-- Generator: Adobe Illustrator 19.2.0, SVG Export Plug-In . SVG Version: 6.00 Build 0)  -->
<svg version="1.1" id="Layer_1" xmlns="http://www.w3.org/2000/svg" xmlns:xlink="http://www.w3.org/1999/xlink" x="0px" y="0px"
	 viewBox="0 0 20.4 31.3" style="enable-background:new 0 0 20.4 31.3;" xml:space="preserve">
<style type="text/css">
	.st0{fill:#FFFFFF;}
</style>
<path class="st0" d="M4.4,14.2H2.6c-0.8,0-1.5,0.6-1.5,1.5c0,0.8,0.6,1.5,1.5,1.5h1.9C4.2,21.5,2.9,25.5,0.9,28
	c-0.5,0.6-0.4,1.5,0.2,2.1c0.2,0.2,0.6,0.3,0.9,0.3c0.4,0,0.9-0.2,1.1-0.5c2.4-3,3.9-7.6,4.2-12.7H13c0.2,5.1,1.8,9.7,4.2,12.7
	c0.3,0.3,0.7,0.5,1.1,0.5c0.3,0,0.6-0.1,0.9-0.3c0.3-0.2,0.5-0.6,0.5-1c0-0.4-0.1-0.8-0.3-1.1c-2-2.5-3.3-6.5-3.5-10.9h2
	c0.8,0,1.5-0.6,1.5-1.5c0-0.8-0.6-1.5-1.5-1.5h-2c0.2-4.4,1.5-8.4,3.5-10.9c0.2-0.3,0.3-0.7,0.3-1.1c0-0.4-0.2-0.7-0.5-1l0,0
	c-0.6-0.5-1.5-0.4-2.1,0.2c-2.4,3-3.9,7.6-4.2,12.7H7.4C7.1,9.1,5.6,4.5,3.2,1.5C3,1.2,2.6,1,2.2,0.9C1.8,0.9,1.5,1,1.2,1.3
	c-0.3,0.2-0.5,0.6-0.5,1c0,0.4,0.1,0.8,0.3,1.1C2.9,5.7,4.2,9.8,4.4,14.2z"/>
</svg>
