<?xml version="1.0" encoding="UTF-8"?><svg xmlns="http://www.w3.org/2000/svg" xmlns:xlink="http://www.w3.org/1999/xlink" viewBox="0 0 60.22 60.27"><defs><style>.cls-1{fill:rgba(248,244,199,.45);}.cls-2{opacity:.7;}.cls-3{fill:#fff;}.cls-4{fill:url(#_åçûìßííûé_ãðàäèåíò_21);mix-blend-mode:screen;}.cls-5{fill:#f8ca30;}.cls-6{fill:rgba(249,241,160,.44);}.cls-7{isolation:isolate;}.cls-8{opacity:.2;}.cls-9{fill:#f9c233;}.cls-10{opacity:.4;}.cls-11{opacity:.1;}.cls-12{fill:rgba(248,245,222,.45);}</style><radialGradient id="_åçûìßííûé_ãðàäèåíò_21" cx="29.73" cy="28.94" fx="29.73" fy="28.94" r="27.09" gradientTransform="translate(29.17 -12.55) rotate(45)" gradientUnits="userSpaceOnUse"><stop offset=".05" stop-color="#fff"/><stop offset=".1" stop-color="#f9fdd4"/><stop offset=".19" stop-color="#effa87"/><stop offset=".23" stop-color="#ebf969"/><stop offset=".29" stop-color="#e9ed54"/><stop offset=".42" stop-color="#e4d120"/><stop offset=".49" stop-color="#e1bf00"/><stop offset=".6" stop-color="#a28900"/><stop offset=".74" stop-color="#5d4f00"/><stop offset=".86" stop-color="#2a2400"/><stop offset=".95" stop-color="#0b0900"/><stop offset="1" stop-color="#000"/></radialGradient></defs><g class="cls-7"><g id="Layer_1"><g><g><path class="cls-5" d="m58.74,16.09c-.77-1.14-1.85-2.03-2.95-2.85-3.99-2.98-6.35-7.51-10.67-9.98-1.58-.9-4.57-1.17-6.8-1.23-1.8-.05-3.58-.34-5.31-.81C29.64.31,25.92,0,25.92,0c-5.78-.02-9.93,5.28-14.78,8.42-2.66,1.72-5.74,2.88-7.93,5.18C-1.07,18.07-.54,25.35,1.73,31.11c.62,1.57,1.35,3.13,1.55,4.8.2,1.67-.14,3.36-.08,5.04.17,4.54,3.19,8.44,6.25,11.8,1.87,2.06,4.03,4.17,6.79,4.52,1.81.23,3.63-.34,5.45-.29,4.2.12,7.86,3.5,12.05,3.27,4.83-.27,8.06-5.07,12.49-7.01,2.6-1.14,5.65-1.28,7.96-2.94,2.57-1.85,3.63-5.18,3.87-8.34.24-3.16-.17-6.34.2-9.49.33-2.79,1.27-5.48,1.72-8.25.45-2.78.34-5.81-1.24-8.14Z"/><g class="cls-2"><path class="cls-3" d="m58.74,16.09c-.77-1.14-1.85-2.03-2.95-2.85-3.99-2.98-6.35-7.51-10.67-9.98-1.58-.9-4.57-1.17-6.8-1.23-1.8-.05-3.58-.34-5.31-.81C29.64.31,25.92,0,25.92,0c-5.78-.02-9.93,5.28-14.78,8.42-2.66,1.72-5.74,2.88-7.93,5.18C-1.07,18.07-.54,25.35,1.73,31.11c.62,1.57,1.35,3.13,1.55,4.8.2,1.67-.14,3.36-.08,5.04.17,4.54,3.19,8.44,6.25,11.8,1.87,2.06,4.03,4.17,6.79,4.52,1.81.23,3.63-.34,5.45-.29,4.2.12,7.86,3.5,12.05,3.27,4.83-.27,8.06-5.07,12.49-7.01,2.6-1.14,5.65-1.28,7.96-2.94,2.57-1.85,3.63-5.18,3.87-8.34.24-3.16-.17-6.34.2-9.49.33-2.79,1.27-5.48,1.72-8.25.45-2.78.34-5.81-1.24-8.14Z"/></g><path class="cls-9" d="m51.61,11.11c-.93-.8-2.06-1.32-3.19-1.78-4.12-1.65-7.18-5.01-11.47-6.16-1.56-.42-4.2.04-6.14.49-1.56.37-3.16.52-4.76.51-3.1-.02-6.37.57-6.37.57-4.98,1.3-7.34,6.81-10.81,10.63-1.9,2.09-4.29,3.8-5.65,6.27-2.66,4.83-.54,10.97,2.73,15.42.89,1.21,1.87,2.39,2.43,3.78.55,1.39.65,2.93,1.09,4.36,1.18,3.87,4.68,6.53,8.08,8.73,2.08,1.34,4.43,2.67,6.88,2.34,1.61-.22,3.04-1.13,4.62-1.5,3.64-.86,7.57,1.22,11.13.06,4.1-1.33,5.78-6.21,9.15-8.89,1.98-1.57,4.57-2.4,6.18-4.35,1.79-2.18,1.94-5.29,1.43-8.06s-1.6-5.42-2-8.21c-.35-2.48-.15-5.01-.4-7.5-.25-2.49-1.04-5.08-2.93-6.72Z"/><g class="cls-10"><path class="cls-3" d="m51.61,11.11c-.93-.8-2.06-1.32-3.19-1.78-4.12-1.65-7.18-5.01-11.47-6.16-1.56-.42-4.2.04-6.14.49-1.56.37-3.16.52-4.76.51-3.1-.02-6.37.57-6.37.57-4.98,1.3-7.34,6.81-10.81,10.63-1.9,2.09-4.29,3.8-5.65,6.27-2.66,4.83-.54,10.97,2.73,15.42.89,1.21,1.87,2.39,2.43,3.78.55,1.39.65,2.93,1.09,4.36,1.18,3.87,4.68,6.53,8.08,8.73,2.08,1.34,4.43,2.67,6.88,2.34,1.61-.22,3.04-1.13,4.62-1.5,3.64-.86,7.57,1.22,11.13.06,4.1-1.33,5.78-6.21,9.15-8.89,1.98-1.57,4.57-2.4,6.18-4.35,1.79-2.18,1.94-5.29,1.43-8.06s-1.6-5.42-2-8.21c-.35-2.48-.15-5.01-.4-7.5-.25-2.49-1.04-5.08-2.93-6.72Z"/></g><circle class="cls-5" cx="30.59" cy="29.78" r="23.14"/><g class="cls-8"><path class="cls-3" d="m53.6,32.34c.02-.16.04-.32.05-.48,0-.03,0-.05,0-.07v-.04c.02-.17.03-.34.04-.5.01-.16.02-.32.03-.48.01-.24.02-.47.02-.71,0-.59,0-1.17-.05-1.76,0-.08,0-.16-.02-.24,0-.08-.01-.15-.02-.23-.02-.21-.03-.42-.06-.62-.13-1.18-.35-2.34-.65-3.48-.07-.27-.15-.53-.23-.8-.12-.38-.25-.76-.38-1.13-.11-.3-.22-.58-.34-.87-.14-.34-.29-.67-.44-1-.06-.13-.12-.26-.18-.39,0,0,0,0,0,0-.04-.1-.09-.19-.14-.28-.02-.04-.05-.09-.07-.13-.09-.19-.19-.37-.3-.56-.03-.06-.07-.13-.1-.19-.02-.04-.05-.09-.08-.13-.05-.09-.1-.17-.15-.25-.2-.35-.42-.7-.64-1.03l-.03-.05c-.19-.28-.38-.56-.58-.83-.06-.08-.12-.17-.18-.25-.05-.07-.09-.12-.14-.18h0c-.37-.49-.75-.95-1.15-1.39-.06-.07-.12-.14-.18-.2-.09-.09-.17-.19-.26-.28-.16-.17-.33-.34-.5-.51-.05-.05-.09-.09-.14-.14h0c-.08-.08-.16-.16-.25-.24,0,0,0,0,0,0-.67-.64-1.39-1.23-2.14-1.79.14.11.27.23.4.36.01,0,.02.01.03.03.14.13.28.25.42.39,0,0,0,0,0,0,.08.08.17.16.25.24h0s.09.09.14.14c.17.17.33.34.5.51.09.09.18.19.26.28.06.07.12.14.18.2.4.45.79.91,1.15,1.39h0c.05.07.09.12.14.19.26.35.52.71.77,1.08l.03.05s.06.09.08.13c.25.38.48.76.71,1.15.02.04.05.09.08.13.04.06.07.13.1.19.07.13.14.26.21.39.06.1.11.2.16.3.05.1.1.19.14.28,0,0,0,0,0,0,.1.2.19.39.28.59.12.26.23.51.34.78.15.35.28.69.4,1.05.11.32.22.64.32.96.08.27.16.54.23.81.04.14.07.27.11.41.3,1.2.5,2.43.6,3.69,0,.08.01.15.02.23,0,.06.01.13.01.19.03.38.04.77.05,1.15,0,.22,0,.43,0,.65,0,.39-.02.79-.05,1.19,0,.16-.02.32-.03.49h0c-.02.22-.04.42-.06.62,0,.09-.02.17-.03.26,0,.07-.02.14-.03.21-.02.13-.03.26-.05.39-.07.47-.15.94-.26,1.4-.06.26-.11.53-.18.79-.01.05-.02.1-.04.15-.11.44-.23.87-.37,1.29-.04.12-.08.25-.13.37-.68,2.03-1.64,3.92-2.82,5.64,0,.01-.01.02-.02.03-.17.25-.35.5-.53.74-.5.67-1.03,1.31-1.6,1.91-.57.61-1.17,1.19-1.8,1.74-.38.33-.78.65-1.18.96h0c-.84.64-1.73,1.22-2.65,1.74h0c-1.4.79-2.88,1.43-4.43,1.91h0c-.48.15-.96.28-1.45.4-.26.06-.51.12-.77.17-.39.08-.79.15-1.19.21-.85.13-1.71.21-2.58.24-1.24.05-2.49,0-3.76-.16-2.52-.31-4.9-1.02-7.08-2.06-.47-.22-.93-.46-1.38-.71-.36-.2-.72-.41-1.07-.63-.35-.22-.69-.45-1.02-.69-.15-.1-.29-.21-.44-.32.23.19.46.38.69.56.1.08.2.16.29.23.02.02.04.03.06.04.03.03.07.05.1.08.19.15.38.29.58.43.67.48,1.37.92,2.09,1.32.45.26.91.49,1.38.71,2.18,1.03,4.56,1.74,7.08,2.06,2.16.27,4.29.23,6.34-.08.13-.02.26-.04.39-.06.27-.04.53-.09.8-.15.25-.05.51-.11.77-.17,1.33-.32,2.62-.76,3.86-1.31,1.02-.45,2.01-.97,2.95-1.56,1.02-.63,1.98-1.35,2.89-2.13.36-.31.71-.63,1.05-.97.68-.66,1.31-1.36,1.91-2.1.16-.2.31-.39.46-.59.18-.24.36-.49.53-.74.28-.41.55-.83.8-1.26h0c1.05-1.76,1.87-3.68,2.43-5.72.02-.08.04-.16.06-.24.03-.09.05-.19.07-.28.04-.13.07-.27.1-.4.03-.13.06-.27.08-.4.02-.09.04-.18.06-.27.04-.2.08-.4.11-.6.03-.17.06-.33.08-.5.03-.2.06-.4.08-.6.01-.09.02-.17.03-.26Z"/></g><path class="cls-3" d="m49.97,17.2s-.04-.05-.12-.15c-.08-.11-.19-.25-.33-.44-.15-.2-.32-.44-.53-.72-.21-.28-.44-.62-.76-.95-.31-.34-.64-.72-1.02-1.14-.18-.22-.4-.41-.62-.61-.22-.2-.45-.42-.69-.64-.25-.21-.47-.47-.76-.67-.28-.21-.56-.43-.86-.65-.3-.22-.59-.47-.92-.67-.33-.2-.67-.41-1.02-.62-1.39-.87-3.05-1.58-4.86-2.2-.46-.12-.94-.25-1.42-.38-.24-.06-.48-.14-.73-.19-.25-.04-.5-.08-.75-.13-.51-.08-1.02-.19-1.54-.24-.53-.04-1.06-.08-1.6-.11l-.41-.03h-.41c-.27.02-.55.02-.83.03-.28,0-.56.01-.83.02-.28,0-.56.06-.84.09-.56.08-1.13.12-1.7.22-.56.13-1.13.25-1.71.38-2.27.61-4.53,1.57-6.65,2.89-2.09,1.37-3.91,3.02-5.41,4.83-.36.47-.71.93-1.06,1.39-.33.47-.61.97-.91,1.45-.14.24-.31.47-.43.73-.12.25-.25.5-.37.75-.12.25-.24.5-.36.74l-.18.37-.14.38c-.19.51-.38,1.01-.57,1.5-.17.5-.28,1.01-.43,1.5-.07.25-.13.49-.2.74-.06.25-.09.49-.13.74-.08.49-.17.97-.25,1.45-.19,1.91-.24,3.72-.03,5.34.05.41.09.8.14,1.19.05.39.15.75.22,1.11.08.36.15.71.23,1.05.06.34.2.65.29.97.1.31.2.61.29.9.09.29.17.57.3.82.22.51.43.98.61,1.4.17.43.38.78.55,1.09.17.31.31.57.43.78.11.2.2.36.26.48.06.11.09.17.08.17,0,0-.04-.05-.1-.16-.07-.12-.16-.27-.28-.47-.13-.21-.28-.47-.45-.77-.18-.31-.4-.65-.57-1.08-.19-.42-.4-.89-.63-1.4-.13-.25-.21-.53-.31-.82-.1-.29-.2-.59-.3-.9-.09-.31-.23-.63-.3-.97-.08-.34-.16-.69-.24-1.06-.07-.36-.18-.73-.23-1.12-.05-.39-.1-.79-.15-1.2-.22-1.64-.18-3.45,0-5.38.08-.48.16-.97.24-1.46.04-.25.08-.5.13-.75.07-.25.13-.49.2-.74.14-.5.25-1.01.43-1.51.19-.5.37-1,.57-1.51l.14-.38.18-.37c.12-.25.24-.5.37-.75.12-.25.25-.5.37-.76.12-.26.29-.49.43-.73.31-.48.59-.99.92-1.47.35-.46.71-.93,1.07-1.41,1.52-1.83,3.36-3.49,5.47-4.88,2.14-1.33,4.43-2.31,6.72-2.92.58-.13,1.16-.26,1.72-.38.57-.1,1.15-.15,1.72-.22.28-.03.56-.08.85-.09.28,0,.56-.01.84-.02.28,0,.56-.01.83-.02h.41s.41.02.41.02c.54.04,1.08.08,1.61.12.53.05,1.04.17,1.55.25.25.04.51.09.76.13.25.05.49.13.73.19.48.13.96.26,1.43.39,1.83.64,3.5,1.36,4.89,2.25.35.22.69.43,1.03.64.33.21.62.46.92.68.29.23.58.45.86.66.29.2.51.46.76.68.24.22.47.44.69.65.22.21.44.4.62.62.37.42.7.81,1,1.16.32.34.54.68.74.97.2.29.37.53.51.74.13.19.23.34.31.46.07.1.1.16.1.16Z"/><g class="cls-11"><path class="cls-3" d="m38.03,14.52c-.18-.62-1.08-1.14-1.83-.73-.51.32-.8.99-.61,1.57.19.57.85.96,1.43.79.62-.18,1.2-.98,1.01-1.63Z"/></g></g><g><g><path class="cls-3" d="m29.73,24.44c2.52,0,4.56,2,4.56,4.47s-2.04,4.47-4.56,4.47-4.56-2-4.56-4.47,2.04-4.47,4.56-4.47Z"/><path class="cls-12" d="m29.89,22.61c3.57,0,6.47,2.84,6.47,6.33s-2.9,6.33-6.47,6.33-6.47-2.84-6.47-6.33,2.9-6.33,6.47-6.33Z"/><path class="cls-1" d="m29.97,21.21c4.35,0,7.88,3.45,7.88,7.71s-3.53,7.71-7.88,7.71-7.88-3.45-7.88-7.71,3.53-7.71,7.88-7.71Z"/><path class="cls-6" d="m30.02,19.34c5.37,0,9.73,4.26,9.73,9.53s-4.36,9.53-9.73,9.53-9.73-4.26-9.73-9.53,4.36-9.53,9.73-9.53Z"/></g><circle class="cls-4" cx="29.73" cy="28.94" r="27.09" transform="translate(-11.76 29.5) rotate(-45)"/></g></g></g></g></svg>