<?xml version="1.0" encoding="UTF-8"?><svg id="Layer_1" xmlns="http://www.w3.org/2000/svg" viewBox="0 0 12.66 12.19"><defs><style>.cls-1{fill:#fff;}</style></defs><path class="cls-1" d="m.75,1.32c.05-.01,1.24-.24,1.89,1.06.04.09.09.17.13.26.29.61.69,1.42,1.43,1.98-1.21.74-1.97,2.05-1.97,3.48,0,2.25,1.83,4.09,4.09,4.09s4.09-1.83,4.09-4.09c0-1.43-.76-2.75-1.97-3.48.74-.56,1.12-1.37,1.43-1.98v-.03c.05-.08.09-.16.13-.24.64-1.27,1.77-1.09,1.89-1.07.16.03.34.01.48-.09.14-.09.24-.24.28-.4.03-.16.01-.34-.09-.48-.09-.14-.24-.24-.4-.28h0c-.76-.16-2.41-.01-3.3,1.73-.04.09-.09.18-.14.28-.47.95-.94,1.94-2.39,1.94s-1.94-.98-2.39-1.94v-.02c-.05-.09-.1-.18-.14-.26C2.91.03,1.26-.12.5.05.34.09.2.18.1.34.01.48-.02.65.01.81c.05.36.39.57.74.51Zm2.75,6.79c0-1.55,1.27-2.81,2.81-2.81s2.81,1.27,2.81,2.81-1.27,2.81-2.81,2.81-2.81-1.27-2.81-2.81Z"/></svg>