<?xml version="1.0" encoding="UTF-8"?><svg id="Layer_1" xmlns="http://www.w3.org/2000/svg" viewBox="0 0 38.43 38.26"><defs><style>.cls-1{fill:#fff;}.cls-2{opacity:.2;}.cls-3{opacity:.4;}.cls-4{opacity:.3;}.cls-5{opacity:.1;}.cls-6{fill:#375a64;}</style></defs><circle class="cls-6" cx="19.23" cy="19.2" r="19.06"/><g class="cls-4"><path d="m10.89,30.57c3.45,1.49,7.03,2.29,10.73,2.83,2.74.4,5.35.82,7.75,1.97-.51.32-1.03.61-1.56.88-2.74-.58-5.6-.76-8.33-1.1-3.77-.48-7.42-1.42-10.87-3.04-2.17-1.02-4.22-2.28-6.11-3.75-.86-1.57-1.5-3.27-1.89-5.07.34.38.69.76,1.05,1.12,2.65,2.62,5.81,4.68,9.23,6.16Z"/></g><g class="cls-5"><path d="m6.84,32.73c.4-.12,1.01.28.85.73-.05.14-.18.27-.35.26-.04,0-.08-.02-.11-.03-.01,0-.03,0-.04,0-.35.02-.6-.28-.63-.61-.01-.17.13-.32.28-.37Z"/></g><g class="cls-2"><path d="m24.44,31.59c2.31.51,4.41,1.67,6.58,2.61.87-.69,1.69-1.45,2.43-2.28.79-.88,1.5-1.83,2.11-2.85-.73-.2-1.44-.46-2.09-.83-1.33-.75-2.23-1.94-3.11-3.16-1.87-2.58-3.98-4.7-7.1-5.67-1.6-.5-3.39-.34-4.9-1.13-.81-.43-1.48-1.05-2.13-1.69.42.18.84.35,1.26.51,1.96.72,3.87.75,5.93.61,1.75-.12,3.28-.04,4.86.77,2.93,1.51,5.29,4.53,8.72,4.92.27.03.54.04.8.03.24-1.06.39-2.15.45-3.27-.16,0-.31-.02-.45-.05-1.73-.28-3.17-1.58-4.51-2.62-1.65-1.28-3.34-2.49-5.34-3.16-2.02-.67-4.05-.4-6.13-.39-2,.01-3.6-.79-5.39-1.57-1.59-.69-3.13-.97-4.8-1.37-3.03-.72-4.4-3.56-4.62-6.43-1.27,1.06-2.4,2.28-3.36,3.64.74,2.18,2.06,4.12,4.04,5.44.52.35,1.06.59,1.61.79.42.25.85.49,1.28.74,1.51.91,2.59,1.93,3.75,3.23,1.17,1.31,2.43,2.48,4.1,3.1,1.7.63,3.52.69,5.12,1.6,2.82,1.6,3.94,4.79,6.27,6.9.29.26-.31-.22,0,0-1.2-1.01-1.89-1.03-3.64-1.48-2.51-.66-5.57-.51-8.11-1.06-7.55-1.66-13.53-6.62-17.32-13.07-.35,1.35-.55,2.76-.6,4.21.54.84,1.12,1.67,1.76,2.47,2.59,3.23,5.14,6.46,8.91,8.16,1.91.86,4.13,1.67,6.18,2.1,2.22.46,5.21-.25,7.42.24Zm-13.69-4.44c-.88.11-1.81-.75-2.44-1.28-.86-.72-1.43-1.61-2.15-2.45-.23-.27.06-.64.37-.49.9.43,1.5,1.21,2.24,1.86.67.58,1.86,1.05,2.27,1.85.13.25-.04.48-.29.51Zm-.19-14.5c-.03.06-.09.1-.16.1-.02,0-.05,0-.07-.02-.22-.11-.43-.24-.64-.37-.26-.16-.52-.34-.77-.53-.49-.38-.95-.81-1.34-1.29-.2-.24-.38-.49-.55-.76-.16-.25-.35-.58-.51-.94-.03-.07-.06-.15-.09-.22-.06-.15-.11-.3-.16-.45-.07-.23-.11-.46-.12-.68-.02-.37.06-.7.29-.96.01-.02.04-.02.06-.02.02,0,.04,0,.06.02.32.34.29.61.39,1.07.04.17.09.35.14.52.11.34.25.67.42.99.08.16.17.31.27.47.71,1.14,1.75,2.01,2.75,2.9.06.06.06.13.03.18Zm11.26,8.98s-.05,0-.08,0c-1.81-.4-3.71-1.18-5.17-2.34-1.59-1.26-2.64-3.12-4.45-4.12-.02-.01-.04-.03-.05-.05-.08-.11,0-.29.12-.3.02,0,.05,0,.07.01.2.08.4.17.58.27.37.2.71.43,1.02.68.32.25.61.53.9.82.14.14.29.29.43.44.29.3.57.61.87.92.62.64,1.31,1.13,2.03,1.53.96.54,1.98.95,3.03,1.4.26.11.52.23.78.35.2.09.1.36-.08.39Zm4.47,9.44c-1.65-.36-3.34-.48-5.02-.61-2.92-.23-6.37-.35-8.71-2.34-.31-.26.02-.78.39-.67,1.64.5,3.24,1.06,4.95,1.33,1.8.28,3.62.34,5.43.52,2.53.25,6.33.59,7.94,2.85.19.27-.13.62-.42.54-1.56-.41-2.95-1.26-4.56-1.62Z"/></g><g class="cls-4"><path d="m34.7,15.46c.51.59.9,1.29,1.48,1.82-.01-.01.83.45.8.68,0,.02,0,.03,0,.05-.02.23-.19.36-.42.32-1.04-.18-1.95-1.09-2.71-1.76-.55-.48-1.1-.9-1.76-1.24-.7-.36-1.42-.51-2.02-1.02-.46-.39-.06-1.08.46-1.11,1.54-.09,3.22,1.15,4.17,2.26Z"/></g><g class="cls-4"><path d="m11.74,21.22c.44.52.03,1.31-.67,1.15-3.22-.73-5.48-2.79-7.41-5.42-.82-1.11-1.71-2.47-2.47-3.92.63-1.35.77-2.16,1.55-3.41.96,1.58,1.09,3.73,2.06,5.2,1.71,2.59,4.95,4.03,6.94,6.4Z"/></g><g class="cls-4"><path d="m9.79,34.22c2.52.76,5.06,1.31,7.64,1.82,1.97.38,4.04.57,5.65,1.71-1.07.36-2.14.19-3.28.36-.03,0-.06-.06-.09-.07-1.32-.22-2.69.09-3.99-.19-2.29-.5-4.58-1.35-6.25-3.07-.22-.23,0-.65.32-.56Z"/></g><g class="cls-4"><path d="m29.78,22.1c-.22-.62.51-.98,1-.76,1.44.64,2.39,2.19,3.67,3.1.78.55,1.71,1.04,2.69,1.35-.19.52-.41,1.04-.65,1.54-.82-.16-1.63-.51-2.4-.96-1.6-.93-3.68-2.48-4.31-4.27Z"/></g><g class="cls-5"><path d="m32.62,7.63c-1.72.19-3.12-.35-4.74-.84-1.57-.48-3.31-.5-4.78-1.26-1.56-.81-3.84-3.13-2.81-4.79,0-.02.4-.5.41-.52,3.18.16,5.12,1.04,7.07,1.93,2.63,1.2,4.94,3.36,6.45,5.26-.31,0-.55.06-.87,0-.23.1-.47.18-.73.21Z"/></g><g class="cls-5"><path d="m37.31,15.09c.19.02.37.03.54.03-.23-1.06-.55-2.09-.95-3.07-.7-.3-1.39-.82-2-1.18-.75-.43-1.49-.87-2.27-1.24-1.38-.66-2.86-1.15-4.4-1.2-.82-.03-1.62.11-2.43.24-.07-.02-.15-.03-.22-.05-1.69-.47-3.36-1.48-4.57-2.76-1.2-1.26-2.27-2.8-2.86-4.44-.13-.37-.23-.78-.34-1.2-.33.02-.67.06-1,.1.17.11.29.27.34.48.23,1.06.85,2.11.7,3.21-.03.23-.33.46-.56.43-1.71-.21-2.08-2.23-1.85-3.64.02-.11.05-.2.1-.28-.41.08-.81.17-1.2.28.04,2.25,1.02,4.4,2.58,6.08-1.05-.52-2.04-1.1-2.89-1.72-1.38-1-1.63-2-1.12-3.55.04-.13.08-.27.11-.4-.59.2-1.17.44-1.73.7.25.6.37,1.3.58,1.94.07.21.15.42.24.62.55,1.12,1.26,1.92,2.12,2.81.24.25.05.59-.23.63-.04,0-.08,0-.13,0-.38-.07-.76-.2-1.12-.38-.18-.09-.35-.19-.52-.31-.51-.34-.97-.77-1.35-1.25-.13-.16-.24-.32-.35-.49-.11-.17-.2-.34-.28-.51-.02-.05-.05-.11-.08-.18-.03-.07-.06-.14-.09-.22-.19-.47-.39-1.15-.46-1.79-.43.26-.86.53-1.27.82.08.43.21.85.38,1.24.79,1.84,2.36,3.23,4.08,4.19,3.45,1.93,8.27,3.67,12.26,3.01,1.06-.18,2.09-.57,3.18-.55,1.16.01,2.3.43,3.33.91,1.84.85,3.7,2.43,5.75,2.69ZM19.36,5.97c0,.05-.01.1-.03.14-.04.08-.1.14-.18.18-.04.02-.09.03-.13.03-.16.02-.29-.06-.43-.12-.19-.08-.3-.19-.43-.36-.09-.12-.19-.25-.23-.4-.04-.14-.05-.29-.07-.43-.02-.13.06-.24.17-.3.08-.04.18-.06.27-.04.03,0,.06.02.08.04.05.03.1.06.15.09.05.03.1.06.16.09.03.02.05.05.08.07.08.07.15.15.23.23.18.19.37.51.36.78Zm2.43,2.13c0,.14-.07.26-.23.32-.08.03-.19.04-.3.04-.11,0-.23-.03-.34-.07-.23-.07-.45-.19-.57-.29-.08-.07-.15-.15-.23-.22-.23-.22-.44-.46-.62-.71-.1-.14-.08-.27,0-.37.07-.1.2-.17.34-.17.09,0,.18.02.26.09.28.23.58.4.89.57.15.08.25.2.38.3.04.03.08.06.11.08.04.03.07.05.11.08.07.05.13.12.17.21.02.05.03.1.04.15Zm14.92,5.27s-.04.08-.09.11c-.22.13-.44.2-.66.22-.14.02-.28.01-.42,0-.76-.11-1.47-.7-2.14-1.17-.21-.14-.42-.29-.63-.43-.42-.28-.85-.54-1.29-.78-.22-.12-.44-.23-.67-.33-.62-.28-1.27-.5-1.96-.6-.23-.04-.46-.06-.7-.07-.17,0-.34,0-.52,0-1.2,0-2.4.18-3.61.26-.25.02-.5.03-.74.03-.25,0-.5,0-.75-.01-.62-.03-1.24-.09-1.85-.2-.61-.11-1.2-.26-1.78-.48-.38-.14-.76-.32-1.13-.52-.04-.02-.06-.05-.09-.08-.05-.06-.07-.13-.07-.21,0-.08.02-.15.05-.22.04-.06.09-.11.17-.14.04-.01.08-.01.12,0,.54.06,1.08.15,1.61.23.29.05.58.09.87.14.87.13,1.74.25,2.62.27,1.28.03,2.55-.18,3.82-.25.21-.01.42-.02.64-.02.21,0,.42,0,.64.01.15,0,.3.03.45.05.15.02.3.03.45.05.76.13,1.48.37,2.18.69.23.11.46.23.68.36.43.25.88.61,1.35.99.84.69,1.73,1.45,2.65,1.7.2.06.41.09.61.09.05,0,.1.02.13.05.07.06.1.16.07.24Z"/></g><path d="m10.6,17.75s0,0,.01,0c.02,0,.02,0-.01,0Z"/><g class="cls-5"><path d="m15.42,24.2c.08-.46.33-.87.65-1.2.22-.22.52-.39.82-.43h-.05s.03,0,.05,0c.14-.02.28,0,.4.06.78.13,1.64.4,2.1.98.37.47.6,1.14.3,1.65-.3.52-.98.64-1.57.71-.83.1-1.8.15-2.36-.47-.31-.34-.42-.84-.34-1.3Z"/></g><g class="cls-3"><path d="m1.3,12.32s0,0,0,0c.8-2.03,1.95-3.91,3.37-5.56h0c.06-.07.12-.14.19-.21,0,0,0,0,0,0,.51-.57,1.05-1.1,1.63-1.61-.22.22-.44.45-.65.69,0,0,0,0,0,0-.06.07-.12.14-.19.21h0c-1.42,1.65-2.57,3.54-3.37,5.56,0,0,0,0,0,0-3.36,8.2-.02,18.37,7.54,22.99h0c.73.47,1.5.88,2.29,1.24h0c6.63,3.12,15.07,1.85,20.47-3.06-7.8,8.37-22.62,7.23-29.04-2.25h0c-1.51-2.09-2.61-4.6-3.14-7.16-.76-3.6-.45-7.41.89-10.83Z"/></g><path class="cls-1" d="m26.79,36.57s.04-.03.13-.08c.1-.06.23-.13.38-.21.36-.19.86-.46,1.5-.79h.04s-.07.02-.06.04l.03-.05c.07-.04.16-.09.24-.15h.02s.02,0,.02,0h0s-.04,0-.04,0c1.3-.82,3.13-2.15,4.85-4.28l.1-.04s-.14.05-.12.1l.03-.06c1.52-1.88,2.96-4.44,3.69-7.53.74-3.07.74-6.67-.38-10.16l.14.11h0s-.1-.01-.1-.01l-.04-.11c-.14-.38-.28-.77-.43-1.17-.15-.4-.27-.82-.49-1.19-.24-.47-.47-.93-.71-1.39-.27-.44-.57-.86-.85-1.28-.26-.44-.6-.81-.93-1.19-.34-.37-.62-.79-1-1.11-.36-.34-.72-.67-1.07-1-.36-.32-.76-.59-1.14-.88l-.57-.43c-.19-.14-.4-.25-.6-.37-.4-.24-.79-.48-1.18-.71C25.04.92,21.74.25,19,.24c-2.76-.01-4.94.58-6.39,1.1-.73.26-1.25.56-1.63.71-.17.07-.31.14-.43.19-.1.04-.15.06-.15.05s.04-.03.13-.08c.11-.06.24-.13.41-.22.37-.17.89-.49,1.61-.77C14.01.65,16.21.02,19,0c2.78-.02,6.13.64,9.4,2.34.4.24.8.48,1.2.72.2.12.41.24.61.37l.58.43c.38.3.79.57,1.16.89.36.34.72.68,1.09,1.02.39.32.67.75,1.02,1.12.33.39.68.77.95,1.22.29.43.59.86.87,1.31.24.47.48.94.72,1.42.22.39.35.81.5,1.22.15.41.29.81.43,1.2l-.14-.12h0s.11.01.11.01l.03.1c1.14,3.55,1.13,7.22.36,10.33-.75,3.14-2.23,5.72-3.8,7.61l.03-.06s-.1.13-.13.11l.1-.04c-1.77,2.14-3.63,3.45-4.97,4.25h-.02s-.02,0-.02,0h0s.04,0,.04,0c-.09.05-.17.1-.25.14l.03-.05s-.05.07-.07.06h.04c-.65.31-1.16.55-1.54.74-.16.07-.29.13-.4.18-.09.04-.14.06-.14.05Z"/></svg>