<?xml version="1.0" encoding="UTF-8"?><svg xmlns="http://www.w3.org/2000/svg" viewBox="0 0 33.77 33.77"><defs><style>.cls-1{fill:#fff;}.cls-2{mix-blend-mode:multiply;opacity:.2;}.cls-3{isolation:isolate;}.cls-4{opacity:.3;}.cls-5{fill:#375a64;}</style></defs><g class="cls-3"><g id="Layer_1"><g><g><circle class="cls-5" cx="16.87" cy="16.87" r="16.87" transform="translate(-3.58 4.57) rotate(-13.97)"/><g class="cls-4"><path d="m15.43.02c.07.33.13.62.19.84-.84.14-1.77.34-2.28,1.03-.51.69-.42,1.65-.63,2.49-.06.25-.17.51-.41.62-.19.09-.42.05-.63,0-1.22-.27-2.63-.67-3.62.1-.57.45-.94,1.25-1.66,1.34-.76.09-1.31-.69-1.54-1.43C7.72,2.1,11.49.37,15.43.02Z"/></g><g class="cls-4"><path d="m8.61,8.51s-.08,0-.11-.03c-1.52-.76.61-3.39,1.87-3.16.78.14.96.99.56,1.6-.51.77-1.58.85-2.19,1.5-.04.04-.07.08-.13.09Z"/></g><g class="cls-4"><path d="m4.41,10.84c-.21.07-.43-.1-.57-.28-.47-.62-.5-1.54-.07-2.18.74-1.12,2.84-1.23,3.12.33.1.56-.21,1.19-.75,1.37-.3.1-.62.07-.91.18-.24.09-.42.28-.62.44-.06.05-.12.1-.2.13Z"/></g><g class="cls-4"><path d="m4.41,15.7c-.23.01-.45-.2-.66-.11-.18.08-.25.35-.45.37-.18.02-.29-.18-.34-.35-.15-.55-.07-1.17.21-1.67.05-.09.11-.17.19-.23.24-.17.69-.18.69-.18.31.01.58.25.71.53.13.28.14.6.12.91-.02.32-.15.72-.47.73Z"/></g><g class="cls-4"><path d="m6.43,13.24c.9-.71,2.28.09,2.84.86.44.6.76,2.42-.55,2.25-.44-.05-.85-.32-1.09-.69-.17-.26-.25-.59-.49-.79-.02-.02-.04-.03-.06-.05-.26-.18-.61-.23-.82-.47-.28-.31-.17-.86.16-1.12Z"/></g><g class="cls-4"><path d="m6.63,16.07c0,.15-.03.31-.15.41-.09.08-.22.09-.34.07-.35-.05-.6-.45-.51-.79.08-.28.38-.47.67-.45.2.2.32.48.33.76Z"/></g><g class="cls-4"><path d="m6.48,15.34c-.06-.02-.12-.03-.18-.04-.02-.02-.04-.05-.06-.07l.24.1Z"/></g><g class="cls-4"><path d="m1.81,11.34c.16.36.27.77.14,1.14-.1.3-.34.54-.49.83-.47.94.16,2.26-.54,3.05-.23.26-.56.4-.9.48,0-2.12.39-4.25,1.21-6.29.24.22.43.5.57.79Z"/></g><g class="cls-4"><path d="m1.21,23c-.57-1.44-.94-2.95-1.09-4.5.87-.76,1.64-1.43,2.97-1.21.71.12,1.41.63,1.51,1.35.05.36-.05.72-.14,1.06-.1.37-.21.75-.31,1.12-.04.15-.09.31-.2.42-.33.35-.91.04-1.39.09-.36.04-.66.29-.86.59-.2.3-.31.64-.45.97-.01.03-.03.07-.05.1Z"/></g><g class="cls-4"><path d="m6.43,21.57c-.09-.22-.04-.46-.07-.69-.03-.33-.2-.62-.3-.93s-.11-.69.11-.93c.07-.07.16-.13.26-.13.11,0,.2.07.29.14.49.43.81,1.02,1.11,1.6l-.16-.19c.13.2.21.42.21.66,0,.36-.22.72-.56.84s-.76-.03-.9-.37Z"/></g><g class="cls-4"><path d="m24.04,5.7c-.09-.07-.19-.15-.3-.17-.33-.07-.58.31-.9.42-.33.11-.71-.09-.89-.39-.91-1.48,1.26-2.49,2.44-1.9,1.2.6,1.51,3.43-.35,2.04Z"/></g><g class="cls-4"><path d="m22.02,13.95c-.17-.54-.27-1.1-.31-1.67-.03-.46-.01-.94.22-1.33.39-.67,1.26-.87,2.03-.92.67-.04,1.37-.01,1.94.34.37.23.65.57.97.86.53.49,1.16.85,1.7,1.33.37.34.7.76.86,1.22.72,1.13,1.06,2.5.92,3.84-.06.58-.23,1.19-.69,1.55-.84.68-2.17.19-3.1.73-.82.48-1.13,1.64-2.04,1.92-.88.27-1.73-.45-2.31-1.16-.82-.99-1.57-2.31-1.11-3.51.31-.8,1.12-1.42,1.12-2.28,0-.31-.11-.61-.2-.91Z"/></g><g class="cls-4"><path d="m30.18,11.87c-.41-.26-.81-.53-1.22-.79-.12-.08-.24-.16-.31-.28-.16-.28.03-.66.33-.77.3-.11.65.01.89.22.24.21.4.5.56.78l-.29-.35c.24.34.26.83.04,1.19Z"/></g><g class="cls-4"><path d="m31.75,14.91c-.07.25-.37.45-.59.32-.12-.07-.18-.22-.23-.35-.13-.35-.26-.69-.39-1.04-.04-.11-.08-.23-.05-.34.05-.15.23-.22.38-.19.15.03.28.14.37.26.28.34.38.79.47,1.22l-.08-.64c.09.24.18.51.11.76Z"/></g><g class="cls-4"><path d="m8.82,11.46c-.5-.3-.03-1.09.47-.78.5.3.03,1.09-.47.78Z"/></g><g class="cls-4"><path d="m10.35,8.78c.65.39.04,1.4-.61,1.01-.65-.39-.04-1.4.61-1.01Z"/></g><g class="cls-4"><path d="m10.73,13.66c-.55-1.06-.69-2.28.26-3.24.53-.54,1.39-.8,1.9-.1.51.71.2,1.57-.15,2.25-.3.58-.15.84-.02,1.43.08.34.14.71.03,1.05-.2.63-.93,1.01-1.5.56-.5-.4-.52-1.24-.53-1.94Z"/></g><g class="cls-4"><path d="m7.01,17.08c.41.06.95.18,1.31.47.05.03.09.06.14.09.38.27.72.78.46,1.25-.23.42-.76.52-1.15.28-.2-.12-.31-.3-.44-.48-.18-.22-.38-.41-.61-.57-.42-.28-.3-1.13.3-1.05Z"/></g><g class="cls-4"><path d="m9.54,17.67c-.08-.08-.14-.18-.16-.29-.09-.31.29-.61.58-.43.19.12.31.34.22.56-.11.28-.42.37-.65.16Z"/></g><g class="cls-4"><path d="m19.29,16.07c-.81-.26-.87-1.15-.96-1.85-.09-.7-.28-1.52.35-2.03.61-.49,1.47-.17,1.87.42.39.59.51,1.44.33,2.13-.03.13-.09.24-.16.34-.01.07-.03.13-.05.2-.2.57-.77,1-1.38.8Z"/></g><g class="cls-4"><path d="m19.05,17.94c-.02-.06-.03-.12-.03-.19,0-.02,0-.03,0-.04-.08-.21,0-.44.16-.63.18-.21.58-.19.75.02.26.32.37.79.03,1.11-.32.3-.79.12-.92-.27Z"/></g><g class="cls-4"><path d="m17.44,18.07c-.59-.07-.78-.6-.97-1.08-.2-.5-.47-1.01-.57-1.54-.08-.44,0-.93.39-1.2.37-.25.84-.1,1.08.25.28.42.27.97.37,1.45.01.07.03.14.05.21,0,0,.02,0,.02.02.57.5.79,2.02-.36,1.89Z"/></g><g class="cls-4"><path d="m33.59,14.38c-.76-.29-1.45-.77-1.84-1.52-.47-.9-.7-2.41-.19-3.36-.02-.28.02-.55.13-.78.96,1.76,1.61,3.68,1.9,5.66Z"/></g><g class="cls-4"><path d="m27.03,24.56s-.06-.02-.09-.03c-.38.44-.97.75-1.51.71-.18.18-.49.24-.68,0-.2-.23-.28-.48-.27-.73-.09-.28-.06-.59.07-.87.24-.52.68-.69,1.12-.99.01,0,.02-.02.03-.02.19-.21.38-.42.54-.66.09-.14.17-.28.28-.4.37-.35,1.02-.22,1.37.15.05.05.09.1.13.15.23.06.29.35.3.61.07.21.12.42.16.63l-.17-.43c0,.41-.03.82-.21,1.19-.19.41-.62.74-1.06.67Z"/></g><g class="cls-4"><path d="m21.77,8.3c.55.02.8.63.51,1.06-.12.18-.32.3-.51.41-.05.03-.1.06-.15.09-.02.04-.04.08-.05.1-.08.19-.17.36-.33.49-.35.29-1.04.11-.99-.43.03-.33.16-.62.39-.86.01-.02.03-.03.04-.05.18-.46.56-.83,1.09-.81Z"/></g><g class="cls-4"><path d="m23.26,28.42c.18-.84,1.17-.87,1.79-1.21.67-.37.77-1.39,1.63-1.44.63-.04.97.55.88,1.11-.1.63-.47,1.2-.98,1.66-.59.82-1.44,1.43-2.42,1.19-.56-.14-1.03-.71-.91-1.31Z"/></g><g class="cls-4"><path d="m28.74,24.2c.21-.31.78-.3.86.13.06.35.07.71-.04,1.06-.1.32-.37.72-.74.71-.03,0-.05,0-.08-.01-.18.05-.38.04-.55-.03-.43-.19-.6-.68-.42-1.1.08-.2.23-.37.43-.47.19-.09.41-.09.54-.28Z"/></g><g class="cls-4"><path d="m28.95,22.54c0-.17.07-.28.2-.37.13-.08.27-.02.38.06.13.11.13.25.1.41-.03.17-.23.27-.38.25-.18-.03-.29-.17-.3-.35Z"/></g><g class="cls-4"><path d="m30.6,26.15c.61-1.18.42-2.08.19-3.31-.12-.67-.18-1.35.11-1.99.48-1.06,1.61-1.47,2.71-1.69-.3,2.19-1.04,4.35-2.25,6.36-.25.41-.51.81-.79,1.19-.06-.18-.06-.37.03-.56Z"/></g><g class="cls-4"><path d="m32.23,18.55c-.33.13-.71.08-.9-.26,0,0,0-.02-.01-.03-.06-.06-.11-.13-.13-.2-.12-.31.01-.6.28-.78.14-.09.28-.16.44-.2.56-.25,1.28-.52,1.87-.47,0,.55-.01,1.1-.06,1.65-.51,0-1.01.09-1.48.3Z"/></g><g class="cls-4"><path d="m32.37,15.04c.13-.24.52-.31.66-.02.02.05.04.1.06.15,0,.01.02.02.03.04.06.12.07.25.03.36-.01.11-.05.21-.12.31-.03.04-.06.07-.1.1-.02.02-.03.04-.05.06-.13.11-.35.13-.46-.01-.16-.19-.29-.39-.24-.64.03-.14.1-.26.2-.34Z"/></g><g class="cls-4"><path d="m30.52,20.25c-.12.13-.23.21-.4.24-.27.53-.92.97-1.37.49-.26-.29-.12-.68.15-.89.31-.24.77-.35,1.14-.5.42-.17.83.31.49.67Z"/></g><g class="cls-4"><path d="m4.12,11.56c.21-.35.58-.41.95-.39.38.03.73,0,1.08-.16.43-.21.85.24.63.66-.22.42-.65.69-1.1.78-.37.07-.85.11-1.14-.17-.09-.03-.18-.08-.27-.14-.19-.13-.27-.38-.15-.58Z"/></g><g class="cls-4"><path d="m3.36,7.8c-.3.31-.68.55-1.09.63.06-.1.11-.2.17-.3.5-.84,1.07-1.61,1.69-2.32,0,.02.02.03.02.05.19.72-.31,1.44-.79,1.94Z"/></g><g class="cls-4"><path d="m7.99,25.98c-.11-.6.53-1.03,1.04-1.17.74-.2,1.42-.02,2.1-.46.53-.34,1.08-.82,1.76-.76.48.04.92.37,1.01.85.09.45-.09.84-.4,1.18-.13.41-.38.79-.75,1.08-.78.62-1.84.68-2.72.31-.85.12-1.88-.16-2.04-1.04Z"/></g><g class="cls-4"><path d="m10.24,23.95c-.18-.19-.18-.52-.05-.74.17-.27.55-.45.85-.35.13,0,.26.03.38.16.39.42-.04,1.01-.5,1.1-.23.04-.52,0-.68-.17Z"/></g><g class="cls-4"><path d="m14.04,26.9c-.14-.03-.28-.17-.3-.31-.05-.36.04-.67.3-.93.24-.25.64-.09.73.21.18.17.22.44.11.67-.16.31-.5.44-.84.36Z"/></g><g class="cls-2"><path d="m12.01.75c-2.05,1.35-3.83,3.16-5.18,5.4-4.8,7.98-2.22,18.35,5.76,23.15,4.25,2.56,9.18,3.02,13.59,1.69-5.25,3.45-12.23,3.82-17.98.36C.23,26.55-2.35,16.18,2.45,8.2,4.69,4.47,8.15,1.92,12.01.75Z"/></g></g><path class="cls-1" d="m27.83,29.42h0s.3-.36.84-1.02c.53-.66,1.26-1.64,1.96-2.98.7-1.34,1.37-3.04,1.73-5.03.35-1.99.39-4.27-.11-6.59l.15.15h0s-.12-.03-.12-.03l-.03-.13c-.09-.4-.19-.81-.29-1.22-.11-.41-.27-.82-.4-1.23-.94-2.5-2.46-4.63-4.17-6.2-1.7-1.59-3.52-2.68-5.13-3.38-1.61-.7-3.01-1.04-3.98-1.24-.97-.16-1.52-.24-1.51-.27,0-.01.14-.01.4,0,.26.02.65.04,1.14.11.98.15,2.41.45,4.06,1.13,1.65.68,3.52,1.77,5.27,3.37,1.76,1.58,3.33,3.76,4.29,6.33.14.43.3.84.41,1.27.1.43.2.85.29,1.25l-.15-.16h0s.13.03.13.03l.03.13c.51,2.38.45,4.71.07,6.73-.38,2.03-1.09,3.75-1.84,5.09-.75,1.34-1.52,2.31-2.09,2.94-.29.31-.52.55-.68.7-.16.15-.25.23-.26.22,0,0,0,0,0,0Z"/></g></g></g></svg>